<svg id="6504e6f9-0293-4dab-bd8a-d9c331841e46" data-name="圖層 1" xmlns="http://www.w3.org/2000/svg" viewBox="0 0 525.1 276.86"><defs><style>.\36 4ec65fd-ad3a-470c-ab93-b045cf06c1ae{fill:#73c7a6;}.\30 18d4327-1f56-4436-83b3-0ecf08b662cd{fill:#ff7300;}.\31 3cc1bcc-3e94-46bd-86fb-34fcb2749c1d{fill:#009eb8;}</style></defs><title>UVW-logo</title><path class="64ec65fd-ad3a-470c-ab93-b045cf06c1ae" d="M247.07,387.7a26.55,26.55,0,0,1-1.53-2.47,29,29,0,0,1-1.54-2.47c-.55-.8-1.06-1.63-1.53-2.47a496.51,496.51,0,0,0-3.06-4.94c-.55-.8-1.06-1.63-1.53-2.47s-1.06-1.63-1.53-2.47-1.06-1.63-1.53-2.47a28.86,28.86,0,0,1-1.53-2.47,496.51,496.51,0,0,0-3.06-4.94c-.55-.8-1.06-1.62-1.53-2.47s-1-1.62-1.53-2.47-1.06-1.62-1.53-2.46-1.06-1.63-1.53-2.48a26,26,0,0,1-1.52-2.47,27.33,27.33,0,0,1-1.54-2.46c-.55-.81-1.06-1.63-1.53-2.47a28.86,28.86,0,0,1-1.53-2.47c-.55-.8-1.06-1.63-1.53-2.47s-1.06-1.62-1.53-2.47-1.06-1.62-1.53-2.47-1.06-1.63-1.53-2.47-1.06-1.63-1.53-2.47a28.86,28.86,0,0,1-1.53-2.47c-.55-.8-1.06-1.62-1.53-2.47s-1.06-1.63-1.53-2.47-1.06-1.62-1.53-2.47a28.86,28.86,0,0,1-1.53-2.47c-.55-.8-1.06-1.62-1.53-2.47a27.38,27.38,0,0,1-1.53-2.47,28.27,28.27,0,0,1-1.53-2.47c-.55-.8-1.06-1.63-1.53-2.47a28.7,28.7,0,0,1-1.53-2.46c-.55-.81-1.06-1.63-1.53-2.48s-1.06-1.62-1.53-2.46a29,29,0,0,1-1.53-2.48,26.75,26.75,0,0,1-5-15.36c0-17.17,17-31.1,38.19-31.46-10.27-.18-20.6,2.87-28.44,9.19-8.12,6.54-11.87,15.26-11.34,23.83a27.24,27.24,0,0,0,0,3.13,27.24,27.24,0,0,0,0,3.13,27.24,27.24,0,0,0,0,3.13,27.41,27.41,0,0,0,0,3.14,27.24,27.24,0,0,0,0,3.13,27.24,27.24,0,0,0,0,3.13,27.06,27.06,0,0,0,0,3.12,27.41,27.41,0,0,0,0,3.14,27.24,27.24,0,0,0,0,3.13,27.24,27.24,0,0,0,0,3.13,27.24,27.24,0,0,0,0,3.13,27.24,27.24,0,0,0,0,3.13,27.24,27.24,0,0,0,0,3.13,27.24,27.24,0,0,0,0,3.13,27.24,27.24,0,0,0,0,3.13,27.24,27.24,0,0,0,0,3.13,27.24,27.24,0,0,0,0,3.13,27.24,27.24,0,0,0,0,3.13,27.24,27.24,0,0,0,0,3.13,27.24,27.24,0,0,0,0,3.13,24,24,0,0,0,0,2.81c-.05.58-.09,1.17-.1,1.75s-.1.93-.14,1.39-.2,1-.28,1.55-.25.91-.35,1.37-.3,1-.44,1.47-.4.89-.57,1.34-.41.94-.61,1.41-.53.87-.76,1.32-.51.88-.77,1.31-.62.82-.9,1.23-.65.84-1,1.26-.7.74-1,1.12-.76.79-1.14,1.19-.75.65-1.11,1c-.13.11-.28.2-.42.3-.31.25-.57.52-.86.78s-.84.58-1.24.9-1,.63-1.42,1-.94.54-1.39.82-1,.55-1.53.84-1,.47-1.53.73-1.07.44-1.6.67-1.1.4-1.64.62l-1.65.51c-.59.15-1.16.33-1.74.5s-1.12.21-1.68.34-1.22.24-1.82.36-1.29.13-1.93.23-1.14.11-1.72.17-1.35,0-2,.08h-1.74c-.68,0-1.36-.06-2-.08s-1.13-.13-1.7-.17-1.28-.15-1.93-.23-1.21-.26-1.83-.36-1.12-.23-1.69-.34-1.15-.35-1.73-.5l-1.65-.51c-.54-.22-1.09-.42-1.64-.62s-1.06-.46-1.6-.67-1-.5-1.53-.73-1-.57-1.52-.84-.93-.55-1.4-.82-.94-.66-1.42-1-.82-.61-1.23-.9-.56-.53-.87-.78c-.14-.11-.29-.19-.42-.3-.36-.34-.74-.67-1.12-1s-.73-.8-1.13-1.19-.68-.75-1-1.12-.61-.84-1-1.26-.59-.82-.9-1.23-.48-.88-.77-1.31-.5-.88-.76-1.31-.38-1-.61-1.42-.38-.89-.56-1.33-.28-1-.45-1.48-.23-.91-.36-1.37-.16-1-.27-1.55-.07-.92-.14-1.39,0-1.17-.1-1.75a23.93,23.93,0,0,0,0-2.81,23.35,23.35,0,0,0,0-3.13,23.35,23.35,0,0,0,0-3.13,23.35,23.35,0,0,0,0-3.13,23.35,23.35,0,0,0,0-3.13,23.35,23.35,0,0,0,0-3.13,23.35,23.35,0,0,0,0-3.13,23.35,23.35,0,0,0,0-3.13,23.35,23.35,0,0,0,0-3.13,23.35,23.35,0,0,0,0-3.13,23.5,23.5,0,0,0,0-3.14,23.2,23.2,0,0,0,0-3.12,23.5,23.5,0,0,0,0-3.14,23.35,23.35,0,0,0,0-3.13,23.35,23.35,0,0,0,0-3.13,23.35,23.35,0,0,0,0-3.13,23.35,23.35,0,0,0,0-3.13,23.35,23.35,0,0,0,0-3.13,23.35,23.35,0,0,0,0-3.13,23.35,23.35,0,0,0,0-3.13,23.35,23.35,0,0,0,0-3.13c.53-8.57-3.23-17.29-11.33-23.84-15.25-12.3-40-12.3-55.21,0C40.72,265.23,37,274,37.5,282.52a27.24,27.24,0,0,0,0,3.13,27.24,27.24,0,0,0,0,3.13,27.24,27.24,0,0,0,0,3.13,27.24,27.24,0,0,0,0,3.13,27.24,27.24,0,0,0,0,3.13,27.24,27.24,0,0,0,0,3.13,27.24,27.24,0,0,0,0,3.13,27.24,27.24,0,0,0,0,3.13,27.41,27.41,0,0,0,0,3.14,27.06,27.06,0,0,0,0,3.12,27.41,27.41,0,0,0,0,3.14,27.24,27.24,0,0,0,0,3.13,27.24,27.24,0,0,0,0,3.13,27.24,27.24,0,0,0,0,3.13,27.24,27.24,0,0,0,0,3.13,27.24,27.24,0,0,0,0,3.13,27.24,27.24,0,0,0,0,3.13,27.24,27.24,0,0,0,0,3.13,27.24,27.24,0,0,0,0,3.13,27.24,27.24,0,0,0,0,3.13,26.29,26.29,0,0,0,0,3.55,68.5,68.5,0,0,0,.76,9.8,25.49,25.49,0,0,0,.86,4.79,26.12,26.12,0,0,0,1.19,4.88,26.85,26.85,0,0,0,1.5,4.63,27.68,27.68,0,0,0,1.78,4.64,27.49,27.49,0,0,0,2.1,4.43A28.54,28.54,0,0,0,48,386.21a30.13,30.13,0,0,0,2.67,4.22,30,30,0,0,0,2.87,4.13,32.68,32.68,0,0,0,3.14,3.92,32.15,32.15,0,0,0,3.41,3.87A33.94,33.94,0,0,0,63.7,406a32.49,32.49,0,0,0,3.5,3.31c.13.11.28.19.42.3.68.66,1.38,1.32,2.16,1.94.6.48,1.24.91,1.86,1.35.29.26.55.53.86.78A42.3,42.3,0,0,0,76,416.11a38.53,38.53,0,0,0,4.42,2.94,40,40,0,0,0,4.71,2.84,40.33,40.33,0,0,0,4.81,2.58,41.35,41.35,0,0,0,5,2.41,41.5,41.5,0,0,0,5.18,2.2,43.17,43.17,0,0,0,5.34,2,45,45,0,0,0,5.52,1.79,45.84,45.84,0,0,0,5.61,1.5,46.08,46.08,0,0,0,5.83,1.35,49.83,49.83,0,0,0,5.84,1,48.49,48.49,0,0,0,5.89.81,48.34,48.34,0,0,0,6.25.53,48.66,48.66,0,0,0,6,.27,48.51,48.51,0,0,0,6.38,0,48.66,48.66,0,0,0,6-.27,48.34,48.34,0,0,0,6.25-.53,48.49,48.49,0,0,0,5.89-.81,49.48,49.48,0,0,0,5.84-1,46.23,46.23,0,0,0,5.84-1.35,46.83,46.83,0,0,0,5.61-1.5,45.42,45.42,0,0,0,5.51-1.79,43.17,43.17,0,0,0,5.34-2,42.14,42.14,0,0,0,5.18-2.2,40.59,40.59,0,0,0,5-2.41,40.46,40.46,0,0,0,4.82-2.58,40.75,40.75,0,0,0,4.7-2.84,38.53,38.53,0,0,0,4.42-2.94,37.21,37.21,0,0,0,3.49-2.47c.3-.25.57-.52.86-.78.62-.44,1.26-.87,1.86-1.35.77-.62,1.47-1.28,2.17-1.94l.42-.3a35.39,35.39,0,0,0,3.49-3.28,33.94,33.94,0,0,0,3.59-3.61,32.05,32.05,0,0,0,3.4-3.87,31.82,31.82,0,0,0,3.15-3.92,30.92,30.92,0,0,0,2.87-4.13l.1-.14-.1-.15C248,389.36,247.54,388.54,247.07,387.7Z" transform="translate(-37.45 -161.57)"/><path class="018d4327-1f56-4436-83b3-0ecf08b662cd" d="M341.65,355.16c-.34-.8-.64-1.63-.92-2.47s-.65-1.64-.93-2.47-.64-1.63-.92-2.47-.65-1.63-.93-2.47-.64-1.63-.93-2.47-.64-1.63-.92-2.47-.65-1.63-.93-2.47-.64-1.63-.92-2.47-.65-1.63-.93-2.47-.64-1.63-.93-2.46-.64-1.64-.92-2.48-.65-1.63-.93-2.47-.64-1.63-.92-2.47-.65-1.63-.93-2.47-.64-1.63-.92-2.47-.65-1.63-.93-2.47-.65-1.63-.93-2.47-.64-1.63-.92-2.47-.65-1.63-.93-2.47-.64-1.63-.92-2.47-.65-1.63-.93-2.47-.65-1.63-.93-2.47-.64-1.64-.92-2.47-.65-1.63-.93-2.47-.64-1.64-.92-2.48a31.46,31.46,0,0,1,28.28-43.91l-.63,0a31.49,31.49,0,0,0-28.72,18.59c-.45.8-.85,1.63-1.23,2.48s-.86,1.63-1.24,2.46-.85,1.63-1.23,2.47-.86,1.63-1.23,2.47-.86,1.64-1.24,2.47-.86,1.63-1.23,2.48-.86,1.62-1.24,2.47-.85,1.62-1.23,2.47-.86,1.62-1.24,2.47-.85,1.63-1.23,2.47-.86,1.62-1.24,2.47-.85,1.62-1.23,2.46-.86,1.63-1.24,2.47-.85,1.63-1.23,2.47a570.42,570.42,0,0,1-2.47,4.95,27,27,0,0,0-1.23,2.47c-.45.79-.86,1.62-1.24,2.46s-.86,1.63-1.23,2.47-.86,1.63-1.24,2.48a25.82,25.82,0,0,0-1.23,2.47c-.45.8-.86,1.62-1.24,2.46s-.86,1.63-1.23,2.47a27.23,27.23,0,0,0-1.23,2.48,27,27,0,0,0-1.24,2.46c-.45.8-.86,1.63-1.24,2.47s-.85,1.63-1.23,2.47c-.34.6-.63,1.22-.93,1.84-.3-.62-.6-1.24-.93-1.84-.38-.84-.79-1.67-1.24-2.47s-.79-1.67-1.23-2.47-.79-1.67-1.24-2.46-.78-1.68-1.23-2.48-.79-1.66-1.24-2.47-.78-1.66-1.23-2.46-.79-1.68-1.24-2.47-.79-1.67-1.23-2.48-.79-1.67-1.24-2.47-.78-1.67-1.23-2.46-.79-1.67-1.24-2.47a25.82,25.82,0,0,0-1.23-2.47c-.38-.85-.79-1.68-1.23-2.48s-.79-1.67-1.24-2.47-.79-1.66-1.24-2.47a26.87,26.87,0,0,0-1.23-2.46c-.38-.85-.78-1.68-1.23-2.47s-.79-1.67-1.24-2.47-.79-1.67-1.23-2.47-.79-1.67-1.23-2.47-.8-1.67-1.24-2.47-.79-1.67-1.24-2.48-.78-1.67-1.23-2.47-.79-1.66-1.24-2.47-.78-1.66-1.23-2.47-.79-1.67-1.23-2.46-.79-1.68-1.24-2.48a31.54,31.54,0,0,0-28.74-18.59c-.23,0-.45,0-.68,0a31.39,31.39,0,0,1,30.75,33c0,1.05,0,2.09,0,3.16s.05,2.08,0,3.13.05,2.09,0,3.13.05,2.09,0,3.13.05,2.09,0,3.13.05,2.09,0,3.13.05,2.09,0,3.13.05,2.09,0,3.13.05,2.09,0,3.14.05,2.08,0,3.13.05,2.08,0,3.13.05,2.08,0,3.13.05,2.08,0,3.13.05,2.08,0,3.13.05,2.09,0,3.13.05,2.09,0,3.13.05,2.08,0,3.13.05,2.09,0,3.13.05,2.09,0,3.13.05,2.09,0,3.14a29.86,29.86,0,0,1,0,3.54,31.12,31.12,0,0,1-.15,4.73,31.86,31.86,0,0,1-.46,5.07,32.65,32.65,0,0,1-.69,4.8,83.1,83.1,0,0,1-2.18,9.49,30.79,30.79,0,0,1-1.43,4.65,125.24,125.24,0,0,1-3.57,8.8,31.08,31.08,0,0,1-2.06,4.07c.36.79.74,1.56,1.16,2.31s.78,1.68,1.23,2.48.79,1.66,1.24,2.47.79,1.66,1.23,2.47.79,1.67,1.24,2.47.79,1.67,1.23,2.46.79,1.67,1.24,2.47a27,27,0,0,0,1.23,2.47c.38.85.79,1.68,1.23,2.47s.79,1.67,1.24,2.47.79,1.67,1.23,2.48.79,1.66,1.24,2.47a31.48,31.48,0,0,0,57.45,0c.45-.8.85-1.63,1.23-2.47s.86-1.63,1.24-2.48.85-1.63,1.23-2.46.86-1.63,1.24-2.47.85-1.63,1.23-2.48a26.87,26.87,0,0,0,1.23-2.46c.45-.81.86-1.63,1.24-2.47s.86-1.63,1.23-2.47.86-1.63,1.24-2.47.86-1.63,1.23-2.47.86-1.63,1.24-2.48.85-1.62,1.23-2.46.86-1.63,1.24-2.47.85-1.63,1.23-2.47.86-1.63,1.23-2.47.86-1.63,1.24-2.47.86-1.63,1.23-2.47.86-1.63,1.24-2.47.86-1.63,1.23-2.47a27.12,27.12,0,0,0,1.24-2.47c.45-.8.85-1.63,1.23-2.47s.86-1.63,1.24-2.47.86-1.63,1.23-2.47.86-1.63,1.23-2.47a25.73,25.73,0,0,0,1.24-2.46v0c-.05-.15-.12-.3-.17-.45C342.23,356.83,341.94,356,341.65,355.16Z" transform="translate(-37.45 -161.57)"/><path class="64ec65fd-ad3a-470c-ab93-b045cf06c1ae" d="M246.62,389.88a30.17,30.17,0,0,0,1.7-4.43,112.94,112.94,0,0,0,2.64-9.28,31.2,31.2,0,0,0,1-4.86,32.65,32.65,0,0,0,.69-4.8,31.86,31.86,0,0,0,.46-5.07,31.12,31.12,0,0,0,.15-4.73,29.86,29.86,0,0,0,0-3.54c.05-1.05.05-2.1,0-3.14s.05-2.09,0-3.13.05-2.09,0-3.13.05-2.09,0-3.13.05-2.09,0-3.13.05-2.09,0-3.13.05-2.09,0-3.13.05-2.09,0-3.13.05-2.09,0-3.13.05-2.09,0-3.13.05-2.09,0-3.13.05-2.09,0-3.14.05-2.08,0-3.13.05-2.08,0-3.13.05-2.08,0-3.13.05-2.09,0-3.13.05-2.08,0-3.13.05-2.09,0-3.13.05-2.09,0-3.13,0-2.11,0-3.16c.42-8.57-11.15-15-17.69-21.52-6-6-9.17-5.83-17-6-17.08.37-31.87-1.21-31.87,16a31.28,31.28,0,0,0,4,15.36c.38.85.78,1.67,1.23,2.48s.79,1.67,1.24,2.46.79,1.67,1.23,2.48.78,1.66,1.24,2.46.79,1.67,1.23,2.47.79,1.68,1.24,2.47.78,1.67,1.23,2.47.79,1.67,1.23,2.47.79,1.67,1.24,2.47.79,1.67,1.23,2.47.79,1.67,1.24,2.47.79,1.67,1.24,2.47.78,1.67,1.23,2.47.78,1.67,1.23,2.47.79,1.67,1.24,2.47.78,1.67,1.23,2.47.79,1.67,1.23,2.47.79,1.67,1.24,2.47.79,1.67,1.24,2.47.78,1.66,1.23,2.47.79,1.67,1.24,2.46a25.82,25.82,0,0,0,1.23,2.47c.38.85.79,1.68,1.23,2.48s.79,1.66,1.24,2.46.79,1.67,1.23,2.47.79,1.67,1.24,2.47.79,1.67,1.23,2.47.79,1.67,1.24,2.47.78,1.67,1.23,2.47.79,1.67,1.24,2.47.78,1.67,1.23,2.47.79,1.67,1.24,2.47.78,1.67,1.23,2.47.79,1.67,1.23,2.47.79,1.67,1.24,2.47.79,1.67,1.24,2.47.78,1.67,1.23,2.47,5.79,11.66,6.23,12.47l.08.15a31.08,31.08,0,0,0,2.06-4.07A30.39,30.39,0,0,0,246.62,389.88Z" transform="translate(-37.45 -161.57)"/><path class="13cc1bcc-3e94-46bd-86fb-34fcb2749c1d" d="M533.81,249.46c-12.68,0-23.43,9-27.24,21.52-.31.8-.59,1.63-.84,2.47s-.59,1.63-.85,2.47-.59,1.63-.84,2.46-.59,1.64-.85,2.47-.59,1.64-.84,2.47-.59,1.64-.85,2.48-.59,1.63-.84,2.46-.59,1.64-.85,2.47-.58,1.64-.84,2.47-.59,1.64-.85,2.47-.58,1.64-.84,2.47-.59,1.64-.85,2.47-.58,1.63-.84,2.47-.59,1.63-.85,2.47-.58,1.64-.84,2.47-.59,1.63-.85,2.47-.59,1.63-.84,2.47-.59,1.64-.85,2.47-.59,1.64-.84,2.47-.59,1.64-.84,2.47-.59,1.63-.85,2.47l-.16.42c-.23-.6-.49-1.17-.74-1.75-.3-.84-.63-1.67-1-2.47s-.63-1.66-1-2.47-.62-1.67-1-2.47-.63-1.66-1-2.47-.62-1.67-1-2.47-.63-1.66-1-2.47-.63-1.67-1-2.47-.63-1.67-1-2.47-.63-1.66-1-2.47-.63-1.66-1-2.47-.63-1.66-1-2.47-.63-1.66-1-2.47-.63-1.66-1-2.46-.63-1.67-1-2.48-.63-1.66-1-2.47-.63-1.66-1-2.47-.62-1.66-1-2.46-.63-1.67-1-2.47a26.5,26.5,0,0,0-1-2.47c-.29-.85-.62-1.66-1-2.47s-.63-1.66-1-2.47c-4.16-11.8-14.57-20.19-26.8-20.19s-22.65,8.39-26.8,20.18c-.36.81-.69,1.63-1,2.47s-.69,1.63-1,2.47-.69,1.62-1,2.47-.69,1.63-1,2.47-.69,1.63-1,2.46-.69,1.63-1,2.48-.69,1.62-1,2.46-.7,1.63-1,2.47-.69,1.63-1,2.47-.69,1.63-1,2.47-.69,1.64-1,2.47-.69,1.63-1,2.47-.7,1.63-1,2.47-.69,1.63-1,2.47-.7,1.63-1,2.47-.69,1.63-1,2.47-.69,1.63-1,2.47-.68,1.63-1,2.47-.69,1.63-1,2.47-.68,1.62-1,2.47-.69,1.63-1,2.47c-.26.58-.53,1.15-.75,1.75l-.16-.42c-.26-.84-.53-1.66-.84-2.47s-.53-1.66-.85-2.47-.53-1.66-.85-2.47-.53-1.67-.84-2.47-.53-1.66-.85-2.47-.52-1.66-.84-2.47-.53-1.66-.85-2.47-.52-1.66-.84-2.47-.53-1.66-.85-2.47-.52-1.66-.84-2.47-.53-1.66-.85-2.47-.52-1.66-.84-2.47-.53-1.66-.84-2.47-.53-1.66-.85-2.46-.53-1.67-.85-2.48-.52-1.66-.84-2.46-.53-1.67-.84-2.47-.53-1.67-.85-2.47-.53-1.67-.84-2.47-.53-1.67-.85-2.48-.53-1.66-.84-2.46c-3.83-12.49-14.57-21.51-27.26-21.51-.19,0-.38,0-.58,0,15.6.35,28.15,14.29,28.15,31.47a33.65,33.65,0,0,1-3.69,15.4c-.34.84-.71,1.67-1.12,2.47s-.72,1.67-1.13,2.46-.72,1.67-1.13,2.48-.71,1.66-1.12,2.46-.72,1.67-1.13,2.48-.71,1.66-1.12,2.47-.72,1.66-1.13,2.46-.72,1.67-1.13,2.48-.71,1.66-1.13,2.47-.71,1.66-1.12,2.46-.72,1.67-1.13,2.47-.71,1.67-1.13,2.47-.71,1.67-1.12,2.47-.72,1.67-1.13,2.47-.71,1.67-1.12,2.47-.72,1.67-1.13,2.47-.72,1.67-1.13,2.47-.71,1.67-1.12,2.47-.72,1.67-1.13,2.47-.71,1.67-1.13,2.47-.71,1.67-1.12,2.47-.71,1.67-1.13,2.47a26.12,26.12,0,0,1-1.13,2.46c-.34.85-.71,1.68-1.12,2.47s-.71,1.66-1.12,2.46c.21.68.43,1.36.69,2,.26.84.53,1.67.84,2.47s.53,1.67.85,2.47.53,1.66.84,2.47.53,1.66.85,2.47.53,1.66.84,2.47.53,1.67.85,2.47.53,1.67.84,2.47.53,1.67.85,2.47.52,1.67.84,2.47.53,1.66.85,2.47.53,1.67.84,2.47.53,1.67.85,2.47.53,1.66.84,2.47.53,1.66.85,2.47.52,1.66.84,2.46.53,1.67.85,2.48.53,1.66.84,2.47.53,1.66.85,2.47.52,1.66.84,2.47.53,1.66.85,2.47.52,1.66.84,2.46.53,1.67.85,2.48.53,1.66.84,2.47c3.83,12.51,14.58,21.52,27.26,21.52,12.23,0,22.64-8.38,26.79-20.18.36-.8.69-1.63,1-2.47s.69-1.63,1-2.47.69-1.62,1-2.47.69-1.62,1-2.47.69-1.63,1-2.46.69-1.63,1-2.48.69-1.62,1-2.47.69-1.62,1-2.46.69-1.63,1-2.47.69-1.64,1-2.48.69-1.62,1-2.46.69-1.64,1-2.47.69-1.63,1-2.47.69-1.63,1-2.47.69-1.63,1-2.47.68-1.63,1-2.47.69-1.63,1-2.47.69-1.63,1-2.47.69-1.63,1-2.47.69-1.63,1-2.47.7-1.63,1-2.47.69-1.63,1-2.47.7-1.63,1-2.47c.29-.64.57-1.29.82-2,.25.67.53,1.32.81,2,.3.85.63,1.66,1,2.47s.63,1.67,1,2.47.64,1.67,1,2.47.63,1.67,1,2.47.63,1.66,1,2.47.63,1.66,1,2.47a26.5,26.5,0,0,0,1,2.47c.29.84.62,1.66,1,2.47s.63,1.66,1,2.47.62,1.66,1,2.47.63,1.66,1,2.47.63,1.66,1,2.47.63,1.66,1,2.46.63,1.66,1,2.48.63,1.66,1,2.47.63,1.66,1,2.46.62,1.67,1,2.47.63,1.67,1,2.48.62,1.66,1,2.46.63,1.67,1,2.47.63,1.67,1,2.47.62,1.67,1,2.47.63,1.67,1,2.47c4.17,11.8,14.58,20.18,26.81,20.18,12.68,0,23.42-9,27.24-21.51.31-.8.58-1.63.84-2.47s.59-1.64.85-2.47.58-1.63.84-2.47.59-1.64.85-2.47.59-1.64.84-2.47.59-1.63.85-2.47.58-1.64.84-2.47.59-1.63.84-2.47.59-1.63.85-2.47.59-1.63.85-2.47.58-1.63.84-2.47.59-1.63.85-2.47.58-1.63.84-2.47.59-1.63.85-2.47.58-1.63.84-2.47.59-1.63.85-2.47.58-1.63.84-2.47.59-1.63.85-2.47.58-1.63.84-2.47.59-1.63.84-2.47.59-1.63.85-2.47.59-1.63.85-2.47.58-1.63.84-2.47.59-1.63.84-2.46.59-1.64.85-2.48.59-1.63.84-2.47.59-1.63.85-2.47.59-1.63.84-2.47.59-1.63.85-2.47.58-1.63.84-2.46.59-1.64.85-2.48.58-1.63.84-2.47.59-1.63.85-2.46.58-1.64.84-2.48.59-1.63.85-2.46.59-1.64.84-2.48.59-1.63.85-2.46.59-1.64.84-2.47.59-1.64.85-2.47.59-1.64.84-2.47.59-1.64.85-2.48.59-1.63.84-2.47.59-1.63.85-2.47.58-1.63.84-2.47.59-1.63.85-2.47.58-1.63.84-2.47.59-1.63.85-2.46.58-1.64.84-2.48.59-1.63.85-2.47.58-1.63.84-2.47A33.77,33.77,0,0,0,562.55,281C562.55,263.56,549.69,249.46,533.81,249.46Z" transform="translate(-37.45 -161.57)"/><path class="13cc1bcc-3e94-46bd-86fb-34fcb2749c1d" d="M345.21,353.15c.45-.79.86-1.62,1.24-2.46s.85-1.63,1.23-2.47.86-1.63,1.23-2.47.86-1.63,1.24-2.47.86-1.63,1.23-2.47.86-1.63,1.24-2.47.86-1.63,1.23-2.47.86-1.63,1.24-2.47.85-1.63,1.23-2.47.86-1.63,1.24-2.47.85-1.63,1.23-2.47.86-1.63,1.23-2.47.86-1.63,1.24-2.47.86-1.63,1.23-2.46.86-1.63,1.24-2.47.86-1.64,1.24-2.48.85-1.62,1.23-2.46.86-1.63,1.23-2.47.86-1.63,1.24-2.48.86-1.62,1.23-2.46.86-1.63,1.24-2.48.85-1.62,1.23-2.46.86-1.63,1.24-2.47a30.86,30.86,0,1,0-55.1-3c.28.84.57,1.67.92,2.48s.58,1.66.93,2.47.57,1.66.92,2.47.58,1.66.93,2.47.58,1.67.93,2.47.57,1.66.92,2.47.58,1.67.93,2.47.57,1.67.92,2.47.58,1.67.93,2.47.58,1.67.93,2.47.57,1.67.92,2.47.58,1.67.93,2.47.57,1.67.92,2.47.58,1.67.93,2.47.58,1.67.92,2.48.58,1.66.93,2.46.58,1.67.93,2.47.58,1.67.92,2.47.58,1.67.93,2.47.58,1.67.92,2.47.58,1.67.93,2.47.58,1.67.93,2.47.57,1.67.92,2.47.58,1.67.93,2.47.58,1.67.92,2.47.58,1.67.93,2.47c.05.15.12.3.17.45.45-.8.85-1.62,1.23-2.46S344.83,354,345.21,353.15Z" transform="translate(-37.45 -161.57)"/><ellipse class="018d4327-1f56-4436-83b3-0ecf08b662cd" cx="181.26" cy="119.03" rx="33.74" ry="31.87"/><ellipse class="018d4327-1f56-4436-83b3-0ecf08b662cd" cx="310.73" cy="120.03" rx="33.74" ry="31.87"/><ellipse class="64ec65fd-ad3a-470c-ab93-b045cf06c1ae" cx="118.7" cy="34.71" rx="36.75" ry="34.71"/><ellipse class="018d4327-1f56-4436-83b3-0ecf08b662cd" cx="249.56" cy="34.71" rx="36.75" ry="34.71"/><ellipse class="13cc1bcc-3e94-46bd-86fb-34fcb2749c1d" cx="402.88" cy="34.71" rx="36.75" ry="34.71"/></svg>