<svg id="圖層_1" data-name="圖層 1" xmlns="http://www.w3.org/2000/svg" viewBox="0 0 415.63 87.99"><defs><style>.cls-1{font-size:18.12px;font-family:ArialNarrow, Arial Narrow;letter-spacing:0.12em;}</style></defs><path d="M85.81,32A56.37,56.37,0,0,0,100.94,9.83L96.6,7.72S93.75,22.5,85.81,32Z" transform="translate(-11.21 -7.45)"/><path d="M141.61,19.65H98.77a1,1,0,0,1,0-2h42.84a1,1,0,0,1,0,2Z" transform="translate(-11.21 -7.45)"/><path d="M141.61,34.9H88.88a1,1,0,0,1,0-2h52.73a1,1,0,0,1,0,2Z" transform="translate(-11.21 -7.45)"/><path d="M141.61,51.9H88.88a1,1,0,0,1,0-2h52.73a1,1,0,0,1,0,2Z" transform="translate(-11.21 -7.45)"/><path d="M100.07,51.68a1,1,0,0,1-.93-1V19.48a.93.93,0,1,1,1.86,0v31.2A1,1,0,0,1,100.07,51.68Z" transform="translate(-11.21 -7.45)"/><path d="M109.31,51.68a1,1,0,0,1-.94-1V19.48a.94.94,0,1,1,1.87,0v31.2A1,1,0,0,1,109.31,51.68Z" transform="translate(-11.21 -7.45)"/><path d="M119.47,51.68a1,1,0,0,1-.93-1V19.48a.94.94,0,1,1,1.87,0v31.2A1,1,0,0,1,119.47,51.68Z" transform="translate(-11.21 -7.45)"/><path d="M129.64,51.68a1,1,0,0,1-.93-1V19.48a.93.93,0,1,1,1.86,0v31.2A1,1,0,0,1,129.64,51.68Z" transform="translate(-11.21 -7.45)"/><path d="M89.32,68.32C97.47,64.23,97,53.53,97,53.53S102.32,72.77,89.32,68.32Z" transform="translate(-11.21 -7.45)"/><path d="M109.44,68.88c1-8.55-5.69-14.89-5.69-14.89S119.15,61.08,109.44,68.88Z" transform="translate(-11.21 -7.45)"/><path d="M123.14,69.25c2.08-9.1-7.79-14.73-7.79-14.73S133.37,60.71,123.14,69.25Z" transform="translate(-11.21 -7.45)"/><path d="M138.57,69.06c.52-7.61-11.2-14.54-11.2-14.54S147.07,57.92,138.57,69.06Z" transform="translate(-11.21 -7.45)"/><path d="M177.81,28.65H156.27a1,1,0,0,1,0-2h21.54a1,1,0,0,1,0,2Z" transform="translate(-11.21 -7.45)"/><path d="M166.67,52.61a1,1,0,0,1-.93-1V9.27a.93.93,0,1,1,1.86,0V51.61A1,1,0,0,1,166.67,52.61Z" transform="translate(-11.21 -7.45)"/><path d="M158.64,59.55a.91.91,0,0,1-.81-.5,1,1,0,0,1,.34-1.37l19.05-11.75a.9.9,0,0,1,1.27.37,1,1,0,0,1-.34,1.36L159.1,59.41A.91.91,0,0,1,158.64,59.55Z" transform="translate(-11.21 -7.45)"/><path d="M165.94,67.33c22.92-15.48,17.68-53,17.68-53l-2.43-.75S186.26,50.55,165.94,67.33Z" transform="translate(-11.21 -7.45)"/><path d="M183.49,18.81a1,1,0,0,1-.91-.79,1,1,0,0,1,.72-1.18l24.28-5.57a.93.93,0,0,1,1.11.76,1,1,0,0,1-.72,1.19l-24.28,5.57Z" transform="translate(-11.21 -7.45)"/><path d="M213.48,31.07H183.79a1,1,0,0,1,0-2h29.69a1,1,0,0,1,0,2Z" transform="translate(-11.21 -7.45)"/><path d="M188.7,70.8a1,1,0,0,1-.93-1v-29a.93.93,0,1,1,1.86,0v29A1,1,0,0,1,188.7,70.8Z" transform="translate(-11.21 -7.45)"/><path d="M207.26,70.8a1,1,0,0,1-.93-1v-29a.93.93,0,1,1,1.86,0v29A1,1,0,0,1,207.26,70.8Z" transform="translate(-11.21 -7.45)"/><path d="M204.53,43.32H191.17a1,1,0,0,1,0-2h13.36a1,1,0,0,1,0,2Z" transform="translate(-11.21 -7.45)"/><path d="M204.53,63.79H191.17a1,1,0,0,1,0-2h13.36a1,1,0,0,1,0,2Z" transform="translate(-11.21 -7.45)"/><path d="M366.81,23.45a.92.92,0,0,1-.69-.32,1,1,0,0,1,.07-1.41A8.87,8.87,0,0,0,369,13.91a1,1,0,0,1,.7-1.2.93.93,0,0,1,1.12.74,11,11,0,0,1-3.4,9.74A.89.89,0,0,1,366.81,23.45Z" transform="translate(-11.21 -7.45)"/><path d="M395.35,17.88a.9.9,0,0,1-.78-.45,1,1,0,0,1,.27-1.38c2.41-1.7,2.44-5.12,2.44-5.15a.94.94,0,1,1,1.87,0c0,.18,0,4.53-3.28,6.82A.91.91,0,0,1,395.35,17.88Z" transform="translate(-11.21 -7.45)"/><path d="M325.54,16.59a.91.91,0,0,1-.78-.45,1,1,0,0,1,.26-1.38c2.42-1.71,2.44-5.12,2.44-5.16a.94.94,0,1,1,1.87,0c0,.19,0,4.54-3.28,6.82A.84.84,0,0,1,325.54,16.59Z" transform="translate(-11.21 -7.45)"/><path d="M420.57,22.46a10,10,0,0,0,3.12-8.78h3.15S426.61,22.5,420.57,22.46Z" transform="translate(-11.21 -7.45)"/><path d="M417.6,18.58H375.19a1,1,0,0,1,0-2H417.6a1,1,0,0,1,0,2Z" transform="translate(-11.21 -7.45)"/><path d="M415.7,29.76H374.76a1,1,0,0,1,0-2H415.7a1,1,0,0,1,0,2Z" transform="translate(-11.21 -7.45)"/><path d="M385.47,39.56a.92.92,0,0,1-.45-.12,1.05,1.05,0,0,1-.37-1.36l5-9.61a.89.89,0,0,1,1.26-.39,1,1,0,0,1,.37,1.36L386.29,39A.93.93,0,0,1,385.47,39.56Z" transform="translate(-11.21 -7.45)"/><path d="M371.81,42.9a1,1,0,0,1-.93-.9,1,1,0,0,1,.84-1.09l35.94-3.85a1,1,0,0,1,1,.89,1,1,0,0,1-.84,1.1l-36,3.85Z" transform="translate(-11.21 -7.45)"/><path d="M404.27,33.27s7.69,2.8,9.05,11.18c0,0,3.85-3.15,1.46-6.49,0,0-1.95-3-10.33-5.35Z" transform="translate(-11.21 -7.45)"/><path d="M417.08,55.16H373.24a1,1,0,0,1,0-2h43.84a1,1,0,0,1,0,2Z" transform="translate(-11.21 -7.45)"/><path d="M423.71,68.25H367.26a1,1,0,0,1,0-2h56.45a1,1,0,0,1,0,2Z" transform="translate(-11.21 -7.45)"/><path d="M395.1,67.83a1,1,0,0,1-.94-1V45.06a.94.94,0,1,1,1.87,0V66.83A1,1,0,0,1,395.1,67.83Z" transform="translate(-11.21 -7.45)"/><path d="M417.6,18.58H370.12a1,1,0,0,1,0-2H417.6a1,1,0,0,1,0,2Z" transform="translate(-11.21 -7.45)"/><path d="M422,18.58H374.5a1,1,0,0,1,0-2H422a1,1,0,0,1,0,2Z" transform="translate(-11.21 -7.45)"/><polygon points="413.44 59.8 409.83 55.01 406.37 58.7 356.05 58.7 356.05 60.8 413.44 59.8"/><path d="M283.58,14.87h-56.9a1,1,0,0,1,0-1.93h56.9a1,1,0,1,1,0,1.93Z" transform="translate(-11.21 -7.45)"/><path d="M245.54,21.06a1,1,0,0,1-1-1V8.41a1,1,0,0,1,1.93,0V20.1A1,1,0,0,1,245.54,21.06Z" transform="translate(-11.21 -7.45)"/><path d="M262.77,21.06a1,1,0,0,1-1-1V8.41a1,1,0,0,1,1.93,0V20.1A1,1,0,0,1,262.77,21.06Z" transform="translate(-11.21 -7.45)"/><path d="M239.29,41.94a1,1,0,0,1-1-1V22a1,1,0,1,1,1.93,0V41A1,1,0,0,1,239.29,41.94Z" transform="translate(-11.21 -7.45)"/><path d="M233.75,70.08a1,1,0,0,1-1-1V43.84a1,1,0,0,1,1.93,0V69.12A1,1,0,0,1,233.75,70.08Z" transform="translate(-11.21 -7.45)"/><path d="M269.84,41.94a1,1,0,0,1-1-1V22a1,1,0,1,1,1.93,0V41A1,1,0,0,1,269.84,41.94Z" transform="translate(-11.21 -7.45)"/><path d="M264.92,24.82H244.83a1,1,0,1,1,0-1.93h20.09a1,1,0,1,1,0,1.93Z" transform="translate(-11.21 -7.45)"/><path d="M264.92,31.79H244.83a1,1,0,1,1,0-1.93h20.09a1,1,0,1,1,0,1.93Z" transform="translate(-11.21 -7.45)"/><path d="M264.92,38.76H244.83a1,1,0,1,1,0-1.93h20.09a1,1,0,1,1,0,1.93Z" transform="translate(-11.21 -7.45)"/><path d="M273.12,46.86H236.83a1,1,0,0,1,0-1.93h36.29a1,1,0,1,1,0,1.93Z" transform="translate(-11.21 -7.45)"/><path d="M269.33,70s4.64.75,7.82-2c1.6-1.42,2.15-2.77,2.05-7l-.41-11.23a3,3,0,0,0,1.2-2.65c-.11-1.77-3.89-3-3.89-3V59.74S276.35,67.22,269.33,70Z" transform="translate(-11.21 -7.45)"/><path d="M254.21,55.47a1,1,0,0,1-1-1V23.9a1,1,0,0,1,1.93,0V54.51A1,1,0,0,1,254.21,55.47Z" transform="translate(-11.21 -7.45)"/><path d="M241.44,58.2l21.84-5.38L245.9,61.27S241.83,63.73,241.44,58.2Z" transform="translate(-11.21 -7.45)"/><path d="M260.51,48.36s8.31,7.07,7.08,10.76C267.59,59.12,275.12,52.51,260.51,48.36Z" transform="translate(-11.21 -7.45)"/><path d="M352.68,16.82H307.16a1,1,0,0,1,0-1.93h45.52a1,1,0,1,1,0,1.93Z" transform="translate(-11.21 -7.45)"/><path d="M305.19,13.75s4.07,29.68-10.07,56c0,0,10.3-19.12,6-57.15Z" transform="translate(-11.21 -7.45)"/><path d="M318,18.52s-3,10.61-11.45,17.07c0,0,7.22-2.11,14.61-15.8Z" transform="translate(-11.21 -7.45)"/><path d="M314.54,50.09a1,1,0,0,1-1-1V31.44a1,1,0,0,1,1.93,0V49.13A1,1,0,0,1,314.54,50.09Z" transform="translate(-11.21 -7.45)"/><path d="M327.56,17.8s-1.94,11.33-10.4,17.79c0,0,7.53-2.56,14.92-16.25Z" transform="translate(-11.21 -7.45)"/><path d="M326.86,50.09a1,1,0,0,1-1-1V31.44a1,1,0,1,1,1.92,0V49.13A1,1,0,0,1,326.86,50.09Z" transform="translate(-11.21 -7.45)"/><path d="M337.62,46.4a1,1,0,0,1-1-1V27.75a1,1,0,1,1,1.93,0V45.43A1,1,0,0,1,337.62,46.4Z" transform="translate(-11.21 -7.45)"/><path d="M336.38,26.87A1,1,0,0,1,336,25c3.16-1.26,3.09-5.07,3.09-5.23a1,1,0,0,1,.93-1h0a1,1,0,0,1,1,.93c0,.22.12,5.31-4.3,7.08A.92.92,0,0,1,336.38,26.87Z" transform="translate(-11.21 -7.45)"/><path d="M352.32,27.18h-22.6a1,1,0,1,1,0-1.93h22.6a1,1,0,1,1,0,1.93Z" transform="translate(-11.21 -7.45)"/><path d="M350,33.63h-20.3a1,1,0,1,1,0-1.92H350a1,1,0,0,1,0,1.92Z" transform="translate(-11.21 -7.45)"/><path d="M350,40.09h-20.3a1,1,0,1,1,0-1.93H350a1,1,0,0,1,0,1.93Z" transform="translate(-11.21 -7.45)"/><path d="M352.32,47.65h-22.6a1,1,0,1,1,0-1.92h22.6a1,1,0,1,1,0,1.92Z" transform="translate(-11.21 -7.45)"/><path d="M336.51,68h-.13S333.79,68,326,68c-2.83,0-5-.76-6.4-2.34a7.76,7.76,0,0,1-1.8-5.54V53.43a1,1,0,0,1,1.93,0V60.3A5.9,5.9,0,0,0,321,64.42q1.58,1.72,4.94,1.7c7.89-.08,10.39,0,10.5,0,.68,0,2.62-.17,3.38-1.16a2.32,2.32,0,0,0,.16-2.14,1,1,0,1,1,1.85-.55,4.14,4.14,0,0,1-.49,3.87C340,67.93,337.2,68,336.51,68Z" transform="translate(-11.21 -7.45)"/><path d="M327.87,53.28s3.39,2.36,3.28,4.71,2,2.46,3.18,1.64S334.33,53.58,327.87,53.28Z" transform="translate(-11.21 -7.45)"/><path d="M351.45,66.54a1,1,0,0,1-.94-.77c-1.59-7.95-6.57-9.35-6.78-9.41a1,1,0,0,1,.47-1.87c.26.07,6.36,1.69,8.2,10.9a1,1,0,0,1-.76,1.14Z" transform="translate(-11.21 -7.45)"/><path d="M305.32,66.85A1,1,0,0,1,305,65c5.26-2,5.53-8.9,5.53-9a1,1,0,1,1,1.93,0c0,.34-.29,8.26-6.77,10.72A1,1,0,0,1,305.32,66.85Z" transform="translate(-11.21 -7.45)"/><text class="cls-1" transform="translate(76.94 82.44)">the room of dirtless requiremennt</text><path d="M71.12,91.53a1,1,0,0,1-1-1V37.54A19.09,19.09,0,0,0,59.53,20.4L40.47,10.78,23.25,20.23a19.2,19.2,0,0,0-10,16.83V90.49a1,1,0,0,1-2.08,0V37.06a21.29,21.29,0,0,1,11-18.66l18.18-10,20,10.11a21.18,21.18,0,0,1,11.69,19v53A1,1,0,0,1,71.12,91.53Z" transform="translate(-11.21 -7.45)"/><path d="M64.62,82.63a1,1,0,0,1-1-1V39.88a14.66,14.66,0,0,0-8.09-13.15L40.25,19a1,1,0,1,1,.94-1.85l15.24,7.68a16.75,16.75,0,0,1,9.23,15V81.59A1,1,0,0,1,64.62,82.63Z" transform="translate(-11.21 -7.45)"/><path d="M18.75,82.63a1,1,0,0,1-1-1V39.51a16.8,16.8,0,0,1,8.72-14.74L40.22,17.2a1,1,0,0,1,1,1.83L27.43,26.6a14.72,14.72,0,0,0-7.64,12.91V81.59A1,1,0,0,1,18.75,82.63Z" transform="translate(-11.21 -7.45)"/><path d="M57.11,46h-31a1,1,0,1,1,0-2.08h31a1,1,0,1,1,0,2.08Z" transform="translate(-11.21 -7.45)"/><path d="M57.24,56.35h-31a1,1,0,1,1,0-2.08h31a1,1,0,1,1,0,2.08Z" transform="translate(-11.21 -7.45)"/><path d="M56.37,66.76H26a1,1,0,1,1,0-2.08H56.37a1,1,0,1,1,0,2.08Z" transform="translate(-11.21 -7.45)"/><path d="M56.5,77.16H26.16a1,1,0,0,1,0-2.08H56.5a1,1,0,0,1,0,2.08Z" transform="translate(-11.21 -7.45)"/><path d="M71.12,91.53a.93.93,0,0,1-.53-.15L56.2,82.73V38.33a1,1,0,0,1,2.08,0V81.55l13.38,8a1,1,0,0,1-.54,1.93Z" transform="translate(-11.21 -7.45)"/><path d="M46.84,82.22a1,1,0,0,1-1-1V38.51a1,1,0,0,1,2.08,0V81.18A1,1,0,0,1,46.84,82.22Z" transform="translate(-11.21 -7.45)"/><path d="M36.43,82.4a1,1,0,0,1-1-1V38.7a1,1,0,1,1,2.08,0V81.36A1,1,0,0,1,36.43,82.4Z" transform="translate(-11.21 -7.45)"/><path d="M12.25,91.53a1.07,1.07,0,0,1-.91-.52,1,1,0,0,1,.4-1.42L25,82.1V38.89a1,1,0,0,1,2.08,0V83.31L12.76,91.4A1,1,0,0,1,12.25,91.53Z" transform="translate(-11.21 -7.45)"/></svg>