<svg id="4e50aeef-13f9-4912-b5bf-fddaa1c388d9" data-name="圖層 1" xmlns="http://www.w3.org/2000/svg" xmlns:xlink="http://www.w3.org/1999/xlink" viewBox="0 0 65 65"><defs><style>.\33 c752f55-0d1f-44ef-ade4-53336b48e4f2{fill:#1a1a1a;}.ec84afd4-03d2-41e5-8915-2d702941d196{fill:url(#f400ef3f-5dac-43d0-baa9-9219515d23f6);}</style><linearGradient id="f400ef3f-5dac-43d0-baa9-9219515d23f6" x1="10.58" y1="46.72" x2="52.37" y2="22.59" gradientUnits="userSpaceOnUse"><stop offset="0" stop-color="#661001"/><stop offset="0.08" stop-color="#6a1605"/><stop offset="0.18" stop-color="#76270f"/><stop offset="0.3" stop-color="#894421"/><stop offset="0.44" stop-color="#a36b39"/><stop offset="0.58" stop-color="#c59e58"/><stop offset="0.73" stop-color="#eedb7e"/><stop offset="0.74" stop-color="#f3e282"/><stop offset="0.78" stop-color="#f1d76e"/><stop offset="0.88" stop-color="#edb634"/><stop offset="0.96" stop-color="#eaa210"/><stop offset="1" stop-color="#e99a02"/></linearGradient></defs><title>uu工作區域 7</title><path class="3c752f55-0d1f-44ef-ade4-53336b48e4f2" d="M32.57,10.89h0c-10.88,0-19.8,8.05-19.82,18l0,14.67v1.05l0,7.29A2.3,2.3,0,0,0,15.08,54H16a2.3,2.3,0,0,0,2.4-2.17V46.75a2.3,2.3,0,0,1,2.4-2.18h.86A2.29,2.29,0,0,1,24,46.76v5.11a2.3,2.3,0,0,0,2.39,2.19h.86a2.3,2.3,0,0,0,2.4-2.17V46.77a2.3,2.3,0,0,1,2.4-2.17h.86a2.31,2.31,0,0,1,2.39,2.19V51.9a2.29,2.29,0,0,0,2.39,2.18h.86A2.29,2.29,0,0,0,41,51.91V46.8a2.3,2.3,0,0,1,2.4-2.17h.86a2.29,2.29,0,0,1,2.39,2.18v5.11A2.32,2.32,0,0,0,49,54.11h.87a2.29,2.29,0,0,0,2.39-2.17l0-7.29v-1l0-14.67C52.33,19,43.45,10.91,32.57,10.89ZM28.72,27.07a1.55,1.55,0,1,1,1.69-1.53A1.61,1.61,0,0,1,28.72,27.07Zm8.05,0a1.55,1.55,0,1,1,1.7-1.54A1.61,1.61,0,0,1,36.77,27.09Z"/><path class="ec84afd4-03d2-41e5-8915-2d702941d196" d="M32.57,8.89h0c-10.88,0-19.8,8.05-19.82,18l0,14.67v1.05l0,7.29A2.3,2.3,0,0,0,15.08,52H16a2.3,2.3,0,0,0,2.4-2.17V44.75a2.3,2.3,0,0,1,2.4-2.18h.86A2.29,2.29,0,0,1,24,44.76v5.11a2.3,2.3,0,0,0,2.39,2.19h.86a2.3,2.3,0,0,0,2.4-2.17V44.77a2.3,2.3,0,0,1,2.4-2.17h.86a2.31,2.31,0,0,1,2.39,2.19V49.9a2.29,2.29,0,0,0,2.39,2.18h.86A2.29,2.29,0,0,0,41,49.91V44.8a2.3,2.3,0,0,1,2.4-2.17h.86a2.29,2.29,0,0,1,2.39,2.18v5.11A2.32,2.32,0,0,0,49,52.11h.87a2.29,2.29,0,0,0,2.39-2.17l0-7.29v-1l0-14.67C52.33,17,43.45,8.91,32.57,8.89ZM28.72,25.07a1.55,1.55,0,1,1,1.69-1.53A1.61,1.61,0,0,1,28.72,25.07Zm8.05,0a1.55,1.55,0,1,1,1.7-1.54A1.61,1.61,0,0,1,36.77,25.09Z"/></svg>