<svg id="0d07e02d-fd73-40cc-990f-a8806506d6ea" data-name="圖層 1" xmlns="http://www.w3.org/2000/svg" viewBox="0 0 65 65"><defs><style>.\30 7260aff-c6a8-4e82-abeb-239bed408c87{fill:#708bc0;}.\34 c0b0a89-4107-4fa4-abe7-10228d034bdc{fill:none;stroke:#fff;stroke-miterlimit:10;stroke-width:2px;}.b5c91377-88b6-4223-97c9-39e04ca24583{fill:#fff;}</style></defs><title>uu工作區域 8</title><path class="07260aff-c6a8-4e82-abeb-239bed408c87" d="M60,27.2C60,13.42,47.35,2.25,31.75,2.25S3.5,13.42,3.5,27.2C3.5,35,7.59,42,14,46.6l17.73,16L49.25,46.79C55.79,42.22,60,35.15,60,27.2Z"/><circle class="4c0b0a89-4107-4fa4-abe7-10228d034bdc" cx="17.54" cy="25.78" r="10.14"/><circle class="4c0b0a89-4107-4fa4-abe7-10228d034bdc" cx="46.46" cy="25.78" r="10.14"/><line class="4c0b0a89-4107-4fa4-abe7-10228d034bdc" x1="27.68" y1="25.78" x2="36.32" y2="25.78"/><path class="b5c91377-88b6-4223-97c9-39e04ca24583" d="M25.06,36.78h8.11a0,0,0,0,1,0,0v.91a4.72,4.72,0,0,1-4.72,4.72H20.34a0,0,0,0,1,0,0V41.5A4.72,4.72,0,0,1,25.06,36.78Z" transform="translate(-20.16 30.51) rotate(-45)"/><path class="b5c91377-88b6-4223-97c9-39e04ca24583" d="M31.08,36.78h8.11a4.72,4.72,0,0,1,4.72,4.72v.91a0,0,0,0,1,0,0H35.8a4.72,4.72,0,0,1-4.72-4.72v-.91A0,0,0,0,1,31.08,36.78Z" transform="translate(36.01 94.1) rotate(-135)"/></svg>