<svg id="6286dd36-85e5-446b-a046-33fc80677845" data-name="圖層 1" xmlns="http://www.w3.org/2000/svg" viewBox="0 0 65 65"><defs><style>.d44a5987-c9df-4b6a-bb8e-76266f076051{fill:#48683c;}.\30 de2573e-c836-4207-ac8b-e944646db632,.edc99207-a1ee-40bb-b54d-88eb851a02b7{fill:#66644f;}.aede463c-150f-4203-a57a-81dcffcecc87{fill:#c2c9bd;}.\37 5308604-1b76-4db8-88c0-d00b45bd76a4{fill:#2d487b;}.\31 11b5c45-4c6b-48a4-b467-00f8ffeb8489,.\33 3c238ea-375a-4147-8583-2567de16dccc,.\39 6e5b075-c52a-4c74-b001-34b575496d31{fill:#fff;}.\32 c264ae1-8b25-472f-acc2-cf0243d53105{fill:#734b23;opacity:0.66;}.\39 6e5b075-c52a-4c74-b001-34b575496d31{opacity:0.4;}.\33 3c238ea-375a-4147-8583-2567de16dccc,.edc99207-a1ee-40bb-b54d-88eb851a02b7{font-size:13.75px;font-family:Futura-Bold, Futura;font-weight:700;}</style></defs><title>uu工作區域 5</title><polygon class="d44a5987-c9df-4b6a-bb8e-76266f076051" points="9.98 24.9 17.5 9.07 44.33 5.05 48.62 10.41 51.03 24.1 60.42 45.56 59.35 63 1.94 63.27 4.62 34.56 8.91 29.46 9.98 24.9"/><polygon class="0de2573e-c836-4207-ac8b-e944646db632" points="48.35 1.02 44.33 5.05 17.5 9.07 21.52 5.05 48.35 1.02"/><polygon class="aede463c-150f-4203-a57a-81dcffcecc87" points="48.35 1.02 44.23 4.67 18.01 8.45 21.43 4 48.35 1.02"/><polygon class="75308604-1b76-4db8-88c0-d00b45bd76a4" points="63.38 58.97 59.35 63 60.42 45.56 51.03 24.1 48.62 10.41 44.33 5.05 48.35 1.02 52.64 6.39 55.06 20.07 64.45 41.53 63.38 58.97"/><path class="111b5c45-4c6b-48a4-b467-00f8ffeb8489" d="M36.14,22.76l-6.49,6.31h0l-3.22,3.14a2.43,2.43,0,0,0-.17,3.25,2,2,0,0,0,2.68.43l6.3-6.13.2-.14a5.25,5.25,0,0,1,2.74-1.17,6.67,6.67,0,0,1,.67-.06,4.85,4.85,0,0,1,3.43,1.8,5.76,5.76,0,0,1-.39,7.65l-4.53,4.4a24.62,24.62,0,0,0,2.83-.63,20.29,20.29,0,0,0,4.16-1.72c.33-.2.68-.37,1-.59l.49-.32c.15-.12.32-.23.48-.34.33-.22.62-.49,1-.73s.62-.52.91-.81a17.89,17.89,0,0,0,1.76-1.82,18.89,18.89,0,0,0,1.62-2.13A9.52,9.52,0,0,0,50.83,30c-1.81-4.41-6.75-7.84-12.95-8.94l-1.75,1.7Z"/><path class="111b5c45-4c6b-48a4-b467-00f8ffeb8489" d="M20.15,41.91,21.4,42c1.67.16,3.31.33,4.93.45.4.05.81.06,1.21.07l1.2.08c.4,0,.79,0,1.19,0h.59c.2,0,.4,0,.59,0,.5,0,1,0,1.5,0L40,35.52a2.45,2.45,0,0,0,.17-3.26,2,2,0,0,0-2.68-.43L31.16,38a4.25,4.25,0,0,1-.46.4,3.73,3.73,0,0,1-3.15,1,4.84,4.84,0,0,1-3.43-1.79,5.75,5.75,0,0,1-1.26-4,9,9,0,0,1,1.65-3.7l7.79-7.57h0L34,20.68h-.4s-6-.87-10.09,0-7.58,10.2-7.58,10.2L16,30.8a8.85,8.85,0,0,0-.41,2c-.4,1.44-1,3.95-.7,4.86a7.45,7.45,0,0,0,1.37,4v0c.89,0,1.75.07,2.6.16C19.3,41.85,19.73,41.88,20.15,41.91Z"/><path class="2c264ae1-8b25-472f-acc2-cf0243d53105" d="M25.58,46.63l-.68-.24.73.26c.73.24,1.48.45,2.23.63h0C27.1,47.09,26.34,46.88,25.58,46.63Z"/><path class="2c264ae1-8b25-472f-acc2-cf0243d53105" d="M31.57,47.86h0a24.62,24.62,0,0,0,4.7,0,20.41,20.41,0,0,0,5.41-1.38h0a20.71,20.71,0,0,1-5.4,1.37A24.63,24.63,0,0,1,31.57,47.86Z"/><path class="2c264ae1-8b25-472f-acc2-cf0243d53105" d="M51.56,33.15v0Z"/><polygon class="2c264ae1-8b25-472f-acc2-cf0243d53105" points="16.28 41.63 16.29 41.64 16.28 41.63 16.28 41.63"/><path class="96e5b075-c52a-4c74-b001-34b575496d31" d="M27.87,47.27l3.79-3.68h0l.94-.92c-.5,0-1,0-1.5,0-.19,0-.39,0-.59,0h-.59c-.4,0-.79,0-1.19,0l-1.2-.08c-.4,0-.81,0-1.21-.07-1.62-.12-3.26-.29-4.93-.45l-1.25-.12c-.42,0-.85-.06-1.27-.11-.85-.09-1.71-.15-2.6-.16h0c.7.58,1.43,1.09,2.17,1.59s1.51.92,2.29,1.35A29.2,29.2,0,0,0,24,46.05l.5.19.43.15.68.24C26.34,46.88,27.1,47.09,27.87,47.27Z"/><path class="96e5b075-c52a-4c74-b001-34b575496d31" d="M49.94,35.28a17.89,17.89,0,0,1-1.76,1.82c-.29.29-.61.55-.91.81s-.62.51-1,.73c-.16.11-.33.22-.48.34l-.49.32c-.32.22-.67.39-1,.59a20.29,20.29,0,0,1-4.16,1.72,24.62,24.62,0,0,1-2.83.63l-3,2.93-.86.84-.24.24v0l-1.67,1.63a24.63,24.63,0,0,0,4.7,0,20.71,20.71,0,0,0,5.4-1.37,16.83,16.83,0,0,0,4.85-3.06,12.64,12.64,0,0,0,1-1l.5-.54.45-.58c.15-.19.3-.39.44-.59l.41-.61.37-.64c.12-.21.24-.42.35-.64A15.12,15.12,0,0,0,51.13,36a10.36,10.36,0,0,0,.44-2.81v-.06A18.89,18.89,0,0,1,49.94,35.28Z"/><text class="edc99207-a1ee-40bb-b54d-88eb851a02b7" transform="translate(20.38 61.53)">Lv4</text><text class="33c238ea-375a-4147-8583-2567de16dccc" transform="translate(20.38 60.76)">Lv4</text></svg>