<svg id="951fae55-1b16-4cfc-8ff5-ff7d7aa176ff" data-name="圖層 1" xmlns="http://www.w3.org/2000/svg" viewBox="0 0 65 65"><defs><style>.\36 c2811aa-bb97-4885-8cc3-bc7407c31471{fill:#88433c;}.\37 6540580-a136-478d-9fdf-8513805ec046,.b6c47289-0456-46fc-bfd2-b67a72fc055d{fill:#66644f;}.\36 ac22317-70da-4594-8755-3ada6329aa89{fill:#743224;}.d6a6fbc0-ef20-4d46-ae7e-a9577952422b{fill:#471d17;}.\39 e76dd89-e2da-487e-aaf6-4b821b541202,.\39 f447a7e-08f0-46b8-bc91-f2ac0d8b9322,.f7df98b7-5c34-4b4f-b84c-e0d2ed29e383{fill:#fff;}.be5ad508-aceb-4d12-b082-c96dbd4a928b{fill:#734b23;opacity:0.66;}.\39 f447a7e-08f0-46b8-bc91-f2ac0d8b9322{opacity:0.4;}.\37 6540580-a136-478d-9fdf-8513805ec046,.\39 e76dd89-e2da-487e-aaf6-4b821b541202{font-size:13.75px;font-family:Futura-Bold, Futura;font-weight:700;}</style></defs><title>uu工作區域 3</title><polygon class="6c2811aa-bb97-4885-8cc3-bc7407c31471" points="9.52 24.55 17.03 8.72 43.86 4.69 48.15 10.06 50.56 23.74 59.95 45.2 58.88 62.64 1.47 62.91 4.15 34.2 8.44 29.11 9.52 24.55"/><polygon class="b6c47289-0456-46fc-bfd2-b67a72fc055d" points="47.88 0.67 43.86 4.69 17.03 8.72 21.05 4.69 47.88 0.67"/><polygon class="6ac22317-70da-4594-8755-3ada6329aa89" points="47.88 0.67 43.76 4.31 17.54 8.09 20.96 3.64 47.88 0.67"/><polygon class="d6a6fbc0-ef20-4d46-ae7e-a9577952422b" points="62.91 58.62 58.88 62.64 59.95 45.2 50.56 23.74 48.15 10.06 43.86 4.69 47.88 0.67 52.17 6.03 54.59 19.72 63.98 41.18 62.91 58.62"/><path class="f7df98b7-5c34-4b4f-b84c-e0d2ed29e383" d="M35.67,22.41l-6.49,6.3h0L26,31.85a2.44,2.44,0,0,0-.17,3.25,2,2,0,0,0,2.68.44l6.3-6.13.2-.15a5.34,5.34,0,0,1,2.74-1.17c.21,0,.43-.05.67-.05a4.84,4.84,0,0,1,3.43,1.79,5.76,5.76,0,0,1-.39,7.65l-4.53,4.41a26.93,26.93,0,0,0,2.83-.63,20.41,20.41,0,0,0,4.17-1.73c.32-.2.67-.37,1-.59l.49-.32c.15-.12.32-.22.48-.34.33-.22.62-.49.95-.73s.62-.51.92-.8a21.76,21.76,0,0,0,1.76-1.82A24.26,24.26,0,0,0,51.1,32.8a9.85,9.85,0,0,0-.74-3.16c-1.81-4.4-6.75-7.83-13-8.94l-1.75,1.7Z"/><path class="f7df98b7-5c34-4b4f-b84c-e0d2ed29e383" d="M19.68,41.55l1.25.13c1.67.16,3.31.32,4.93.44.4.05.81.06,1.21.08l1.2.07c.4,0,.8,0,1.19,0l.59,0a5.86,5.86,0,0,0,.59,0h1.5l7.37-7.17a2.45,2.45,0,0,0,.16-3.25A2,2,0,0,0,37,31.48l-6.3,6.13-.46.4a3.73,3.73,0,0,1-3.15,1,4.85,4.85,0,0,1-3.43-1.8,5.69,5.69,0,0,1-1.25-4A8.86,8.86,0,0,1,24,29.53L31.83,22h0l1.67-1.62h-.4s-6-.86-10.09,0S15.43,30.5,15.43,30.5l.11-.05a8.85,8.85,0,0,0-.41,2c-.4,1.43-1,3.94-.7,4.86a7.56,7.56,0,0,0,1.37,4h0c.89,0,1.75.08,2.6.17Z"/><path class="be5ad508-aceb-4d12-b082-c96dbd4a928b" d="M25.12,46.27,24.43,46l.73.25c.73.24,1.48.45,2.24.63h0C26.63,46.73,25.87,46.52,25.12,46.27Z"/><path class="be5ad508-aceb-4d12-b082-c96dbd4a928b" d="M31.1,47.5l0,0a24.62,24.62,0,0,0,4.7,0,20.31,20.31,0,0,0,5.41-1.38h0a20.51,20.51,0,0,1-5.41,1.38A24.62,24.62,0,0,1,31.1,47.5Z"/><path class="be5ad508-aceb-4d12-b082-c96dbd4a928b" d="M51.1,32.8v0Z"/><polygon class="be5ad508-aceb-4d12-b082-c96dbd4a928b" points="15.81 41.28 15.82 41.29 15.81 41.28 15.81 41.28"/><path class="9f447a7e-08f0-46b8-bc91-f2ac0d8b9322" d="M27.4,46.91l3.79-3.68h0l.94-.91h-1.5a5.86,5.86,0,0,1-.59,0l-.59,0c-.39,0-.79,0-1.19,0l-1.2-.07c-.4,0-.81,0-1.21-.08-1.62-.12-3.26-.28-4.93-.44l-1.25-.13-1.27-.1c-.85-.09-1.71-.16-2.6-.17h0c.7.57,1.43,1.09,2.17,1.59s1.52.91,2.29,1.35a32.09,32.09,0,0,0,3.22,1.46l.51.2.42.15.69.23C25.87,46.52,26.63,46.73,27.4,46.91Z"/><path class="9f447a7e-08f0-46b8-bc91-f2ac0d8b9322" d="M49.48,34.93a21.76,21.76,0,0,1-1.76,1.82c-.3.29-.62.54-.92.8s-.62.51-.95.73c-.16.12-.33.22-.48.34l-.49.32c-.32.22-.67.39-1,.59a20.41,20.41,0,0,1-4.17,1.73,26.93,26.93,0,0,1-2.83.63l-3,2.93-.86.83-.24.24h0L31.1,47.5a24.62,24.62,0,0,0,4.7,0,20.51,20.51,0,0,0,5.41-1.38A16.71,16.71,0,0,0,46.05,43a14.43,14.43,0,0,0,1-1l.49-.54.45-.58c.15-.2.3-.39.44-.6s.28-.4.41-.61l.37-.63a6.71,6.71,0,0,0,.35-.65,14.16,14.16,0,0,0,1.06-2.73,10.3,10.3,0,0,0,.44-2.81V32.8A24.26,24.26,0,0,1,49.48,34.93Z"/><text class="76540580-a136-478d-9fdf-8513805ec046" transform="translate(19.91 61.17)">Lv5</text><text class="9e76dd89-e2da-487e-aaf6-4b821b541202" transform="translate(19.91 60.41)">Lv5</text></svg>