<svg id="162497f4-1ca2-4939-8abc-dfb45661e3d5" data-name="圖層 1" xmlns="http://www.w3.org/2000/svg" viewBox="0 0 65 65"><defs><style>.\33 5ef6cc2-b953-4e04-add0-7e318875647a{fill:#080034;}.eb5a6f45-34a8-43fc-af82-9dc137e8cd18{fill:none;stroke:#fff;stroke-miterlimit:10;stroke-width:2px;}.\31 a73e979-1437-495b-a5f6-d85621a4ecbd{fill:#fff;}</style></defs><title>uu工作區域 10</title><path class="35ef6cc2-b953-4e04-add0-7e318875647a" d="M60.5,27.2c0-13.78-12.65-24.95-28.25-24.95S4,13.42,4,27.2C4,35,8.09,42,14.49,46.6l17.73,16L49.75,46.79C56.29,42.22,60.5,35.15,60.5,27.2Z"/><circle class="eb5a6f45-34a8-43fc-af82-9dc137e8cd18" cx="18.04" cy="25.78" r="10.14"/><circle class="eb5a6f45-34a8-43fc-af82-9dc137e8cd18" cx="46.96" cy="25.78" r="10.14"/><line class="eb5a6f45-34a8-43fc-af82-9dc137e8cd18" x1="28.18" y1="25.78" x2="36.82" y2="25.78"/><path class="1a73e979-1437-495b-a5f6-d85621a4ecbd" d="M25.56,36.78h8.11a0,0,0,0,1,0,0v.91a4.72,4.72,0,0,1-4.72,4.72H20.84a0,0,0,0,1,0,0V41.5A4.72,4.72,0,0,1,25.56,36.78Z" transform="translate(-20.01 30.87) rotate(-45)"/><path class="1a73e979-1437-495b-a5f6-d85621a4ecbd" d="M31.58,36.78h8.11a4.72,4.72,0,0,1,4.72,4.72v.91a0,0,0,0,1,0,0H36.3a4.72,4.72,0,0,1-4.72-4.72v-.91A0,0,0,0,1,31.58,36.78Z" transform="translate(36.86 94.45) rotate(-135)"/></svg>