<svg id="813b931c-88e5-4497-9401-d91ccd5a2034" data-name="圖層 1" xmlns="http://www.w3.org/2000/svg" viewBox="0 0 600 600"><defs><style>.\32 c7bf098-4dcc-4444-acee-3891227af4cc{fill:#fff;}.a63c4bad-348e-4f75-9ce0-f410798a9487{fill:#734b23;opacity:0.66;}.\34 a131518-126b-4c48-b3bf-420173363ec9{fill:#b3b3b3;}</style></defs><title>logoBW工作區域 1</title><path class="2c7bf098-4dcc-4444-acee-3891227af4cc" d="M113.45,228.29,88,253h0L75.34,265.36a9.61,9.61,0,0,0-.65,12.77,7.83,7.83,0,0,0,10.51,1.69l24.72-24s.29-.22.81-.57a20.47,20.47,0,0,1,10.74-4.58,24.1,24.1,0,0,1,2.63-.22,19,19,0,0,1,13.46,7c7.19,8.76,6.51,22.2-1.53,30l-17.77,17.29a101.05,101.05,0,0,0,11.09-2.48,78.52,78.52,0,0,0,16.36-6.78c1.28-.78,2.65-1.44,3.9-2.31l1.93-1.25c.61-.46,1.25-.89,1.88-1.34,1.31-.85,2.44-1.92,3.73-2.85s2.44-2,3.59-3.17a78.11,78.11,0,0,0,6.91-7.14,82.94,82.94,0,0,0,6.36-8.36,38.72,38.72,0,0,0-2.86-12.38c-7.13-17.3-26.51-30.76-50.84-35.1l-6.86,6.68Z"/><path class="2c7bf098-4dcc-4444-acee-3891227af4cc" d="M50.7,303.45c1.66.14,3.29.33,4.93.48,6.55.63,13,1.28,19.33,1.75,1.58.2,3.17.23,4.75.3l4.71.3c1.56.09,3.12.06,4.68.13l2.33.08c.77,0,1.54.07,2.31,0,2,0,3.93,0,5.88,0l28.9-28.12a9.59,9.59,0,0,0,.65-12.77,7.85,7.85,0,0,0-10.51-1.69L93.94,288a20.8,20.8,0,0,1-1.84,1.58s-5.34,5.33-12.33,3.8a19,19,0,0,1-13.47-7,22.41,22.41,0,0,1-4.94-15.54,35,35,0,0,1,6.47-14.5l30.56-29.73h0l6.56-6.37c-.53,0-1,0-1.58,0,0,0-23.62-3.4-39.58-.06s-29.74,40-29.74,40l.4-.23a38.3,38.3,0,0,0-1.61,7.74c-1.57,5.64-4,15.48-2.71,19.08a29.19,29.19,0,0,0,5.37,15.64l0,.06c3.49,0,6.86.31,10.18.65C47.37,303.21,49,303.31,50.7,303.45Z"/><path class="a63c4bad-348e-4f75-9ce0-f410798a9487" d="M72,322c-.9-.29-1.79-.62-2.69-.93,1,.33,1.9.68,2.86,1q4.32,1.43,8.78,2.47l0,0C78,323.77,75,322.94,72,322Z"/><path class="a63c4bad-348e-4f75-9ce0-f410798a9487" d="M95.52,326.8l-.06.06a96.57,96.57,0,0,0,18.46-.14,79.54,79.54,0,0,0,21.2-5.43l.07,0a80.35,80.35,0,0,1-21.23,5.4A98,98,0,0,1,95.52,326.8Z"/><path class="a63c4bad-348e-4f75-9ce0-f410798a9487" d="M174,269.08c0,.07,0,.14,0,.21v-.24Z"/><path class="a63c4bad-348e-4f75-9ce0-f410798a9487" d="M35.52,302.37l0,0,0,0Z"/><path class="4a131518-126b-4c48-b3bf-420173363ec9" d="M81,324.48,95.87,310l0,.06,3.71-3.61c-2,0-3.91,0-5.88,0-.77,0-1.54,0-2.31,0l-2.33-.08c-1.56-.07-3.12,0-4.68-.13l-4.71-.3c-1.58-.07-3.17-.1-4.75-.3-6.35-.47-12.78-1.12-19.33-1.75-1.64-.15-3.27-.34-4.93-.48s-3.33-.24-5-.43c-3.32-.34-6.69-.61-10.18-.65l0,0c2.75,2.25,5.61,4.28,8.51,6.24s6,3.59,9,5.3a120.86,120.86,0,0,0,12.65,5.75c.66.25,1.31.52,2,.76s1.12.39,1.67.59c.9.31,1.79.64,2.69.93C75,322.94,78,323.77,81,324.48Z"/><path class="4a131518-126b-4c48-b3bf-420173363ec9" d="M167.65,277.44a78.11,78.11,0,0,1-6.91,7.14c-1.15,1.13-2.41,2.13-3.59,3.17s-2.42,2-3.73,2.85c-.63.45-1.27.88-1.88,1.34l-1.93,1.25c-1.25.87-2.62,1.53-3.9,2.31a78.52,78.52,0,0,1-16.36,6.78,101.05,101.05,0,0,1-11.09,2.48l-11.83,11.5-3.36,3.28-1,.93,0-.05-6.56,6.38a98,98,0,0,0,18.44-.14,80.35,80.35,0,0,0,21.23-5.4,65.31,65.31,0,0,0,19-12,50.29,50.29,0,0,0,4.08-4.05l1.94-2.13c.61-.74,1.19-1.52,1.78-2.28s1.17-1.51,1.71-2.32,1.09-1.58,1.61-2.39l1.46-2.5a28.09,28.09,0,0,0,1.37-2.54,57.35,57.35,0,0,0,4.18-10.7,41.86,41.86,0,0,0,1.71-11c0-.07,0-.14,0-.21A82.94,82.94,0,0,1,167.65,277.44Z"/><rect class="2c7bf098-4dcc-4444-acee-3891227af4cc" x="224.48" y="245.74" width="2.96" height="9.65"/><path class="2c7bf098-4dcc-4444-acee-3891227af4cc" d="M217.76,317.08l-3.13-1.38a.64.64,0,0,1-.31-.8L219,302.44a.54.54,0,0,1,.73-.34l3.13,1.38a.65.65,0,0,1,.31.8l-4.66,12.46A.55.55,0,0,1,217.76,317.08Z"/><path class="2c7bf098-4dcc-4444-acee-3891227af4cc" d="M229.72,316.78l-3.36-.3a.61.61,0,0,1-.52-.66l1-13.41a.58.58,0,0,1,.61-.55l3.36.3a.6.6,0,0,1,.51.66l-1,13.41A.58.58,0,0,1,229.72,316.78Z"/><path class="2c7bf098-4dcc-4444-acee-3891227af4cc" d="M241.58,314.8l-3.36.4a.58.58,0,0,1-.62-.55l-1.12-11.38a.59.59,0,0,1,.49-.67l3.36-.39a.57.57,0,0,1,.62.54l1.12,11.38A.59.59,0,0,1,241.58,314.8Z"/><path class="2c7bf098-4dcc-4444-acee-3891227af4cc" d="M251.65,311.85l-3.29.82a.56.56,0,0,1-.67-.46l-2.15-10.13a.62.62,0,0,1,.42-.73l3.29-.82a.56.56,0,0,1,.67.46l2.15,10.12A.63.63,0,0,1,251.65,311.85Z"/><rect class="2c7bf098-4dcc-4444-acee-3891227af4cc" x="240.81" y="245.74" width="2.96" height="9.65"/><path class="2c7bf098-4dcc-4444-acee-3891227af4cc" d="M279.83,316.71H264.21c-4.65,0-8.44-4.11-8.44-9.18V284.12c0-5.06,3.79-9.18,8.44-9.18h15.62c4.66,0,8.45,4.12,8.45,9.18v23.41C288.28,312.6,284.49,316.71,279.83,316.71Zm-15.62-35.4a2.71,2.71,0,0,0-2.58,2.81v23.41a2.71,2.71,0,0,0,2.58,2.81h15.62a2.71,2.71,0,0,0,2.58-2.81V284.12a2.71,2.71,0,0,0-2.58-2.81Z"/><polygon class="2c7bf098-4dcc-4444-acee-3891227af4cc" points="269.46 277.75 269.09 231.49 274.95 231.43 275.32 277.7 269.46 277.75"/><rect class="2c7bf098-4dcc-4444-acee-3891227af4cc" x="272.02" y="248.79" width="15.54" height="6.37"/><path class="2c7bf098-4dcc-4444-acee-3891227af4cc" d="M245.28,268.64H223.83c-5.28,0-9.57-4.67-9.57-10.4V243.71c0-5.74,4.29-10.41,9.57-10.41h21.45c5.28,0,9.57,4.67,9.57,10.41v14.53C254.85,264,250.56,268.64,245.28,268.64Zm-21.45-29a3.88,3.88,0,0,0-3.71,4v14.53a3.89,3.89,0,0,0,3.71,4h21.45a3.89,3.89,0,0,0,3.71-4V243.71a3.88,3.88,0,0,0-3.71-4Z"/><rect class="2c7bf098-4dcc-4444-acee-3891227af4cc" x="220.21" y="274.94" width="30.86" height="6.37"/><rect class="2c7bf098-4dcc-4444-acee-3891227af4cc" x="204.88" y="263.03" width="59.35" height="5.86" transform="translate(-31.66 500.24) rotate(-89.94)"/><path class="2c7bf098-4dcc-4444-acee-3891227af4cc" d="M217.74,298.08v-6.37c.2,0,20.37,0,32.93-4l1.62,6.13C238.92,298,218.6,298.08,217.74,298.08Z"/><rect class="2c7bf098-4dcc-4444-acee-3891227af4cc" x="309.98" y="236.45" width="68.98" height="6.37"/><path class="2c7bf098-4dcc-4444-acee-3891227af4cc" d="M367.6,313.86H330.94a8.29,8.29,0,0,1-8.48-8.07V279a7.84,7.84,0,0,1,2-5.19,8.64,8.64,0,0,1,6.51-2.88H367.6a8.29,8.29,0,0,1,8.47,8.07v26.77A8.29,8.29,0,0,1,367.6,313.86Zm-36.66-36.54a3,3,0,0,0-2.27.91,1.24,1.24,0,0,0-.35.79v26.77c0,.79,1.15,1.7,2.62,1.7H367.6c1.47,0,2.61-.91,2.61-1.7V279c0-.79-1.14-1.7-2.61-1.7Z"/><path class="2c7bf098-4dcc-4444-acee-3891227af4cc" d="M311.82,292.48l-2.11-5.94c3.77-1.58,8.78-10.25,11.06-15.34l13.58-32.71,5.35,2.62L326.08,273.9C325.34,275.56,319,289.49,311.82,292.48Z"/><path class="2c7bf098-4dcc-4444-acee-3891227af4cc" d="M405.66,267.78h-6v-23c-.62-7.33,3.08-10.89,5.38-11.83l13.56-5.38,2,6.11L407.14,239c-.07,0-1.88,1.11-1.49,5.26v23.5Z"/><path class="2c7bf098-4dcc-4444-acee-3891227af4cc" d="M464.71,267.07h-6l.06-29.13a2.09,2.09,0,0,0,0-1.32,2.34,2.34,0,0,0-1.33-.6H442.25v-6.51h15.34a8,8,0,0,1,5.91,3.14,8.2,8.2,0,0,1,1.21,6.27Z"/><path class="2c7bf098-4dcc-4444-acee-3891227af4cc" d="M422.69,246l-2.43-5.94c10.86-5.25,15.84-12.23,15.89-12.3l4.78,3.91C440.7,232,435.07,240.05,422.69,246Z"/><path class="2c7bf098-4dcc-4444-acee-3891227af4cc" d="M438.4,246.06c-1.36-1.83-9.89-7.4-17-11.52l2.82-5.74c2.65,1.53,16,9.37,18.85,13.16Z"/><path class="2c7bf098-4dcc-4444-acee-3891227af4cc" d="M423.57,263.38l-2.43-5.94C432,252.2,437,245.21,437,245.14l4.78,3.91C441.57,249.39,436,257.4,423.57,263.38Z"/><path class="2c7bf098-4dcc-4444-acee-3891227af4cc" d="M439.28,263.41c-1.37-1.82-9.9-7.4-17-11.52l2.81-5.74c2.65,1.53,16,9.38,18.85,13.16Z"/><rect class="2c7bf098-4dcc-4444-acee-3891227af4cc" x="402.02" y="242.9" width="16.84" height="6.5"/><rect class="2c7bf098-4dcc-4444-acee-3891227af4cc" x="402.02" y="251.65" width="16.84" height="6.5"/><rect class="2c7bf098-4dcc-4444-acee-3891227af4cc" x="445.08" y="242.9" width="16.84" height="6.5"/><rect class="2c7bf098-4dcc-4444-acee-3891227af4cc" x="445.08" y="251.65" width="16.84" height="6.5"/><path class="2c7bf098-4dcc-4444-acee-3891227af4cc" d="M423.61,316.35c-1.72,0-3.06-.53-3.33-2.76-.39-3.27,1-3.47,8.34-4.62,2.64-.41,3.1-1.64,3.27-2.1,1.19-3.19-1.46-9.57-2.81-11.48a7.08,7.08,0,0,1-1.51-5.78A4.78,4.78,0,0,1,430,286.4l.8-.25c4.89-.75,12.33-2.55,15.28-4.46H409.87v-6.51h40l.47.17a5.25,5.25,0,0,1,3.27,3.84c.44,2.16-.44,4.38-2.61,6.6-3.34,3.42-12.05,5.46-16.71,6.35,1.72,2.86,5.49,10.95,3.15,17.18-.88,2.35-3,5.31-8,6.09l-3.38.53,0,.19A20.82,20.82,0,0,1,423.61,316.35Z"/><rect class="2c7bf098-4dcc-4444-acee-3891227af4cc" x="403.97" y="296.4" width="62.26" height="6.5"/><path class="2c7bf098-4dcc-4444-acee-3891227af4cc" d="M398.38,277.89l-6-.19.06-2.64v-4.51l.06-.32c.09-.48,1-4.72,7-5.44,4-.49,61.41-.08,68.66,0a5.19,5.19,0,0,1,5.44,4.45l.07.7v6.31h-6v-5c-25.87-.2-64.79-.35-67.53,0a3.86,3.86,0,0,0-1.71.53Zm-.13-5.93Z"/><path class="2c7bf098-4dcc-4444-acee-3891227af4cc" d="M552.63,316.75H509.87c-9.71,0-17.61-8.14-17.61-18.13V245.47c0-10,7.9-18.13,17.61-18.13h42.76c9.71,0,17.6,8.13,17.6,18.13v53.15C570.23,308.61,562.34,316.75,552.63,316.75Zm-42.76-83.11a11.68,11.68,0,0,0-11.49,11.83v53.15a11.68,11.68,0,0,0,11.49,11.83h42.76a11.68,11.68,0,0,0,11.49-11.83V245.47a11.68,11.68,0,0,0-11.49-11.83Z"/><rect class="2c7bf098-4dcc-4444-acee-3891227af4cc" x="509.65" y="243.46" width="42.74" height="6.07"/><rect class="2c7bf098-4dcc-4444-acee-3891227af4cc" x="504.2" y="257.27" width="52.47" height="6.07"/><rect class="2c7bf098-4dcc-4444-acee-3891227af4cc" x="527.49" y="237.95" width="5.58" height="23.89"/><path class="2c7bf098-4dcc-4444-acee-3891227af4cc" d="M544.38,284.23H516.6a7.74,7.74,0,0,1-7.92-7.53v-3.11a7.74,7.74,0,0,1,7.92-7.53h27.78a7.74,7.74,0,0,1,7.91,7.53v3.11A7.74,7.74,0,0,1,544.38,284.23ZM516.6,271.37a2.28,2.28,0,0,0-2.33,2.22v3.11a2.27,2.27,0,0,0,2.33,2.22h27.78a2.28,2.28,0,0,0,2.33-2.22v-3.11a2.29,2.29,0,0,0-2.33-2.22Z"/><path class="2c7bf098-4dcc-4444-acee-3891227af4cc" d="M507.77,298.25l-2.54-5.41c8.95-5,11.84-12,11.87-12l5.11,2.43C522.07,283.61,518.48,292.31,507.77,298.25Z"/><polygon class="2c7bf098-4dcc-4444-acee-3891227af4cc" points="534.73 282.2 529.51 282.92 530.08 285.71 534.73 282.2"/><path class="2c7bf098-4dcc-4444-acee-3891227af4cc" d="M552.94,291l-3.16-5A83.67,83.67,0,0,1,531,296.16c-7.06,2.82-10.67,3.26-12.43,3.16v-8.1h0v-3.28h-.86v1.81h-4.57v7.64A7.12,7.12,0,0,0,515,303.9a6.4,6.4,0,0,0,3.59,1.57,21,21,0,0,0,3.52-.35h-.06a51.22,51.22,0,0,0,10.9-3.27A88,88,0,0,0,552.94,291Z"/><path class="2c7bf098-4dcc-4444-acee-3891227af4cc" d="M545.89,299.68c-3.29-.23-8.4-10-10.82-17l-5.23,2.14c1.17,3.39,7.45,20.34,15.7,20.91l.88,0,6.8-1.13v-5.89Z"/></svg>