<svg id="d50e081d-dd55-484a-a672-67b5cb2b8d89" data-name="圖層 1" xmlns="http://www.w3.org/2000/svg" viewBox="0 0 600 600"><defs><style>.e78276ca-bc23-4c00-8e71-3f2f24c98884{fill:#1f191c;}.ed931040-9a90-4560-a4fc-3e46aec4841b{fill:#77aa3c;}.\33 bff9e44-6e9f-42a4-80f1-e45fcfa99628{fill:#734b23;opacity:0.66;}.b9b49655-b1d6-4ecf-8089-00ceb5e158e6{fill:#696038;}</style></defs><title>logo2工作區域 1</title><path class="e78276ca-bc23-4c00-8e71-3f2f24c98884" d="M206.3,292.74H196.2v16.11q0,4.45.66,5.93c.44,1,1.56,1.46,3.37,1.46l6-.22.36,6.37a43,43,0,0,1-7.46.95q-6.23,0-8.53-2.85t-2.31-10.76v-17h-4.68v-6.8h4.68V275.32h7.91v10.62h10.1Z"/><path class="e78276ca-bc23-4c00-8e71-3f2f24c98884" d="M214.18,289.89q3.76-4.75,12.55-4.76t12.56,4.76q3.77,4.75,3.77,14.27t-3.67,14.35q-3.66,4.83-12.66,4.83t-12.66-4.83q-3.66-4.83-3.66-14.35T214.18,289.89Zm6,23.79c1.13,1.95,3.32,2.93,6.59,2.93s5.47-1,6.59-2.93,1.68-5.15,1.68-9.59-.6-7.59-1.79-9.44-3.36-2.78-6.48-2.78-5.28.92-6.48,2.78-1.79,5-1.79,9.44S219,311.73,220.14,313.68Z"/><path class="e78276ca-bc23-4c00-8e71-3f2f24c98884" d="M168.4,285.26h0c-.81,0-1.58-.07-2.32-.07a16.32,16.32,0,0,0-9.84,2.79q-3.84,2.77-3.84,8.41c0,3.76.92,6.35,2.78,7.76s4.77,2.45,8.74,3.11,6.49,1.27,7.54,1.83a3.15,3.15,0,0,1,1.58,3,3.35,3.35,0,0,1-1.65,3.15,11.8,11.8,0,0,1-5.53.95c-.46,0-1,0-1.56,0H153.72v7.07H164.1c.83.05,1.62.08,2.35.08q7.1,0,10.8-2.71t3.69-8.49c0-3.85-.85-6.54-2.56-8.05s-4.6-2.62-8.67-3.33a36.94,36.94,0,0,1-7.76-1.87,2.83,2.83,0,0,1-1.65-2.78,3.13,3.13,0,0,1,1.5-2.89q1.5-.92,5.38-.92l1.22,0h9.89v-7.07Z"/><path class="e78276ca-bc23-4c00-8e71-3f2f24c98884" d="M292.73,312.82a21,21,0,0,1-.82-5.22h-.22A12.48,12.48,0,0,0,292.73,312.82Z"/><path class="e78276ca-bc23-4c00-8e71-3f2f24c98884" d="M290.53,321.61a17.69,17.69,0,0,0,9.17,2.08,22,22,0,0,0,6.12-.78,60,60,0,0,1-6.95.43A17.85,17.85,0,0,1,290.53,321.61Z"/><path class="e78276ca-bc23-4c00-8e71-3f2f24c98884" d="M303.72,292.56a9.16,9.16,0,0,0-4.19-.84,11,11,0,0,0-2.76.32,11,11,0,0,1,2.76-.32A9.16,9.16,0,0,1,303.72,292.56Z"/><path class="e78276ca-bc23-4c00-8e71-3f2f24c98884" d="M292.35,296.31a7.72,7.72,0,0,1,.39-1A7.72,7.72,0,0,0,292.35,296.31Z"/><path class="e78276ca-bc23-4c00-8e71-3f2f24c98884" d="M314.39,307.6l.51-5.71q0-16.75-15.37-16.76-15.88,0-15.89,19.47,0,9.81,3.55,14.27a10.39,10.39,0,0,0,3.34,2.74,17.85,17.85,0,0,0,8.34,1.73,60,60,0,0,0,6.95-.43,11,11,0,0,0,5.91-3.8,14.33,14.33,0,0,0,1.78-3.24,20.35,20.35,0,0,0,.78-2.43h-7.83a9.92,9.92,0,0,1-.5,1.08,4.94,4.94,0,0,1-1.83,1.8,8.86,8.86,0,0,1-4.43,1c-3.1,0-5.19-.93-6.25-2.78a8.36,8.36,0,0,1-.72-1.7,12.48,12.48,0,0,1-1-5.22h22.7Zm-22.77-6.15c0-.43,0-.85.05-1.25a18,18,0,0,1,.26-2.23,11.82,11.82,0,0,1,.42-1.66,7.72,7.72,0,0,1,.39-1,6.57,6.57,0,0,1,.82-1.32,5.92,5.92,0,0,1,3.21-1.95,11,11,0,0,1,2.76-.32,9.16,9.16,0,0,1,4.19.84,5,5,0,0,1,1.63,1.32c1.14,1.44,1.72,4,1.72,7.57Z"/><path class="e78276ca-bc23-4c00-8e71-3f2f24c98884" d="M276.2,289.27q-2.68-4.14-10-4.14a14.89,14.89,0,0,0-2.19.17l.09-.06s-5.38.62-8,2v-1.34h-7.9v36.59h8v-28.4l1.09-.44a18.29,18.29,0,0,1,7.18-1.46c2.63,0,4.38.83,5.23,2.49s1.28,4.46,1.28,8.42v19.39h7.91V302.92Q278.87,293.4,276.2,289.27Z"/><path class="e78276ca-bc23-4c00-8e71-3f2f24c98884" d="M390.8,326.92c.16,0,.3-.1.46-.15a3.65,3.65,0,0,1-.64.2Z"/><path class="e78276ca-bc23-4c00-8e71-3f2f24c98884" d="M501.84,323.52c0,.08,0,.16,0,.24v-.49C501.86,323.35,501.84,323.43,501.84,323.52Z"/><path class="e78276ca-bc23-4c00-8e71-3f2f24c98884" d="M538.71,323.54a1.46,1.46,0,0,0,0,.22v-.45A1.81,1.81,0,0,0,538.71,323.54Z"/><path class="e78276ca-bc23-4c00-8e71-3f2f24c98884" d="M568.62,323.5v.26s0-.08,0-.13S568.62,323.54,568.62,323.5Z"/><path class="e78276ca-bc23-4c00-8e71-3f2f24c98884" d="M354.8,310.23a11.93,11.93,0,0,1-1.19,3.39c-.05.09-.12.16-.17.24-1.22,1.89-3.46,2.84-6.75,2.84s-5.74-1-6.91-3.08-1.77-5.4-1.77-10.06.62-8,1.88-9.92,3.52-2.92,6.8-2.92,5.55,1,6.8,2.92a9.4,9.4,0,0,1,1.13,2.72h7.56a14.77,14.77,0,0,0-.58-4.62l-.1-.24a10.63,10.63,0,0,0-4.75-5.55q-3.83-2.28-10.06-2.29-9.22,0-13.18,5t-3.95,15q0,10,3.84,15.06t13.29,5.07q9.45,0,13.29-5.07a15.13,15.13,0,0,0,2-3.66c.11-.38.22-.77.32-1.17a19.78,19.78,0,0,0,.64-3.63Z"/><path class="e78276ca-bc23-4c00-8e71-3f2f24c98884" d="M383.21,291.2c-.69,0-1.48,0-2.27.06Z"/><path class="e78276ca-bc23-4c00-8e71-3f2f24c98884" d="M383.21,291.2c.89,0,1.6,0,1.9,0-.21,0-.41,0-.63,0Z"/><path class="e78276ca-bc23-4c00-8e71-3f2f24c98884" d="M369.74,289c.2-.23.41-.46.65-.69C370.15,288.51,369.94,288.74,369.74,289Z"/><path class="e78276ca-bc23-4c00-8e71-3f2f24c98884" d="M373.14,286.28a12.28,12.28,0,0,0-2.74,2A12.28,12.28,0,0,1,373.14,286.28Z"/><path class="e78276ca-bc23-4c00-8e71-3f2f24c98884" d="M378.54,284.5l-.32.05.33,0Z"/><path class="e78276ca-bc23-4c00-8e71-3f2f24c98884" d="M398.79,316.44a3.62,3.62,0,0,1-.87-2.47V296.65q0-6.52-3.08-9.53t-10-3a55.07,55.07,0,0,0-6.27.39h0a16.57,16.57,0,0,0-5.43,1.76,12.28,12.28,0,0,0-2.74,2h0c-.24.23-.45.46-.65.69a8.84,8.84,0,0,0-1.87,3.27,19.88,19.88,0,0,0-.64,3.64h8.18a11.63,11.63,0,0,1,1.19-3.39c0-.09.11-.16.16-.25.46-.62,2.32-.88,4.18-1,.79-.05,1.58-.06,2.27-.06h1.27c.22,0,.42,0,.63,0a5.26,5.26,0,0,1,3.28,1.17c.88.81,1.33,2.23,1.33,4.25v2.74l-9.8.83q-6.37.54-9.45,3.12c-2.06,1.72-3.08,4.5-3.08,8.35q0,12.07,11.31,12.07a28.91,28.91,0,0,0,12.23-2.8q3.57,2.81,10.1,2.8l.23-6.3A4.22,4.22,0,0,1,398.79,316.44Zm-9.07-1.1-1.37.45A29.39,29.39,0,0,1,380.3,317q-4.64,0-4.63-5.24c0-3.5,1.74-5.4,5.24-5.7l8.81-.84Z"/><path class="e78276ca-bc23-4c00-8e71-3f2f24c98884" d="M373.14,286.28h0a16.57,16.57,0,0,1,5.43-1.76h0l-.33,0a16.26,16.26,0,0,0-5.1,1.74Z"/><path class="e78276ca-bc23-4c00-8e71-3f2f24c98884" d="M370.39,288.28h0Z"/><path class="e78276ca-bc23-4c00-8e71-3f2f24c98884" d="M455,290.5q-2.67-4.14-10-4.14a15.13,15.13,0,0,0-2.2.17l.1-.06s-5.38.62-8,2l-1.94.91c-1.91-2-4.95-3.06-9.14-3.06a15.13,15.13,0,0,0-2.2.17l.1-.06s-5.38.62-8,2v-1.34h-7.9v36.59h8v-28.4l1.1-.44a18.29,18.29,0,0,1,7.18-1.46c2.63,0,4.38.83,5.23,2.49s1.28,4.46,1.28,8.42v19.39h7.91V304.15a40.31,40.31,0,0,0-.87-9l.45-.19a18.29,18.29,0,0,1,7.18-1.46c2.63,0,4.38.83,5.23,2.49s1.28,4.46,1.28,8.42v19.39h7.91V304.15C457.71,297.81,456.81,293.25,455,290.5Z"/><path class="e78276ca-bc23-4c00-8e71-3f2f24c98884" d="M493.66,289.23q-4-5-13.18-5a21.94,21.94,0,0,0-8.06,1.33v-1.15h-8.29v54.33h8.29V323.07a22.61,22.61,0,0,0,8.06,1.27q9.45,0,13.29-5.07t3.84-15.06Q497.61,294.22,493.66,289.23Zm-6.27,25c-1.17,2.05-3.48,3.07-6.91,3.07s-5.53-.95-6.75-2.83c-.05-.08-.12-.15-.17-.24a11.81,11.81,0,0,1-1.14-3.19V296.22a7.53,7.53,0,0,1,2-3c1.33-1.3,3.34-2,6-2,3.28,0,5.54,1,6.8,2.92s1.88,5.25,1.88,9.91S488.57,312.15,487.39,314.2Z"/><path class="e78276ca-bc23-4c00-8e71-3f2f24c98884" d="M505.19,319.63q2.67,4.14,10,4.13a16.52,16.52,0,0,0,2.2-.16l-.1.06s5.38-.62,8-2V323h7.91v-36.6h-8v28.4l-1.1.44a18,18,0,0,1-7.17,1.47c-2.64,0-4.38-.84-5.24-2.49s-1.28-4.47-1.28-8.42v-19.4h-7.9V306Q502.52,315.49,505.19,319.63Z"/><path class="e78276ca-bc23-4c00-8e71-3f2f24c98884" d="M554.43,285.69h0c-.81-.05-1.59-.07-2.32-.07a16.44,16.44,0,0,0-9.85,2.78q-3.84,2.79-3.84,8.42c0,3.76.93,6.34,2.78,7.76S546,307,550,307.7s6.49,1.27,7.54,1.83a3.13,3.13,0,0,1,1.57,3,3.34,3.34,0,0,1-1.64,3.14q-1.65,1-5.53,1c-.46,0-1,0-1.56-.05H539.74v7.07h10.39c.83.05,1.61.07,2.35.07q7.1,0,10.79-2.7t3.7-8.49c0-3.86-.86-6.54-2.56-8.06s-4.6-2.62-8.68-3.33a37.34,37.34,0,0,1-7.76-1.86,2.86,2.86,0,0,1-1.64-2.78,3.16,3.16,0,0,1,1.5-2.9q1.5-.92,5.38-.91l1.22,0h9.88v-7.07Z"/><path class="ed931040-9a90-4560-a4fc-3e46aec4841b" d="M88.19,267.85,70.91,284.66h0L62.31,293a6.51,6.51,0,0,0-.44,8.67A5.32,5.32,0,0,0,69,302.84l16.79-16.33.55-.39A13.89,13.89,0,0,1,93.63,283a16.63,16.63,0,0,1,1.78-.15,12.84,12.84,0,0,1,9.14,4.78,15.35,15.35,0,0,1-1,20.39L91.45,319.77A67.8,67.8,0,0,0,99,318.09a54.4,54.4,0,0,0,11.11-4.6c.87-.53,1.8-1,2.65-1.58l1.3-.84c.42-.32.85-.61,1.28-.91.89-.58,1.66-1.31,2.53-1.94s1.66-1.38,2.45-2.15a55.47,55.47,0,0,0,4.69-4.85,57.15,57.15,0,0,0,4.32-5.68,26.38,26.38,0,0,0-2-8.4c-4.84-11.75-18-20.89-34.52-23.83l-4.66,4.53Z"/><path class="ed931040-9a90-4560-a4fc-3e46aec4841b" d="M45.58,318.88c1.12.09,2.23.22,3.35.33,4.44.43,8.81.86,13.12,1.19,1.07.13,2.15.15,3.22.2l3.2.2c1.06.07,2.12,0,3.18.09l1.58.05c.53,0,1,.05,1.57,0,1.34,0,2.67,0,4,0l19.63-19.1a6.51,6.51,0,0,0,.44-8.66A5.34,5.34,0,0,0,91.72,292L74.94,308.36a13.88,13.88,0,0,1-1.25,1.07s-3.63,3.62-8.38,2.58a12.89,12.89,0,0,1-9.14-4.78,15.24,15.24,0,0,1-3.35-10.55,23.76,23.76,0,0,1,4.39-9.85L78,266.65h0l4.45-4.33H81.34s-16-2.31-26.88-.05-20.19,27.18-20.19,27.18l.27-.15a25.92,25.92,0,0,0-1.09,5.25c-1.07,3.83-2.7,10.51-1.85,13a19.84,19.84,0,0,0,3.65,10.63l0,0c2.36,0,4.65.21,6.91.44C43.32,318.72,44.45,318.79,45.58,318.88Z"/><path class="3bff9e44-6e9f-42a4-80f1-e45fcfa99628" d="M60.07,331.46c-.62-.2-1.22-.42-1.83-.64.65.23,1.29.47,1.94.68q2.94,1,6,1.68l0,0Q63.07,332.44,60.07,331.46Z"/><path class="3bff9e44-6e9f-42a4-80f1-e45fcfa99628" d="M76,334.73l0,0a65.62,65.62,0,0,0,12.53-.09A54.21,54.21,0,0,0,102.9,331l0,0a54.69,54.69,0,0,1-14.42,3.66A66.34,66.34,0,0,1,76,334.73Z"/><path class="3bff9e44-6e9f-42a4-80f1-e45fcfa99628" d="M129.31,295.54a.76.76,0,0,0,0,.15v-.15Z"/><path class="3bff9e44-6e9f-42a4-80f1-e45fcfa99628" d="M35.27,318.15l0,0v0Z"/><path class="b9b49655-b1d6-4ecf-8089-00ceb5e158e6" d="M66.16,333.16l10.09-9.81,0,0,2.51-2.45c-1.32,0-2.65,0-4,0-.52,0-1,0-1.57,0l-1.58-.05c-1.06-.05-2.12,0-3.18-.09l-3.2-.2c-1.07-.05-2.15-.07-3.22-.2-4.31-.33-8.68-.76-13.12-1.19-1.12-.11-2.23-.24-3.35-.33s-2.26-.16-3.39-.29c-2.26-.23-4.55-.41-6.91-.44v0c1.87,1.53,3.81,2.9,5.78,4.23s4,2.44,6.11,3.6a80.87,80.87,0,0,0,8.59,3.91l1.34.52,1.13.39c.61.22,1.21.44,1.83.64Q63.07,332.44,66.16,333.16Z"/><path class="b9b49655-b1d6-4ecf-8089-00ceb5e158e6" d="M125,301.22a55.47,55.47,0,0,1-4.69,4.85c-.79.77-1.64,1.45-2.45,2.15s-1.64,1.36-2.53,1.94c-.43.3-.86.59-1.28.91l-1.3.84c-.85.59-1.78,1-2.65,1.58A54.4,54.4,0,0,1,99,318.09a67.8,67.8,0,0,1-7.53,1.68l-8,7.81-2.28,2.22-.65.63,0,0L76,334.73a66.34,66.34,0,0,0,12.52-.09A54.69,54.69,0,0,0,103,331a44.7,44.7,0,0,0,12.9-8.17,34.21,34.21,0,0,0,2.77-2.75l1.31-1.44c.42-.51.81-1,1.21-1.55s.8-1,1.16-1.58.74-1.07,1.09-1.62l1-1.7c.33-.56.65-1.12.93-1.72a39,39,0,0,0,2.84-7.27,28.46,28.46,0,0,0,1.16-7.49.76.76,0,0,1,0-.15A57.15,57.15,0,0,1,125,301.22Z"/></svg>