<svg id="2504b856-fa29-42e1-96d9-2d45487fd890" data-name="圖層 1" xmlns="http://www.w3.org/2000/svg" viewBox="0 0 65 65"><defs><style>.\34 d4d8a38-e273-4f70-8c40-d082f47cf610{fill:#111b1d;}.\39 8fa2ae5-a1e5-4cf5-8808-ddac7b7b1522,.f4de73bc-b4c2-4baa-b0a2-65003432778d{fill:#66644f;}.\30 ce42081-5b31-4ae2-b683-9ac8cb970216{fill:#44595e;}.\32 61a88e7-fb82-492c-b721-461586c1e869{fill:#2a3f3e;}.\36 dfdab68-45ab-4993-97e1-a5f2aeb24f4d,.\38 6dc05b2-583a-4994-8c03-55fa703f3b9a,.b0b2a3a9-a9ce-40ad-848e-1e5ae4b02c4b{fill:#fff;}.\35 cd360cd-8fdd-4d7f-b2d8-1d637ec0749e{fill:#734b23;opacity:0.66;}.\36 dfdab68-45ab-4993-97e1-a5f2aeb24f4d{opacity:0.4;}.\39 8fa2ae5-a1e5-4cf5-8808-ddac7b7b1522,.b0b2a3a9-a9ce-40ad-848e-1e5ae4b02c4b{font-size:13.75px;font-family:Futura-Bold, Futura;font-weight:700;}</style></defs><title>uu工作區域 6</title><polygon class="4d4d8a38-e273-4f70-8c40-d082f47cf610" points="9.23 24.9 16.75 9.07 43.58 5.05 47.87 10.41 50.28 24.1 59.67 45.56 58.6 63 1.19 63.27 3.87 34.56 8.16 29.46 9.23 24.9"/><polygon class="f4de73bc-b4c2-4baa-b0a2-65003432778d" points="47.6 1.02 43.58 5.05 16.75 9.07 20.77 5.05 47.6 1.02"/><polygon class="0ce42081-5b31-4ae2-b683-9ac8cb970216" points="47.6 1.02 43.48 4.67 17.26 8.45 20.68 4 47.6 1.02"/><polygon class="261a88e7-fb82-492c-b721-461586c1e869" points="62.63 58.97 58.6 63 59.67 45.56 50.28 24.1 47.87 10.41 43.58 5.05 47.6 1.02 51.89 6.39 54.31 20.07 63.7 41.53 62.63 58.97"/><path class="86dc05b2-583a-4994-8c03-55fa703f3b9a" d="M35.39,22.76,28.9,29.07h0l-3.22,3.14a2.43,2.43,0,0,0-.17,3.25,2,2,0,0,0,2.68.43l6.3-6.13.2-.14a5.25,5.25,0,0,1,2.74-1.17,6.67,6.67,0,0,1,.67-.06,4.85,4.85,0,0,1,3.43,1.8,5.76,5.76,0,0,1-.39,7.65l-4.53,4.4a24.62,24.62,0,0,0,2.83-.63,20.29,20.29,0,0,0,4.16-1.72c.33-.2.68-.37,1-.59l.49-.32c.15-.12.32-.23.48-.34.33-.22.62-.49,1-.73s.62-.52.91-.81a17.89,17.89,0,0,0,1.76-1.82,18.89,18.89,0,0,0,1.62-2.13A9.52,9.52,0,0,0,50.08,30c-1.81-4.41-6.75-7.84-12.95-8.94l-1.75,1.7Z"/><path class="86dc05b2-583a-4994-8c03-55fa703f3b9a" d="M19.4,41.91l1.25.12c1.67.16,3.31.33,4.93.45.4.05.81.06,1.21.07l1.2.08c.4,0,.79,0,1.19,0h.59c.2,0,.4,0,.59,0,.5,0,1,0,1.5,0l7.36-7.16a2.45,2.45,0,0,0,.17-3.26,2,2,0,0,0-2.68-.43L30.41,38a4.25,4.25,0,0,1-.46.4,3.73,3.73,0,0,1-3.15,1,4.84,4.84,0,0,1-3.43-1.79,5.75,5.75,0,0,1-1.26-4,9,9,0,0,1,1.65-3.7l7.79-7.57h0l1.67-1.63h-.4s-6-.87-10.09,0-7.58,10.2-7.58,10.2l.11-.06a8.85,8.85,0,0,0-.41,2c-.4,1.44-1,3.95-.7,4.86a7.45,7.45,0,0,0,1.37,4v0c.89,0,1.75.07,2.6.16C18.55,41.85,19,41.88,19.4,41.91Z"/><path class="5cd360cd-8fdd-4d7f-b2d8-1d637ec0749e" d="M24.83,46.63l-.68-.24.73.26c.73.24,1.48.45,2.23.63h0C26.35,47.09,25.59,46.88,24.83,46.63Z"/><path class="5cd360cd-8fdd-4d7f-b2d8-1d637ec0749e" d="M30.82,47.86h0a24.62,24.62,0,0,0,4.7,0,20.41,20.41,0,0,0,5.41-1.38h0a20.71,20.71,0,0,1-5.4,1.37A24.63,24.63,0,0,1,30.82,47.86Z"/><path class="5cd360cd-8fdd-4d7f-b2d8-1d637ec0749e" d="M50.81,33.15v0Z"/><polygon class="5cd360cd-8fdd-4d7f-b2d8-1d637ec0749e" points="15.53 41.63 15.54 41.64 15.53 41.63 15.53 41.63"/><path class="6dfdab68-45ab-4993-97e1-a5f2aeb24f4d" d="M27.12,47.27l3.79-3.68h0l.94-.92c-.5,0-1,0-1.5,0-.19,0-.39,0-.59,0h-.59c-.4,0-.79,0-1.19,0l-1.2-.08c-.4,0-.81,0-1.21-.07-1.62-.12-3.26-.29-4.93-.45l-1.25-.12c-.42,0-.85-.06-1.27-.11-.85-.09-1.71-.15-2.6-.16h0c.7.58,1.43,1.09,2.17,1.59s1.51.92,2.29,1.35a29.2,29.2,0,0,0,3.22,1.47l.5.19.43.15.68.24C25.59,46.88,26.35,47.09,27.12,47.27Z"/><path class="6dfdab68-45ab-4993-97e1-a5f2aeb24f4d" d="M49.19,35.28a17.89,17.89,0,0,1-1.76,1.82c-.29.29-.61.55-.91.81s-.62.51-1,.73c-.16.11-.33.22-.48.34l-.49.32c-.32.22-.67.39-1,.59a20.29,20.29,0,0,1-4.16,1.72,24.62,24.62,0,0,1-2.83.63l-3,2.93-.86.84-.24.24v0l-1.67,1.63a24.63,24.63,0,0,0,4.7,0,20.71,20.71,0,0,0,5.4-1.37,16.83,16.83,0,0,0,4.85-3.06,12.64,12.64,0,0,0,1-1l.5-.54.45-.58c.15-.19.3-.39.44-.59L48.6,40l.37-.64c.12-.21.24-.42.35-.64A15.12,15.12,0,0,0,50.38,36a10.36,10.36,0,0,0,.44-2.81v-.06A18.89,18.89,0,0,1,49.19,35.28Z"/><text class="98fa2ae5-a1e5-4cf5-8808-ddac7b7b1522" transform="translate(19.63 61.53)">Lv6</text><text class="b0b2a3a9-a9ce-40ad-848e-1e5ae4b02c4b" transform="translate(19.63 60.76)">Lv6</text></svg>