<svg id="a22416dc-8392-46ca-a60b-48a5700cc66f" data-name="圖層 1" xmlns="http://www.w3.org/2000/svg" viewBox="0 0 65 65"><defs><style>.d53111a6-72f3-4b84-ba7b-eaedb8679109{fill:#6e8489;}.\35 ed6fd95-ce93-4a8e-9701-c4137839aa0d,.\38 f48b759-95bc-4aa7-bce6-7cb37a6b987c{fill:#66644f;}.\37 568ba62-88fe-4c8d-af64-9c3ff44b33f3{fill:#c2c9bd;}.\36 0e107f5-4d20-41d1-b470-bba4f9853681,.a3e4864a-b526-4ab1-a2a9-e29ffc9024fd,.b8d4a5e5-f352-4d70-a585-536197b4b37f{fill:#fff;}.\32 e965bf4-ad27-412f-8660-c9fe785862a5{fill:#734b23;opacity:0.66;}.b8d4a5e5-f352-4d70-a585-536197b4b37f{opacity:0.4;}.\38 f48b759-95bc-4aa7-bce6-7cb37a6b987c,.a3e4864a-b526-4ab1-a2a9-e29ffc9024fd{font-size:13.75px;font-family:Futura-Bold, Futura;font-weight:700;}</style></defs><title>uu工作區域 2</title><polygon class="d53111a6-72f3-4b84-ba7b-eaedb8679109" points="10.27 24.55 17.78 8.72 44.61 4.69 48.9 10.06 51.31 23.74 60.7 45.2 59.63 62.64 2.22 62.91 4.9 34.2 9.19 29.11 10.27 24.55"/><polygon class="5ed6fd95-ce93-4a8e-9701-c4137839aa0d" points="48.63 0.67 44.61 4.69 17.78 8.72 21.8 4.69 48.63 0.67"/><polygon class="7568ba62-88fe-4c8d-af64-9c3ff44b33f3" points="48.63 0.67 44.51 4.31 18.29 8.09 21.71 3.64 48.63 0.67"/><polygon class="5ed6fd95-ce93-4a8e-9701-c4137839aa0d" points="63.66 58.62 59.63 62.64 60.7 45.2 51.31 23.74 48.9 10.06 44.61 4.69 48.63 0.67 52.92 6.03 55.34 19.72 64.73 41.18 63.66 58.62"/><path class="60e107f5-4d20-41d1-b470-bba4f9853681" d="M36.42,22.41l-6.49,6.3h0l-3.22,3.14a2.44,2.44,0,0,0-.17,3.25,2,2,0,0,0,2.68.44l6.3-6.13.2-.15a5.34,5.34,0,0,1,2.74-1.17c.21,0,.43-.05.67-.05a4.84,4.84,0,0,1,3.43,1.79,5.76,5.76,0,0,1-.39,7.65l-4.53,4.41a26.93,26.93,0,0,0,2.83-.63,20.41,20.41,0,0,0,4.17-1.73c.32-.2.67-.37,1-.59l.49-.32c.15-.12.32-.22.48-.34.33-.22.62-.49.95-.73s.62-.51.92-.8a21.76,21.76,0,0,0,1.76-1.82,24.26,24.26,0,0,0,1.62-2.13,9.85,9.85,0,0,0-.74-3.16c-1.81-4.4-6.75-7.83-13-8.94l-1.75,1.7Z"/><path class="60e107f5-4d20-41d1-b470-bba4f9853681" d="M20.43,41.55l1.25.13c1.67.16,3.31.32,4.93.44.4.05.81.06,1.21.08l1.2.07c.4,0,.8,0,1.19,0l.59,0a5.86,5.86,0,0,0,.59,0h1.5l7.37-7.17a2.45,2.45,0,0,0,.16-3.25,2,2,0,0,0-2.68-.43l-6.3,6.13L31,38a3.73,3.73,0,0,1-3.15,1,4.85,4.85,0,0,1-3.43-1.8,5.69,5.69,0,0,1-1.25-4,8.86,8.86,0,0,1,1.64-3.69L32.58,22h0l1.67-1.62h-.4s-6-.86-10.09,0S16.18,30.5,16.18,30.5l.11-.05a8.85,8.85,0,0,0-.41,2c-.4,1.43-1,3.94-.7,4.86a7.56,7.56,0,0,0,1.37,4h0c.89,0,1.75.08,2.6.17Z"/><path class="2e965bf4-ad27-412f-8660-c9fe785862a5" d="M25.87,46.27,25.18,46l.73.25c.73.24,1.48.45,2.24.63h0C27.38,46.73,26.62,46.52,25.87,46.27Z"/><path class="2e965bf4-ad27-412f-8660-c9fe785862a5" d="M31.85,47.5l0,0a24.62,24.62,0,0,0,4.7,0,20.31,20.31,0,0,0,5.41-1.38h0a20.51,20.51,0,0,1-5.41,1.38A24.62,24.62,0,0,1,31.85,47.5Z"/><path class="2e965bf4-ad27-412f-8660-c9fe785862a5" d="M51.85,32.8v0Z"/><polygon class="2e965bf4-ad27-412f-8660-c9fe785862a5" points="16.56 41.28 16.57 41.29 16.57 41.28 16.56 41.28"/><path class="b8d4a5e5-f352-4d70-a585-536197b4b37f" d="M28.15,46.91l3.79-3.68h0l.94-.91h-1.5a5.86,5.86,0,0,1-.59,0l-.59,0c-.39,0-.79,0-1.19,0l-1.2-.07c-.4,0-.81,0-1.21-.08-1.62-.12-3.26-.28-4.93-.44l-1.25-.13-1.27-.1c-.85-.09-1.71-.16-2.6-.17h0c.7.57,1.43,1.09,2.17,1.59s1.52.91,2.29,1.35a32.09,32.09,0,0,0,3.22,1.46l.51.2.42.15.69.23C26.62,46.52,27.38,46.73,28.15,46.91Z"/><path class="b8d4a5e5-f352-4d70-a585-536197b4b37f" d="M50.23,34.93a21.76,21.76,0,0,1-1.76,1.82c-.3.29-.62.54-.92.8s-.62.51-.95.73c-.16.12-.33.22-.48.34l-.49.32c-.32.22-.67.39-1,.59a20.41,20.41,0,0,1-4.17,1.73,26.93,26.93,0,0,1-2.83.63l-3,2.93-.86.83-.24.24h0L31.85,47.5a24.62,24.62,0,0,0,4.7,0A20.51,20.51,0,0,0,42,46.09,16.71,16.71,0,0,0,46.8,43a14.43,14.43,0,0,0,1-1l.49-.54.45-.58c.15-.2.3-.39.44-.6s.28-.4.41-.61L50,39a6.71,6.71,0,0,0,.35-.65,14.16,14.16,0,0,0,1.06-2.73,10.3,10.3,0,0,0,.44-2.81V32.8A24.26,24.26,0,0,1,50.23,34.93Z"/><text class="8f48b759-95bc-4aa7-bce6-7cb37a6b987c" transform="translate(20.66 61.17)">Lv3</text><text class="a3e4864a-b526-4ab1-a2a9-e29ffc9024fd" transform="translate(20.66 60.41)">Lv3</text></svg>