<svg id="03a485b5-b052-4422-a677-d98c7ec728c4" data-name="圖層 1" xmlns="http://www.w3.org/2000/svg" viewBox="0 0 65 65"><defs><style>.\32 85f8f64-0faa-41fc-8c1e-c5bbc0de4795{fill:#0b408c;}.\38 f4ecbc9-db9b-4ea9-9259-d56105d424a3{fill:none;stroke:#fff;stroke-miterlimit:10;stroke-width:2px;}.e1173736-a223-4135-b48e-2501a576ff40{fill:#fff;}</style></defs><title>uu工作區域 9</title><path class="285f8f64-0faa-41fc-8c1e-c5bbc0de4795" d="M60.5,27.2c0-13.78-12.65-24.95-28.25-24.95S4,13.42,4,27.2C4,35,8.09,42,14.49,46.6l17.73,16L49.75,46.79C56.29,42.22,60.5,35.15,60.5,27.2Z"/><circle class="8f4ecbc9-db9b-4ea9-9259-d56105d424a3" cx="18.04" cy="25.78" r="10.14"/><circle class="8f4ecbc9-db9b-4ea9-9259-d56105d424a3" cx="46.96" cy="25.78" r="10.14"/><line class="8f4ecbc9-db9b-4ea9-9259-d56105d424a3" x1="28.18" y1="25.78" x2="36.82" y2="25.78"/><path class="e1173736-a223-4135-b48e-2501a576ff40" d="M25.56,36.78h8.11a0,0,0,0,1,0,0v.91a4.72,4.72,0,0,1-4.72,4.72H20.84a0,0,0,0,1,0,0V41.5A4.72,4.72,0,0,1,25.56,36.78Z" transform="translate(-20.01 30.87) rotate(-45)"/><path class="e1173736-a223-4135-b48e-2501a576ff40" d="M31.58,36.78h8.11a4.72,4.72,0,0,1,4.72,4.72v.91a0,0,0,0,1,0,0H36.3a4.72,4.72,0,0,1-4.72-4.72v-.91a0,0,0,0,1,0,0Z" transform="translate(36.86 94.45) rotate(-135)"/></svg>