<svg id="d5a28ec3-5208-4b41-8739-e428294d031f" data-name="圖層 1" xmlns="http://www.w3.org/2000/svg" viewBox="0 0 65 65"><defs><style>.\38 2e331c7-cf33-4d4a-bab6-3b0bee15c812{fill:#beac83;}.\30 341c8df-344f-45d0-99cd-121c68e8e360,.\39 bf9a4b9-ab8f-407b-98e7-727bc02bdb7a{fill:#916f5d;}.\36 55193fe-88c4-4ecb-889a-3662170c9d74,.\36 db55aba-0359-4893-9e93-0259d30d32df,.ccb1d15f-1e8f-4711-8d01-4da0943c994f{fill:#fff;}.d1f2568d-5d83-416c-876a-25da712d296f{fill:#734b23;opacity:0.66;}.ccb1d15f-1e8f-4711-8d01-4da0943c994f{opacity:0.4;}.\36 db55aba-0359-4893-9e93-0259d30d32df,.\39 bf9a4b9-ab8f-407b-98e7-727bc02bdb7a{font-size:13.75px;font-family:Futura-Bold, Futura;font-weight:700;}</style></defs><title>uu工作區域 1</title><polygon class="82e331c7-cf33-4d4a-bab6-3b0bee15c812" points="9.27 24.55 16.78 8.72 43.61 4.69 47.9 10.06 50.31 23.74 59.7 45.2 58.63 62.64 1.22 62.91 3.9 34.2 8.19 29.11 9.27 24.55"/><polygon class="0341c8df-344f-45d0-99cd-121c68e8e360" points="47.63 0.67 43.61 4.69 16.78 8.72 20.8 4.69 47.63 0.67"/><polygon class="82e331c7-cf33-4d4a-bab6-3b0bee15c812" points="47.63 0.67 43.51 4.31 17.29 8.09 20.71 3.64 47.63 0.67"/><polygon class="0341c8df-344f-45d0-99cd-121c68e8e360" points="62.66 58.62 58.63 62.64 59.7 45.2 50.31 23.74 47.9 10.06 43.61 4.69 47.63 0.67 51.92 6.03 54.34 19.72 63.73 41.18 62.66 58.62"/><path class="655193fe-88c4-4ecb-889a-3662170c9d74" d="M35.42,22.41l-6.49,6.3h0l-3.22,3.14a2.44,2.44,0,0,0-.17,3.25,2,2,0,0,0,2.68.44l6.3-6.13.2-.15a5.34,5.34,0,0,1,2.74-1.17c.21,0,.43-.05.67-.05a4.84,4.84,0,0,1,3.43,1.79,5.76,5.76,0,0,1-.39,7.65l-4.53,4.41a26.93,26.93,0,0,0,2.83-.63,20.41,20.41,0,0,0,4.17-1.73c.32-.2.67-.37,1-.59l.49-.32c.15-.12.32-.22.48-.34.33-.22.62-.49.95-.73s.62-.51.92-.8a21.76,21.76,0,0,0,1.76-1.82,24.26,24.26,0,0,0,1.62-2.13,9.85,9.85,0,0,0-.74-3.16c-1.81-4.4-6.75-7.83-13-8.94l-1.75,1.7Z"/><path class="655193fe-88c4-4ecb-889a-3662170c9d74" d="M19.43,41.55l1.25.13c1.67.16,3.31.32,4.93.44.4.05.81.06,1.21.08l1.2.07c.4,0,.8,0,1.19,0l.59,0a5.86,5.86,0,0,0,.59,0h1.5l7.37-7.17a2.45,2.45,0,0,0,.16-3.25,2,2,0,0,0-2.68-.43l-6.3,6.13L30,38a3.73,3.73,0,0,1-3.15,1,4.85,4.85,0,0,1-3.43-1.8,5.69,5.69,0,0,1-1.25-4,8.86,8.86,0,0,1,1.64-3.69L31.58,22h0l1.67-1.62h-.4s-6-.86-10.09,0S15.18,30.5,15.18,30.5l.11-.05a8.85,8.85,0,0,0-.41,2c-.4,1.43-1,3.94-.7,4.86a7.56,7.56,0,0,0,1.37,4h0c.89,0,1.75.08,2.6.17Z"/><path class="d1f2568d-5d83-416c-876a-25da712d296f" d="M24.87,46.27,24.18,46l.73.25c.73.24,1.48.45,2.24.63h0C26.38,46.73,25.62,46.52,24.87,46.27Z"/><path class="d1f2568d-5d83-416c-876a-25da712d296f" d="M30.85,47.5l0,0a24.62,24.62,0,0,0,4.7,0,20.31,20.31,0,0,0,5.41-1.38h0a20.51,20.51,0,0,1-5.41,1.38A24.62,24.62,0,0,1,30.85,47.5Z"/><path class="d1f2568d-5d83-416c-876a-25da712d296f" d="M50.85,32.8v0Z"/><polygon class="d1f2568d-5d83-416c-876a-25da712d296f" points="15.56 41.28 15.57 41.29 15.56 41.28 15.56 41.28"/><path class="ccb1d15f-1e8f-4711-8d01-4da0943c994f" d="M27.15,46.91l3.79-3.68h0l.94-.91h-1.5a5.86,5.86,0,0,1-.59,0l-.59,0c-.39,0-.79,0-1.19,0l-1.2-.07c-.4,0-.81,0-1.21-.08-1.62-.12-3.26-.28-4.93-.44l-1.25-.13-1.27-.1c-.85-.09-1.71-.16-2.6-.17h0c.7.57,1.43,1.09,2.17,1.59s1.52.91,2.29,1.35a32.09,32.09,0,0,0,3.22,1.46l.51.2.42.15.69.23C25.62,46.52,26.38,46.73,27.15,46.91Z"/><path class="ccb1d15f-1e8f-4711-8d01-4da0943c994f" d="M49.23,34.93a21.76,21.76,0,0,1-1.76,1.82c-.3.29-.62.54-.92.8s-.62.51-.95.73c-.16.12-.33.22-.48.34l-.49.32c-.32.22-.67.39-1,.59a20.41,20.41,0,0,1-4.17,1.73,26.93,26.93,0,0,1-2.83.63l-3,2.93-.86.83-.24.24h0L30.85,47.5a24.62,24.62,0,0,0,4.7,0A20.51,20.51,0,0,0,41,46.09,16.71,16.71,0,0,0,45.8,43a14.43,14.43,0,0,0,1-1l.49-.54.45-.58c.15-.2.3-.39.44-.6s.28-.4.41-.61L49,39a6.71,6.71,0,0,0,.35-.65,14.16,14.16,0,0,0,1.06-2.73,10.3,10.3,0,0,0,.44-2.81V32.8A24.26,24.26,0,0,1,49.23,34.93Z"/><text class="9bf9a4b9-ab8f-407b-98e7-727bc02bdb7a" transform="translate(19.66 61.17)">Lv1</text><text class="6db55aba-0359-4893-9e93-0259d30d32df" transform="translate(19.66 60.41)">Lv1</text></svg>