<svg id="411fdf64-150c-4a9f-9b28-4498f06e7f38" data-name="圖層 1" xmlns="http://www.w3.org/2000/svg" viewBox="0 0 100 100"><defs><style>.\30 24cf34c-9d6f-4e91-ad20-5014ea720993{fill:#fff;}.faa74402-6791-421d-a8d5-aff406ba4025{fill:#606060;}</style></defs><title>a1</title><rect class="024cf34c-9d6f-4e91-ad20-5014ea720993" x="23.47" y="30.76" width="53.05" height="38.48"/><path class="faa74402-6791-421d-a8d5-aff406ba4025" d="M39.71,50c5,0,8.81-5.43,5.78-10.73a5.1,5.1,0,0,0-1.9-1.9c-5.3-3-10.73.75-10.73,5.77A6.86,6.86,0,0,0,39.71,50Zm0-10.29a3.5,3.5,0,0,1,2.71,5.66,1.69,1.69,0,0,1-.48.48,3.49,3.49,0,0,1-5.65-2.71,3.43,3.43,0,0,1,3.42-3.43Zm0,0"/><path class="faa74402-6791-421d-a8d5-aff406ba4025" d="M75.71,29.43H22.57V70.57H77.43V31.14a1.72,1.72,0,0,0-1.72-1.71ZM26,32.86H74V63L58.07,47.07a1.72,1.72,0,0,0-2.43,0L35.58,67.14H26V32.86ZM73.29,67.14H40.42L56.86,50.71,73.29,67.14Zm0,0"/></svg>