<svg id="a73cd866-3843-41fa-b4cd-2c13eec2d563" data-name="圖層 1" xmlns="http://www.w3.org/2000/svg" viewBox="0 0 100 100"><defs><style>.ad2af53b-f76a-4fe3-aba0-65cbddcb95b5,.b81c0f5c-e56d-48b4-835a-6ac8c51c4479{fill:#606060;}.ad2af53b-f76a-4fe3-aba0-65cbddcb95b5{font-size:17px;font-family:MyriadPro-Bold, Myriad Pro;font-weight:700;letter-spacing:-0.07em;}.\31 4ab3a3f-56ba-4e0f-95d9-1ab28fb80695{letter-spacing:-0.02em;}.\34 670eba6-806b-4084-a676-1b6c654997c3{letter-spacing:0em;}</style></defs><title>a1</title><path class="b81c0f5c-e56d-48b4-835a-6ac8c51c4479" d="M69.42,18.92H30.58a1.83,1.83,0,0,0-1.83,1.82V79.26a1.83,1.83,0,0,0,1.05,1.65,1.81,1.81,0,0,0,1.93-.25l3.7-3,3.7,3a1.81,1.81,0,0,0,2.32,0l3.69-3,3.7,3a1.81,1.81,0,0,0,2.32,0l3.7-3,3.69,3a1.81,1.81,0,0,0,2.32,0l3.7-3,3.7,3a1.78,1.78,0,0,0,1.16.42,1.91,1.91,0,0,0,.77-.17,1.83,1.83,0,0,0,1-1.65V20.74a1.83,1.83,0,0,0-1.83-1.82ZM67.6,75.4l-1.87-1.55a1.81,1.81,0,0,0-2.32,0l-3.7,3.05L56,73.85a1.82,1.82,0,0,0-1.16-.42,1.8,1.8,0,0,0-1.16.42L50,76.9l-3.7-3.05a1.81,1.81,0,0,0-2.32,0L40.29,76.9l-3.7-3.05a1.81,1.81,0,0,0-2.32,0L32.4,75.4V22.56H67.6Zm0,0"/><path class="b81c0f5c-e56d-48b4-835a-6ac8c51c4479" d="M37.86,53.52h9.71a1.82,1.82,0,1,0,0-3.64H37.86a1.82,1.82,0,0,0,0,3.64Zm0,0"/><path class="b81c0f5c-e56d-48b4-835a-6ac8c51c4479" d="M62.14,49.88H57.28a1.82,1.82,0,0,0,0,3.64h4.86a1.82,1.82,0,0,0,0-3.64Zm0,0"/><path class="b81c0f5c-e56d-48b4-835a-6ac8c51c4479" d="M37.86,46.24h6.31a1.83,1.83,0,0,0,0-3.65H37.86a1.83,1.83,0,0,0,0,3.65Zm0,0"/><path class="b81c0f5c-e56d-48b4-835a-6ac8c51c4479" d="M62.14,42.59H57.28a1.83,1.83,0,0,0,0,3.65h4.86a1.83,1.83,0,0,0,0-3.65Zm0,0"/><path class="b81c0f5c-e56d-48b4-835a-6ac8c51c4479" d="M37.86,60.8h6.07a1.82,1.82,0,0,0,0-3.64H37.86a1.82,1.82,0,0,0,0,3.64Zm0,0"/><path class="b81c0f5c-e56d-48b4-835a-6ac8c51c4479" d="M62.14,57.16H57.28a1.82,1.82,0,0,0,0,3.64h4.86a1.82,1.82,0,0,0,0-3.64Zm0,0"/><path class="b81c0f5c-e56d-48b4-835a-6ac8c51c4479" d="M37.86,68.09H62.14a1.82,1.82,0,1,0,0-3.64H37.86a1.82,1.82,0,1,0,0,3.64Zm0,0"/><text class="ad2af53b-f76a-4fe3-aba0-65cbddcb95b5" transform="translate(35.67 38.25)">T<tspan class="14ab3a3f-56ba-4e0f-95d9-1ab28fb80695" x="8.09" y="0">A</tspan><tspan class="4670eba6-806b-4084-a676-1b6c654997c3" x="18.84" y="0">X</tspan></text></svg>