<svg id="f387c814-daa1-4f42-9410-655b8928ecb9" data-name="圖層 1" xmlns="http://www.w3.org/2000/svg" viewBox="0 0 100 100"><defs><style>.c55120f8-c465-461b-81cf-338f52bfa002{fill:#606060;}</style></defs><title>a1</title><path class="c55120f8-c465-461b-81cf-338f52bfa002" d="M85.71,30.48l-3.25-1.11,0-2.8A50.39,50.39,0,0,0,66.2,23.82,52.77,52.77,0,0,0,50,26.49a52.62,52.62,0,0,0-16.19-2.67,48,48,0,0,0-16,2.7l0,3.11-3.63,1,0,45.59,2.42-1c.08,0,8.24-3.43,15.77-3.43,6.46,0,14,1.9,16.28,2.52l1.51.43,1.42-.45a57.12,57.12,0,0,1,15.07-2.5c7.48,0,16.52,3.42,16.62,3.45l2.38.91ZM48.33,69.79a64,64,0,0,0-15-2.23,54.55,54.55,0,0,0-14,2.18V29.87A54.08,54.08,0,0,1,33,28a55.16,55.16,0,0,1,15.36,2.35Zm32.39,0a64.17,64.17,0,0,0-15-2.23,54.07,54.07,0,0,0-13.61,2.06V30.34A53.48,53.48,0,0,1,67.25,28a52.85,52.85,0,0,1,13.46,1.87V69.79Zm0,0"/><path class="c55120f8-c465-461b-81cf-338f52bfa002" d="M57.38,34.85a67.81,67.81,0,0,1,10.34-.93,56.21,56.21,0,0,1,9.82.93L78,33.5a57.56,57.56,0,0,0-10.23-1,66.59,66.59,0,0,0-10.7,1Zm0,0"/><path class="c55120f8-c465-461b-81cf-338f52bfa002" d="M77.54,38.66,78,37.31a56,56,0,0,0-10.23-1,64.88,64.88,0,0,0-10.7,1l.36,1.36a65.06,65.06,0,0,1,10.34-1,55.65,55.65,0,0,1,9.82.94Zm0,0"/><path class="c55120f8-c465-461b-81cf-338f52bfa002" d="M57.38,42.29a65.71,65.71,0,0,1,10.34-.94,55.65,55.65,0,0,1,9.82.94L78,40.94a57,57,0,0,0-10.23-1,66.34,66.34,0,0,0-10.71,1Zm0,0"/><path class="c55120f8-c465-461b-81cf-338f52bfa002" d="M67.72,45.16a55.65,55.65,0,0,1,9.82.94L78,44.75a56,56,0,0,0-10.23-1,64.92,64.92,0,0,0-10.71,1l.37,1.35a65.55,65.55,0,0,1,10.34-.94Zm0,0"/><path class="c55120f8-c465-461b-81cf-338f52bfa002" d="M67.72,48.84a55.65,55.65,0,0,1,9.82.94L78,48.42a58.66,58.66,0,0,0-10.23-1,66.94,66.94,0,0,0-10.71,1l.37,1.37a65.06,65.06,0,0,1,10.34-.95Zm0,0"/><path class="c55120f8-c465-461b-81cf-338f52bfa002" d="M67.72,51.25a66.34,66.34,0,0,0-10.71,1l.37,1.35a66.77,66.77,0,0,1,10.34-.94,55.65,55.65,0,0,1,9.82.94L78,52.23a57,57,0,0,0-10.23-1Zm0,0"/><path class="c55120f8-c465-461b-81cf-338f52bfa002" d="M57,55.85l.36,1.35a67.81,67.81,0,0,1,10.34-.93,56.21,56.21,0,0,1,9.82.93L78,55.85a57.56,57.56,0,0,0-10.23-1,65.31,65.31,0,0,0-10.7,1Zm0,0"/><path class="c55120f8-c465-461b-81cf-338f52bfa002" d="M57,59.46l.36,1.37a65.06,65.06,0,0,1,10.34-.95,56.78,56.78,0,0,1,9.82.94L78,59.46a58.66,58.66,0,0,0-10.23-1,66.59,66.59,0,0,0-10.7,1Zm0,0"/><path class="c55120f8-c465-461b-81cf-338f52bfa002" d="M57,63.31l.36,1.37a65.71,65.71,0,0,1,10.34-.94,55.65,55.65,0,0,1,9.82.94L78,63.32a57,57,0,0,0-10.23-1,67.92,67.92,0,0,0-10.7,1Zm0,0"/><path class="c55120f8-c465-461b-81cf-338f52bfa002" d="M23.4,34.85a67.81,67.81,0,0,1,10.34-.93,56.21,56.21,0,0,1,9.82.93L44,33.5a57.56,57.56,0,0,0-10.23-1,66.59,66.59,0,0,0-10.7,1Zm0,0"/><path class="c55120f8-c465-461b-81cf-338f52bfa002" d="M43.56,38.66,44,37.31a56,56,0,0,0-10.23-1,64.88,64.88,0,0,0-10.7,1l.36,1.36a65.06,65.06,0,0,1,10.34-1,55.65,55.65,0,0,1,9.82.94Zm0,0"/><path class="c55120f8-c465-461b-81cf-338f52bfa002" d="M23.4,42.29a65.71,65.71,0,0,1,10.34-.94,55.65,55.65,0,0,1,9.82.94L44,40.94a57,57,0,0,0-10.23-1,66.34,66.34,0,0,0-10.71,1Zm0,0"/><path class="c55120f8-c465-461b-81cf-338f52bfa002" d="M33.74,45.16a55.65,55.65,0,0,1,9.82.94L44,44.75a56,56,0,0,0-10.23-1,64.92,64.92,0,0,0-10.71,1l.37,1.35a65.55,65.55,0,0,1,10.34-.94Zm0,0"/><path class="c55120f8-c465-461b-81cf-338f52bfa002" d="M33.74,48.84a55.65,55.65,0,0,1,9.82.94L44,48.42a58.66,58.66,0,0,0-10.23-1,66.94,66.94,0,0,0-10.71,1l.37,1.37a65.06,65.06,0,0,1,10.34-.95Zm0,0"/><path class="c55120f8-c465-461b-81cf-338f52bfa002" d="M33.74,51.25a66.34,66.34,0,0,0-10.71,1l.37,1.35a66.77,66.77,0,0,1,10.34-.94,55.65,55.65,0,0,1,9.82.94L44,52.23a57,57,0,0,0-10.23-1Zm0,0"/><path class="c55120f8-c465-461b-81cf-338f52bfa002" d="M23,55.85l.36,1.35a67.81,67.81,0,0,1,10.34-.93,56.21,56.21,0,0,1,9.82.93L44,55.85a57.56,57.56,0,0,0-10.23-1,65.31,65.31,0,0,0-10.7,1Zm0,0"/><path class="c55120f8-c465-461b-81cf-338f52bfa002" d="M23,59.46l.36,1.37a65.06,65.06,0,0,1,10.34-.95,56.78,56.78,0,0,1,9.82.94L44,59.46a58.66,58.66,0,0,0-10.23-1,66.59,66.59,0,0,0-10.7,1Zm0,0"/><path class="c55120f8-c465-461b-81cf-338f52bfa002" d="M23,63.31l.36,1.37a65.71,65.71,0,0,1,10.34-.94,55.65,55.65,0,0,1,9.82.94L44,63.32a57,57,0,0,0-10.23-1,67.92,67.92,0,0,0-10.7,1Zm0,0"/></svg>