<svg id="3fb55287-a1b3-484a-8b78-bb2efc34fe29" data-name="圖層 1" xmlns="http://www.w3.org/2000/svg" viewBox="0 0 100 100"><defs><style>.\34 ab03e43-0586-4f43-a954-f1f9fa18d361{fill:#606060;}</style></defs><title>a1</title><path class="4ab03e43-0586-4f43-a954-f1f9fa18d361" d="M55.23,53.6A5.23,5.23,0,1,0,50,58.83a5.24,5.24,0,0,0,5.23-5.23ZM50,55.34a1.74,1.74,0,1,1,1.74-1.74A1.74,1.74,0,0,1,50,55.34Zm0,0"/><path class="4ab03e43-0586-4f43-a954-f1f9fa18d361" d="M22,79.75H65.8V32.54a1.68,1.68,0,0,0-.51-1.2L54.72,20.76a1.75,1.75,0,0,0-1.21-.5H20.25V78A1.75,1.75,0,0,0,22,79.75ZM55.23,26.21l4.62,4.62H55.23ZM23.74,23.74h28V34.31H62.32v42H23.74Zm0,0"/><path class="4ab03e43-0586-4f43-a954-f1f9fa18d361" d="M57.75,62.5l-7-3.49a1.79,1.79,0,0,0-.78-.18H43.75l-6.46-6.46a1.77,1.77,0,0,0-1.23-.51,5.22,5.22,0,0,0,4.88-7.1c2.73-2.34,5.51-4.91,5.51-8.54a6.2,6.2,0,0,0-6.07-6.44,5.65,5.65,0,0,0-4.32,2,5.66,5.66,0,0,0-4.33-2,6.25,6.25,0,0,0-6.18,6.44c0,3.4,2.5,5.87,5.62,8.55a5.23,5.23,0,0,0,4.89,7.09,1.72,1.72,0,0,0-1.24.51l-7,7a1.75,1.75,0,0,0,2.47,2.47l4-4v9l-3,3a1.74,1.74,0,0,0,2.46,2.46L36.06,70l2.25,2.25a1.74,1.74,0,0,0,2.46,0,1.72,1.72,0,0,0,0-2.46l-3-3v-9l4,4a1.75,1.75,0,0,0,1.23.51h5.23v4.5l-3,3a1.74,1.74,0,0,0,2.47,2.46L50,70l2.25,2.25a1.74,1.74,0,0,0,2.47-2.46l-3-3V63.39l4.45,2.23a1.74,1.74,0,1,0,1.56-3.12Zm-26-29.23c1.87,0,2.6,2.31,2.65,2.47a1.74,1.74,0,0,0,3.36,0c0-.16.77-2.47,2.64-2.47A2.7,2.7,0,0,1,43,36.22c0,2.22-2.35,4.23-4.28,5.89a5.21,5.21,0,0,0-5.25,0C30.67,39.73,29,38,29,36.22a2.79,2.79,0,0,1,2.69-2.95Zm2.58,13.36a1.75,1.75,0,1,1,1.75,1.74,1.75,1.75,0,0,1-1.75-1.74Zm0,0"/><path class="4ab03e43-0586-4f43-a954-f1f9fa18d361" d="M74.52,27.34a5.23,5.23,0,0,0-5.23,5.23v35a2,2,0,0,0,.08.53v0l3.48,10.45a1.74,1.74,0,0,0,3.31,0L79.66,68.1v0a1.78,1.78,0,0,0,.09-.53v-35a5.24,5.24,0,0,0-5.23-5.23ZM72.77,65.8V41.29h3.49V65.8Zm1.75-35a1.74,1.74,0,0,1,1.74,1.74V37.8H72.77V32.57a1.75,1.75,0,0,1,1.75-1.74ZM73.45,69.29h2.13l-1.06,3.2Zm0,0"/></svg>