<svg id="53c0b740-e202-47c8-9606-7689cac66862" data-name="圖層 1" xmlns="http://www.w3.org/2000/svg" viewBox="0 0 100 100"><defs><style>.d57c73da-951e-4bd5-b41b-83669036f0aa{fill:#606060;}</style></defs><title>a1</title><path class="d57c73da-951e-4bd5-b41b-83669036f0aa" d="M58.84,21.66H27.38V78.34H72.62V35.44Zm.56,5.69L67,34.89H59.4ZM31.44,75V25.19H56V38.34h13V75Zm-1.32,1.5"/><path class="d57c73da-951e-4bd5-b41b-83669036f0aa" d="M37.67,37.72h8.5a.95.95,0,1,0,0-1.89h-8.5a.95.95,0,0,0,0,1.89Zm0,0"/><path class="d57c73da-951e-4bd5-b41b-83669036f0aa" d="M37.67,44.32H42.4a.95.95,0,0,0,0-1.89H37.67a.95.95,0,0,0,0,1.89Zm0,0"/><path class="d57c73da-951e-4bd5-b41b-83669036f0aa" d="M51.84,44.32h6.62a.95.95,0,0,0,0-1.89H51.84a.95.95,0,0,0,0,1.89Zm0,0"/><path class="d57c73da-951e-4bd5-b41b-83669036f0aa" d="M46.45,42.72a.91.91,0,0,0-.28.66,1,1,0,0,0,.28.67,1,1,0,0,0,.67.27.92.92,0,0,0,.67-.28,1,1,0,0,0,0-1.33,1,1,0,0,0-1.34,0Zm0,0"/><path class="d57c73da-951e-4bd5-b41b-83669036f0aa" d="M63.18,44.32a.92.92,0,0,0,.94-.94,1,1,0,0,0-.27-.67,1,1,0,0,0-1.35,0,1,1,0,0,0-.27.67,1,1,0,0,0,.27.67,1,1,0,0,0,.68.27Zm0,0"/><path class="d57c73da-951e-4bd5-b41b-83669036f0aa" d="M49,51H42.4a.94.94,0,1,0,0,1.88H49A.94.94,0,0,0,49,51Zm0,0"/><path class="d57c73da-951e-4bd5-b41b-83669036f0aa" d="M37.67,52.83a1,1,0,0,0,.67-.27.94.94,0,0,0,0-1.34,1,1,0,0,0-1.34,0,.92.92,0,0,0-.27.67,1,1,0,0,0,.27.67,1,1,0,0,0,.67.27Zm0,0"/><path class="d57c73da-951e-4bd5-b41b-83669036f0aa" d="M40.64,59.6c-2.06,1.08-2.76,3.14-3,5.27-.4-.32-.79-.65-1.18-1-.93-.77-2.27.56-1.33,1.34l2.64,2.22a1,1,0,0,0,1.62-.67c.07-2,.17-4.47,2.22-5.54,1.08-.57.12-2.2-1-1.64Zm0,0"/><path class="d57c73da-951e-4bd5-b41b-83669036f0aa" d="M46.93,63.37c-1.31.31-2.8,2-3.72.1-.54-1.09-2.17-.13-1.63,1a3.25,3.25,0,0,0,2.52,1.83A3.21,3.21,0,0,0,45.69,66c.39-.16,1.83-1.24,2.14-.68.59,1.06,2.23.11,1.64-1a2.26,2.26,0,0,0-2.54-1Zm0,0"/><path class="d57c73da-951e-4bd5-b41b-83669036f0aa" d="M65.41,52.35a.57.57,0,0,1-.35-.33.59.59,0,0,1,0-.49,2.5,2.5,0,0,0-3.32-3.33.56.56,0,0,1-.49,0,.63.63,0,0,1-.34-.36,2.49,2.49,0,0,0-4.7,0,.62.62,0,0,1-.33.36.58.58,0,0,1-.5,0,2.49,2.49,0,0,0-3.32,3.32.67.67,0,0,1,0,.5.62.62,0,0,1-.36.33,2.5,2.5,0,0,0,0,4.71.62.62,0,0,1,.36.33.67.67,0,0,1,0,.5,2.47,2.47,0,0,0,.49,2.83,2.5,2.5,0,0,0,1.29.68V73.05l4.72-4.73,4.72,4.73V61.4a2.48,2.48,0,0,0,1.78-3.51.61.61,0,0,1,0-.5.57.57,0,0,1,.35-.33,2.5,2.5,0,0,0,0-4.71Zm-6.84,13.3-2.83,2.83V61.15h0l.13,0a.94.94,0,0,1,.17.11.57.57,0,0,1,.16.25,2.49,2.49,0,0,0,4.7,0,.67.67,0,0,1,.16-.25,1,1,0,0,1,.18-.11l.12,0h0v7.33Zm6.21-10.38a2.49,2.49,0,0,0-1.46,1.4,2.44,2.44,0,0,0,0,2,.58.58,0,0,1-.12.68.59.59,0,0,1-.53.16l-.21-.06-.27-.09-.19-.07-.29,0-.22,0-.28,0-.23,0a1.87,1.87,0,0,0-.5.14l-.11.06a2.37,2.37,0,0,0-.35.19,3.27,3.27,0,0,0-.35.3l0,0a2.63,2.63,0,0,0-.54.89.58.58,0,0,1-.57.4.59.59,0,0,1-.57-.4,2.45,2.45,0,0,0-.54-.89l0,0a2,2,0,0,0-.69-.49l-.13-.07-.06,0a2.21,2.21,0,0,0-.42-.12,2.09,2.09,0,0,0-.35,0h-.13a2.28,2.28,0,0,0-1,.21l-.22.07a.57.57,0,0,1-.54-.16.58.58,0,0,1-.12-.69,2.49,2.49,0,0,0,0-2,2.53,2.53,0,0,0-1.47-1.4.57.57,0,0,1-.4-.56.58.58,0,0,1,.4-.57,2.51,2.51,0,0,0,1.42-3.43.6.6,0,0,1,.8-.8,2.52,2.52,0,0,0,2,.05A2.49,2.49,0,0,0,58,48.49a.59.59,0,0,1,.57-.4.58.58,0,0,1,.57.4A2.52,2.52,0,0,0,60.53,50a2.48,2.48,0,0,0,2-.05.58.58,0,0,1,.69.12.59.59,0,0,1,.12.69,2.49,2.49,0,0,0,0,2,2.46,2.46,0,0,0,1.46,1.4.57.57,0,0,1,.4.57.56.56,0,0,1-.4.56Zm0,0"/></svg>