<svg id="c0a79b37-7a55-42e0-97be-cb217c74cc7f" data-name="圖層 1" xmlns="http://www.w3.org/2000/svg" viewBox="0 0 100 100"><defs><style>.a7f6237e-16fc-43dd-8e04-2d10b9d4264b{fill:#fff;}.e9976ec3-c1a2-4f63-b114-27273743d356{fill:#606060;}</style></defs><title>a1</title><rect class="a7f6237e-16fc-43dd-8e04-2d10b9d4264b" x="21.88" y="32.19" width="56.55" height="36.31"/><path class="e9976ec3-c1a2-4f63-b114-27273743d356" d="M81,29.17H19V70.83H81ZM77,66.56H23V33.44H77Z"/><path class="e9976ec3-c1a2-4f63-b114-27273743d356" d="M54.46,55.05H71a2.14,2.14,0,0,0,0-4.27H54.46a2.14,2.14,0,0,0,0,4.27Z"/><path class="e9976ec3-c1a2-4f63-b114-27273743d356" d="M54.46,62.16H71a2.14,2.14,0,0,0,0-4.27H54.46a2.14,2.14,0,0,0,0,4.27Z"/><path class="e9976ec3-c1a2-4f63-b114-27273743d356" d="M31.92,49.08a6.4,6.4,0,1,0-6.22-6.4A6.32,6.32,0,0,0,31.92,49.08Zm0-8.53a2.13,2.13,0,1,1-2.08,2.13A2.1,2.1,0,0,1,31.92,40.55Z"/></svg>