<svg id="31f8d2b3-c035-47de-bf7d-93907df1ae03" data-name="圖層 1" xmlns="http://www.w3.org/2000/svg" viewBox="0 0 150 100"><defs><style>.\34 c7600b0-a06d-4e00-97d1-20262fdbe2be{fill:#606060;}.\35 951e870-6f5b-45cf-a92a-201139fe3c4e{fill:#fff;}.\30 e0caa09-240a-45e9-afc7-31a453de679f,.\30 e51bacf-1758-4916-8ff8-c6b85465faca,.\31 bcb62ab-657e-4a86-9362-20f259e9c77a,.\32 0dc96fc-1fdb-4c47-ae65-3599efc03bec,.\32 347b37f-5fc1-49c8-a8f9-45a71fe2bdaf,.\36 0cafb32-3a82-4dab-a984-314f8a341f1c,.\36 f9f727d-8555-4509-a044-a3975db398be,.b26aa718-5519-4908-b9a1-71fca897de4a,.eba75fef-f8d3-4bd7-91ec-68a2b4066085{fill:none;stroke:#606060;stroke-miterlimit:10;stroke-width:1.88px;}.b26aa718-5519-4908-b9a1-71fca897de4a{stroke-dasharray:1.96 1.96 1.96 1.96;}.\31 bcb62ab-657e-4a86-9362-20f259e9c77a{stroke-dasharray:1.96 1.96 1.96 1.96 1.96 1.96;}.\32 0dc96fc-1fdb-4c47-ae65-3599efc03bec{stroke-dasharray:1.98 1.98 1.98 1.98;}.\36 0cafb32-3a82-4dab-a984-314f8a341f1c{stroke-dasharray:1.98 1.98 1.98 1.98 1.98 1.98;}.eba75fef-f8d3-4bd7-91ec-68a2b4066085{stroke-dasharray:1.72 1.72 1.72 1.72;}.\30 e0caa09-240a-45e9-afc7-31a453de679f{stroke-dasharray:1.72 1.72 1.72 1.72 1.72 1.72;}.\30 e51bacf-1758-4916-8ff8-c6b85465faca{stroke-dasharray:2.01 2.01 2.01 2.01;}.\32 347b37f-5fc1-49c8-a8f9-45a71fe2bdaf{stroke-dasharray:2.01 2.01 2.01 2.01 2.01 2.01;}</style></defs><title>b</title><path class="4c7600b0-a06d-4e00-97d1-20262fdbe2be" d="M92.1,47.84l-9.32,5.32V42.52Z"/><rect class="4c7600b0-a06d-4e00-97d1-20262fdbe2be" x="74.2" y="46.95" width="15.49" height="1.77"/><rect class="4c7600b0-a06d-4e00-97d1-20262fdbe2be" x="97.2" y="22.16" width="37" height="52.61"/><rect class="5951e870-6f5b-45cf-a92a-201139fe3c4e" x="103.52" y="34.34" width="23.39" height="2.47"/><rect class="5951e870-6f5b-45cf-a92a-201139fe3c4e" x="103.52" y="44.63" width="23.39" height="2.47"/><rect class="5951e870-6f5b-45cf-a92a-201139fe3c4e" x="103.52" y="55.54" width="23.39" height="2.47"/><rect class="4c7600b0-a06d-4e00-97d1-20262fdbe2be" x="25.9" y="24.04" width="37" height="52.61" transform="translate(-12.84 15.29) rotate(-17.1)"/><rect class="5951e870-6f5b-45cf-a92a-201139fe3c4e" x="28.45" y="36.93" width="23.39" height="2.47" transform="translate(-9.45 13.49) rotate(-17.1)"/><rect class="5951e870-6f5b-45cf-a92a-201139fe3c4e" x="31.48" y="46.77" width="23.39" height="2.47" transform="translate(-12.21 14.82) rotate(-17.1)"/><rect class="5951e870-6f5b-45cf-a92a-201139fe3c4e" x="34.69" y="57.2" width="23.39" height="2.47" transform="translate(-15.13 16.22) rotate(-17.1)"/><line class="6f9f727d-8555-4509-a044-a3975db398be" x1="13.53" y1="22.58" x2="13.8" y2="23.48"/><line class="b26aa718-5519-4908-b9a1-71fca897de4a" x1="14.37" y1="25.36" x2="16.36" y2="31.94"/><line class="1bcb62ab-657e-4a86-9362-20f259e9c77a" x1="16.64" y1="32.87" x2="33.41" y2="88.3"/><line class="6f9f727d-8555-4509-a044-a3975db398be" x1="33.69" y1="89.24" x2="33.97" y2="90.14"/><line class="6f9f727d-8555-4509-a044-a3975db398be" x1="54.51" y1="9.86" x2="54.78" y2="10.76"/><line class="20dc96fc-1fdb-4c47-ae65-3599efc03bec" x1="55.35" y1="12.66" x2="57.34" y2="19.28"/><line class="60cafb32-3a82-4dab-a984-314f8a341f1c" x1="57.62" y1="20.22" x2="74.41" y2="76.04"/><line class="6f9f727d-8555-4509-a044-a3975db398be" x1="74.69" y1="76.98" x2="74.96" y2="77.89"/><line class="6f9f727d-8555-4509-a044-a3975db398be" x1="61.25" y1="15.26" x2="60.35" y2="15.54"/><line class="eba75fef-f8d3-4bd7-91ec-68a2b4066085" x1="58.71" y1="16.06" x2="52.96" y2="17.87"/><line class="0e0caa09-240a-45e9-afc7-31a453de679f" x1="52.14" y1="18.12" x2="13.52" y2="30.26"/><line class="6f9f727d-8555-4509-a044-a3975db398be" x1="12.7" y1="30.52" x2="11.8" y2="30.8"/><line class="6f9f727d-8555-4509-a044-a3975db398be" x1="75.43" y1="69.88" x2="74.54" y2="70.17"/><line class="0e51bacf-1758-4916-8ff8-c6b85465faca" x1="72.63" y1="70.79" x2="65.94" y2="72.96"/><line class="2347b37f-5fc1-49c8-a8f9-45a71fe2bdaf" x1="64.99" y1="73.27" x2="31.55" y2="84.13"/><line class="6f9f727d-8555-4509-a044-a3975db398be" x1="30.59" y1="84.44" x2="29.7" y2="84.73"/></svg>