<svg id="5a4b9506-d38f-47b9-a80a-262d3d66c8a7" data-name="圖層 1" xmlns="http://www.w3.org/2000/svg" viewBox="0 0 150 100"><defs><style>.\32 02c8865-8573-4ab1-a017-4d10fcf6049b{fill:none;stroke:#606060;stroke-miterlimit:10;stroke-width:4.31px;}.\32 0fff140-a1a0-4249-9f6d-58dea92b3e2d{fill:#606060;}</style></defs><title>b</title><polygon class="202c8865-8573-4ab1-a017-4d10fcf6049b" points="101.61 71.67 48.39 71.67 48.39 28.33 48.39 28.33 101.61 28.33 101.61 71.67"/><path class="20fff140-a1a0-4249-9f6d-58dea92b3e2d" d="M55.46,50.32c.41,1.48.83,3,1.06,4.38a14.48,14.48,0,0,1-.06,5.21,1,1,0,0,0,.63,1.21l12.84,5.11a1.07,1.07,0,0,0,.39.07,1,1,0,0,0,.58-.18,1,1,0,0,0,.46-.86V59.43h2.76A2.88,2.88,0,0,0,77,56.6V53.31l.27,0a7.21,7.21,0,0,0,2.22-.37,2.88,2.88,0,0,0,1.76-2.64c0-.69-.36-1.91-3.11-5.16v-.21a6.54,6.54,0,0,0,0-.66C78,38.36,72.38,33.13,66,33.05h-.15c-6.25,0-11.56,5.1-11.58,11.13a25.85,25.85,0,0,0,1.21,6.14m2-.56a24.83,24.83,0,0,1-1.13-5.57,9.42,9.42,0,0,1,9.49-9H66c5.25.07,10.07,4.47,10.09,9.25a.69.69,0,0,0,0,.2c0,.08,0,.19,0,.3,0,.64,0,1,.28,1.33l.1.11c2.62,3.07,2.73,3.93,2.73,4s0,.47-.57.74a12.61,12.61,0,0,1-1.48.16l-1.23.09a1,1,0,0,0-1,1.05v4.25a.81.81,0,0,1-.81.75H70.31a1.06,1.06,0,0,0-1,1v5.33L58.65,59.5a17.15,17.15,0,0,0-.08-5.14,47,47,0,0,0-1.1-4.6"/><path class="20fff140-a1a0-4249-9f6d-58dea92b3e2d" d="M66.19,37c-2.89,0-5.24,1.77-5.24,4,0,2.4,2.69,2.4,5.06,2.4s5.07,0,5.07-2.4c0-2.14-2.24-4-4.89-4M66,41.24c-2.3,0-2.88-.18-3-.29,0-.9,1.39-1.88,3.2-1.88,1.55,0,2.8,1,2.8,1.86-.1.13-.67.31-3,.31"/><path class="20fff140-a1a0-4249-9f6d-58dea92b3e2d" d="M91.38,43.47A1,1,0,1,0,90,44.82a15.62,15.62,0,0,1,0,20.49,1,1,0,0,0,0,1.37,1,1,0,0,0,.67.27,1,1,0,0,0,.7-.3,17.54,17.54,0,0,0,0-23.18"/><path class="20fff140-a1a0-4249-9f6d-58dea92b3e2d" d="M88.11,46.45a1,1,0,1,0-1.36,1.39,10.65,10.65,0,0,1,0,14.44,1,1,0,0,0,0,1.38,1,1,0,0,0,.7.29.94.94,0,0,0,.68-.28,12.57,12.57,0,0,0,0-17.22"/><path class="20fff140-a1a0-4249-9f6d-58dea92b3e2d" d="M84.79,49.41a1,1,0,1,0-1.23,1.5,5.72,5.72,0,0,1,0,8.27,1,1,0,1,0,1.25,1.49,7.63,7.63,0,0,0-.06-11.26"/></svg>