<svg id="5557139b-c135-4f90-a667-0fcbee89ede7" data-name="圖層 1" xmlns="http://www.w3.org/2000/svg" viewBox="0 0 150 100"><defs><style>.\38 84d0fa8-92b3-4135-8eb1-0e8dd2707f96{fill:#606060;}</style></defs><title>b</title><path class="884d0fa8-92b3-4135-8eb1-0e8dd2707f96" d="M35.51,77.27H72.1V53H35.51Zm3-21.24H69.15V74.24H38.46Z"/><rect class="884d0fa8-92b3-4135-8eb1-0e8dd2707f96" x="47.77" y="60.9" width="12.07" height="3.03"/><rect class="884d0fa8-92b3-4135-8eb1-0e8dd2707f96" x="44.85" y="66.34" width="17.91" height="3.03"/><path class="884d0fa8-92b3-4135-8eb1-0e8dd2707f96" d="M35.51,22.73V47H72.1V22.73Zm3,3h6.88L41,35.57h3.89L40.74,44H38.46V25.76ZM69.15,44H44.06l5.63-11.43h-4.1l3-6.78H69.15Z"/><rect class="884d0fa8-92b3-4135-8eb1-0e8dd2707f96" x="55.91" y="35.76" width="7.36" height="3.03"/><rect class="884d0fa8-92b3-4135-8eb1-0e8dd2707f96" x="58.11" y="31.01" width="2.96" height="3.03"/><path class="884d0fa8-92b3-4135-8eb1-0e8dd2707f96" d="M77.9,77.27h36.59V53H77.9ZM80.85,56h30.69V74.24H80.85Z"/><path class="884d0fa8-92b3-4135-8eb1-0e8dd2707f96" d="M77.9,47.11h36.59V22.84H77.9Zm2.95-21.24h30.69V44.08H80.85Z"/><rect class="884d0fa8-92b3-4135-8eb1-0e8dd2707f96" x="90.16" y="60.9" width="12.07" height="3.03"/><rect class="884d0fa8-92b3-4135-8eb1-0e8dd2707f96" x="87.24" y="66.34" width="17.91" height="3.03"/><rect class="884d0fa8-92b3-4135-8eb1-0e8dd2707f96" x="98.3" y="35.76" width="7.36" height="3.03"/><rect class="884d0fa8-92b3-4135-8eb1-0e8dd2707f96" x="98.22" y="31.01" width="7.65" height="3.03"/><path class="884d0fa8-92b3-4135-8eb1-0e8dd2707f96" d="M90.24,33.27a3.19,3.19,0,1,1-6.3,0,3.19,3.19,0,1,1,6.3,0Z"/></svg>