<svg id="970829ca-25a5-4c8e-96c8-a72fd859d80d" data-name="圖層 1" xmlns="http://www.w3.org/2000/svg" viewBox="0 0 150 100"><defs><style>.\36 f053a04-181a-4816-8515-95793411b909{fill:#606060;}</style></defs><title>b</title><path class="6f053a04-181a-4816-8515-95793411b909" d="M40.69,75.69h68.62V24.31H40.69Zm4-47.36h60.58V71.67H44.71Zm0,0"/><rect class="6f053a04-181a-4816-8515-95793411b909" x="48.87" y="32.35" width="4.02" height="35.29"/><rect class="6f053a04-181a-4816-8515-95793411b909" x="56.91" y="63.63" width="4.02" height="4.02"/><rect class="6f053a04-181a-4816-8515-95793411b909" x="64.95" y="63.63" width="4.02" height="4.02"/><rect class="6f053a04-181a-4816-8515-95793411b909" x="72.99" y="63.63" width="4.02" height="4.02"/><rect class="6f053a04-181a-4816-8515-95793411b909" x="81.03" y="63.63" width="4.02" height="4.02"/><rect class="6f053a04-181a-4816-8515-95793411b909" x="89.07" y="63.63" width="4.02" height="4.02"/><rect class="6f053a04-181a-4816-8515-95793411b909" x="56.91" y="32.35" width="4.02" height="27.25"/><rect class="6f053a04-181a-4816-8515-95793411b909" x="64.95" y="32.35" width="4.02" height="27.25"/><rect class="6f053a04-181a-4816-8515-95793411b909" x="72.99" y="32.35" width="4.02" height="27.25"/><rect class="6f053a04-181a-4816-8515-95793411b909" x="81.03" y="32.35" width="4.02" height="27.25"/><rect class="6f053a04-181a-4816-8515-95793411b909" x="89.07" y="32.35" width="4.02" height="27.25"/><rect class="6f053a04-181a-4816-8515-95793411b909" x="97.11" y="32.35" width="4.02" height="35.29"/></svg>