<svg id="ea232ebc-e189-47c8-a0c6-c05a41b437d7" data-name="圖層 1" xmlns="http://www.w3.org/2000/svg" viewBox="0 0 64 64"><defs><style>.\37 3d2f72f-657f-4824-8ad3-695c0f48332f{fill:#e56a4e;}.\39 073624d-6387-4b27-ac46-4f25298b485f{opacity:0.3;}.\33 65163e0-3404-4ca9-9f2b-7e74f78a5ecf{fill:#f1b79f;}.\38 141dd43-0dbb-4ada-9f5e-0fa063b3a3e6{fill:none;}</style></defs><title>icons4</title><path class="73d2f72f-657f-4824-8ad3-695c0f48332f" d="M17.15,44.41A10.48,10.48,0,0,1,12.91,36V27.83a10.48,10.48,0,0,1,4.25-8.46c8-5.86,17.43-2.47,20.52,5l-5.54,2.3h0c-1.78-4.28-7.44-6.06-11.87-1.9a4.34,4.34,0,0,0-1.36,3.18v7.92A4.36,4.36,0,0,0,20.26,39c4.43,4.17,10.1,2.39,11.88-1.89h0l5.54,2.3C34.57,46.9,25.14,50.29,17.15,44.41Z"/><rect class="73d2f72f-657f-4824-8ad3-695c0f48332f" x="38.68" y="31.9" width="4.45" height="15.7"/><path class="9073624d-6387-4b27-ac46-4f25298b485f" d="M43.13,33.29l-.44.13A6.2,6.2,0,0,0,38.92,39h0v.41c0,.13,0,.25,0,.38V47.6h3.55V39.47a2.42,2.42,0,0,1,.67-1Z"/><path class="365163e0-3404-4ca9-9f2b-7e74f78a5ecf" d="M43.38,33.84a6.06,6.06,0,0,0-4.16,5.38h0V47.6h3.93V39.71a2.88,2.88,0,0,1,1.61-1.48c.6-.19,2.5,0,2.84,1.08l3.51-1.16A6.25,6.25,0,0,0,43.38,33.84Z"/><path class="8141dd43-0dbb-4ada-9f5e-0fa063b3a3e6" d="M18.91,27.94v4.62H25V22.46a8.24,8.24,0,0,0-4.72,2.3A4.34,4.34,0,0,0,18.91,27.94Z"/><path class="8141dd43-0dbb-4ada-9f5e-0fa063b3a3e6" d="M18.91,35.86A4.36,4.36,0,0,0,20.26,39,8.28,8.28,0,0,0,25,41.34V32.56H18.91Z"/><path class="365163e0-3404-4ca9-9f2b-7e74f78a5ecf" d="M20.26,39a4.36,4.36,0,0,1-1.35-3.17v-3.3h-6V36a10.48,10.48,0,0,0,4.24,8.45,14.69,14.69,0,0,0,7.84,3v-6A8.28,8.28,0,0,1,20.26,39Z"/><path class="365163e0-3404-4ca9-9f2b-7e74f78a5ecf" d="M32.14,26.66h0l5.54-2.3A12.85,12.85,0,0,0,25,16.43v6A6.87,6.87,0,0,1,32.14,26.66Z"/></svg>