<svg id="d08eb8c9-8248-473c-9df5-7c6d22abc14d" data-name="圖層 1" xmlns="http://www.w3.org/2000/svg" viewBox="0 0 64 64"><defs><style>.\37 3718316-51be-4ed4-9fbf-91ec26ec237e{fill:#e56a4e;}.\37 48fb911-0049-425b-b8bd-514fa6bf18d1{fill:#f1b79f;}</style></defs><title>icons4</title><path class="73718316-51be-4ed4-9fbf-91ec26ec237e" d="M41.87,28.25H32.41v7.09h9.46a1.75,1.75,0,0,1,1.6,1.83v1A1.74,1.74,0,0,1,41.87,40H32.41v.14a2.94,2.94,0,0,1,1.45,2.62v1.84a3,3,0,0,1-1.27,2.49h9.28c4.33,0,7.86-4,7.86-8.91v-1C49.73,32.25,46.2,28.25,41.87,28.25Z"/><rect class="748fb911-0049-425b-b8bd-514fa6bf18d1" x="17.12" y="39.86" width="15.12" height="7.68" rx="2.92" ry="2.92" transform="translate(0.16 -0.09) rotate(0.21)"/><path class="73718316-51be-4ed4-9fbf-91ec26ec237e" d="M33.77,23.46l9.51,0A3.37,3.37,0,0,0,46.5,20h0a3.38,3.38,0,0,0-3.2-3.51l-9.51,0a2.53,2.53,0,0,0-2.41,2.62v1.75A2.54,2.54,0,0,0,33.77,23.46Z"/><path class="748fb911-0049-425b-b8bd-514fa6bf18d1" d="M33.77,35.47l9.51,0A3.39,3.39,0,0,0,46.5,32h0a3.39,3.39,0,0,0-3.2-3.52l-9.51,0a2.52,2.52,0,0,0-2.41,2.61v1.76A2.53,2.53,0,0,0,33.77,35.47Z"/><rect class="73718316-51be-4ed4-9fbf-91ec26ec237e" x="14.32" y="16.64" width="7.64" height="30.89" transform="translate(0.12 -0.07) rotate(0.21)"/><rect class="748fb911-0049-425b-b8bd-514fa6bf18d1" x="14.32" y="19.61" width="7.64" height="10.78" transform="translate(0.09 -0.07) rotate(0.21)"/><path class="748fb911-0049-425b-b8bd-514fa6bf18d1" d="M42.36,35.35H32.9c-4.34,0-7.86-4-7.86-8.92V25.38c0-4.92,3.52-8.91,7.86-8.91h9.46v7.09H32.9a1.74,1.74,0,0,0-1.61,1.82v1.05a1.75,1.75,0,0,0,1.61,1.83h9.46Z"/></svg>