<?xml version="1.0" encoding="utf-8"?>
<!-- Generator: Adobe Illustrator 22.0.1, SVG Export Plug-In . SVG Version: 6.00 Build 0)  -->
<svg version="1.1" id="_x36_65bfb34-e348-43a1-9607-9f223e8472c6"
	 xmlns="http://www.w3.org/2000/svg" xmlns:xlink="http://www.w3.org/1999/xlink" x="0px" y="0px" viewBox="0 0 64 64"
	 style="enable-background:new 0 0 64 64;" xml:space="preserve">
<style type="text/css">
	.st0{fill:#EFB59E;}
	.st1{fill:#E26B4B;}
</style>
<title>icons4</title>
<g>
	<rect x="8.5" y="27.1" transform="matrix(0.6789 -0.7342 0.7342 0.6789 -22.5888 20.3678)" class="st0" width="7" height="17.9"/>
	<rect x="2.6" y="24.8" transform="matrix(0.6789 -0.7342 0.7342 0.6789 -17.039 17.5393)" class="st1" width="17.9" height="7"/>
	<rect x="26.5" y="23" transform="matrix(0.7071 -0.7071 0.7071 0.7071 -10.9288 28.3444)" class="st0" width="4.5" height="8.7"/>
	<rect x="30.8" y="25.1" transform="matrix(0.7071 -0.7071 0.7071 0.7071 -9.0227 32.8411)" class="st0" width="8.7" height="4.5"/>
	<rect x="48.6" y="19.1" transform="matrix(0.6789 -0.7342 0.7342 0.6789 -3.8899 47.2259)" class="st0" width="7" height="17.9"/>
	<rect x="43.6" y="32.2" transform="matrix(0.6789 -0.7342 0.7342 0.6789 -9.3675 50.0777)" class="st1" width="17.9" height="7"/>
	<rect x="22.7" y="22.7" class="st1" width="4.6" height="17.6"/>
	<rect x="36.9" y="22.7" class="st1" width="4.6" height="17.6"/>
</g>
</svg>
