<?xml version="1.0" encoding="utf-8"?>
<!-- Generator: Adobe Illustrator 22.0.1, SVG Export Plug-In . SVG Version: 6.00 Build 0)  -->
<svg version="1.1" id="e026af97-a42e-4eee-ab87-d4b0b1444904"
	 xmlns="http://www.w3.org/2000/svg" xmlns:xlink="http://www.w3.org/1999/xlink" x="0px" y="0px" viewBox="0 0 64 64"
	 style="enable-background:new 0 0 64 64;" xml:space="preserve">
<style type="text/css">
	.st0{fill:#E26B4B;}
	.st1{fill:#EFB59E;}
</style>
<title>icons4</title>
<rect x="28.7" y="48.9" class="st0" width="7.7" height="7.5"/>
<rect x="38.9" y="48.9" class="st0" width="7.7" height="7.5"/>
<rect x="17.9" y="48.9" class="st0" width="7.7" height="7.5"/>
<rect x="28.7" y="7.6" class="st0" width="7.7" height="7.5"/>
<rect x="38.9" y="7.6" class="st0" width="7.7" height="7.5"/>
<rect x="17.9" y="7.6" class="st0" width="7.7" height="7.5"/>
<rect x="50.7" y="28.6" class="st1" width="7.5" height="7.7"/>
<rect x="50.7" y="38.8" class="st1" width="7.5" height="7.7"/>
<rect x="50.7" y="17.8" class="st1" width="7.5" height="7.7"/>
<rect x="5.8" y="28.6" class="st1" width="7.5" height="7.7"/>
<rect x="5.8" y="38.8" class="st1" width="7.5" height="7.7"/>
<rect x="5.8" y="17.8" class="st1" width="7.5" height="7.7"/>
<rect x="37.7" y="18.7" class="st0" width="8.5" height="26.3"/>
<rect x="18" y="37" class="st1" width="28.1" height="8.1"/>
<rect x="18" y="18.7" class="st0" width="8.5" height="26.3"/>
<rect x="18.1" y="18.7" class="st1" width="19.5" height="8.1"/>
</svg>
