<svg id="97802dda-f6da-4c19-95bb-6b8480b435d1" data-name="圖層 1" xmlns="http://www.w3.org/2000/svg" viewBox="0 0 64 64"><defs><style>.\30 5eb5b53-6736-44a9-bfdd-941839f4cc76{fill:#c898c9;}.f019ceec-f1d5-4a46-b65c-860e45cc177a{fill:#4a017d;}.d5274252-69f2-435d-99b8-e1a1c32569e7{fill:#ae69b1;}.\36 4a42bb3-118c-48c9-921a-37ccc4fa7da8{fill:none;}</style></defs><title>icons4</title><rect class="05eb5b53-6736-44a9-bfdd-941839f4cc76" x="41.01" y="30.69" width="5.69" height="8.45" transform="translate(87.71 69.82) rotate(180)"/><rect class="f019ceec-f1d5-4a46-b65c-860e45cc177a" x="41.01" y="24.01" width="5.69" height="5.11" transform="translate(87.71 53.14) rotate(180)"/><path class="d5274252-69f2-435d-99b8-e1a1c32569e7" d="M39.42,46.94c-4,0-7.26-3.68-7.26-8.21h5.67c0,1.44.84,2.51,1.59,2.51S41,40.17,41,38.73h5.68C46.69,43.26,43.43,46.94,39.42,46.94Z"/><path class="f019ceec-f1d5-4a46-b65c-860e45cc177a" d="M34.14,18.58a6.77,6.77,0,0,1,3.22,5.66v5.45a6.8,6.8,0,0,1-3.23,5.67C28,39.28,20.85,37,18.49,32l4.22-1.55h0c1.36,2.87,5.67,4.06,9.05,1.28a2.75,2.75,0,0,0,1-2.13V24.31a2.75,2.75,0,0,0-1-2.13c-3.37-2.79-7.69-1.6-9,1.27h0l-4.22-1.54C20.86,16.91,28,14.64,34.14,18.58Z"/><path class="64a42bb3-118c-48c9-921a-37ccc4fa7da8" d="M32.79,29.62v-3.1H28.16v6.77a6.7,6.7,0,0,0,3.6-1.54A2.75,2.75,0,0,0,32.79,29.62Z"/><path class="64a42bb3-118c-48c9-921a-37ccc4fa7da8" d="M32.79,24.31a2.75,2.75,0,0,0-1-2.13,6.67,6.67,0,0,0-3.6-1.54v5.88h4.63Z"/><path class="05eb5b53-6736-44a9-bfdd-941839f4cc76" d="M31.76,22.18a2.75,2.75,0,0,1,1,2.13v2.21h4.57V24.24a6.77,6.77,0,0,0-3.22-5.66,12.13,12.13,0,0,0-6-2v4A6.67,6.67,0,0,1,31.76,22.18Z"/><path class="05eb5b53-6736-44a9-bfdd-941839f4cc76" d="M22.71,30.47h0L18.49,32a10,10,0,0,0,9.67,5.31v-4A5.36,5.36,0,0,1,22.71,30.47Z"/><rect class="05eb5b53-6736-44a9-bfdd-941839f4cc76" x="17.3" y="16.69" width="5.69" height="12.65" transform="translate(40.29 46.04) rotate(180)"/><rect class="d5274252-69f2-435d-99b8-e1a1c32569e7" x="17.3" y="22.86" width="5.69" height="20.56" transform="translate(40.29 66.29) rotate(180)"/><rect class="f019ceec-f1d5-4a46-b65c-860e45cc177a" x="17.3" y="26.86" width="5.69" height="20.56" transform="translate(40.29 74.29) rotate(180)"/></svg>