<svg id="2d20494b-9404-4533-9816-0694a0115b03" data-name="圖層 1" xmlns="http://www.w3.org/2000/svg" viewBox="0 0 64 64"><defs><style>.\31 29d7ace-9af7-4aaf-a2ff-68a0b23bdf28{fill:#78a74c;}.\30 c322823-be49-4786-ae56-fb7077540e66{fill:#5e753b;}.e3480b43-3ce8-49e1-8dc9-a29ef004403d{fill:none;}</style></defs><title>icons4</title><path class="129d7ace-9af7-4aaf-a2ff-68a0b23bdf28" d="M43.06,46.06a6.08,6.08,0,0,1-4.16-5.39h0V32.29h3.93v7.89a2.9,2.9,0,0,0,1.61,1.49c.6.18,2.5,0,2.84-1.09l3.51,1.16A6.26,6.26,0,0,1,43.06,46.06Z"/><rect class="129d7ace-9af7-4aaf-a2ff-68a0b23bdf28" x="38.95" y="24.64" width="4.1" height="3.76"/><rect class="129d7ace-9af7-4aaf-a2ff-68a0b23bdf28" x="43.82" y="28.42" width="3.9" height="3.9"/><rect class="0c322823-be49-4786-ae56-fb7077540e66" x="35.98" y="28.4" width="9.32" height="3.9"/><polygon class="e3480b43-3ce8-49e1-8dc9-a29ef004403d" points="25.19 25.3 31.5 31.87 31.5 24.88 25.27 24.88 25.19 24.97 25.19 25.3"/><polygon class="e3480b43-3ce8-49e1-8dc9-a29ef004403d" points="25.27 24.88 25.19 24.88 25.19 24.97 25.27 24.88"/><path class="e3480b43-3ce8-49e1-8dc9-a29ef004403d" d="M25.05,25.15l-6.6,8.37v1.07a6.3,6.3,0,0,0,6.52,6h.22V25.3Z"/><polygon class="e3480b43-3ce8-49e1-8dc9-a29ef004403d" points="25.19 24.97 25.05 25.15 25.19 25.3 25.19 24.97"/><path class="e3480b43-3ce8-49e1-8dc9-a29ef004403d" d="M25.19,40.61a6.27,6.27,0,0,0,6.31-6V31.87L25.19,25.3Z"/><polygon class="e3480b43-3ce8-49e1-8dc9-a29ef004403d" points="25.19 24.97 25.19 24.88 24.78 24.88 25.05 25.15 25.19 24.97"/><polygon class="e3480b43-3ce8-49e1-8dc9-a29ef004403d" points="25.05 25.15 24.78 24.88 18.45 24.88 18.45 33.52 25.05 25.15"/><rect class="129d7ace-9af7-4aaf-a2ff-68a0b23bdf28" x="31.5" y="17.38" width="5.22" height="7.5"/><path class="0c322823-be49-4786-ae56-fb7077540e66" d="M18.45,24.88H13.23v9.71a12.26,12.26,0,0,0,.85,4.47l4.37-5.54Z"/><rect class="129d7ace-9af7-4aaf-a2ff-68a0b23bdf28" x="13.23" y="17.38" width="5.22" height="7.5"/><path class="0c322823-be49-4786-ae56-fb7077540e66" d="M31.5,34.59a6.27,6.27,0,0,1-6.31,6v6a11.83,11.83,0,0,0,11.28-9.56l-5-5.18Z"/><path class="129d7ace-9af7-4aaf-a2ff-68a0b23bdf28" d="M25,40.62a6.3,6.3,0,0,1-6.52-6V33.52l-4.37,5.54A11.76,11.76,0,0,0,25,46.62h.22v-6Z"/><path class="129d7ace-9af7-4aaf-a2ff-68a0b23bdf28" d="M36.72,24.88H31.5v7l5,5.18a12.52,12.52,0,0,0,.25-2.46Z"/></svg>