<svg id="956f2794-49aa-4726-bfe2-61e8fa6ae580" data-name="圖層 1" xmlns="http://www.w3.org/2000/svg" viewBox="0 0 100 100"><defs><style>.\32 366d2ef-ea18-4498-bebe-f6ebd7a3b602{fill:#fea621;}.\34 9893d32-791b-4895-abfd-deffd761f363{fill:#fff;}</style></defs><title>b-logo</title><rect class="2366d2ef-ea18-4498-bebe-f6ebd7a3b602" width="101.75" height="100.12"/><path class="49893d32-791b-4895-abfd-deffd761f363" d="M26.12,43.78a16.27,16.27,0,0,0,2.12-5.56c.88-4.78,4.06-14.2,15.24-13.16C58.39,26.45,58.41,30.67,66,29.27S77,38.45,75,43.49s-6.08,8-6.5,13.11.86,18.55-17,15.71C28.41,68,35.62,56.24,29.82,56s-6.42-7.73-4.17-11.4Z"/><path class="49893d32-791b-4895-abfd-deffd761f363" d="M56,73.86a29.39,29.39,0,0,1-4.68-.4c-16-3-18.21-9.64-19.53-13.63-.72-2.15-1-2.66-2.05-2.71a6.34,6.34,0,0,1-5.48-3.46A10.55,10.55,0,0,1,24.66,44l.47-.77a15.31,15.31,0,0,0,2-5.17c.86-4.62,4.18-15.26,16.5-14.11a48.83,48.83,0,0,1,14.29,3.22c2.74,1,4.4,1.65,7.85,1a8,8,0,0,1,7.82,3c2.82,3.38,4,9.12,2.57,12.79a27.71,27.71,0,0,1-3.22,5.71c-1.59,2.35-3,4.39-3.2,7.08,0,.47-.06,1-.08,1.59-.17,3.77-.41,9.46-4.61,12.89C62.82,73,59.81,73.86,56,73.86ZM27.11,44.39l-.47.77a8.18,8.18,0,0,0-.29,7.41,4,4,0,0,0,3.53,2.22c2.76.14,3.47,2.26,4.15,4.31,1.23,3.73,3.11,9.36,17.71,12.07,5.32.84,9.3.24,11.8-1.8,3.39-2.77,3.61-7.84,3.75-11.19,0-.62.06-1.18.1-1.67.26-3.31,2-5.8,3.59-8.21a25.62,25.62,0,0,0,3-5.23c1-2.6.35-7.43-2.18-10.47a5.61,5.61,0,0,0-5.61-2.18c-4.09.76-6.19,0-9.1-1.12a46.82,46.82,0,0,0-13.69-3.08c-10-.93-13.07,7.25-14,12.22a17.22,17.22,0,0,1-2.27,6Z"/><path class="2366d2ef-ea18-4498-bebe-f6ebd7a3b602" d="M42.78,59.25a1.16,1.16,0,0,1-1.16-1.16V36.46a1.16,1.16,0,1,1,2.32,0V58.09A1.16,1.16,0,0,1,42.78,59.25Z"/><path class="2366d2ef-ea18-4498-bebe-f6ebd7a3b602" d="M51.16,59.76a9.55,9.55,0,1,1,9.55-9.54A9.55,9.55,0,0,1,51.16,59.76Zm0-16.76a7.22,7.22,0,1,0,7.22,7.22A7.23,7.23,0,0,0,51.16,43Z"/></svg>