<svg id="7beda4b2-697f-4d49-a549-5d451a770b14" data-name="圖層 1" xmlns="http://www.w3.org/2000/svg" viewBox="0 0 100 100"><defs><style>.\32 f6edc6f-74bf-48e8-8c6a-b4bb1f7fb809{fill:#fea621;}.eb90e26b-e503-4419-8d48-f0fa420d9359{fill:#fff;}</style></defs><title>b-logo</title><rect class="2f6edc6f-74bf-48e8-8c6a-b4bb1f7fb809" width="101.75" height="100.12"/><path class="eb90e26b-e503-4419-8d48-f0fa420d9359" d="M26.12,45a16.43,16.43,0,0,0,2.12-5.56c.88-4.78,4.06-14.21,15.24-13.17C58.39,27.61,58.41,31.83,66,30.44S77,39.62,75,44.65s-6.08,8-6.5,13.11.86,18.55-17,15.71C28.41,69.18,35.62,57.4,29.82,57.12s-6.42-7.74-4.17-11.4Z"/><path d="M56,75a29.39,29.39,0,0,1-4.68-.4c-16-3-18.21-9.64-19.53-13.62-.72-2.16-1-2.67-2.05-2.72a6.34,6.34,0,0,1-5.48-3.46,10.55,10.55,0,0,1,.37-9.71l.47-.77a15.23,15.23,0,0,0,2-5.17c.86-4.62,4.18-15.25,16.5-14.11a48.83,48.83,0,0,1,14.29,3.22c2.74,1,4.4,1.65,7.85,1a8,8,0,0,1,7.82,3c2.82,3.38,4,9.12,2.57,12.8a27.37,27.37,0,0,1-3.22,5.7c-1.59,2.35-3,4.39-3.2,7.09,0,.46-.06,1-.08,1.59-.17,3.76-.41,9.45-4.61,12.88C62.82,74.12,59.81,75,56,75ZM27.11,45.56l-.47.77a8.18,8.18,0,0,0-.29,7.41A3.94,3.94,0,0,0,29.88,56c2.76.14,3.47,2.26,4.15,4.31,1.23,3.73,3.11,9.36,17.71,12.07,5.32.85,9.3.24,11.8-1.8,3.39-2.77,3.61-7.83,3.75-11.19,0-.61.06-1.18.1-1.67.26-3.31,2-5.8,3.59-8.21a25.81,25.81,0,0,0,3-5.22c1-2.61.35-7.44-2.18-10.48a5.61,5.61,0,0,0-5.61-2.18c-4.09.76-6.19,0-9.1-1.12a46.82,46.82,0,0,0-13.69-3.08c-10-.93-13.07,7.25-14,12.22a17.35,17.35,0,0,1-2.27,6Z"/><path d="M42.78,60.41a1.16,1.16,0,0,1-1.16-1.16V37.63a1.16,1.16,0,1,1,2.32,0V59.25A1.16,1.16,0,0,1,42.78,60.41Z"/><rect class="2f6edc6f-74bf-48e8-8c6a-b4bb1f7fb809" x="42.78" y="43" width="16.76" height="16.76" rx="8.38" ry="8.38"/><path d="M51.16,60.92a9.54,9.54,0,1,1,9.55-9.54A9.55,9.55,0,0,1,51.16,60.92Zm0-16.76a7.22,7.22,0,1,0,7.22,7.22A7.23,7.23,0,0,0,51.16,44.16Z"/></svg>