<svg id="d905a8c7-a766-42ba-890b-a695a0bcf700" data-name="圖層 1" xmlns="http://www.w3.org/2000/svg" viewBox="0 0 100 100"><defs><style>.\37 eb0e7b4-5a02-4c60-abc5-a8db78f58c24{fill:#fff;}</style></defs><title>b-logo</title><rect x="-1.08" width="101.75" height="100.12"/><path class="7eb0e7b4-5a02-4c60-abc5-a8db78f58c24" d="M26,45a16.43,16.43,0,0,0,2.12-5.56c.88-4.78,4.06-14.21,15.24-13.17,14.91,1.39,14.93,5.61,22.46,4.22s11,9.18,9.09,14.21-6.07,8-6.49,13.11.86,18.55-17,15.71C28.25,69.18,35.46,57.4,29.66,57.12s-6.42-7.74-4.17-11.4Z"/><path class="7eb0e7b4-5a02-4c60-abc5-a8db78f58c24" d="M55.87,75a29.6,29.6,0,0,1-4.69-.4C35.2,71.66,33,65,31.66,61c-.72-2.16-1-2.67-2.06-2.72a6.32,6.32,0,0,1-5.47-3.46,10.52,10.52,0,0,1,.37-9.71l.47-.77a15.23,15.23,0,0,0,2-5.17c.86-4.62,4.18-15.25,16.5-14.11a48.83,48.83,0,0,1,14.29,3.22c2.74,1,4.4,1.65,7.85,1a8,8,0,0,1,7.82,3c2.82,3.38,4,9.12,2.57,12.8a27.37,27.37,0,0,1-3.22,5.7c-1.6,2.35-3,4.39-3.2,7.09,0,.46-.06,1-.08,1.59-.17,3.76-.41,9.45-4.61,12.88C62.66,74.12,59.65,75,55.87,75ZM27,45.56l-.47.77a8.15,8.15,0,0,0-.29,7.41A3.94,3.94,0,0,0,29.72,56c2.76.14,3.46,2.26,4.15,4.31C35.1,64,37,69.62,51.58,72.33c5.32.85,9.3.24,11.79-1.8,3.4-2.77,3.62-7.83,3.76-11.19,0-.61.05-1.18.09-1.67.27-3.31,2-5.8,3.6-8.21a26.29,26.29,0,0,0,3-5.22c1-2.61.35-7.44-2.18-10.48A5.61,5.61,0,0,0,66,31.58c-4.09.76-6.19,0-9.1-1.12a46.82,46.82,0,0,0-13.69-3.08c-10-.93-13.07,7.25-14,12.22a17.35,17.35,0,0,1-2.27,6Z"/><path d="M42.62,60.41a1.16,1.16,0,0,1-1.16-1.16V37.63a1.16,1.16,0,1,1,2.32,0V59.25A1.16,1.16,0,0,1,42.62,60.41Z"/><path d="M51,60.92a9.54,9.54,0,1,1,9.54-9.54A9.55,9.55,0,0,1,51,60.92Zm0-16.76a7.22,7.22,0,1,0,7.22,7.22A7.23,7.23,0,0,0,51,44.16Z"/></svg>