<svg id="15d0d096-efbc-4b3f-b1d9-66e2819e9ca2" data-name="圖層 1" xmlns="http://www.w3.org/2000/svg" viewBox="0 0 600 600"><defs><style>.bd8749c9-d98a-4cd8-a635-d1813085cf6f{fill:none;}</style></defs><title>bro-logo</title><path d="M524,252.93a10.79,10.79,0,0,0-11.08-6.65,91,91,0,0,1-23.33-1,90,90,0,0,1-65.4-128.19,10.88,10.88,0,0,0-14.93-14.41,99.61,99.61,0,0,0-46.44,54h0a42,42,0,0,1,7.36,7.28,90.4,90.4,0,0,1,43.48-53.05,1.72,1.72,0,0,1,.84-.23,1.59,1.59,0,0,1,1.33,2.34A99.31,99.31,0,0,0,488,254.49a100.9,100.9,0,0,0,25.71,1.07,1.6,1.6,0,0,1,1.69,1,1.32,1.32,0,0,1-.38,1.66,89.68,89.68,0,0,1-61.78,21.91c-.39,0-.77-.05-1.16-.06,1.75,2.74,3.44,5.53,5.22,8.26a3.5,3.5,0,0,1,.46,1.12,99,99,0,0,0,63.36-24.2A10.59,10.59,0,0,0,524,252.93Z"/><path class="bd8749c9-d98a-4cd8-a635-d1813085cf6f" d="M140.86,250a.47.47,0,0,0-.44.3.62.62,0,0,0,0,.59,47,47,0,0,0,13.09,11.17,1.75,1.75,0,0,0,1.94,0,53.64,53.64,0,0,0,12.65-11.17.62.62,0,0,0,0-.59.48.48,0,0,0-.45-.3Z"/><path class="bd8749c9-d98a-4cd8-a635-d1813085cf6f" d="M183.43,232.88H124.2c-.7,0-1,.39-1,1.19v5.06c0,.79.35,1.19,1,1.19h47.92a34.46,34.46,0,0,1,11.75,1.78c.5.2.75.05.75-.44v-7.59A1.05,1.05,0,0,0,183.43,232.88Z"/><path d="M187.89,223.35H120.18a8.61,8.61,0,0,0-6.18,2.53,8.35,8.35,0,0,0-2.6,6.25v4.76a8.36,8.36,0,0,0,2.6,6.26,8.61,8.61,0,0,0,6.18,2.53h.74a.53.53,0,0,1,.6.59,3.81,3.81,0,0,0,3.72,3.72H133v.15a4.27,4.27,0,0,0-2.76,2.68,3.52,3.52,0,0,0,.67,3.57,65.38,65.38,0,0,0,11.46,11.31.94.94,0,0,1,.3.67c0,.25-.15.42-.45.52a123.66,123.66,0,0,1-24.26,6.85,3.31,3.31,0,0,0-2.82,2.23,4.08,4.08,0,0,0,.3,3.72,10.17,10.17,0,0,0,3.57,3.57,8.11,8.11,0,0,0,3.42.75,7.53,7.53,0,0,0,1.49-.15,123.62,123.62,0,0,0,29.61-10,2.23,2.23,0,0,1,2.09.15,114.15,114.15,0,0,0,30.21,9.82,8.25,8.25,0,0,0,1.64.15,9.18,9.18,0,0,0,3.87-.9,11.91,11.91,0,0,0,4.46-3.87,3.58,3.58,0,0,0,.45-3.57,3.67,3.67,0,0,0-2.83-2.38,117.41,117.41,0,0,1-26.34-6.55.54.54,0,0,1-.45-.52.94.94,0,0,1,.3-.67,60.07,60.07,0,0,0,17.26-20.83,1.81,1.81,0,0,1,1.64-1h2.08a8.61,8.61,0,0,0,6.18-2.53,8.4,8.4,0,0,0,2.6-6.26v-4.76a8.39,8.39,0,0,0-2.6-6.25A8.61,8.61,0,0,0,187.89,223.35ZM168.1,250.88a53.64,53.64,0,0,1-12.65,11.17,1.75,1.75,0,0,1-1.94,0,47,47,0,0,1-13.09-11.17.62.62,0,0,1,0-.59.47.47,0,0,1,.44-.3h26.79a.48.48,0,0,1,.45.3A.62.62,0,0,1,168.1,250.88Zm16.52-9.22c0,.49-.25.64-.75.44a34.46,34.46,0,0,0-11.75-1.78H124.2c-.7,0-1-.4-1-1.19v-5.06c0-.8.35-1.19,1-1.19h59.23a1.05,1.05,0,0,1,1.19,1.19Z"/><rect x="70.17" y="232.88" width="11.41" height="53.13" rx="1.47" ry="1.47"/><path d="M104.92,177a6.09,6.09,0,0,0-4.46-1.86A6.33,6.33,0,0,0,95.92,177,6.09,6.09,0,0,0,94,181.53v26.2c0,.09,0,.13-.06.21a6,6,0,0,1,.06.61v71.8a6.06,6.06,0,0,0,1.94,4.54,6.33,6.33,0,0,0,4.54,1.86,6.09,6.09,0,0,0,4.46-1.86,6.17,6.17,0,0,0,1.86-4.54V181.53A6.2,6.2,0,0,0,104.92,177Z"/><path d="M76.12,225.58h1.49a4.3,4.3,0,0,0,4.32-4.31V208.55c0-.21,0-.42.06-.63s-.06-.11-.06-.19V192.25A5.75,5.75,0,0,0,80.22,188a5.94,5.94,0,0,0-8.34,0,5.75,5.75,0,0,0-1.71,4.24v27.38a5.84,5.84,0,0,0,6,6Z"/><path d="M168.06,217.91H123.15a4.46,4.46,0,0,1,0-8.92h44.91c4.28,0,7.9-3.08,7.9-6.73v-10.4c0-3.65-3.62-6.74-7.9-6.74H123.15a4.46,4.46,0,0,1,0-8.92h44.91c9.28,0,16.82,7,16.82,15.66v10.4C184.88,210.89,177.34,217.91,168.06,217.91Z"/><path d="M188.79,203.16h-71.2a4.66,4.66,0,1,1,0-9.32h71.2a4.66,4.66,0,0,1,0,9.32Z"/><path d="M195.85,181.54A4.85,4.85,0,0,1,191,176.7v-5c0-1.79-1.21-3.36-2.6-3.36H74.52c-1.39,0-2.6,1.57-2.6,3.36v5a4.85,4.85,0,0,1-9.7,0v-5c0-7.2,5.51-13.06,12.3-13.06H188.4c6.78,0,12.3,5.86,12.3,13.06v5A4.85,4.85,0,0,1,195.85,181.54Z"/><path d="M144.94,165.8a4.66,4.66,0,0,1-3.29-8l10.67-10.66a4.65,4.65,0,0,1,6.58,6.58l-10.66,10.67A4.66,4.66,0,0,1,144.94,165.8Z"/><path d="M339.88,253H225.66a5.43,5.43,0,1,1,0-10.86H339.88a5.43,5.43,0,1,1,0,10.86Z"/><path d="M242.73,244.72a5.43,5.43,0,0,1-5.43-5.43V171a20.64,20.64,0,0,1,20.62-20.61h49.7A20.64,20.64,0,0,1,328.23,171v68.3a5.43,5.43,0,1,1-10.86,0V171a9.76,9.76,0,0,0-9.75-9.75h-49.7a9.77,9.77,0,0,0-9.76,9.75v68.3A5.43,5.43,0,0,1,242.73,244.72Z"/><path d="M305.77,198.44H258.38a5.82,5.82,0,0,1,0-11.64h47.39a5.82,5.82,0,0,1,0,11.64Z"/><path d="M305.77,220.84H258.38a5.82,5.82,0,0,1,0-11.64h47.39a5.82,5.82,0,0,1,0,11.64Z"/><path class="bd8749c9-d98a-4cd8-a635-d1813085cf6f" d="M414.63,356.74c0,.15.12.22.21.22h38.85c.1,0,.17-.07.22-.22a.35.35,0,0,0-.07-.37,139.48,139.48,0,0,1-19.35-14.44.93.93,0,0,0-1.48,0,126.36,126.36,0,0,1-14.48,11.78l.28-.17-.28.17c-1.25.89-2.5,1.77-3.83,2.66A.31.31,0,0,0,414.63,356.74Z"/><rect class="bd8749c9-d98a-4cd8-a635-d1813085cf6f" x="405.62" y="429" width="58.49" height="8.63" rx="1.19" ry="1.19"/><path class="bd8749c9-d98a-4cd8-a635-d1813085cf6f" d="M473.19,383H440.74c-.7,0-1,.4-1,1.19V403c0,.8.34,1.19,1,1.19h32.45c.69,0,1-.39,1-1.19V384.2C474.23,383.41,473.88,383,473.19,383ZM464,392.09q-2.38,4.61-4.17,7.59a6.54,6.54,0,0,1-3.35,2.75,5.91,5.91,0,0,1-4.24.07,4.34,4.34,0,0,1-2.68-6.1q1.78-3.57,3.28-7.29a6.42,6.42,0,0,1,3.27-3.57,5.68,5.68,0,0,1,3-.89,5.88,5.88,0,0,1,1.79.29,4.86,4.86,0,0,1,3.12,7.15Z"/><rect class="bd8749c9-d98a-4cd8-a635-d1813085cf6f" x="405.62" y="447" width="58.49" height="8.78" rx="1.19" ry="1.19"/><path class="bd8749c9-d98a-4cd8-a635-d1813085cf6f" d="M426.9,383H396.09c-.69,0-1,.4-1,1.19V403c0,.8.35,1.19,1,1.19H426.9a1.05,1.05,0,0,0,1.19-1.19V384.2A1.05,1.05,0,0,0,426.9,383Zm-8.71,16.59a5.76,5.76,0,0,1-3.35,2.76,4.75,4.75,0,0,1-4.08-.38,5.77,5.77,0,0,1-2.76-3.2,78.46,78.46,0,0,0-3.12-7.44,3.91,3.91,0,0,1-.08-3.57,4.26,4.26,0,0,1,2.61-2.38,7,7,0,0,1,4.39.22,5.93,5.93,0,0,1,3.2,2.76,47.34,47.34,0,0,1,3.42,7.14A4.42,4.42,0,0,1,418.19,399.6Z"/><path d="M415,388.37a5.93,5.93,0,0,0-3.2-2.76,7,7,0,0,0-4.39-.22,4.26,4.26,0,0,0-2.61,2.38,3.91,3.91,0,0,0,.08,3.57,78.46,78.46,0,0,1,3.12,7.44,5.77,5.77,0,0,0,2.76,3.2,4.75,4.75,0,0,0,4.08.38,5.76,5.76,0,0,0,3.35-2.76,4.42,4.42,0,0,0,.23-4.09A47.34,47.34,0,0,0,415,388.37Z"/><path d="M460.84,384.94a5.88,5.88,0,0,0-1.79-.29,5.68,5.68,0,0,0-3,.89,6.42,6.42,0,0,0-3.27,3.57q-1.5,3.72-3.28,7.29a4.34,4.34,0,0,0,2.68,6.1,5.91,5.91,0,0,0,4.24-.07,6.54,6.54,0,0,0,3.35-2.75q1.79-3,4.17-7.59a4.86,4.86,0,0,0-3.12-7.15Z"/><path d="M501.76,366.79a4.53,4.53,0,0,0-3.12-3.13q-31.41-10.26-54-29.32A17.77,17.77,0,0,0,433,330a16.5,16.5,0,0,0-11.32,4.76,126.42,126.42,0,0,1-22.92,16.52,188.7,188.7,0,0,1-29,13.69,4.47,4.47,0,0,0-2.82,3.13,5.14,5.14,0,0,0-.3,1.63,5,5,0,0,0,.89,2.83,9.09,9.09,0,0,0,4.32,3.42,7.91,7.91,0,0,0,2.53.45,7,7,0,0,0,2.82-.59A207.81,207.81,0,0,0,402.07,364l16.46-10.25A126.36,126.36,0,0,0,433,341.93a.93.93,0,0,1,1.48,0,139.48,139.48,0,0,0,19.35,14.44l7.74,4.76A203.24,203.24,0,0,0,490.75,375a7,7,0,0,0,5.65,0,9.23,9.23,0,0,0,4.77-3.72,5,5,0,0,0,.89-2.83A5.44,5.44,0,0,0,501.76,366.79Z"/><path d="M478.1,373.78H391.78a8.64,8.64,0,0,0-8.78,8.78v21.88a8.53,8.53,0,0,0,2.53,6.17,8.35,8.35,0,0,0,6.25,2.61H478.1a8.38,8.38,0,0,0,6.25-2.61,8.53,8.53,0,0,0,2.53-6.17V382.56a8.64,8.64,0,0,0-8.78-8.78Zm-50,29.17a1.05,1.05,0,0,1-1.19,1.19H396.09c-.69,0-1-.39-1-1.19V384.2c0-.79.35-1.19,1-1.19H426.9a1.05,1.05,0,0,1,1.19,1.19Zm46.14,0c0,.8-.35,1.19-1,1.19H440.74c-.7,0-1-.39-1-1.19V384.2c0-.79.34-1.19,1-1.19h32.45c.69,0,1,.4,1,1.19Z"/><path d="M450.56,368.3H418.81a5.43,5.43,0,0,1,0-10.86h31.75a5.43,5.43,0,0,1,0,10.86Z"/><path d="M454.28,479.81a101.72,101.72,0,0,1-40,0c-16.4-3.49-27.61-20.33-23.46-36.64,1-3.12,1.43-4.68,2.39-7.8,3.8-11.79,15.59-19.89,28-17.66,10.39,2.08,15.74,2.08,26.14,0,12.42-2.23,24.21,5.87,28,17.66l2.38,7.8C482.3,458.85,470.37,477.11,454.28,479.81ZM420,428.06c-7.67-1.54-15.38,3-17.38,11.83L400.83,448c-1.95,9.94,4.88,19.32,14.58,21.51a95.74,95.74,0,0,0,37.71,0c9.7-2.19,16.54-11.57,14.58-21.51l-1.83-8.06c-2-8.82-9.71-13.37-17.38-11.83A69.56,69.56,0,0,1,420,428.06Z"/><path d="M454.34,480.41a102,102,0,0,1-40.15,0c-15.67-3.34-29.47-21.18-23.86-37.5,1-3.12,1.44-4.68,2.41-7.79,3.9-12,15.88-20.26,28.52-18,10.35,2.08,15.67,2.08,26,0,12.64-2.25,24.62,6,28.53,18,1,3.11,1.44,4.67,2.41,7.79C482.93,458.92,470.8,477.64,454.34,480.41ZM421.13,418.3c-12.19-2.19-23.8,5.7-27.5,17.31l-2.35,7.82c-4,16,7,32.37,23,35.78a101.45,101.45,0,0,0,39.89,0c15.72-2.64,27.46-20.42,23.05-35.78-.95-3.13-1.42-4.69-2.36-7.82-3.7-11.61-15.3-19.5-27.5-17.31C437,420.4,431.58,420.4,421.13,418.3Zm32.06,51.76a96.4,96.4,0,0,1-37.84,0c-10.05-2.28-17.07-12-15-22.3.75-3.23,1.12-4.84,1.86-8.06,2.11-9.13,10.05-13.82,17.91-12.24a69.28,69.28,0,0,0,28.32,0c7.86-1.58,15.8,3.11,17.9,12.24.75,3.22,1.12,4.83,1.86,8.06C470.25,458,463.23,467.78,453.19,470.06ZM420,428.66c-7.47-1.5-15,2.9-16.85,11.41l-1.8,8.08c-1.9,8.51,4.34,18.74,14.16,20.71a95.41,95.41,0,0,0,37.57,0c9.82-2,16.07-12.2,14.17-20.71-.72-3.23-1.09-4.85-1.81-8.08-1.9-8.51-9.38-12.91-16.85-11.41A69.89,69.89,0,0,1,420,428.66Z"/><path d="M433.24,459.63A35.78,35.78,0,0,1,407.69,449a5.43,5.43,0,0,1,7.93-7.41c.68.71,15.83,16,38.15-.64a5.43,5.43,0,0,1,6.5,8.71C450.48,457,441.26,459.63,433.24,459.63Z"/><path d="M235.79,286.56a5.82,5.82,0,0,1-1.61-11.41c9.7-2.8,19.41-11.58,22.34-14.72a5.82,5.82,0,1,1,8.52,7.92c-.52.56-12.88,13.72-27.63,18A5.66,5.66,0,0,1,235.79,286.56Z"/><path d="M329,285.71c-4.88,0-10-1.39-13.2-5.46-5.1-6.43-8.29-8.13-9-8.46l-6.61-.76a5.82,5.82,0,1,1,1.34-11.56l7.14.83c2.23.32,7.9,2.16,16.27,12.72,1.05,1.31,6,1.4,9.31.16a5.82,5.82,0,1,1,4.11,10.88A27.2,27.2,0,0,1,329,285.71ZM307,271.81a1,1,0,0,0,.2,0Z"/><path class="bd8749c9-d98a-4cd8-a635-d1813085cf6f" d="M167.06,351.76H93.39A1,1,0,0,0,92.2,353v34.52c0,.7.39,1,1.19,1h73.67a.93.93,0,0,0,1-1V353C168.1,352.15,167.75,351.76,167.06,351.76Z"/><path d="M161.36,410.74H97.49A17.46,17.46,0,0,1,80.05,393.3V355.79a17.46,17.46,0,0,1,17.44-17.44h63.87a17.46,17.46,0,0,1,17.44,17.44V393.3A17.46,17.46,0,0,1,161.36,410.74ZM97.49,351.93a3.91,3.91,0,0,0-3.86,3.86V393.3a3.91,3.91,0,0,0,3.86,3.86h63.87a3.91,3.91,0,0,0,3.86-3.86V355.79a3.91,3.91,0,0,0-3.86-3.86Z"/><path d="M89.75,471a6.79,6.79,0,0,1,0-13.58,9.85,9.85,0,0,0,7.56-3.31c7.45-8,8-27.85,7.61-34.18a6.79,6.79,0,1,1,13.55-.84c.19,3.09,1.51,30.61-11.23,44.28A23.51,23.51,0,0,1,89.81,471Z"/><path d="M173.58,473.3h-10.8a23.21,23.21,0,0,1-23.17-23.18V407.57a6.79,6.79,0,0,1,13.58,0v42.55a9.61,9.61,0,0,0,9.59,9.6h10.8a9.62,9.62,0,0,0,9.6-9.6,6.79,6.79,0,1,1,13.57,0A23.2,23.2,0,0,1,173.58,473.3Z"/><path d="M327.59,455.6a5.82,5.82,0,0,1,0-11.64c2.46,0,4.53-1.76,4.53-3.83V429.74c0-2.08-2.07-3.83-4.53-3.83H222l8.68-30.62a16.17,16.17,0,0,1,15.5-11.72H323a3.88,3.88,0,0,0,3.83-3.83V369.35a3.88,3.88,0,0,0-3.83-3.83H229.66a5.82,5.82,0,0,1,0-11.64H323a15.49,15.49,0,0,1,15.47,15.47v10.39A15.49,15.49,0,0,1,323,395.21H246.15a4.51,4.51,0,0,0-4.31,3.25l-4.48,15.81h90.23c8.92,0,16.17,6.94,16.17,15.47v10.39C343.76,448.66,336.51,455.6,327.59,455.6Z"/><path d="M275.75,474.48c-10.73,0-15.36-5.67-17.36-10.43a6.79,6.79,0,0,1,12.53-5.25c.43,1,.88,2.1,4.83,2.1a6.54,6.54,0,0,0,4.31-1.32V367.4a6.79,6.79,0,0,1,13.58,0V460C293.64,468.11,285.78,474.48,275.75,474.48Z"/><path d="M305.76,363.75A6.78,6.78,0,0,1,300,353.41L310.65,336a6.79,6.79,0,1,1,11.57,7.11l-10.67,17.37A6.77,6.77,0,0,1,305.76,363.75Z"/><path d="M260.78,363.75a6.79,6.79,0,0,1-5.89-3.4l-10.28-17.86a6.78,6.78,0,1,1,11.76-6.77l10.29,17.86a6.78,6.78,0,0,1-5.88,10.17Z"/><path d="M230,452.82a30.53,30.53,0,0,1-3.81-.25A5.82,5.82,0,0,1,227.6,441c3.81.47,6.52-.1,8-1.74,3.11-3.37,2.28-11.11,1.89-13a5.82,5.82,0,1,1,11.39-2.38c.32,1.52,2.86,15-4.73,23.26C241.7,449.86,237.3,452.82,230,452.82Z"/><path d="M466,315.48a4.65,4.65,0,0,1-4.31-2.91c-22.84-56.4-77.65-51.82-78.2-51.77l-7.1.68,2.24-6.77c.18-.57,18.14-56.67-15.48-95.87-34.13-39.77-76-55-124.55-45.43-36.61,7.27-63.52,26.73-63.79,26.92a4.65,4.65,0,0,1-5.5-7.51c1.13-.82,113.79-81.56,200.9,20,30.58,35.63,23,82.05,19,98.68,16.67.57,60.66,7.06,81.13,57.61a4.66,4.66,0,0,1-4.32,6.41Z"/><path d="M511.21,487.78a4.66,4.66,0,0,1-1.77-9c.64-.26,64-27.15,62.69-84.57-.37-16.05-6.75-32.26-19-48.16-41-53.4-99.52-24.31-102-23a4.66,4.66,0,0,1-4.26-8.28c.68-.35,67.87-34,113.64,25.65C574,357.93,581,376,581.43,394c1.47,63.87-65.59,92.21-68.45,93.39A4.61,4.61,0,0,1,511.21,487.78Z"/></svg>