<svg id="90d9e063-6388-448b-b058-74369a78c8f9" data-name="圖層 1" xmlns="http://www.w3.org/2000/svg" viewBox="0 0 600 600"><defs><style>.\38 0209353-8245-4475-ac83-1e79bc67de55{fill:#e8820f;}.c244a139-6580-4378-82d6-de549388e76d{fill:#fff;}.ed4674ab-1c07-4a4b-bcb9-536f05811e22{fill:none;}</style></defs><title>bro-logo</title><path class="80209353-8245-4475-ac83-1e79bc67de55" d="M347.16,162.43s27-56,46-51-4,12-1.5,18.5-10.5,44.5,3.5,62.5,2.32,37.18,61,60c18,7,46-3,43,12,0,0-27,30-70,25,0,0-34-30-56.5-30l-11.5-3S379.66,198.93,347.16,162.43Z"/><path class="c244a139-6580-4378-82d6-de549388e76d" d="M502.17,258.36a10.8,10.8,0,0,0-11.09-6.65,91,91,0,0,1-23.33-1,90,90,0,0,1-65.4-128.19,10.88,10.88,0,0,0-14.93-14.41,99.65,99.65,0,0,0-46.44,54h0a42,42,0,0,1,7.37,7.28,90.36,90.36,0,0,1,43.48-53,1.66,1.66,0,0,1,.83-.23,1.59,1.59,0,0,1,1.33,2.35,99.3,99.3,0,0,0,72.2,141.46A100.92,100.92,0,0,0,491.9,261a1.62,1.62,0,0,1,1.7,1,1.34,1.34,0,0,1-.39,1.66,89.68,89.68,0,0,1-61.78,21.91c-.39,0-.77-.05-1.16-.06,1.76,2.74,3.44,5.53,5.23,8.26a3.46,3.46,0,0,1,.45,1.12,99,99,0,0,0,63.36-24.2A10.61,10.61,0,0,0,502.17,258.36Z"/><path class="ed4674ab-1c07-4a4b-bcb9-536f05811e22" d="M119,255.42a.48.48,0,0,0-.45.3.64.64,0,0,0,0,.6,47.07,47.07,0,0,0,13.1,11.16,1.74,1.74,0,0,0,1.93,0,53.64,53.64,0,0,0,12.65-11.16.64.64,0,0,0,0-.6.48.48,0,0,0-.45-.3Z"/><path class="ed4674ab-1c07-4a4b-bcb9-536f05811e22" d="M161.59,238.31H102.36c-.7,0-1,.4-1,1.19v5.06c0,.79.34,1.19,1,1.19h47.92A34.56,34.56,0,0,1,162,247.53c.49.2.74.06.74-.44V239.5A1.05,1.05,0,0,0,161.59,238.31Z"/><path class="c244a139-6580-4378-82d6-de549388e76d" d="M166.06,228.78H98.34a8.61,8.61,0,0,0-6.18,2.53,8.39,8.39,0,0,0-2.6,6.25v4.76a8.4,8.4,0,0,0,2.6,6.26,8.57,8.57,0,0,0,6.18,2.53h.74a.53.53,0,0,1,.6.59,3.81,3.81,0,0,0,3.72,3.72h7.74v.15a4.23,4.23,0,0,0-2.75,2.68,3.48,3.48,0,0,0,.67,3.57,64.7,64.7,0,0,0,11.46,11.31,1,1,0,0,1,.29.67c0,.25-.15.42-.44.52a123.86,123.86,0,0,1-24.26,6.85,3.34,3.34,0,0,0-2.83,2.23,4.08,4.08,0,0,0,.3,3.72,10.17,10.17,0,0,0,3.57,3.57,8.11,8.11,0,0,0,3.42.75,7.53,7.53,0,0,0,1.49-.15,123.86,123.86,0,0,0,29.62-10,2.21,2.21,0,0,1,2.08.15A113.79,113.79,0,0,0,164,291.29a8.32,8.32,0,0,0,1.64.15,9.11,9.11,0,0,0,3.87-.9,12,12,0,0,0,4.46-3.86,3.6,3.6,0,0,0,.45-3.58,3.67,3.67,0,0,0-2.83-2.38,117.41,117.41,0,0,1-26.34-6.55.54.54,0,0,1-.45-.52.94.94,0,0,1,.3-.67,60.07,60.07,0,0,0,17.26-20.83,1.82,1.82,0,0,1,1.64-1h2.09a8.54,8.54,0,0,0,6.17-2.53,8.36,8.36,0,0,0,2.6-6.26v-4.76a8.35,8.35,0,0,0-2.6-6.25A8.58,8.58,0,0,0,166.06,228.78Zm-19.8,27.54a53.64,53.64,0,0,1-12.65,11.16,1.74,1.74,0,0,1-1.93,0,47.07,47.07,0,0,1-13.1-11.16.64.64,0,0,1,0-.6.48.48,0,0,1,.45-.3h26.78a.48.48,0,0,1,.45.3A.64.64,0,0,1,146.26,256.32Zm16.52-9.23c0,.5-.25.64-.74.44a34.56,34.56,0,0,0-11.76-1.78H102.36c-.7,0-1-.4-1-1.19V239.5c0-.79.34-1.19,1-1.19h59.23a1.05,1.05,0,0,1,1.19,1.19Z"/><rect class="c244a139-6580-4378-82d6-de549388e76d" x="48.34" y="238.31" width="11.41" height="53.13" rx="1.47" ry="1.47"/><path class="c244a139-6580-4378-82d6-de549388e76d" d="M83.09,182.42a6.11,6.11,0,0,0-4.47-1.86,6.33,6.33,0,0,0-4.54,1.86A6.08,6.08,0,0,0,72.15,187v26.2c0,.09-.05.13-.06.21a6,6,0,0,1,.06.61v71.8a6,6,0,0,0,1.93,4.54,6.33,6.33,0,0,0,4.54,1.86,6.35,6.35,0,0,0,6.33-6.4V187A6.2,6.2,0,0,0,83.09,182.42Z"/><path class="c244a139-6580-4378-82d6-de549388e76d" d="M54.29,231h1.49a4.3,4.3,0,0,0,4.31-4.31V214c0-.21,0-.42.07-.63s-.07-.11-.07-.19V197.68a5.75,5.75,0,0,0-1.71-4.24,5.88,5.88,0,0,0-10,4.24v27.38A5.84,5.84,0,0,0,54.29,231Z"/><path class="c244a139-6580-4378-82d6-de549388e76d" d="M146.22,223.34h-44.9a4.46,4.46,0,1,1,0-8.92h44.9c4.29,0,7.91-3.08,7.91-6.73v-10.4c0-3.65-3.62-6.73-7.91-6.73h-44.9a4.47,4.47,0,1,1,0-8.93h44.9c9.28,0,16.83,7,16.83,15.66v10.4C163.05,216.32,155.5,223.34,146.22,223.34Z"/><path class="c244a139-6580-4378-82d6-de549388e76d" d="M167,208.59H95.75a4.66,4.66,0,0,1,0-9.32H167a4.66,4.66,0,0,1,0,9.32Z"/><path class="c244a139-6580-4378-82d6-de549388e76d" d="M174,187a4.85,4.85,0,0,1-4.85-4.85v-5c0-1.79-1.22-3.36-2.6-3.36H52.68c-1.39,0-2.6,1.57-2.6,3.36v5a4.85,4.85,0,0,1-9.7,0v-5c0-7.2,5.52-13.06,12.3-13.06H166.57c6.78,0,12.3,5.86,12.3,13.06v5A4.86,4.86,0,0,1,174,187Z"/><path class="c244a139-6580-4378-82d6-de549388e76d" d="M123.11,171.23a4.66,4.66,0,0,1-3.3-7.95l10.67-10.66a4.66,4.66,0,0,1,6.59,6.58L126.4,169.87A4.63,4.63,0,0,1,123.11,171.23Z"/><path class="c244a139-6580-4378-82d6-de549388e76d" d="M318,258.4H203.82a5.43,5.43,0,0,1,0-10.86H318a5.43,5.43,0,1,1,0,10.86Z"/><path class="c244a139-6580-4378-82d6-de549388e76d" d="M220.9,250.16a5.43,5.43,0,0,1-5.43-5.44v-68.3a20.63,20.63,0,0,1,20.61-20.61h49.7a20.63,20.63,0,0,1,20.61,20.61v68.3a5.43,5.43,0,1,1-10.86,0v-68.3a9.76,9.76,0,0,0-9.75-9.75h-49.7a9.76,9.76,0,0,0-9.75,9.75v68.3A5.43,5.43,0,0,1,220.9,250.16Z"/><path class="c244a139-6580-4378-82d6-de549388e76d" d="M283.93,203.87H236.54a5.82,5.82,0,0,1,0-11.64h47.39a5.82,5.82,0,0,1,0,11.64Z"/><path class="c244a139-6580-4378-82d6-de549388e76d" d="M283.93,226.27H236.54a5.82,5.82,0,1,1,0-11.64h47.39a5.82,5.82,0,1,1,0,11.64Z"/><path class="ed4674ab-1c07-4a4b-bcb9-536f05811e22" d="M392.79,362.17c0,.15.12.22.22.22h38.84c.1,0,.18-.07.22-.22a.33.33,0,0,0-.06-.37,139,139,0,0,1-19.36-14.44.93.93,0,0,0-1.48,0,125.35,125.35,0,0,1-14.47,11.78L397,359l-.28.17c-1.26.89-2.51,1.78-3.84,2.66A.33.33,0,0,0,392.79,362.17Z"/><rect class="ed4674ab-1c07-4a4b-bcb9-536f05811e22" x="383.78" y="434.43" width="58.49" height="8.63" rx="1.19" ry="1.19"/><path class="ed4674ab-1c07-4a4b-bcb9-536f05811e22" d="M451.35,388.44H418.9c-.69,0-1,.4-1,1.19v18.75c0,.8.34,1.19,1,1.19h32.45c.7,0,1-.39,1-1.19V389.63C452.39,388.84,452.05,388.44,451.35,388.44Zm-9.23,9.08c-1.58,3.07-3,5.6-4.17,7.59a6.5,6.5,0,0,1-3.35,2.75,5.91,5.91,0,0,1-4.24.07,4.32,4.32,0,0,1-2.67-6.1q1.79-3.57,3.27-7.29a6.45,6.45,0,0,1,3.27-3.57,5.73,5.73,0,0,1,3-.89,5.88,5.88,0,0,1,1.79.29,4.85,4.85,0,0,1,3.12,7.15Z"/><rect class="ed4674ab-1c07-4a4b-bcb9-536f05811e22" x="383.78" y="452.43" width="58.49" height="8.78" rx="1.19" ry="1.19"/><path class="ed4674ab-1c07-4a4b-bcb9-536f05811e22" d="M405.06,388.44h-30.8c-.7,0-1,.4-1,1.19v18.75c0,.8.34,1.19,1,1.19h30.8a1,1,0,0,0,1.19-1.19V389.63A1.05,1.05,0,0,0,405.06,388.44ZM396.36,405a5.82,5.82,0,0,1-3.35,2.76,4.77,4.77,0,0,1-4.09-.38,5.81,5.81,0,0,1-2.76-3.2,79.57,79.57,0,0,0-3.12-7.44,3.94,3.94,0,0,1-.08-3.57,4.29,4.29,0,0,1,2.61-2.38A7,7,0,0,1,390,391a5.93,5.93,0,0,1,3.2,2.76,46.4,46.4,0,0,1,3.42,7.14A4.42,4.42,0,0,1,396.36,405Z"/><path class="c244a139-6580-4378-82d6-de549388e76d" d="M393.16,393.8A5.93,5.93,0,0,0,390,391a7,7,0,0,0-4.39-.22A4.29,4.29,0,0,0,383,393.2a3.94,3.94,0,0,0,.08,3.57,79.57,79.57,0,0,1,3.12,7.44,5.81,5.81,0,0,0,2.76,3.2,4.77,4.77,0,0,0,4.09.38,5.82,5.82,0,0,0,3.35-2.76,4.42,4.42,0,0,0,.22-4.09A46.4,46.4,0,0,0,393.16,393.8Z"/><path class="c244a139-6580-4378-82d6-de549388e76d" d="M439,390.37a5.88,5.88,0,0,0-1.79-.29,5.73,5.73,0,0,0-3,.89,6.45,6.45,0,0,0-3.27,3.57q-1.48,3.72-3.27,7.29a4.32,4.32,0,0,0,2.67,6.1,5.91,5.91,0,0,0,4.24-.07,6.5,6.5,0,0,0,3.35-2.75c1.19-2,2.59-4.52,4.17-7.59a4.85,4.85,0,0,0-3.12-7.15Z"/><path class="c244a139-6580-4378-82d6-de549388e76d" d="M479.92,372.22a4.51,4.51,0,0,0-3.12-3.13q-31.41-10.26-54-29.32a17.81,17.81,0,0,0-11.61-4.31,16.48,16.48,0,0,0-11.31,4.76,127.13,127.13,0,0,1-22.92,16.52,189.14,189.14,0,0,1-29,13.69,4.47,4.47,0,0,0-2.83,3.13,5.14,5.14,0,0,0-.3,1.63,5,5,0,0,0,.89,2.83,9.09,9.09,0,0,0,4.32,3.42,8,8,0,0,0,2.53.45,7,7,0,0,0,2.83-.59,208.4,208.4,0,0,0,24.87-11.91l16.47-10.25a125.35,125.35,0,0,0,14.47-11.78.93.93,0,0,1,1.48,0A139,139,0,0,0,432,361.8l7.73,4.76a203.24,203.24,0,0,0,29.17,13.84,7,7,0,0,0,5.65,0,9.23,9.23,0,0,0,4.77-3.72,5,5,0,0,0,.89-2.83A5.14,5.14,0,0,0,479.92,372.22Z"/><path class="c244a139-6580-4378-82d6-de549388e76d" d="M456.26,379.21H369.94a8.64,8.64,0,0,0-8.78,8.78v21.88a8.57,8.57,0,0,0,2.53,6.18,8.39,8.39,0,0,0,6.25,2.6h86.32a8.39,8.39,0,0,0,6.25-2.6,8.57,8.57,0,0,0,2.53-6.18V388a8.64,8.64,0,0,0-8.78-8.78Zm-50,29.17a1,1,0,0,1-1.19,1.19h-30.8c-.7,0-1-.39-1-1.19V389.63c0-.79.34-1.19,1-1.19h30.8a1.05,1.05,0,0,1,1.19,1.19Zm46.14,0c0,.8-.34,1.19-1,1.19H418.9c-.69,0-1-.39-1-1.19V389.63c0-.79.34-1.19,1-1.19h32.45c.7,0,1,.4,1,1.19Z"/><path class="c244a139-6580-4378-82d6-de549388e76d" d="M428.73,373.73H397a5.43,5.43,0,1,1,0-10.86h31.75a5.43,5.43,0,1,1,0,10.86Z"/><path class="c244a139-6580-4378-82d6-de549388e76d" d="M432.44,485.24a101.72,101.72,0,0,1-40,0C376,481.75,364.81,464.91,369,448.6l2.38-7.8c3.8-11.79,15.59-19.89,28-17.66,10.4,2.08,15.74,2.08,26.14,0,12.42-2.23,24.21,5.87,28,17.66l2.38,7.8C460.46,464.28,448.53,482.54,432.44,485.24ZM398.2,433.49c-7.66-1.54-15.37,3-17.37,11.83-.74,3.23-1.1,4.84-1.84,8.07-1.95,9.93,4.89,19.31,14.59,21.5a95.69,95.69,0,0,0,37.7,0c9.7-2.19,16.54-11.57,14.59-21.51-.74-3.22-1.1-4.84-1.83-8.06-2-8.82-9.72-13.37-17.38-11.83A69.61,69.61,0,0,1,398.2,433.49Z"/><path class="c244a139-6580-4378-82d6-de549388e76d" d="M432.5,485.84a102,102,0,0,1-40.15,0c-15.67-3.34-29.47-21.18-23.86-37.5,1-3.12,1.45-4.68,2.41-7.79,3.91-12,15.88-20.26,28.53-18,10.34,2.08,15.66,2.08,26,0,12.65-2.25,24.62,6,28.53,18,1,3.11,1.44,4.67,2.41,7.79C461.09,464.35,449,483.08,432.5,485.84Zm-33.21-62.11c-12.19-2.19-23.8,5.7-27.49,17.31-.94,3.13-1.42,4.69-2.36,7.82-4,16,7,32.37,23.05,35.78a101,101,0,0,0,39.88,0c15.72-2.63,27.46-20.42,23.05-35.78-.94-3.13-1.42-4.69-2.36-7.82-3.69-11.61-15.3-19.5-27.49-17.3C415.12,425.83,409.74,425.83,399.29,423.73Zm32.06,51.76a96.4,96.4,0,0,1-37.84,0c-10.05-2.28-17.07-12-15-22.3.74-3.23,1.11-4.84,1.86-8.06,2.1-9.13,10-13.82,17.9-12.24a68.93,68.93,0,0,0,28.32,0c7.86-1.58,15.8,3.11,17.9,12.24.75,3.22,1.12,4.83,1.86,8.06C448.42,463.46,441.4,473.21,431.35,475.49Zm-33.21-41.4c-7.47-1.5-14.95,2.91-16.85,11.41-.73,3.24-1.09,4.85-1.81,8.08-1.9,8.51,4.35,18.74,14.16,20.71a95.41,95.41,0,0,0,37.57,0c9.82-2,16.07-12.2,14.17-20.71l-1.81-8.08c-1.9-8.5-9.38-12.91-16.85-11.41A69.84,69.84,0,0,1,398.14,434.09Z"/><path class="c244a139-6580-4378-82d6-de549388e76d" d="M411.41,465.06a35.75,35.75,0,0,1-25.56-10.6,5.43,5.43,0,0,1,7.94-7.41c.68.71,15.82,16,38.14-.64a5.44,5.44,0,0,1,6.51,8.71C428.64,462.44,419.42,465.06,411.41,465.06Z"/><path class="c244a139-6580-4378-82d6-de549388e76d" d="M214,292a5.82,5.82,0,0,1-1.62-11.41c9.7-2.8,19.41-11.58,22.34-14.72a5.82,5.82,0,1,1,8.52,7.92c-.52.56-12.88,13.72-27.63,18A5.64,5.64,0,0,1,214,292Z"/><path class="c244a139-6580-4378-82d6-de549388e76d" d="M307.2,291.14c-4.89,0-10-1.39-13.21-5.46-5.1-6.43-8.29-8.13-9-8.45l-6.61-.77a5.82,5.82,0,1,1,1.33-11.56l7.14.83c2.23.32,7.9,2.16,16.28,12.72,1.05,1.32,6,1.4,9.3.16a5.82,5.82,0,0,1,4.11,10.89A27.43,27.43,0,0,1,307.2,291.14Zm-22.08-13.9a1,1,0,0,0,.2,0Z"/><path class="ed4674ab-1c07-4a4b-bcb9-536f05811e22" d="M145.22,357.19H71.55a1.05,1.05,0,0,0-1.19,1.19V392.9c0,.7.4,1.05,1.19,1.05h73.67a.93.93,0,0,0,1-1.05V358.38C146.26,357.58,145.91,357.19,145.22,357.19Z"/><path class="c244a139-6580-4378-82d6-de549388e76d" d="M139.52,416.17H75.65a17.46,17.46,0,0,1-17.44-17.44V361.22a17.46,17.46,0,0,1,17.44-17.44h63.87A17.46,17.46,0,0,1,157,361.22v37.51A17.46,17.46,0,0,1,139.52,416.17ZM75.65,357.36a3.91,3.91,0,0,0-3.86,3.86v37.51a3.91,3.91,0,0,0,3.86,3.86h63.87a3.91,3.91,0,0,0,3.87-3.86V361.22a3.92,3.92,0,0,0-3.87-3.86Z"/><path class="c244a139-6580-4378-82d6-de549388e76d" d="M67.91,476.39a6.79,6.79,0,0,1,0-13.58,9.85,9.85,0,0,0,7.56-3.31c7.45-8,8-27.85,7.61-34.18a6.79,6.79,0,1,1,13.55-.84c.2,3.09,1.52,30.61-11.22,44.28A23.53,23.53,0,0,1,68,476.39Z"/><path class="c244a139-6580-4378-82d6-de549388e76d" d="M151.74,478.73H141a23.21,23.21,0,0,1-23.18-23.18V413a6.79,6.79,0,1,1,13.58,0v42.54a9.62,9.62,0,0,0,9.6,9.6h10.79a9.62,9.62,0,0,0,9.6-9.6,6.79,6.79,0,1,1,13.58,0A23.21,23.21,0,0,1,151.74,478.73Z"/><path class="c244a139-6580-4378-82d6-de549388e76d" d="M305.76,461a5.82,5.82,0,0,1,0-11.64c2.45,0,4.52-1.76,4.52-3.83V435.17c0-2.08-2.07-3.83-4.52-3.83H200.13l8.68-30.62A16.18,16.18,0,0,1,224.31,389h76.88a3.88,3.88,0,0,0,3.83-3.83V374.78a3.88,3.88,0,0,0-3.83-3.83H207.83a5.82,5.82,0,0,1,0-11.64h93.36a15.48,15.48,0,0,1,15.46,15.47v10.39a15.48,15.48,0,0,1-15.46,15.47H224.31a4.49,4.49,0,0,0-4.3,3.25l-4.49,15.81h90.24c8.91,0,16.16,6.94,16.16,15.47v10.39C321.92,454.09,314.67,461,305.76,461Z"/><path class="c244a139-6580-4378-82d6-de549388e76d" d="M253.92,479.91c-10.74,0-15.37-5.67-17.36-10.43a6.79,6.79,0,1,1,12.52-5.24c.43,1,.88,2.09,4.84,2.09a6.59,6.59,0,0,0,4.31-1.32V372.83a6.79,6.79,0,1,1,13.57,0v92.59C271.8,473.54,264,479.91,253.92,479.91Z"/><path class="c244a139-6580-4378-82d6-de549388e76d" d="M283.93,369.19a6.8,6.8,0,0,1-5.78-10.35l10.67-17.37a6.79,6.79,0,0,1,11.57,7.11L289.72,366A6.78,6.78,0,0,1,283.93,369.19Z"/><path class="c244a139-6580-4378-82d6-de549388e76d" d="M239,369.19a6.78,6.78,0,0,1-5.89-3.41l-10.29-17.85a6.79,6.79,0,0,1,11.77-6.78L244.82,359A6.79,6.79,0,0,1,239,369.19Z"/><path class="c244a139-6580-4378-82d6-de549388e76d" d="M208.12,458.25a30.37,30.37,0,0,1-3.8-.25,5.82,5.82,0,0,1,1.44-11.55c3.82.47,6.52-.1,8-1.74,3.11-3.37,2.29-11.11,1.89-13a5.82,5.82,0,0,1,11.4-2.38c.31,1.52,2.85,15-4.73,23.26C219.86,455.29,215.46,458.25,208.12,458.25Z"/><path class="c244a139-6580-4378-82d6-de549388e76d" d="M444.12,320.91A4.66,4.66,0,0,1,439.8,318c-22.84-56.4-77.65-51.82-78.19-51.77l-7.1.68,2.23-6.77c.19-.57,18.15-56.67-15.48-95.87-34.13-39.77-76-55.05-124.55-45.43-36.61,7.27-63.52,26.73-63.79,26.92a4.65,4.65,0,0,1-5.5-7.51c1.13-.82,113.79-81.56,200.9,20,30.58,35.64,23,82,19,98.68C384,257.47,428,264,448.43,314.5a4.66,4.66,0,0,1-4.31,6.41Z"/><path class="c244a139-6580-4378-82d6-de549388e76d" d="M489.38,493.21a4.66,4.66,0,0,1-1.78-9c.64-.26,64-27.14,62.69-84.57-.37-16.05-6.75-32.26-19-48.16-41-53.4-99.52-24.31-102-23a4.65,4.65,0,0,1-4.25-8.28c.67-.35,67.86-34,113.63,25.65,13.44,17.51,20.46,35.55,20.88,53.62,1.47,63.87-65.6,92.22-68.46,93.39A4.53,4.53,0,0,1,489.38,493.21Z"/></svg>