<svg id="948b70fe-6e93-4174-a326-8d6998ce7568" data-name="圖層 1" xmlns="http://www.w3.org/2000/svg" viewBox="0 0 100 100"><defs><style>.\38 edd3fcb-222e-4a38-b62d-9dc1270b7f80{fill:#fff;stroke:#fff;stroke-miterlimit:10;stroke-width:4px;}.ef460359-91fb-4a00-8388-cb8fcaeaa01b{fill:#006837;}.d3c360ea-8e98-4e2a-ad44-1173da0379fd{fill:#009245;}.\31 c9bc222-d464-49f2-906c-b66edb47e137{fill:#42210b;}.aa4a01a3-c930-4f43-aa28-3443f1bc7dd1{fill:#39b54a;}.\30 891f5ff-dc9b-4b66-8d4a-f7f1f3ab3a59{fill:#f15a24;}.fc584c62-51e7-4ea9-a873-c5c1ae2196e7{fill:#fcee21;}</style></defs><title>dino5-xs</title><path class="8edd3fcb-222e-4a38-b62d-9dc1270b7f80" d="M96.79,17.75,93.73,9.86C92.07,5.58,87.65,2.66,83.62,4a25.8,25.8,0,0,0-4.71.44c-.67.11-1.33.26-2,.43A20.09,20.09,0,0,0,69.5,7.47h0c-.43.25-.88.46-1.3.75a13,13,0,0,0-2.37,2A13.47,13.47,0,0,0,64,12.88,29.28,29.28,0,0,0,61.91,19c0,.18-.1.34-.14.51-1,2.7-2.1,5.12-3.82,6.47A10.31,10.31,0,0,1,55.8,27l-.31.11a21.34,21.34,0,0,1-5,.92,25.47,25.47,0,0,0-5.67,1.09,28.55,28.55,0,0,0-10.12,6,48.66,48.66,0,0,0-7.85,9.27,64.82,64.82,0,0,0-5.29,9.92c-.28.47-.56.93-.85,1.38a92.32,92.32,0,0,0-6.05,7,74.83,74.83,0,0,0-5.64,8.31C5.14,76.38,2.35,81.59,3.13,87.54a2,2,0,0,0,.59,1.21,15.27,15.27,0,0,0,.55,3A14.81,14.81,0,0,1,4,89a1.57,1.57,0,0,0,2.26-.56C9.61,82.94,16.87,72.32,24.85,68c11-6,9.33,2.19,13.18,5.32s-.28,12.2-.28,12.2-2.47,5-1.92,6.89,5.77.94,8,3.13a3.63,3.63,0,0,0,.73.56c1.95,1.15,3.46-2.25,1.55-3.5a11.37,11.37,0,0,0-1.46-.82c-2.74-1.25-2.47-5-1.09-7.82.86-1.77,3.45-3.91,4.79-8.2,2.37,2.49,4.83,4.51,5.64,5.69C55.87,84.27,48.8,91.63,51.48,94c1.74,1.53,14,1.57,10.43-.62s-9.06,1.88-4.12-8.45c2.88-6,1.94-14.26.65-20.1A26.14,26.14,0,0,0,66,58.64c4,2.32,6.54,1.19,8,2,1.65.94.21,4.46.21,4.46a2.25,2.25,0,0,0,1.63-1.26,2.78,2.78,0,0,0,.92-1.11,2.73,2.73,0,0,0,1.11-1.38c1.26,2.46-.37,6.33-.37,6.33a4.25,4.25,0,0,0,1.36-1.34,4.44,4.44,0,0,0,.91-1.09,5.41,5.41,0,0,0,1.85-3.92,10.41,10.41,0,0,1,.62,4.48,4.18,4.18,0,0,0,1-1.1,4.25,4.25,0,0,0,.92-1.09c.49-.36,2.79-2.37,1.07-6.58-1.92-4.69-7.69-3.44-7.69-3.44s-2.72-.16-5.29-3.86c7.58-14.56-3.71-21,6.16-29.8a1.53,1.53,0,0,1,2.2.12A8.67,8.67,0,0,0,83.11,22L90,25.46c1.39.71,3.55-.23,5-1.95S97.41,19.34,96.79,17.75Z"/><path class="ef460359-91fb-4a00-8388-cb8fcaeaa01b" d="M56.42,57.67s6.31,16.9,1.37,27.23.55,6.26,4.12,8.45S53.22,95.5,51.48,94c-2.68-2.34,4.39-9.7,2.47-12.52S40.77,71.13,43.52,63.62,56.42,57.67,56.42,57.67Z"/><path class="d3c360ea-8e98-4e2a-ad44-1173da0379fd" d="M96.79,17.75,93.73,9.86c-1.81-4.66-6.89-7.72-11.17-5.4a4.19,4.19,0,0,1-1.37.16c-3-.12-8.77.43-13.24,3.91-6,4.7-5.77,16-11.26,18.15s-25,5.64-32.39,22.54C17.58,64.54,1.39,74.2,3.13,87.54c.23,1.77,2.21,2.33,3.11.87C9.61,82.94,16.87,72.32,24.85,68c11-6,9.33,2.19,13.18,5.32s-.28,12.2-.28,12.2-2.47,5-1.92,6.89,5.77.94,8,3.13a3.63,3.63,0,0,0,.73.56c1.95,1.15,3.46-2.25,1.55-3.5a11.37,11.37,0,0,0-1.46-.82c-2.74-1.25-2.47-5-1.09-7.82,1.25-2.58,6.19-5.95,5.54-15.63A1.83,1.83,0,0,1,51,66.22c3.48.55,10.63-.35,19.14-12.93,11.6-17.14-2.36-23.81,8.28-33.35a1.53,1.53,0,0,1,2.2.12A8.67,8.67,0,0,0,83.11,22L90,25.46c1.39.71,3.55-.23,5-1.95S97.41,19.34,96.79,17.75Z"/><path class="d3c360ea-8e98-4e2a-ad44-1173da0379fd" d="M96.79,17.75,93.73,9.86c-1.81-4.66-6.89-7.72-11.17-5.4a4.19,4.19,0,0,1-1.37.16c-3-.12-8.77.43-13.24,3.91-6,4.7-5.77,16-11.26,18.15s-25,5.64-32.39,22.54C17.58,64.54,1.39,74.2,3.13,87.54c.23,1.77,2.21,2.33,3.11.87C9.61,82.94,16.87,72.32,24.85,68c11-6,9.33,2.19,13.18,5.32s-.28,12.2-.28,12.2-2.47,5-1.92,6.89,5.77.94,8,3.13a3.63,3.63,0,0,0,.73.56c1.95,1.15,3.46-2.25,1.55-3.5a11.37,11.37,0,0,0-1.46-.82c-2.74-1.25-2.47-5-1.09-7.82,1.25-2.58,6.19-5.95,5.54-15.63A1.83,1.83,0,0,1,51,66.22c3.48.55,10.63-.35,19.14-12.93,11.6-17.14-2.36-23.81,8.28-33.35a1.53,1.53,0,0,1,2.2.12A8.67,8.67,0,0,0,83.11,22L90,25.46c1.39.71,3.55-.23,5-1.95S97.41,19.34,96.79,17.75Z"/><path class="1c9bc222-d464-49f2-906c-b66edb47e137" d="M62,37.32s2.68-2.58,5.43,7.75S75.7,55.71,75.7,55.71s5.76-1.25,7.68,3.45-1.16,6.65-1.16,6.65.41-4.23-1.65-5.87,1,5.16-3.09,7.74c0,0,2.47-5.86-1-7.74,0,0,.42,4.69-2.26,5.16,0,0,1.44-3.52-.21-4.46s-4.73.71-9.88-3.28-6-14.25-9.74-11.9"/><path class="d3c360ea-8e98-4e2a-ad44-1173da0379fd" d="M61.08,33.57s5.49-.94,8.24,9.39S77.55,53.6,77.55,53.6s5.77-1.25,7.69,3.44-1.17,6.65-1.17,6.65.41-4.22-1.65-5.87,1,5.17-3.08,7.75c0,0,2.47-5.87-1-7.75,0,0,.41,4.7-2.27,5.17,0,0,1.44-3.52-.2-4.46s-4.74.7-9.88-3.29-8-14.32-11.74-12"/><path class="aa4a01a3-c930-4f43-aa28-3443f1bc7dd1" d="M60.05,34.74s5.49-.94,8.24,9.39,8.23,10.64,8.23,10.64,5.77-1.25,7.69,3.45S83,64.87,83,64.87s.41-4.23-1.65-5.87,1,5.16-3.08,7.74c0,0,2.47-5.86-1-7.74,0,0,.41,4.69-2.27,5.16,0,0,1.44-3.52-.2-4.46s-4.74.71-9.88-3.28-8-14.32-11.74-12"/><path class="0891f5ff-dc9b-4b66-8d4a-f7f1f3ab3a59" d="M89.84,5.48a11.46,11.46,0,0,0-5.37-.9,24.12,24.12,0,0,0-5.39.85,41.14,41.14,0,0,0-5.21,1.8L71.33,8.35c-.4.21-.81.41-1.2.63s-.78.46-1.13.75a11.5,11.5,0,0,0-2,1.84,12,12,0,0,0-1.48,2.32,27.84,27.84,0,0,0-1.71,5.69,17.34,17.34,0,0,1-2.38,6.15,10.77,10.77,0,0,1-5.06,3.8,20.85,20.85,0,0,1-5.67,1.21,23.09,23.09,0,0,0-5.18,1,27.72,27.72,0,0,0-9.28,5.58,45.68,45.68,0,0,0-7.48,8.71,61.37,61.37,0,0,0-5.7,10.37l-.11.28-.18.16c-2.32,2.27-4.61,4.73-6.75,7.29a82.13,82.13,0,0,0-6,8.1,45.94,45.94,0,0,0-4.67,9.13A19.72,19.72,0,0,0,4.27,91.78a15.46,15.46,0,0,1-.58-5.35,25.23,25.23,0,0,1,.94-5.33,44.18,44.18,0,0,1,4.26-9.73,74.62,74.62,0,0,1,5.82-8.61A89.89,89.89,0,0,1,21.42,55l-.29.44a64.19,64.19,0,0,1,5.77-11,48.66,48.66,0,0,1,7.85-9.27,28.55,28.55,0,0,1,10.12-6A25.47,25.47,0,0,1,50.54,28a20.5,20.5,0,0,0,5.15-1,8.53,8.53,0,0,0,4.09-2.88A15.9,15.9,0,0,0,61.91,19,29.28,29.28,0,0,1,64,12.88a13.47,13.47,0,0,1,1.84-2.67,13,13,0,0,1,2.37-2c.42-.29.87-.5,1.3-.75s.88-.41,1.33-.61l2.64-1a40.27,40.27,0,0,1,5.44-1.41A24.74,24.74,0,0,1,84.47,4,11.32,11.32,0,0,1,89.84,5.48Z"/><path class="0891f5ff-dc9b-4b66-8d4a-f7f1f3ab3a59" d="M86.34,11.82a6.87,6.87,0,0,0-3.89-.05,9.5,9.5,0,0,0-3.51,1.75,20.15,20.15,0,0,0-5.22,6.36c-1.33,2.49-2.56,5.25-4,7.83a38.74,38.74,0,0,1-2.33,3.83,14.35,14.35,0,0,1-1.49,1.8,4,4,0,0,1-.47.43,3.13,3.13,0,0,1-.6.4,2.06,2.06,0,0,1-.39.17,1.58,1.58,0,0,1-.53.09,1.73,1.73,0,0,1-.32,0,2.14,2.14,0,0,1-.38-.13,1.63,1.63,0,0,1-.36-.26,1,1,0,0,1-.17-.19l-.08-.11-.11-.2,1,.69a7.69,7.69,0,0,0-5.84,3.58,7.84,7.84,0,0,0-.86,3.6l.08,2.25a6.2,6.2,0,0,1-.69,2.9,4.76,4.76,0,0,1-2,1.93,8.37,8.37,0,0,1-2.19.72c-1.42.28-2.76.36-4.07.49a22.59,22.59,0,0,0-7.43,1.58,9.94,9.94,0,0,0-3.05,2.15,17.29,17.29,0,0,0-1.25,1.51l-1.31,1.77a65.83,65.83,0,0,1-5.74,6.45c-2,2-4.08,3.93-6.22,5.74S18.6,72.42,16.34,74c4.1-3.86,8.06-7.88,11.79-12.12,1.84-2.14,3.65-4.32,5.28-6.63l1.18-1.76.66-1c.23-.32.5-.6.75-.9a12.39,12.39,0,0,1,3.61-2.73,22.72,22.72,0,0,1,8.1-2,36.82,36.82,0,0,0,3.84-.5A3.67,3.67,0,0,0,54.15,45a3.14,3.14,0,0,0,.32-1.42l-.06-2.28a10.78,10.78,0,0,1,1.28-5,8.58,8.58,0,0,1,3.47-3.38,10.7,10.7,0,0,1,4.27-1.25l1.05.7a.87.87,0,0,0-.08-.14l0-.06a.36.36,0,0,0-.08-.09.48.48,0,0,0-.15-.11.27.27,0,0,0-.14-.05.11.11,0,0,0-.08,0c-.07,0,0,0,0,0l.07,0a1.11,1.11,0,0,0,.26-.17,3.29,3.29,0,0,0,.31-.27A12.38,12.38,0,0,0,65.78,30c.81-1.1,1.61-2.27,2.34-3.5,1.51-2.44,2.78-5,4.38-7.57a19.55,19.55,0,0,1,6-6.26,9.35,9.35,0,0,1,3.88-1.44A6.93,6.93,0,0,1,86.34,11.82Z"/><ellipse class="fc584c62-51e7-4ea9-a873-c5c1ae2196e7" cx="87.98" cy="12.93" rx="1.08" ry="1.7" transform="translate(27.95 78.54) rotate(-55.9)"/><ellipse class="1c9bc222-d464-49f2-906c-b66edb47e137" cx="88.03" cy="12.87" rx="0.75" ry="0.32" transform="translate(43.88 90.11) rotate(-68.56)"/></svg>