<svg id="6b353392-021f-4a5f-8649-303bed132b04" data-name="圖層 1" xmlns="http://www.w3.org/2000/svg" viewBox="0 0 100 100"><defs><style>.\33 85d411e-a58a-401c-b23e-d249727e0357,.da6a73c4-8b52-45a4-a78f-6c3248e2b0a8{fill:#fff;}.da6a73c4-8b52-45a4-a78f-6c3248e2b0a8{stroke:#fff;stroke-miterlimit:10;stroke-width:3px;}.\39 fc9817c-e17a-452f-b73f-e4807a82f639{fill:#ae7418;}.\36 b782798-2027-4545-8a0e-041737e3ec05{fill:#b3b3b3;}.\31 a658334-cf18-4eb3-92a8-37c9066c6433{fill:#fbb03b;}.\38 61cb096-1ce9-4f6c-b46a-0a749b6d21d7{fill:#e6e6e6;}</style></defs><title>dino2-xs</title><path class="da6a73c4-8b52-45a4-a78f-6c3248e2b0a8" d="M92,35.88a35.88,35.88,0,0,0-11.37,3.86c.78-1.7,2.49-3.46,6.12-4.36,0,0,3.63-2.76.25-1.76s-9,1.88-9.88,4.5-1.62,2.13-2.24,3.76c0,0-1,.94-1.74,1.58-.41,0-1.39-.21-2.89-2.17,0,0-.67-2.69-2.45-2.84l.2-.07s-1.06-1.59-2,0c-.56-.33-1.41-.69-1.57.05,0,.17-.07.29-.09.39-.22-.28-.92-1-1.33-.23a1,1,0,0,0,.08.88s-1-.7-1.42.33c-.16.46.38.83.38.83s-1.67-.33-1.25.8c.31.83.5.95.58,1-.19,0-1.11.26-1,1.12a1.82,1.82,0,0,0,.63,1.33s-.05.15-.1.36A7.65,7.65,0,0,0,59,44.71a8.14,8.14,0,0,1-2.21-.83C36.79,41,38,43.83,30.5,47.33s-7.25,8-13,12.92S9.75,65.58,5.33,66.12s-2.25,1.42-2.25,1.42c7.34,3.38,17.59-1.37,20-3.37s5.8,0,5.8,0-1.75,3.08-3,3.21S24.21,68.83,24.33,69a13.81,13.81,0,0,1-.41,5.5c-.71,1.87.33,2.58.33,2.58a9.15,9.15,0,0,1,2.08,1.21c1.09.83,3,.25,3,.25l2.34-.17c-.34-1.58-1-.87-1.46-1.66a2.68,2.68,0,0,0-1.29-1c-.84-.37-.75-2-.75-2a4.28,4.28,0,0,1,1.71-2.91l1.66-.7,2.34,2.41A3.14,3.14,0,0,0,34.25,75a6.62,6.62,0,0,0,2.63,1.33c1.79,1.38,2.66.25,3.08.46s1.66.5,1.58,0-1.25-1.45-1.25-1.45a2.42,2.42,0,0,0-1.54-2c-.25-1.59-1.25-1.92-1.37-2.25S36.29,69,35.83,68l.92-.45S38,67.25,45,68a31.3,31.3,0,0,0,4.79.13,51.83,51.83,0,0,0,1,6.08l-.41,1.16c-.34,1.63,1.16.59,1.16.59C52,77.58,53,77,53,77s.34,1.33.75,1,2,.38,2.46-.21-1-1.62-1-1.62-.13-.29-.37-1a10.13,10.13,0,0,1-.38-1.17,9.28,9.28,0,0,1,.44-3.84c1.76,2.77,3,3.38,3,3.38a4.52,4.52,0,0,1,3.08,3l.17,1.83,1,.25.25.54c2.75,1.21,3.41-.25,3.41-.25l-1.71-2.62s.38-2.21.42-2.59-3.92-5.54-3.92-5.54v0c2-.56,2.73-1.55,4.06-3.84a8.73,8.73,0,0,0,1.69-2.12,11,11,0,0,1,1.58-1,6.19,6.19,0,0,0,.57-.3,35.49,35.49,0,0,1,6-2.08L77,58.47a6.13,6.13,0,0,0,3-1s.12,1,1,.38a2.6,2.6,0,0,1,2.16-.05c3,.92,3.34.5,4.13.05s2.67-3,1.12-2.26-2.21.13-3.45-.2,0-3.59,1-3,1.2,0,1.2,0,.75,1.46,1.59.87,1.62,1.09,1.62,1.09c2-1,1.67-2.21,1.67-4a3.06,3.06,0,0,0-3.17-2.84L89,45.12s.38-1.62-1.88,0L85.36,46.4a5.34,5.34,0,0,0-2-.19,2.28,2.28,0,0,1,0-2.09c2.5-6.62,7-5.37,9.37-7S94,35.88,92,35.88ZM80.06,43h0Z"/><path class="9fc9817c-e17a-452f-b73f-e4807a82f639" d="M49.79,67.21l6.08.25S54,71.92,54.5,74.08a11.19,11.19,0,0,0,.37,1.17c.25.67.38,1,.38,1s1.5,1,1,1.62-2-.08-2.46.21S53,77,53,77s-1,.58-1.5-1.08c0,0-1.5,1-1.17-.59l.42-1.16S49.46,68.37,49.79,67.21Z"/><path class="9fc9817c-e17a-452f-b73f-e4807a82f639" d="M35.58,67.54s1.67,3.29,1.79,3.63,1.13.66,1.38,2.25a2.42,2.42,0,0,1,1.54,2s1.17,1,1.25,1.46-1.17.17-1.58,0-1.29.92-3.09-.46A6.61,6.61,0,0,1,34.25,75a3.17,3.17,0,0,1-.38-2.63l-2.91-3Z"/><path class="6b782798-2027-4545-8a0e-041737e3ec05" d="M83.38,44.12s-2.13.5-4.13-2S90,35.88,92,35.88s3.12-.38.75,1.24S85.88,37.5,83.38,44.12Z"/><path class="1a658334-cf18-4eb3-92a8-37c9066c6433" d="M72.5,44c.38-.25,2.38-2.12,2.38-2.12l7,1.5,1.5.74a2.28,2.28,0,0,0,0,2.09,4.53,4.53,0,0,1,3.09.75c1.2,1,1.25.87,2.37.62A3.06,3.06,0,0,1,92,50.42c0,1.79.29,3-1.67,4,0,0-.79-1.67-1.62-1.09s-1.59-.87-1.59-.87-.21.62-1.21,0-2.25,2.62-1,3,1.92.91,3.46.2-.33,1.8-1.12,2.26-1.13.87-4.13-.05a2.6,2.6,0,0,0-2.16.05c-.88.58-1-.38-1-.38a6.8,6.8,0,0,1-3.8,1l-.54-.42A14.27,14.27,0,0,1,70.08,60a11.21,11.21,0,0,1-2.87,1.58c-1.09.25-1,2.13-3.79,3.71,0,0-1,2.67-2.75,2.25l-.05.75s4,5.17,3.92,5.54-.42,2.59-.42,2.59L65.83,79s-.66,1.46-3.41.25l-.25-.54-1-.25L61,76.67a4.52,4.52,0,0,0-3.08-3s-1.5-.75-3.59-4.37A1,1,0,0,1,54,67.87c.46-.91-2.08.8-9,.09s-8.21-.38-8.21-.38-3.58,1.75-6.88,3.09a4.26,4.26,0,0,0-1.7,2.91s-.09,1.67.75,2a2.61,2.61,0,0,1,1.29,1c.5.79,1.12.08,1.46,1.66l-2.34.17s-1.91.58-3-.25A9.15,9.15,0,0,0,24.25,77s-1-.71-.33-2.58a13.81,13.81,0,0,0,.41-5.5c-.12-.13.34-1.46,1.59-1.59s3-3.2,3-3.2-3.34-2-5.8,0-12.7,6.75-20,3.37c0,0-2.16-.87,2.25-1.42s6.5-1,12.21-5.87,5.46-9.42,13-12.92S36.79,41,56.75,43.87a8.08,8.08,0,0,0,2.21.84,9.66,9.66,0,0,1,3.17,1.08C62.5,46.12,72.5,44,72.5,44Z"/><path class="861cb096-1ce9-4f6c-b46a-0a749b6d21d7" d="M74.88,41.88s.37,4.12,5.37,2.37c0,0-2-6.75,6.5-8.87,0,0,3.63-2.76.25-1.76s-9,1.88-9.88,4.5S75.5,40.25,74.88,41.88Z"/><path class="861cb096-1ce9-4f6c-b46a-0a749b6d21d7" d="M84.88,46.75s1.66,2.33,3.91.83L89,45.12s.38-1.62-1.88,0Z"/><path class="861cb096-1ce9-4f6c-b46a-0a749b6d21d7" d="M66.46,38.71s-1.83-1.42-2.08-.29,0,.5,0,.5-.93-1.32-1.42-.34a1,1,0,0,0,.08.88s-1-.7-1.41.33c-.17.46.37.83.37.83s-1.67-.33-1.25.8.63.95.63.95-1.17.17-1.09,1.13a1.82,1.82,0,0,0,.63,1.33s-.84,2.54,1,2.38c0,0-.92,1.33.12,2a7.46,7.46,0,0,0,1.63.83A1,1,0,0,0,64,51.46a2.4,2.4,0,0,0,1.71.46Z"/><path class="1a658334-cf18-4eb3-92a8-37c9066c6433" d="M73.38,43.42s-1.09.54-3.13-2.13c0,0-.83-3.37-3.12-2.79s-6.92,2.75-5.25,7.12S66.21,55.33,70,52C70,52,73.38,43.21,73.38,43.42Z"/><path class="861cb096-1ce9-4f6c-b46a-0a749b6d21d7" d="M68,38.37s-1.08-1.62-2.08.05l.16.66Z"/><circle class="385d411e-a58a-401c-b23e-d249727e0357" cx="80.08" cy="47.92" r="0.46"/><path class="1a658334-cf18-4eb3-92a8-37c9066c6433" d="M76.12,58.54s-9.12,1.88-11,5S62.83,67.83,60,68.42s-.08-7-.08-7Z"/><polygon class="1a658334-cf18-4eb3-92a8-37c9066c6433" points="71.58 57.58 76.5 57 77.25 58.42 72.75 59.25 71.58 57.58"/></svg>