<svg id="40e1a2f1-8d16-45f3-8a16-5e5e2500bc5a" data-name="圖層 1" xmlns="http://www.w3.org/2000/svg" viewBox="0 0 100 100"><defs><style>.\30 a675bd9-03b8-40c8-8d9c-4bb7551d53c0,.\37 59a03ba-a308-4432-a4e3-e97aafbf6f1a{fill:#fff;}.\30 a675bd9-03b8-40c8-8d9c-4bb7551d53c0{stroke:#fff;stroke-miterlimit:10;stroke-width:3px;}.eb6c8561-f309-4ac0-a510-665240630cf9{fill:#1b1464;}.\35 d83a9c4-62ca-4700-a116-a3fab0f1ee9b{fill:#0071bc;}.cf5e94b6-40c6-438e-a0c0-750fbd258b36{fill:#29abe2;}</style></defs><title>dino4-xs</title><path class="0a675bd9-03b8-40c8-8d9c-4bb7551d53c0" d="M31,64.86l-.14.26A2.88,2.88,0,0,0,31.58,64c-.34.43-.57.77-.68.94A.67.67,0,0,0,31,64.86Z"/><path class="0a675bd9-03b8-40c8-8d9c-4bb7551d53c0" d="M86.13,52.57c6.21-.28,11-.28,11-.28-17.62-3.41-7-9.52-17.39-8.15-.27-9.39,12.54-16.45,5.62-13.06C79.39,34,73.68,42,72,44.58c-8.25-1.29-9.21-9.15-10.16-5.76-.38,1.36-2,3.07-4,4.76A15.05,15.05,0,0,1,54,38.41c-6.32-13.79-7.12-13.86-15.49-11.16s-35.64,18-35.64,18,25-9,27.34,4.42c1.91,11,1.1,14.34.74,15.19a12.17,12.17,0,0,1,.8-1.23c-.06.15-.12.29-.18.41a16,16,0,0,1,10.84-5.67A17.8,17.8,0,0,0,43.85,61a12.06,12.06,0,0,1-5.24,2.06c-3.68.48,0,3.36,3,5.13s-.48,5.12-.48,5.12c6.4-3.2,3.36-6.57,2.72-8.65a1.79,1.79,0,0,1,.93-2.3,17.12,17.12,0,0,0,1.36,1.49h0c-3.68.48,0,3.36,3,5.13s-.48,5.12-.48,5.12c4.72-2.36,4.31-4.81,3.51-6.76,5.92,1.78,14.88.78,28.44-7v-.17a14,14,0,0,0,4.21,2c5,1.19,5.06-4.35,5.06-4.35C89.82,55.41,87.85,54.13,86.13,52.57Z"/><path class="eb6c8561-f309-4ac0-a510-665240630cf9" d="M48.54,50.15S60.67,42.89,61.8,38.82s2.28,8,15.94,5.62.75,4.24,19.38,7.85c0,0-37.32,0-39.09,6.1S48.54,50.15,48.54,50.15Z"/><path class="eb6c8561-f309-4ac0-a510-665240630cf9" d="M53,62.92a2,2,0,0,0-1.6,2.56c.64,2.08,3.69,5.45-2.72,8.65,0,0,3.52-3.36.48-5.12s-6.73-4.65-3-5.13a11.91,11.91,0,0,0,6.09-2.73Z"/><path class="5d83a9c4-62ca-4700-a116-a3fab0f1ee9b" d="M80.42,51.59a41.31,41.31,0,0,0-26.59-2.44c-14.66,3.61-12.9,4.25-12.9,4.25s3.3,27.8,39.73,7Z"/><line class="eb6c8561-f309-4ac0-a510-665240630cf9" x1="41.07" y1="51.38" x2="81.34" y2="50.85"/><path class="eb6c8561-f309-4ac0-a510-665240630cf9" d="M80.24,48.19s-19.75,5.28-26.07-8.51S47.05,25.83,38.68,28.53,9.59,42.94,9.59,42.94s19.85-7,22.19,6.45-1,15.73-1,15.73,6-10.65,22.5-5.46S80.24,48.19,80.24,48.19Z"/><path class="cf5e94b6-40c6-438e-a0c0-750fbd258b36" d="M80.08,46.92S60.34,52.2,54,38.41,46.89,24.55,38.52,27.25s-35.64,18-35.64,18,25-9,27.34,4.42.6,15.45.6,15.45,5.8-11.92,22.34-6.73S80.08,46.92,80.08,46.92Z"/><path class="eb6c8561-f309-4ac0-a510-665240630cf9" d="M71.18,51.14s-8,0-9.85,2.56c0,0,10.21-2.68,12.53-.08S71.18,51.14,71.18,51.14Z"/><path class="eb6c8561-f309-4ac0-a510-665240630cf9" d="M73.81,53.22s-7.62,2.45-8.59,5.46c0,0,8.9-5.69,11.91-3.92S73.81,53.22,73.81,53.22Z"/><path class="5d83a9c4-62ca-4700-a116-a3fab0f1ee9b" d="M71.43,45.38s6.78-10.81,13.92-14.3-6.73,4.12-5.56,14c0,0,2.93,0,3.94,4s6,4.86,6.2,8.83c0,0-.05,5.54-5.06,4.35S75.42,55,71.24,55.31a7.92,7.92,0,0,0-6,3,13.85,13.85,0,0,1,6.1-4.76c3.88-1.43-7.92-2.89-9.82-.39,0,0,1.28-2.5,9.33-2.75A3.86,3.86,0,0,1,71.43,45.38Z"/><path class="759a03ba-a308-4432-a4e3-e97aafbf6f1a" d="M80.39,50.78s1.29-.4,1.93,1.48C82.32,52.26,80.91,52.7,80.39,50.78Z"/><ellipse cx="81.63" cy="51.67" rx="0.26" ry="0.53"/><path class="eb6c8561-f309-4ac0-a510-665240630cf9" d="M45.5,62.12a2,2,0,0,0-1.6,2.56c.64,2.08,3.68,5.45-2.72,8.65,0,0,3.52-3.36.48-5.12s-6.73-4.65-3-5.13a11.91,11.91,0,0,0,6.09-2.73Z"/></svg>