<svg id="5b0b1369-022c-4ced-850f-60491d06130c" data-name="圖層 1" xmlns="http://www.w3.org/2000/svg" viewBox="0 0 200 100"><defs><style>.\33 cfa1860-3944-4ec5-96f5-56c559510eb7{fill:#58381b;}.ba8c6e05-f9e1-49c2-bd82-f76f4c1de137{fill:#be9b6d;}.\37 b06f5ec-00dc-4ed2-922d-6669d25b2080{fill:#9a7243;}.\30 11175c5-f61e-481b-b3d5-0a017edc738c{fill:#c7ae84;}.\31 145009e-142c-4445-ad02-6f7faddfd5bf{fill:#785329;}.\31 4ea85fe-4c52-4918-b75e-ba8fc638527a,.\37 7c4af7a-733e-447f-a070-8a8a0d17d1a8{stroke:#000;}.\31 4ea85fe-4c52-4918-b75e-ba8fc638527a,.\37 7c4af7a-733e-447f-a070-8a8a0d17d1a8,.e99bbba6-7aae-464f-a6c7-97cc23fab5f4{stroke-miterlimit:10;}.\37 7c4af7a-733e-447f-a070-8a8a0d17d1a8{stroke-width:4px;}.e99bbba6-7aae-464f-a6c7-97cc23fab5f4{fill:#fbb03b;stroke:#fbb03b;stroke-width:9px;}</style></defs><title>dino-start</title><path class="3cfa1860-3944-4ec5-96f5-56c559510eb7" d="M195.77,56c-1.8.91-3.05-1.94-3.07-4l-.07-5.49-.21-18.41c0-1,0-2,0-3.06a16.8,16.8,0,0,1,.81-4.93c1.32-3.83,4.5-8.34,1.72-11.3a4,4,0,0,0-.37-.34c-.9-.76-2.08-1.22-2.92-2a3.48,3.48,0,0,1-.5-.58c-.84-1.24-.65-2.9-1.13-4.32A3,3,0,0,0,188.74.11h-1.89a.74.74,0,0,0-.19.16,1,1,0,0,1,0-.16H16.82A12.51,12.51,0,0,0,19.17,9a11.84,11.84,0,0,0,5.24,4.17,13.55,13.55,0,0,0-2.18,6.26,39.94,39.94,0,0,0,.2,8.46c.12,1.15.23,2.31.35,3.47l1.51,15.13q.42,4.25.85,8.49l.18,1.8a37.19,37.19,0,0,1,.23,6.83,14.56,14.56,0,0,1-.69,3.4c-.41,1.17-1,2.27-1.47,3.42-.17.41-.33.84-.46,1.27-1,3.51,0,7.23.85,10.8,0,.06,0,.13,0,.19a70.11,70.11,0,0,1,1.71,14.64v0c0,.59,0,1.2-.05,1.81H192.32q.77-4.36,1.51-8.71l.29-1.67c-2.65-1.39-3.61-4.83-3.2-7.79a11.24,11.24,0,0,1,.26-1.31,58.59,58.59,0,0,1,2.7-7.16c.11-.29.2-.58.3-.87a32.88,32.88,0,0,0,1.61-6.7A33.42,33.42,0,0,0,195.77,56Z"/><path class="ba8c6e05-f9e1-49c2-bd82-f76f4c1de137" d="M18.91,8.39c2.61-1.86,3.61-5,3.76-8.28H4A12.56,12.56,0,0,0,6.36,9a31,31,0,0,0,4,.87C13.26,10.24,16.49,10.12,18.91,8.39Z"/><path class="ba8c6e05-f9e1-49c2-bd82-f76f4c1de137" d="M76.06,36.06a33.23,33.23,0,0,1,4.62-6.77c6-6.68,14.61-10.13,22.55-14.24A125.63,125.63,0,0,0,125.71.11H108.93Q84.87,13.58,61.87,28.85L72.53.11H48.86c0,.63,0,1.25,0,1.88.1,6.88-.33,13.94-3.06,20.26S37.71,34.07,30.94,35.33c-7,1.29-14-2-21-4l1.51,15.13c20.68-5.51,42.39-6.89,63.61-10.23Z"/><path class="7b06f5ec-00dc-4ed2-922d-6669d25b2080" d="M30.94,35.33c6.77-1.26,12.17-6.76,14.91-13.08S49,8.87,48.91,2c0-.63,0-1.25,0-1.88H37a51.55,51.55,0,0,1-.82,6.66c-.75,3.92-2,7.92-4.91,10.7C27.19,21.39,20.9,22,15.37,21a48.56,48.56,0,0,1-5.94-1.58,39.94,39.94,0,0,0,.2,8.46c.11,1.15.23,2.31.35,3.47C16.92,33.36,24,36.62,30.94,35.33Z"/><path class="011175c5-f61e-481b-b3d5-0a017edc738c" d="M108.93.11H90.79A54.56,54.56,0,0,1,84,7.33a3.73,3.73,0,0,1-3,1.19c-1.83-.38-2.11-2.86-1.91-4.72q.21-1.86.48-3.69H72.53L61.87,28.85Q84.85,13.6,108.93.11Z"/><path class="1145009e-142c-4445-ad02-6f7faddfd5bf" d="M31.24,17.47c2.86-2.78,4.16-6.78,4.91-10.7A51.55,51.55,0,0,0,37,.11H22.67c-.15,3.29-1.15,6.42-3.76,8.28-2.42,1.73-5.65,1.85-8.59,1.43a31,31,0,0,1-4-.87,11.93,11.93,0,0,0,5.25,4.17,13.55,13.55,0,0,0-2.18,6.26A48.56,48.56,0,0,0,15.37,21C20.9,22,27.19,21.39,31.24,17.47Z"/><path class="1145009e-142c-4445-ad02-6f7faddfd5bf" d="M178.38,6c-.84-1.24-.65-2.9-1.13-4.32A3,3,0,0,0,175.94.11h-1.89a.74.74,0,0,0-.19.16,1,1,0,0,1-.05-.16h-3.67a166,166,0,0,1-56.21,37.11c-12.75,5.06-26.3,8.61-37.72,16.23-1.89,1.27-3.86,2.86-4.24,5.1,3.34,2.58,8.15,1,12-.74q35.72-15.9,69.76-35.28a236.43,236.43,0,0,0,25.14-16A3.48,3.48,0,0,1,178.38,6Z"/><path class="7b06f5ec-00dc-4ed2-922d-6669d25b2080" d="M81,8.52a3.73,3.73,0,0,0,3-1.19A54.56,54.56,0,0,0,90.79.11H79.61q-.27,1.83-.48,3.69C78.93,5.66,79.21,8.14,81,8.52Z"/><path class="7b06f5ec-00dc-4ed2-922d-6669d25b2080" d="M143,7.8c-17.67,17.12-42.58,24.35-66.9,28.26-5.76,11-6.7,24.82-13.32,35.42,5.35-.51,10.69-1.2,16-1.94,13.6-1.89,27.25-4,40.27-8.4s25.49-11.06,35-21C163.67,30,170.74,16.3,181.8,8.54c-.9-.76-2.08-1.22-2.92-2a236.43,236.43,0,0,1-25.14,16Q119.75,41.88,84,57.81c-3.86,1.72-8.67,3.32-12,.74.38-2.24,2.35-3.83,4.24-5.1,11.42-7.62,25-11.17,37.72-16.23A166,166,0,0,0,170.14.11H150.07C147.79,2.79,145.44,5.39,143,7.8Z"/><path class="ba8c6e05-f9e1-49c2-bd82-f76f4c1de137" d="M80.68,29.29a33.23,33.23,0,0,0-4.62,6.77C100.38,32.15,125.29,24.92,143,7.8c2.48-2.41,4.83-5,7.11-7.69H125.71a125.63,125.63,0,0,1-22.48,14.94C95.29,19.16,86.64,22.61,80.68,29.29Z"/><path class="ba8c6e05-f9e1-49c2-bd82-f76f4c1de137" d="M60.82,74.24c.69-.89,1.32-1.82,1.92-2.76a147.49,147.49,0,0,1-17.58.71c-11.54-.28-23-2.32-34.57-1.81-.17.41-.33.84-.46,1.27-1,3.51,0,7.23.85,10.8,7-1.32,14-3.9,20.7-6.38a7.88,7.88,0,0,1,3.65-.73,2.75,2.75,0,0,1,2.55,2.32A3.83,3.83,0,0,1,37,79.94,45.11,45.11,0,0,1,12.73,97.28v0c0,.59,0,1.2-.05,1.81h5.41c10.44-4.54,21.15-8.56,30.77-14.61A45.5,45.5,0,0,0,60.82,74.24Z"/><path class="7b06f5ec-00dc-4ed2-922d-6669d25b2080" d="M92.7,92c12.92-3.38,26.3-4.59,39.36-7.33A170.84,170.84,0,0,0,183,64.9,33,33,0,0,0,183,56c-1.8.91-3.05-1.94-3.08-4l-.06-5.49c-3.09,9.1-10.18,17.16-18.6,22.15-12.68,7.52-27.79,9.5-42.46,10.9S89.05,82.1,75.6,88.12a62.33,62.33,0,0,0-16.66,11h25.9C84.43,95.5,89,92.94,92.7,92Z"/><path class="7b06f5ec-00dc-4ed2-922d-6669d25b2080" d="M118.9,99.11h60.62q.76-4.36,1.51-8.71c-14.75,3.41-29.39,7.43-44,4.35,3.5-3.78,8.61-5.65,13.66-6.67s10.24-1.35,15.2-2.73a48.2,48.2,0,0,0,12.49-5.72,58.59,58.59,0,0,1,2.7-7.16c.11-.29.2-.58.3-.87C161,80.64,138,84.41,120.31,98Z"/><path class="1145009e-142c-4445-ad02-6f7faddfd5bf" d="M150.69,88.08c-5.05,1-10.16,2.89-13.66,6.67,14.61,3.08,29.25-.94,44-4.35l.29-1.67c-2.65-1.39-3.61-4.83-3.2-7.79a11.24,11.24,0,0,1,.26-1.31,48.2,48.2,0,0,1-12.49,5.72C160.93,86.73,155.74,87.05,150.69,88.08Z"/><path class="7b06f5ec-00dc-4ed2-922d-6669d25b2080" d="M56.51,55.45c3.4-1.3,6.51-3.89,7.48-7.4-17.36-1.34-34.43,4.09-51.66,6.88l.18,1.8a36.34,36.34,0,0,1,.24,6.83c10.42-4.27,21.8-5.53,33-6.33C49.42,57,53.11,56.75,56.51,55.45Z"/><path class="1145009e-142c-4445-ad02-6f7faddfd5bf" d="M132.06,84.64C119,87.38,105.62,88.59,92.7,92c-3.74,1-8.27,3.53-7.86,7.14H118.9L120.31,98C138,84.41,161,80.64,181.38,71.6a32.21,32.21,0,0,0,1.6-6.7A170.84,170.84,0,0,1,132.06,84.64Z"/><path class="1145009e-142c-4445-ad02-6f7faddfd5bf" d="M45.16,72.19a147.49,147.49,0,0,0,17.58-.71C69.36,60.88,70.3,47,76.06,36.06l-1,.15c-21.22,3.34-42.93,4.72-63.61,10.23l.84,8.49c17.23-2.79,34.3-8.22,51.66-6.88-1,3.51-4.08,6.1-7.48,7.4S49.42,57,45.79,57.23c-11.24.8-22.62,2.06-33,6.33a14.08,14.08,0,0,1-.7,3.4c-.4,1.17-1,2.27-1.46,3.42C22.11,69.87,33.62,71.91,45.16,72.19Z"/><path class="1145009e-142c-4445-ad02-6f7faddfd5bf" d="M37,79.94a3.83,3.83,0,0,0,.91-2.28,2.75,2.75,0,0,0-2.55-2.32,7.88,7.88,0,0,0-3.65.73C25,78.55,18,81.13,11,82.45c0,.06,0,.13,0,.19a70.11,70.11,0,0,1,1.71,14.64A45.11,45.11,0,0,0,37,79.94Z"/><path class="011175c5-f61e-481b-b3d5-0a017edc738c" d="M61.28,84.24c9.09-4.4,19.56-4.55,29.58-5.87,17.12-2.24,33.53-8.08,49.8-13.88,5.6-2,11.34-4.07,15.8-8,5.86-5.15,8.75-12.77,12.91-19.36a55.9,55.9,0,0,1,10.26-12,17.48,17.48,0,0,1,.81-4.93c1.33-3.83,4.51-8.34,1.73-11.3l-.37-.34C170.74,16.3,163.67,30,154,40.15c-9.48,9.93-22,16.63-35,21s-26.67,6.51-40.27,8.4c-5.32.74-10.66,1.43-16,1.94-.6.94-1.23,1.87-1.92,2.76a45.5,45.5,0,0,1-12,10.26c-9.62,6-20.33,10.07-30.77,14.61H42.2l3.32-3C50.39,91.62,55.34,87.11,61.28,84.24Z"/><path class="ba8c6e05-f9e1-49c2-bd82-f76f4c1de137" d="M118.77,79.63c14.67-1.4,29.78-3.38,42.46-10.9,8.42-5,15.51-13.05,18.6-22.15l-.21-18.41c0-1,0-2,0-3.06a55.9,55.9,0,0,0-10.26,12c-4.16,6.59-7.05,14.21-12.91,19.36-4.46,3.93-10.2,6-15.8,8-16.27,5.8-32.68,11.64-49.8,13.88-10,1.32-20.49,1.47-29.58,5.87-5.94,2.87-10.89,7.38-15.76,11.83l-3.32,3H58.94a62.33,62.33,0,0,1,16.66-11C89.05,82.1,104.1,81,118.77,79.63Z"/><path class="77c4af7a-733e-447f-a070-8a8a0d17d1a8" d="M61.32,9.93A2,2,0,0,1,63.38,12v4.57a1,1,0,0,0,.92,1h1.53a2.09,2.09,0,1,1,0,4.18H64.3a.94.94,0,0,0-.92.91V28a.61.61,0,0,0,.87.53l1.63-.77A1.47,1.47,0,0,1,68,29.09a3.59,3.59,0,0,1-2.12,3.27l-1.58.72a1.48,1.48,0,0,0-.87,1.34V49.93a2.07,2.07,0,1,1-4.13,0V36.34a.58.58,0,0,0-.86-.52L57,36.39A1.45,1.45,0,0,1,55,35.05,3.61,3.61,0,0,1,57,31.78l1.35-.58a1.46,1.46,0,0,0,.86-1.34V22.61a.91.91,0,0,0-.91-.91H57a2.09,2.09,0,0,1,0-4.18h1.3a.92.92,0,0,0,.91-.92V12A2,2,0,0,1,61.32,9.93ZM85.62,22a.93.93,0,0,0,1,.92h6A3.47,3.47,0,0,1,96,26.4V46.28a3.43,3.43,0,0,1-3.45,3.46H74.77a3.44,3.44,0,0,1-3.46-3.46V26.4a3.48,3.48,0,0,1,3.46-3.5h5.9a.89.89,0,0,0,.92-.92V12.47a2,2,0,0,1,2-2,2,2,0,0,1,2,2Zm-4,5.81a.92.92,0,0,0-.92-.91H76.16a1,1,0,0,0-1,.91v5a1,1,0,0,0,1,1h4.51a.93.93,0,0,0,.92-1Zm-5.43,9.85a1,1,0,0,0-1,1v6.29a1,1,0,0,0,1,1h4.51a.93.93,0,0,0,.92-1V38.6a.93.93,0,0,0-.92-1ZM92,27.79a.92.92,0,0,0-.92-.91H86.58a1,1,0,0,0-1,.91v5a1,1,0,0,0,1,1h4.51a.93.93,0,0,0,.92-1Zm-6.39,17.1a1,1,0,0,0,1,1h4.51a.93.93,0,0,0,.92-1V38.6a.93.93,0,0,0-.92-1H86.58a1,1,0,0,0-1,1Z"/><path class="77c4af7a-733e-447f-a070-8a8a0d17d1a8" d="M109.78,25.87a.93.93,0,0,0-1,.92l-.15,2.93a.91.91,0,0,0,.91.91h4.76a3.46,3.46,0,0,1,3.46,3.5V49.21a2.1,2.1,0,0,1-2.07,2.12,2.13,2.13,0,0,1-2.11-2.12V35.62a.94.94,0,0,0-.91-.91h-3.37a1,1,0,0,0-1,.91l-.62,13.21a2.18,2.18,0,0,1-2.21,2.11,2,2,0,0,1-2-2.11l1.3-25.21V13.19a2,2,0,1,1,4.08,0v7.54a1,1,0,0,0,.91,1h1.63a1,1,0,0,0,.92-1V13.39a2,2,0,0,1,4.08,0v7.49a.81.81,0,0,0,.77.82h.81a2,2,0,0,1,2.07,2.06,2.09,2.09,0,0,1-2.07,2.11Zm33,14.7a1.95,1.95,0,1,1,0,3.89h-4.66a.88.88,0,0,0-.91.91v4.47a2,2,0,0,1-2,1.92,1.94,1.94,0,0,1-2-1.92V45.37a.92.92,0,0,0-1-.91H121.78a1.95,1.95,0,0,1,0-3.89h1.44a1.29,1.29,0,0,0,1.2-.86l.58-1.83a2.9,2.9,0,0,1,2.74-2,1.48,1.48,0,0,1,1.39,2l-.62,1.83a.66.66,0,0,0,.67.86h3.12a1,1,0,0,0,1-.91V35.77a1.94,1.94,0,0,1,2-1.92,2,2,0,0,1,2,1.92v3.89a.91.91,0,0,0,.91.91Zm-3.31-26.8a3.53,3.53,0,0,1,3.5,3.51V28.76a3.52,3.52,0,0,1-3.5,3.5H125.29a3.53,3.53,0,0,1-3.51-3.5V17.28a3.53,3.53,0,0,1,3.51-3.51h1.3a1,1,0,0,0,1-.67l.24-.48a3.15,3.15,0,0,1,3-2,1.42,1.42,0,0,1,1.3,2l-.19.48a.47.47,0,0,0,.43.67Zm-9.08,4.61a1,1,0,0,0-1-1h-3a.92.92,0,0,0-.91,1v1.78a.92.92,0,0,0,.91,1h3a1,1,0,0,0,1-1Zm-3.94,6.48a.92.92,0,0,0-.91.92V27.6a.89.89,0,0,0,.91.92h3a.93.93,0,0,0,1-.92V25.78a1,1,0,0,0-1-.92Zm11.86-3.74a1,1,0,0,0,.92-1V18.38a1,1,0,0,0-.92-1h-3.21a1,1,0,0,0-1,1v1.78a1,1,0,0,0,1,1Zm-4.17,6.48a.93.93,0,0,0,1,.92h3.21a.92.92,0,0,0,.92-.92V25.78a1,1,0,0,0-.92-.92h-3.21a1,1,0,0,0-1,.92Z"/><path class="e99bbba6-7aae-464f-a6c7-97cc23fab5f4" d="M61.32,9.93A2,2,0,0,1,63.38,12v4.57a1,1,0,0,0,.92,1h1.53a2.09,2.09,0,1,1,0,4.18H64.3a.94.94,0,0,0-.92.91V28a.61.61,0,0,0,.87.53l1.63-.77A1.47,1.47,0,0,1,68,29.09a3.59,3.59,0,0,1-2.12,3.27l-1.58.72a1.48,1.48,0,0,0-.87,1.34V49.93a2.07,2.07,0,1,1-4.13,0V36.34a.58.58,0,0,0-.86-.52L57,36.39A1.45,1.45,0,0,1,55,35.05,3.61,3.61,0,0,1,57,31.78l1.35-.58a1.46,1.46,0,0,0,.86-1.34V22.61a.91.91,0,0,0-.91-.91H57a2.09,2.09,0,0,1,0-4.18h1.3a.92.92,0,0,0,.91-.92V12A2,2,0,0,1,61.32,9.93ZM85.62,22a.93.93,0,0,0,1,.92h6A3.47,3.47,0,0,1,96,26.4V46.28a3.43,3.43,0,0,1-3.45,3.46H74.77a3.44,3.44,0,0,1-3.46-3.46V26.4a3.48,3.48,0,0,1,3.46-3.5h5.9a.89.89,0,0,0,.92-.92V12.47a2,2,0,0,1,2-2,2,2,0,0,1,2,2Zm-4,5.81a.92.92,0,0,0-.92-.91H76.16a1,1,0,0,0-1,.91v5a1,1,0,0,0,1,1h4.51a.93.93,0,0,0,.92-1Zm-5.43,9.85a1,1,0,0,0-1,1v6.29a1,1,0,0,0,1,1h4.51a.93.93,0,0,0,.92-1V38.6a.93.93,0,0,0-.92-1ZM92,27.79a.92.92,0,0,0-.92-.91H86.58a1,1,0,0,0-1,.91v5a1,1,0,0,0,1,1h4.51a.93.93,0,0,0,.92-1Zm-6.39,17.1a1,1,0,0,0,1,1h4.51a.93.93,0,0,0,.92-1V38.6a.93.93,0,0,0-.92-1H86.58a1,1,0,0,0-1,1Z"/><path class="e99bbba6-7aae-464f-a6c7-97cc23fab5f4" d="M109.78,25.87a.93.93,0,0,0-1,.92l-.15,2.93a.91.91,0,0,0,.91.91h4.76a3.46,3.46,0,0,1,3.46,3.5V49.21a2.1,2.1,0,0,1-2.07,2.12,2.13,2.13,0,0,1-2.11-2.12V35.62a.94.94,0,0,0-.91-.91h-3.37a1,1,0,0,0-1,.91l-.62,13.21a2.18,2.18,0,0,1-2.21,2.11,2,2,0,0,1-2-2.11l1.3-25.21V13.19a2,2,0,1,1,4.08,0v7.54a1,1,0,0,0,.91,1h1.63a1,1,0,0,0,.92-1V13.39a2,2,0,0,1,4.08,0v7.49a.81.81,0,0,0,.77.82h.81a2,2,0,0,1,2.07,2.06,2.09,2.09,0,0,1-2.07,2.11Zm33,14.7a1.95,1.95,0,1,1,0,3.89h-4.66a.88.88,0,0,0-.91.91v4.47a2,2,0,0,1-2,1.92,1.94,1.94,0,0,1-2-1.92V45.37a.92.92,0,0,0-1-.91H121.78a1.95,1.95,0,0,1,0-3.89h1.44a1.29,1.29,0,0,0,1.2-.86l.58-1.83a2.9,2.9,0,0,1,2.74-2,1.48,1.48,0,0,1,1.39,2l-.62,1.83a.66.66,0,0,0,.67.86h3.12a1,1,0,0,0,1-.91V35.77a1.94,1.94,0,0,1,2-1.92,2,2,0,0,1,2,1.92v3.89a.91.91,0,0,0,.91.91Zm-3.31-26.8a3.53,3.53,0,0,1,3.5,3.51V28.76a3.52,3.52,0,0,1-3.5,3.5H125.29a3.53,3.53,0,0,1-3.51-3.5V17.28a3.53,3.53,0,0,1,3.51-3.51h1.3a1,1,0,0,0,1-.67l.24-.48a3.15,3.15,0,0,1,3-2,1.42,1.42,0,0,1,1.3,2l-.19.48a.47.47,0,0,0,.43.67Zm-9.08,4.61a1,1,0,0,0-1-1h-3a.92.92,0,0,0-.91,1v1.78a.92.92,0,0,0,.91,1h3a1,1,0,0,0,1-1Zm-3.94,6.48a.92.92,0,0,0-.91.92V27.6a.89.89,0,0,0,.91.92h3a.93.93,0,0,0,1-.92V25.78a1,1,0,0,0-1-.92Zm11.86-3.74a1,1,0,0,0,.92-1V18.38a1,1,0,0,0-.92-1h-3.21a1,1,0,0,0-1,1v1.78a1,1,0,0,0,1,1Zm-4.17,6.48a.93.93,0,0,0,1,.92h3.21a.92.92,0,0,0,.92-.92V25.78a1,1,0,0,0-.92-.92h-3.21a1,1,0,0,0-1,.92Z"/><path class="14ea85fe-4c52-4918-b75e-ba8fc638527a" d="M61.32,9.93A2,2,0,0,1,63.38,12v4.57a1,1,0,0,0,.92,1h1.53a2.09,2.09,0,1,1,0,4.18H64.3a.94.94,0,0,0-.92.91V28a.61.61,0,0,0,.87.53l1.63-.77A1.47,1.47,0,0,1,68,29.09a3.59,3.59,0,0,1-2.12,3.27l-1.58.72a1.48,1.48,0,0,0-.87,1.34V49.93a2.07,2.07,0,1,1-4.13,0V36.34a.58.58,0,0,0-.86-.52L57,36.39A1.45,1.45,0,0,1,55,35.05,3.61,3.61,0,0,1,57,31.78l1.35-.58a1.46,1.46,0,0,0,.86-1.34V22.61a.91.91,0,0,0-.91-.91H57a2.09,2.09,0,0,1,0-4.18h1.3a.92.92,0,0,0,.91-.92V12A2,2,0,0,1,61.32,9.93ZM85.62,22a.93.93,0,0,0,1,.92h6A3.47,3.47,0,0,1,96,26.4V46.28a3.43,3.43,0,0,1-3.45,3.46H74.77a3.44,3.44,0,0,1-3.46-3.46V26.4a3.48,3.48,0,0,1,3.46-3.5h5.9a.89.89,0,0,0,.92-.92V12.47a2,2,0,0,1,2-2,2,2,0,0,1,2,2Zm-4,5.81a.92.92,0,0,0-.92-.91H76.16a1,1,0,0,0-1,.91v5a1,1,0,0,0,1,1h4.51a.93.93,0,0,0,.92-1Zm-5.43,9.85a1,1,0,0,0-1,1v6.29a1,1,0,0,0,1,1h4.51a.93.93,0,0,0,.92-1V38.6a.93.93,0,0,0-.92-1ZM92,27.79a.92.92,0,0,0-.92-.91H86.58a1,1,0,0,0-1,.91v5a1,1,0,0,0,1,1h4.51a.93.93,0,0,0,.92-1Zm-6.39,17.1a1,1,0,0,0,1,1h4.51a.93.93,0,0,0,.92-1V38.6a.93.93,0,0,0-.92-1H86.58a1,1,0,0,0-1,1Z"/><path class="14ea85fe-4c52-4918-b75e-ba8fc638527a" d="M109.78,25.87a.93.93,0,0,0-1,.92l-.15,2.93a.91.91,0,0,0,.91.91h4.76a3.46,3.46,0,0,1,3.46,3.5V49.21a2.1,2.1,0,0,1-2.07,2.12,2.13,2.13,0,0,1-2.11-2.12V35.62a.94.94,0,0,0-.91-.91h-3.37a1,1,0,0,0-1,.91l-.62,13.21a2.18,2.18,0,0,1-2.21,2.11,2,2,0,0,1-2-2.11l1.3-25.21V13.19a2,2,0,1,1,4.08,0v7.54a1,1,0,0,0,.91,1h1.63a1,1,0,0,0,.92-1V13.39a2,2,0,0,1,4.08,0v7.49a.81.81,0,0,0,.77.82h.81a2,2,0,0,1,2.07,2.06,2.09,2.09,0,0,1-2.07,2.11Zm33,14.7a1.95,1.95,0,1,1,0,3.89h-4.66a.88.88,0,0,0-.91.91v4.47a2,2,0,0,1-2,1.92,1.94,1.94,0,0,1-2-1.92V45.37a.92.92,0,0,0-1-.91H121.78a1.95,1.95,0,0,1,0-3.89h1.44a1.29,1.29,0,0,0,1.2-.86l.58-1.83a2.9,2.9,0,0,1,2.74-2,1.48,1.48,0,0,1,1.39,2l-.62,1.83a.66.66,0,0,0,.67.86h3.12a1,1,0,0,0,1-.91V35.77a1.94,1.94,0,0,1,2-1.92,2,2,0,0,1,2,1.92v3.89a.91.91,0,0,0,.91.91Zm-3.31-26.8a3.53,3.53,0,0,1,3.5,3.51V28.76a3.52,3.52,0,0,1-3.5,3.5H125.29a3.53,3.53,0,0,1-3.51-3.5V17.28a3.53,3.53,0,0,1,3.51-3.51h1.3a1,1,0,0,0,1-.67l.24-.48a3.15,3.15,0,0,1,3-2,1.42,1.42,0,0,1,1.3,2l-.19.48a.47.47,0,0,0,.43.67Zm-9.08,4.61a1,1,0,0,0-1-1h-3a.92.92,0,0,0-.91,1v1.78a.92.92,0,0,0,.91,1h3a1,1,0,0,0,1-1Zm-3.94,6.48a.92.92,0,0,0-.91.92V27.6a.89.89,0,0,0,.91.92h3a.93.93,0,0,0,1-.92V25.78a1,1,0,0,0-1-.92Zm11.86-3.74a1,1,0,0,0,.92-1V18.38a1,1,0,0,0-.92-1h-3.21a1,1,0,0,0-1,1v1.78a1,1,0,0,0,1,1Zm-4.17,6.48a.93.93,0,0,0,1,.92h3.21a.92.92,0,0,0,.92-.92V25.78a1,1,0,0,0-.92-.92h-3.21a1,1,0,0,0-1,.92Z"/><path class="e99bbba6-7aae-464f-a6c7-97cc23fab5f4" d="M45,69.25l1.3,1.41a5.22,5.22,0,0,1,1.39,3.58v9.41s0,.13,0,.13l-2.93,3.27a4.68,4.68,0,0,1-3.46,1.54H35.88a2.11,2.11,0,0,1-2.1-2.13V69.8a2.09,2.09,0,0,1,2.1-2.1h5.71A4.52,4.52,0,0,1,45,69.25Zm.07,13V73.69a1.24,1.24,0,0,0-.31-.8l-2.13-2.41a1.21,1.21,0,0,0-.77-.31H36.84a.42.42,0,0,0-.41.4V85.72a.42.42,0,0,0,.41.43h4.75a1.27,1.27,0,0,0,.77-.33l2.44-2.75A1.33,1.33,0,0,0,45.11,82.27Z"/><path class="e99bbba6-7aae-464f-a6c7-97cc23fab5f4" d="M51.21,87.3V75.45a2.08,2.08,0,0,1,2.07-2.1h4.85a1.18,1.18,0,0,1,1.17,1.17,1.17,1.17,0,0,1-1.17,1.17h-4a.4.4,0,0,0-.4.44V87.3a1.3,1.3,0,0,1-1.27,1.29A1.28,1.28,0,0,1,51.21,87.3Z"/><path class="e99bbba6-7aae-464f-a6c7-97cc23fab5f4" d="M71.46,85.79a2.81,2.81,0,0,1-2.69,2.8H63.16A2.13,2.13,0,0,1,61,86.46V80.72a2.12,2.12,0,0,1,2.13-2.09h5.3a.43.43,0,0,0,.41-.44V76.13a.43.43,0,0,0-.41-.44H62.51a1.2,1.2,0,0,1-1.21-1.17,1.22,1.22,0,0,1,1.21-1.17h6.85a2.11,2.11,0,0,1,2.1,2.1Zm-7.93-4.36v4.42a.4.4,0,0,0,.4.43h4.53a.42.42,0,0,0,.41-.43V81.43a.42.42,0,0,0-.41-.43H63.93A.4.4,0,0,0,63.53,81.43Z"/><path class="e99bbba6-7aae-464f-a6c7-97cc23fab5f4" d="M76.12,73.35a1.23,1.23,0,0,1,1.23,1.2V85.72a.39.39,0,0,0,.43.4h3.7a.4.4,0,0,0,.44-.4V75a1.19,1.19,0,0,1,2.37,0V85.72a.4.4,0,0,0,.43.4h3.86a.38.38,0,0,0,.4-.4V74.55a1.23,1.23,0,0,1,1.24-1.2,1.22,1.22,0,0,1,1.2,1.2V86.46a2.11,2.11,0,0,1-2.1,2.13H77.69a2.77,2.77,0,0,1-2.75-2.8V74.55A1.26,1.26,0,0,1,76.12,73.35Z"/><path class="e99bbba6-7aae-464f-a6c7-97cc23fab5f4" d="M113.82,88.59h-9.44a2.11,2.11,0,0,1-2.1-2.13V69.8a2.09,2.09,0,0,1,2.1-2.1h9.44a1.24,1.24,0,0,1,0,2.47h-8.48a.41.41,0,0,0-.4.4V85.72a.38.38,0,0,0,.4.4h8.48a1.24,1.24,0,0,1,0,2.47Z"/><path class="e99bbba6-7aae-464f-a6c7-97cc23fab5f4" d="M128.05,85.79a2.81,2.81,0,0,1-2.69,2.8h-5.61a2.13,2.13,0,0,1-2.13-2.13V80.72a2.12,2.12,0,0,1,2.13-2.09h5.3a.42.42,0,0,0,.4-.44V76.13a.42.42,0,0,0-.4-.44h-6a1.2,1.2,0,0,1-1.21-1.17,1.22,1.22,0,0,1,1.21-1.17H126a2.11,2.11,0,0,1,2.1,2.1Zm-7.93-4.36v4.42a.4.4,0,0,0,.4.43h4.53a.41.41,0,0,0,.4-.43V81.43a.41.41,0,0,0-.4-.43h-4.53A.4.4,0,0,0,120.12,81.43Z"/><path class="e99bbba6-7aae-464f-a6c7-97cc23fab5f4" d="M131.5,87.3V75.45a2.08,2.08,0,0,1,2.07-2.1h4.84a1.19,1.19,0,0,1,1.18,1.17,1.17,1.17,0,0,1-1.18,1.17h-3.95a.41.41,0,0,0-.4.44V87.3a1.28,1.28,0,1,1-2.56,0Z"/><path class="e99bbba6-7aae-464f-a6c7-97cc23fab5f4" d="M149,88.59h-5.56a2.1,2.1,0,0,1-2.09-2.13v-11a2.08,2.08,0,0,1,2.09-2.1h5.34a.42.42,0,0,0,.43-.43V69.43a1.3,1.3,0,1,1,2.6,0V85.79A2.82,2.82,0,0,1,149,88.59Zm-5.16-12.46v9.72a.42.42,0,0,0,.41.43h4.53a.42.42,0,0,0,.43-.43V76.13a.42.42,0,0,0-.43-.44h-4.53A.43.43,0,0,0,143.84,76.13Z"/><path class="e99bbba6-7aae-464f-a6c7-97cc23fab5f4" d="M156.46,88.59a1.19,1.19,0,0,1,0-2.37h6.48a.43.43,0,0,0,.44-.43V81.68a.42.42,0,0,0-.44-.37h-5.39a2.11,2.11,0,0,1-2.1-2.13V75.45a2.08,2.08,0,0,1,2.1-2.1h7.28A1.18,1.18,0,0,1,166,74.52a1.17,1.17,0,0,1-1.17,1.17h-6.39a.4.4,0,0,0-.4.44v2.06a.4.4,0,0,0,.4.44h5.4A2.1,2.1,0,0,1,166,80.72v5.07a2.82,2.82,0,0,1-2.81,2.8Z"/><path class="14ea85fe-4c52-4918-b75e-ba8fc638527a" d="M45,69.25l1.3,1.41a5.22,5.22,0,0,1,1.39,3.58v9.41s0,.13,0,.13l-2.93,3.27a4.68,4.68,0,0,1-3.46,1.54H35.88a2.11,2.11,0,0,1-2.1-2.13V69.8a2.09,2.09,0,0,1,2.1-2.1h5.71A4.52,4.52,0,0,1,45,69.25Zm.07,13V73.69a1.24,1.24,0,0,0-.31-.8l-2.13-2.41a1.21,1.21,0,0,0-.77-.31H36.84a.42.42,0,0,0-.41.4V85.72a.42.42,0,0,0,.41.43h4.75a1.27,1.27,0,0,0,.77-.33l2.44-2.75A1.33,1.33,0,0,0,45.11,82.27Z"/><path class="14ea85fe-4c52-4918-b75e-ba8fc638527a" d="M51.21,87.3V75.45a2.08,2.08,0,0,1,2.07-2.1h4.85a1.18,1.18,0,0,1,1.17,1.17,1.17,1.17,0,0,1-1.17,1.17h-4a.4.4,0,0,0-.4.44V87.3a1.3,1.3,0,0,1-1.27,1.29A1.28,1.28,0,0,1,51.21,87.3Z"/><path class="14ea85fe-4c52-4918-b75e-ba8fc638527a" d="M71.46,85.79a2.81,2.81,0,0,1-2.69,2.8H63.16A2.13,2.13,0,0,1,61,86.46V80.72a2.12,2.12,0,0,1,2.13-2.09h5.3a.43.43,0,0,0,.41-.44V76.13a.43.43,0,0,0-.41-.44H62.51a1.2,1.2,0,0,1-1.21-1.17,1.22,1.22,0,0,1,1.21-1.17h6.85a2.11,2.11,0,0,1,2.1,2.1Zm-7.93-4.36v4.42a.4.4,0,0,0,.4.43h4.53a.42.42,0,0,0,.41-.43V81.43a.42.42,0,0,0-.41-.43H63.93A.4.4,0,0,0,63.53,81.43Z"/><path class="14ea85fe-4c52-4918-b75e-ba8fc638527a" d="M76.12,73.35a1.23,1.23,0,0,1,1.23,1.2V85.72a.39.39,0,0,0,.43.4h3.7a.4.4,0,0,0,.44-.4V75a1.19,1.19,0,0,1,2.37,0V85.72a.4.4,0,0,0,.43.4h3.86a.38.38,0,0,0,.4-.4V74.55a1.23,1.23,0,0,1,1.24-1.2,1.22,1.22,0,0,1,1.2,1.2V86.46a2.11,2.11,0,0,1-2.1,2.13H77.69a2.77,2.77,0,0,1-2.75-2.8V74.55A1.26,1.26,0,0,1,76.12,73.35Z"/><path class="14ea85fe-4c52-4918-b75e-ba8fc638527a" d="M113.82,88.59h-9.44a2.11,2.11,0,0,1-2.1-2.13V69.8a2.09,2.09,0,0,1,2.1-2.1h9.44a1.24,1.24,0,0,1,0,2.47h-8.48a.41.41,0,0,0-.4.4V85.72a.38.38,0,0,0,.4.4h8.48a1.24,1.24,0,0,1,0,2.47Z"/><path class="14ea85fe-4c52-4918-b75e-ba8fc638527a" d="M128.05,85.79a2.81,2.81,0,0,1-2.69,2.8h-5.61a2.13,2.13,0,0,1-2.13-2.13V80.72a2.12,2.12,0,0,1,2.13-2.09h5.3a.42.42,0,0,0,.4-.44V76.13a.42.42,0,0,0-.4-.44h-6a1.2,1.2,0,0,1-1.21-1.17,1.22,1.22,0,0,1,1.21-1.17H126a2.11,2.11,0,0,1,2.1,2.1Zm-7.93-4.36v4.42a.4.4,0,0,0,.4.43h4.53a.41.41,0,0,0,.4-.43V81.43a.41.41,0,0,0-.4-.43h-4.53A.4.4,0,0,0,120.12,81.43Z"/><path class="14ea85fe-4c52-4918-b75e-ba8fc638527a" d="M131.5,87.3V75.45a2.08,2.08,0,0,1,2.07-2.1h4.84a1.19,1.19,0,0,1,1.18,1.17,1.17,1.17,0,0,1-1.18,1.17h-3.95a.41.41,0,0,0-.4.44V87.3a1.28,1.28,0,1,1-2.56,0Z"/><path class="14ea85fe-4c52-4918-b75e-ba8fc638527a" d="M149,88.59h-5.56a2.1,2.1,0,0,1-2.09-2.13v-11a2.08,2.08,0,0,1,2.09-2.1h5.34a.42.42,0,0,0,.43-.43V69.43a1.3,1.3,0,1,1,2.6,0V85.79A2.82,2.82,0,0,1,149,88.59Zm-5.16-12.46v9.72a.42.42,0,0,0,.41.43h4.53a.42.42,0,0,0,.43-.43V76.13a.42.42,0,0,0-.43-.44h-4.53A.43.43,0,0,0,143.84,76.13Z"/><path class="14ea85fe-4c52-4918-b75e-ba8fc638527a" d="M156.46,88.59a1.19,1.19,0,0,1,0-2.37h6.48a.43.43,0,0,0,.44-.43V81.68a.42.42,0,0,0-.44-.37h-5.39a2.11,2.11,0,0,1-2.1-2.13V75.45a2.08,2.08,0,0,1,2.1-2.1h7.28A1.18,1.18,0,0,1,166,74.52a1.17,1.17,0,0,1-1.17,1.17h-6.39a.4.4,0,0,0-.4.44v2.06a.4.4,0,0,0,.4.44h5.4A2.1,2.1,0,0,1,166,80.72v5.07a2.82,2.82,0,0,1-2.81,2.8Z"/></svg>