<svg id="8021cce1-313c-42df-b840-e6824e606e5d" data-name="圖層 1" xmlns="http://www.w3.org/2000/svg" viewBox="0 0 200 100"><defs><style>.\39 cf8fe00-ee0f-402a-9c3e-2305b5eed81a{fill:#58381b;}.\36 3a2842d-5b70-4bad-9096-068f43948101{fill:#be9b6d;}.\30 ba44513-aa3e-4672-a961-427fa5054d36{fill:#9a7243;}.f4e5deba-fb6a-4426-83d4-93a8ad7e5f44{fill:#c7ae84;}.\33 24f3724-52f7-411a-8408-4fa13a64fc16{fill:#785329;}.a6ad796b-ae39-4b8d-ba76-c9bd2eec853e{fill:#fbb03b;stroke:#fbb03b;stroke-width:9px;}.\37 7bd0f6b-1528-4fbd-baa5-7f59e9c9e2c2,.a6ad796b-ae39-4b8d-ba76-c9bd2eec853e{stroke-miterlimit:10;}.\37 7bd0f6b-1528-4fbd-baa5-7f59e9c9e2c2{stroke:#000;}.\36 de760e9-5d59-45e3-87ce-32d0224d00e4{font-size:31.1px;font-family:Mamelon-83pv-RKSJ-H, Mamelon;}</style></defs><title>dino-cancel</title><path class="9cf8fe00-ee0f-402a-9c3e-2305b5eed81a" d="M195.77,56c-1.8.91-3.05-1.94-3.07-4l-.07-5.49-.21-18.41c0-1,0-2,0-3.06a16.8,16.8,0,0,1,.81-4.93c1.32-3.83,4.5-8.34,1.72-11.3a4,4,0,0,0-.37-.34c-.9-.76-2.08-1.22-2.92-2a3.48,3.48,0,0,1-.5-.58c-.84-1.24-.65-2.9-1.13-4.32A3,3,0,0,0,188.74.11h-1.89a.74.74,0,0,0-.19.16,1,1,0,0,1,0-.16H16.82A12.51,12.51,0,0,0,19.17,9a11.84,11.84,0,0,0,5.24,4.17,13.55,13.55,0,0,0-2.18,6.26,39.94,39.94,0,0,0,.2,8.46c.12,1.15.23,2.31.35,3.47l1.51,15.13q.42,4.25.85,8.49l.18,1.8a37.19,37.19,0,0,1,.23,6.83,14.56,14.56,0,0,1-.69,3.4c-.41,1.17-1,2.27-1.47,3.42-.17.41-.33.84-.46,1.27-1,3.51,0,7.23.85,10.8,0,.06,0,.13,0,.19a70.11,70.11,0,0,1,1.71,14.64v0c0,.59,0,1.2-.05,1.81H192.32q.77-4.36,1.51-8.71l.29-1.67c-2.65-1.39-3.61-4.83-3.2-7.79a11.24,11.24,0,0,1,.26-1.31,58.59,58.59,0,0,1,2.7-7.16c.11-.29.2-.58.3-.87a32.88,32.88,0,0,0,1.61-6.7A33.42,33.42,0,0,0,195.77,56Z"/><path class="63a2842d-5b70-4bad-9096-068f43948101" d="M18.91,8.39c2.61-1.86,3.61-5,3.76-8.28H4A12.56,12.56,0,0,0,6.36,9a31,31,0,0,0,4,.87C13.26,10.24,16.49,10.12,18.91,8.39Z"/><path class="63a2842d-5b70-4bad-9096-068f43948101" d="M76.06,36.06a33.23,33.23,0,0,1,4.62-6.77c6-6.68,14.61-10.13,22.55-14.24A125.63,125.63,0,0,0,125.71.11H108.93Q84.87,13.58,61.87,28.85L72.53.11H48.86c0,.63,0,1.25,0,1.88.1,6.88-.33,13.94-3.06,20.26S37.71,34.07,30.94,35.33c-7,1.29-14-2-21-4l1.51,15.13c20.68-5.51,42.39-6.89,63.61-10.23Z"/><path class="0ba44513-aa3e-4672-a961-427fa5054d36" d="M30.94,35.33c6.77-1.26,12.17-6.76,14.91-13.08S49,8.87,48.91,2c0-.63,0-1.25,0-1.88H37a51.55,51.55,0,0,1-.82,6.66c-.75,3.92-2,7.92-4.91,10.7C27.19,21.39,20.9,22,15.37,21a48.56,48.56,0,0,1-5.94-1.58,39.94,39.94,0,0,0,.2,8.46c.11,1.15.23,2.31.35,3.47C16.92,33.36,24,36.62,30.94,35.33Z"/><path class="f4e5deba-fb6a-4426-83d4-93a8ad7e5f44" d="M108.93.11H90.79A54.56,54.56,0,0,1,84,7.33a3.73,3.73,0,0,1-3,1.19c-1.83-.38-2.11-2.86-1.91-4.72q.21-1.86.48-3.69H72.53L61.87,28.85Q84.85,13.6,108.93.11Z"/><path class="324f3724-52f7-411a-8408-4fa13a64fc16" d="M31.24,17.47c2.86-2.78,4.16-6.78,4.91-10.7A51.55,51.55,0,0,0,37,.11H22.67c-.15,3.29-1.15,6.42-3.76,8.28-2.42,1.73-5.65,1.85-8.59,1.43a31,31,0,0,1-4-.87,11.93,11.93,0,0,0,5.25,4.17,13.55,13.55,0,0,0-2.18,6.26A48.56,48.56,0,0,0,15.37,21C20.9,22,27.19,21.39,31.24,17.47Z"/><path class="324f3724-52f7-411a-8408-4fa13a64fc16" d="M178.38,6c-.84-1.24-.65-2.9-1.13-4.32A3,3,0,0,0,175.94.11h-1.89a.74.74,0,0,0-.19.16,1,1,0,0,1-.05-.16h-3.67a166,166,0,0,1-56.21,37.11c-12.75,5.06-26.3,8.61-37.72,16.23-1.89,1.27-3.86,2.86-4.24,5.1,3.34,2.58,8.15,1,12-.74q35.72-15.9,69.76-35.28a236.43,236.43,0,0,0,25.14-16A3.48,3.48,0,0,1,178.38,6Z"/><path class="0ba44513-aa3e-4672-a961-427fa5054d36" d="M81,8.52a3.73,3.73,0,0,0,3-1.19A54.56,54.56,0,0,0,90.79.11H79.61q-.27,1.83-.48,3.69C78.93,5.66,79.21,8.14,81,8.52Z"/><path class="0ba44513-aa3e-4672-a961-427fa5054d36" d="M143,7.8c-17.67,17.12-42.58,24.35-66.9,28.26-5.76,11-6.7,24.82-13.32,35.42,5.35-.51,10.69-1.2,16-1.94,13.6-1.89,27.25-4,40.27-8.4s25.49-11.06,35-21C163.67,30,170.74,16.3,181.8,8.54c-.9-.76-2.08-1.22-2.92-2a236.43,236.43,0,0,1-25.14,16Q119.75,41.88,84,57.81c-3.86,1.72-8.67,3.32-12,.74.38-2.24,2.35-3.83,4.24-5.1,11.42-7.62,25-11.17,37.72-16.23A166,166,0,0,0,170.14.11H150.07C147.79,2.79,145.44,5.39,143,7.8Z"/><path class="63a2842d-5b70-4bad-9096-068f43948101" d="M80.68,29.29a33.23,33.23,0,0,0-4.62,6.77C100.38,32.15,125.29,24.92,143,7.8c2.48-2.41,4.83-5,7.11-7.69H125.71a125.63,125.63,0,0,1-22.48,14.94C95.29,19.16,86.64,22.61,80.68,29.29Z"/><path class="63a2842d-5b70-4bad-9096-068f43948101" d="M60.82,74.24c.69-.89,1.32-1.82,1.92-2.76a147.49,147.49,0,0,1-17.58.71c-11.54-.28-23-2.32-34.57-1.81-.17.41-.33.84-.46,1.27-1,3.51,0,7.23.85,10.8,7-1.32,14-3.9,20.7-6.38a7.88,7.88,0,0,1,3.65-.73,2.75,2.75,0,0,1,2.55,2.32A3.83,3.83,0,0,1,37,79.94,45.11,45.11,0,0,1,12.73,97.28v0c0,.59,0,1.2-.05,1.81h5.41c10.44-4.54,21.15-8.56,30.77-14.61A45.5,45.5,0,0,0,60.82,74.24Z"/><path class="0ba44513-aa3e-4672-a961-427fa5054d36" d="M92.7,92c12.92-3.38,26.3-4.59,39.36-7.33A170.84,170.84,0,0,0,183,64.9,33,33,0,0,0,183,56c-1.8.91-3.05-1.94-3.08-4l-.06-5.49c-3.09,9.1-10.18,17.16-18.6,22.15-12.68,7.52-27.79,9.5-42.46,10.9S89.05,82.1,75.6,88.12a62.33,62.33,0,0,0-16.66,11h25.9C84.43,95.5,89,92.94,92.7,92Z"/><path class="0ba44513-aa3e-4672-a961-427fa5054d36" d="M118.9,99.11h60.62q.76-4.36,1.51-8.71c-14.75,3.41-29.39,7.43-44,4.35,3.5-3.78,8.61-5.65,13.66-6.67s10.24-1.35,15.2-2.73a48.2,48.2,0,0,0,12.49-5.72,58.59,58.59,0,0,1,2.7-7.16c.11-.29.2-.58.3-.87C161,80.64,138,84.41,120.31,98Z"/><path class="324f3724-52f7-411a-8408-4fa13a64fc16" d="M150.69,88.08c-5.05,1-10.16,2.89-13.66,6.67,14.61,3.08,29.25-.94,44-4.35l.29-1.67c-2.65-1.39-3.61-4.83-3.2-7.79a11.24,11.24,0,0,1,.26-1.31,48.2,48.2,0,0,1-12.49,5.72C160.93,86.73,155.74,87.05,150.69,88.08Z"/><path class="0ba44513-aa3e-4672-a961-427fa5054d36" d="M56.51,55.45c3.4-1.3,6.51-3.89,7.48-7.4-17.36-1.34-34.43,4.09-51.66,6.88l.18,1.8a36.34,36.34,0,0,1,.24,6.83c10.42-4.27,21.8-5.53,33-6.33C49.42,57,53.11,56.75,56.51,55.45Z"/><path class="324f3724-52f7-411a-8408-4fa13a64fc16" d="M132.06,84.64C119,87.38,105.62,88.59,92.7,92c-3.74,1-8.27,3.53-7.86,7.14H118.9L120.31,98C138,84.41,161,80.64,181.38,71.6a32.21,32.21,0,0,0,1.6-6.7A170.84,170.84,0,0,1,132.06,84.64Z"/><path class="324f3724-52f7-411a-8408-4fa13a64fc16" d="M45.16,72.19a147.49,147.49,0,0,0,17.58-.71C69.36,60.88,70.3,47,76.06,36.06l-1,.15c-21.22,3.34-42.93,4.72-63.61,10.23l.84,8.49c17.23-2.79,34.3-8.22,51.66-6.88-1,3.51-4.08,6.1-7.48,7.4S49.42,57,45.79,57.23c-11.24.8-22.62,2.06-33,6.33a14.08,14.08,0,0,1-.7,3.4c-.4,1.17-1,2.27-1.46,3.42C22.11,69.87,33.62,71.91,45.16,72.19Z"/><path class="324f3724-52f7-411a-8408-4fa13a64fc16" d="M37,79.94a3.83,3.83,0,0,0,.91-2.28,2.75,2.75,0,0,0-2.55-2.32,7.88,7.88,0,0,0-3.65.73C25,78.55,18,81.13,11,82.45c0,.06,0,.13,0,.19a70.11,70.11,0,0,1,1.71,14.64A45.11,45.11,0,0,0,37,79.94Z"/><path class="f4e5deba-fb6a-4426-83d4-93a8ad7e5f44" d="M61.28,84.24c9.09-4.4,19.56-4.55,29.58-5.87,17.12-2.24,33.53-8.08,49.8-13.88,5.6-2,11.34-4.07,15.8-8,5.86-5.15,8.75-12.77,12.91-19.36a55.9,55.9,0,0,1,10.26-12,17.48,17.48,0,0,1,.81-4.93c1.33-3.83,4.51-8.34,1.73-11.3l-.37-.34C170.74,16.3,163.67,30,154,40.15c-9.48,9.93-22,16.63-35,21s-26.67,6.51-40.27,8.4c-5.32.74-10.66,1.43-16,1.94-.6.94-1.23,1.87-1.92,2.76a45.5,45.5,0,0,1-12,10.26c-9.62,6-20.33,10.07-30.77,14.61H42.2l3.32-3C50.39,91.62,55.34,87.11,61.28,84.24Z"/><path class="63a2842d-5b70-4bad-9096-068f43948101" d="M118.77,79.63c14.67-1.4,29.78-3.38,42.46-10.9,8.42-5,15.51-13.05,18.6-22.15l-.21-18.41c0-1,0-2,0-3.06a55.9,55.9,0,0,0-10.26,12c-4.16,6.59-7.05,14.21-12.91,19.36-4.46,3.93-10.2,6-15.8,8-16.27,5.8-32.68,11.64-49.8,13.88-10,1.32-20.49,1.47-29.58,5.87-5.94,2.87-10.89,7.38-15.76,11.83l-3.32,3H58.94a62.33,62.33,0,0,1,16.66-11C89.05,82.1,104.1,81,118.77,79.63Z"/><path class="a6ad796b-ae39-4b8d-ba76-c9bd2eec853e" d="M57.19,14.29a2,2,0,0,1-2-2,2,2,0,0,1,2-2H73.62a2,2,0,0,1,2,2v.1a1.9,1.9,0,0,1-1.93,1.93.49.49,0,0,0-.49.5v34a2,2,0,0,1-4.06,0V42.85a.76.76,0,0,0-.94-.69l-11,3.07a1.6,1.6,0,0,1-2-1.59,2.81,2.81,0,0,1,2-2.67l.34,0a.89.89,0,0,0,.65-.84V14.93a.66.66,0,0,0-.65-.64Zm11,4.7a1,1,0,0,0,.94-1V15.23a1,1,0,0,0-.94-.94h-5.3a1,1,0,0,0-.94.94V18a1,1,0,0,0,.94,1Zm0,9.66a1,1,0,0,0,.94-.94V24a1,1,0,0,0-.94-.94h-5.3A.94.94,0,0,0,62,24v3.67a1,1,0,0,0,.94.94ZM62,38.65a.71.71,0,0,0,.94.69L68.23,38a1.27,1.27,0,0,0,.94-1.19V33.65a1,1,0,0,0-.94-.95h-5.3a.94.94,0,0,0-.94.95Zm34.1,8.11a1.33,1.33,0,0,1-1,2.13,5.38,5.38,0,0,1-4.3-2.13L87.88,43a.69.69,0,0,0-1.14,0L84,46.81A5.09,5.09,0,0,1,80,48.89a1.34,1.34,0,0,1-1.09-2.13l5.25-7.37a2,2,0,0,0,.24-1.69L78.37,20a.59.59,0,0,0-.59-.39A1.61,1.61,0,0,1,76.2,18v-.49a2.09,2.09,0,0,1,2.07-2.08H92.43a2.76,2.76,0,0,1,2.67,3.46L90,37.61a2.1,2.1,0,0,0,.34,1.68ZM90.3,20.58a.71.71,0,0,0-.69-.94H83.67a.65.65,0,0,0-.64.89l3.71,10.94c.05.24.44.24.54,0Z"/><path class="a6ad796b-ae39-4b8d-ba76-c9bd2eec853e" d="M109.71,11.52a2.85,2.85,0,0,1,2.12,2.72,1.71,1.71,0,0,1-2.12,1.68l-3-.79a2.75,2.75,0,0,1-2.08-2.72,1.67,1.67,0,0,1,2.08-1.63Zm0,11.58a2.92,2.92,0,0,1,2.12,2.77,1.66,1.66,0,0,1-2.12,1.59l-3-.79a2.86,2.86,0,0,1-2.13-2.78,1.67,1.67,0,0,1,2.13-1.63ZM107.38,51a1.81,1.81,0,0,1-1.78-2.13L107.78,38a2.64,2.64,0,0,1,2.62-2.13A1.75,1.75,0,0,1,112.13,38L110,48.89A2.59,2.59,0,0,1,107.38,51Zm26.93-30.59a1,1,0,0,0,1,1h5.79A3.59,3.59,0,0,1,144.7,25V48.4a2,2,0,0,1-3.91,0V42.11a.94.94,0,0,0-.94-.94H124.61a1,1,0,0,0-1,.94v6.24a2,2,0,0,1-1.93,2,2,2,0,0,1-2-2V25a3.55,3.55,0,0,1,3.61-3.56h5.84a1,1,0,0,0,.94-1V11a2.11,2.11,0,0,1,4.21,0Zm-8.52-5.2a1.54,1.54,0,0,1-1.38,2.18A3.69,3.69,0,0,1,121,15.23l-.69-1.58a1.55,1.55,0,0,1,1.39-2.18,3.7,3.7,0,0,1,3.31,2.13Zm15,11.14a1,1,0,0,0-.94-1H124.61a1,1,0,0,0-1,1v1.68a.94.94,0,0,0,1,.94h15.24a.93.93,0,0,0,.94-.94ZM123.62,36a1,1,0,0,0,1,1h15.24a1,1,0,0,0,.94-1V34.14a1,1,0,0,0-.94-1H124.61a1,1,0,0,0-1,1Zm18.21-24.55a1.52,1.52,0,0,1,1.39,2.13l-.69,1.68a3.53,3.53,0,0,1-3.22,2.13,1.53,1.53,0,0,1-1.44-2.13l.74-1.68A3.53,3.53,0,0,1,141.83,11.47Z"/><path class="77bd0f6b-1528-4fbd-baa5-7f59e9c9e2c2" d="M57.19,14.29a2,2,0,0,1-2-2,2,2,0,0,1,2-2H73.62a2,2,0,0,1,2,2v.1a1.9,1.9,0,0,1-1.93,1.93.49.49,0,0,0-.49.5v34a2,2,0,0,1-4.06,0V42.85a.76.76,0,0,0-.94-.69l-11,3.07a1.6,1.6,0,0,1-2-1.59,2.81,2.81,0,0,1,2-2.67l.34,0a.89.89,0,0,0,.65-.84V14.93a.66.66,0,0,0-.65-.64Zm11,4.7a1,1,0,0,0,.94-1V15.23a1,1,0,0,0-.94-.94h-5.3a1,1,0,0,0-.94.94V18a1,1,0,0,0,.94,1Zm0,9.66a1,1,0,0,0,.94-.94V24a1,1,0,0,0-.94-.94h-5.3A.94.94,0,0,0,62,24v3.67a1,1,0,0,0,.94.94ZM62,38.65a.71.71,0,0,0,.94.69L68.23,38a1.27,1.27,0,0,0,.94-1.19V33.65a1,1,0,0,0-.94-.95h-5.3a.94.94,0,0,0-.94.95Zm34.1,8.11a1.33,1.33,0,0,1-1,2.13,5.38,5.38,0,0,1-4.3-2.13L87.88,43a.69.69,0,0,0-1.14,0L84,46.81A5.09,5.09,0,0,1,80,48.89a1.34,1.34,0,0,1-1.09-2.13l5.25-7.37a2,2,0,0,0,.24-1.69L78.37,20a.59.59,0,0,0-.59-.39A1.61,1.61,0,0,1,76.2,18v-.49a2.09,2.09,0,0,1,2.07-2.08H92.43a2.76,2.76,0,0,1,2.67,3.46L90,37.61a2.1,2.1,0,0,0,.34,1.68ZM90.3,20.58a.71.71,0,0,0-.69-.94H83.67a.65.65,0,0,0-.64.89l3.71,10.94c.05.24.44.24.54,0Z"/><path class="77bd0f6b-1528-4fbd-baa5-7f59e9c9e2c2" d="M109.71,11.52a2.85,2.85,0,0,1,2.12,2.72,1.71,1.71,0,0,1-2.12,1.68l-3-.79a2.75,2.75,0,0,1-2.08-2.72,1.67,1.67,0,0,1,2.08-1.63Zm0,11.58a2.92,2.92,0,0,1,2.12,2.77,1.66,1.66,0,0,1-2.12,1.59l-3-.79a2.86,2.86,0,0,1-2.13-2.78,1.67,1.67,0,0,1,2.13-1.63ZM107.38,51a1.81,1.81,0,0,1-1.78-2.13L107.78,38a2.64,2.64,0,0,1,2.62-2.13A1.75,1.75,0,0,1,112.13,38L110,48.89A2.59,2.59,0,0,1,107.38,51Zm26.93-30.59a1,1,0,0,0,1,1h5.79A3.59,3.59,0,0,1,144.7,25V48.4a2,2,0,0,1-3.91,0V42.11a.94.94,0,0,0-.94-.94H124.61a1,1,0,0,0-1,.94v6.24a2,2,0,0,1-1.93,2,2,2,0,0,1-2-2V25a3.55,3.55,0,0,1,3.61-3.56h5.84a1,1,0,0,0,.94-1V11a2.11,2.11,0,0,1,4.21,0Zm-8.52-5.2a1.54,1.54,0,0,1-1.38,2.18A3.69,3.69,0,0,1,121,15.23l-.69-1.58a1.55,1.55,0,0,1,1.39-2.18,3.7,3.7,0,0,1,3.31,2.13Zm15,11.14a1,1,0,0,0-.94-1H124.61a1,1,0,0,0-1,1v1.68a.94.94,0,0,0,1,.94h15.24a.93.93,0,0,0,.94-.94ZM123.62,36a1,1,0,0,0,1,1h15.24a1,1,0,0,0,.94-1V34.14a1,1,0,0,0-.94-1H124.61a1,1,0,0,0-1,1Zm18.21-24.55a1.52,1.52,0,0,1,1.39,2.13l-.69,1.68a3.53,3.53,0,0,1-3.22,2.13,1.53,1.53,0,0,1-1.44-2.13l.74-1.68A3.53,3.53,0,0,1,141.83,11.47Z"/><text class="6de760e9-5d59-45e3-87ce-32d0224d00e4" transform="translate(61.19 90.22)">Cancel</text><path class="a6ad796b-ae39-4b8d-ba76-c9bd2eec853e" d="M74.59,89.29H65.07A2.12,2.12,0,0,1,63,87.14V70.35a2.09,2.09,0,0,1,2.11-2.11h9.52a1.25,1.25,0,0,1,0,2.49H66a.41.41,0,0,0-.41.4V86.4a.39.39,0,0,0,.41.4h8.55a1.25,1.25,0,0,1,0,2.49Z"/><path class="a6ad796b-ae39-4b8d-ba76-c9bd2eec853e" d="M88.93,86.46a2.84,2.84,0,0,1-2.71,2.83H80.56a2.14,2.14,0,0,1-2.14-2.15V81.36a2.14,2.14,0,0,1,2.14-2.11h5.35a.43.43,0,0,0,.41-.44V76.73a.43.43,0,0,0-.41-.44h-6a1.21,1.21,0,0,1-1.21-1.18,1.23,1.23,0,0,1,1.21-1.18h6.9A2.12,2.12,0,0,1,88.93,76Zm-8-4.38v4.44a.4.4,0,0,0,.4.44h4.57a.43.43,0,0,0,.41-.44V82.08a.43.43,0,0,0-.41-.44H81.34A.4.4,0,0,0,80.94,82.08Z"/><path class="a6ad796b-ae39-4b8d-ba76-c9bd2eec853e" d="M102,89.29a1.24,1.24,0,0,1-1.21-1.24V76.79a.45.45,0,0,0-.44-.44H95.24a.44.44,0,0,0-.4.44V88.11a1.21,1.21,0,0,1-1.22,1.18,1.18,1.18,0,0,1-1.18-1.18V76a2.1,2.1,0,0,1,2.12-2.11h5.88a2.78,2.78,0,0,1,2.79,2.8V88.05A1.21,1.21,0,0,1,102,89.29Z"/><path class="a6ad796b-ae39-4b8d-ba76-c9bd2eec853e" d="M106.75,86.46V76a2.12,2.12,0,0,1,2.15-2.11h7A1.18,1.18,0,0,1,117,75.11a1.16,1.16,0,0,1-1.15,1.18H109.8a.43.43,0,0,0-.44.44v9.79a.43.43,0,0,0,.44.44h6.09a1.17,1.17,0,0,1,0,2.33h-6.37A2.82,2.82,0,0,1,106.75,86.46Z"/><path class="a6ad796b-ae39-4b8d-ba76-c9bd2eec853e" d="M122.7,89.29a2.81,2.81,0,0,1-2.8-2.83V76A2.1,2.1,0,0,1,122,73.93h6.13A2.09,2.09,0,0,1,130.23,76v3.49a2.11,2.11,0,0,1-2.08,2.14h-5.23a.44.44,0,0,0-.43.44v4.41a.44.44,0,0,0,.43.44h6.28a1.17,1.17,0,0,1,0,2.33Zm-.21-12.56v2.11a.44.44,0,0,0,.43.44h4.36a.45.45,0,0,0,.43-.44V76.73a.45.45,0,0,0-.43-.44h-4.36A.44.44,0,0,0,122.49,76.73Z"/><path class="a6ad796b-ae39-4b8d-ba76-c9bd2eec853e" d="M134.49,89.29A1.29,1.29,0,0,1,133.22,88V70a1.28,1.28,0,1,1,2.55,0V88A1.29,1.29,0,0,1,134.49,89.29Z"/><path class="77bd0f6b-1528-4fbd-baa5-7f59e9c9e2c2" d="M74.59,89.29H65.07A2.12,2.12,0,0,1,63,87.14V70.35a2.09,2.09,0,0,1,2.11-2.11h9.52a1.25,1.25,0,0,1,0,2.49H66a.41.41,0,0,0-.41.4V86.4a.39.39,0,0,0,.41.4h8.55a1.25,1.25,0,0,1,0,2.49Z"/><path class="77bd0f6b-1528-4fbd-baa5-7f59e9c9e2c2" d="M88.93,86.46a2.84,2.84,0,0,1-2.71,2.83H80.56a2.14,2.14,0,0,1-2.14-2.15V81.36a2.14,2.14,0,0,1,2.14-2.11h5.35a.43.43,0,0,0,.41-.44V76.73a.43.43,0,0,0-.41-.44h-6a1.21,1.21,0,0,1-1.21-1.18,1.23,1.23,0,0,1,1.21-1.18h6.9A2.12,2.12,0,0,1,88.93,76Zm-8-4.38v4.44a.4.4,0,0,0,.4.44h4.57a.43.43,0,0,0,.41-.44V82.08a.43.43,0,0,0-.41-.44H81.34A.4.4,0,0,0,80.94,82.08Z"/><path class="77bd0f6b-1528-4fbd-baa5-7f59e9c9e2c2" d="M102,89.29a1.24,1.24,0,0,1-1.21-1.24V76.79a.45.45,0,0,0-.44-.44H95.24a.44.44,0,0,0-.4.44V88.11a1.21,1.21,0,0,1-1.22,1.18,1.18,1.18,0,0,1-1.18-1.18V76a2.1,2.1,0,0,1,2.12-2.11h5.88a2.78,2.78,0,0,1,2.79,2.8V88.05A1.21,1.21,0,0,1,102,89.29Z"/><path class="77bd0f6b-1528-4fbd-baa5-7f59e9c9e2c2" d="M106.75,86.46V76a2.12,2.12,0,0,1,2.15-2.11h7A1.18,1.18,0,0,1,117,75.11a1.16,1.16,0,0,1-1.15,1.18H109.8a.43.43,0,0,0-.44.44v9.79a.43.43,0,0,0,.44.44h6.09a1.17,1.17,0,0,1,0,2.33h-6.37A2.82,2.82,0,0,1,106.75,86.46Z"/><path class="77bd0f6b-1528-4fbd-baa5-7f59e9c9e2c2" d="M122.7,89.29a2.81,2.81,0,0,1-2.8-2.83V76A2.1,2.1,0,0,1,122,73.93h6.13A2.09,2.09,0,0,1,130.23,76v3.49a2.11,2.11,0,0,1-2.08,2.14h-5.23a.44.44,0,0,0-.43.44v4.41a.44.44,0,0,0,.43.44h6.28a1.17,1.17,0,0,1,0,2.33Zm-.21-12.56v2.11a.44.44,0,0,0,.43.44h4.36a.45.45,0,0,0,.43-.44V76.73a.45.45,0,0,0-.43-.44h-4.36A.44.44,0,0,0,122.49,76.73Z"/><path class="77bd0f6b-1528-4fbd-baa5-7f59e9c9e2c2" d="M134.49,89.29A1.29,1.29,0,0,1,133.22,88V70a1.28,1.28,0,1,1,2.55,0V88A1.29,1.29,0,0,1,134.49,89.29Z"/></svg>