<?xml version="1.0" encoding="utf-8"?>
<!-- Generator: Adobe Illustrator 22.0.1, SVG Export Plug-In . SVG Version: 6.00 Build 0)  -->
<svg version="1.1" id="圖層_1" xmlns="http://www.w3.org/2000/svg" xmlns:xlink="http://www.w3.org/1999/xlink" x="0px" y="0px"
	 viewBox="0 0 300 138" style="enable-background:new 0 0 300 138;" xml:space="preserve">
<style type="text/css">
	.st0{display:none;opacity:0.3;}
	.st1{font-family:'Mamelon-83pv-RKSJ-H';}
	.st2{font-size:58.0005px;}
	.st3{fill:#DDC15A;}
	.st4{fill:#CA6C60;}
	.st5{fill:#65AACC;}
	.st6{fill:none;stroke:#000000;stroke-width:4;stroke-linecap:round;stroke-miterlimit:10;}
	.st7{fill:none;stroke:#A67C52;stroke-width:4;stroke-linecap:round;stroke-miterlimit:10;}
</style>
<text transform="matrix(1 0 0 1 34.998 87.8125)" class="st0 st1 st2">恐龍公園</text>
<path class="st3" d="M39.5,64.8H22.6l10.6-18.9H26c-1.3,0-2.3-1-2.3-2.3s1-2.3,2.3-2.3h15.3L30.6,60.1h8.9c1.3,0,2.3,1,2.3,2.3
	C41.8,63.8,40.8,64.8,39.5,64.8z"/>
<path class="st4" d="M68.8,64.8c-3.2,0-5.9-2.6-5.9-5.9v-9.7c0-3.1-2.5-5.5-5.5-5.5h-1.8c-3.1,0-5.5,2.5-5.5,5.5v13.2
	c0,1.3-1,2.3-2.3,2.3s-2.3-1-2.3-2.3V49.2c0-5.6,4.6-10.2,10.2-10.2h1.8c5.6,0,10.2,4.6,10.2,10.2v9.7c0,0.6,0.5,1.2,1.2,1.2
	c0.6,0,1.2-0.5,1.2-1.2v-2.3c0-1.3,1-2.3,2.3-2.3s2.3,1,2.3,2.3v2.3C74.7,62.2,72,64.8,68.8,64.8z"/>
<path class="st4" d="M53,58.2H41.6c-1.3,0-2.3-1-2.3-2.3s1-2.3,2.3-2.3H53c1.3,0,2.3,1,2.3,2.3S54.3,58.2,53,58.2z"/>
<path class="st5" d="M25.4,88.1c-0.2,0-0.5,0-0.7-0.1c-1.2-0.4-1.9-1.7-1.5-3l2.1-6.3c0.4-1.2,1.7-1.9,3-1.5c1.2,0.4,1.9,1.7,1.5,3
	l-2.1,6.3C27.3,87.4,26.4,88.1,25.4,88.1z"/>
<path class="st3" d="M54.9,94.1c-0.3,0-0.5,0-0.8,0h-4c-8.4,0-15.2-6.8-15.2-15.2v-3.8c0-1.3,1-2.3,2.3-2.3s2.3,1,2.3,2.3v3.8
	c0,5.8,4.7,10.6,10.6,10.6l4.2,0c2.3,0.1,4.1-0.5,5.5-1.8c4.4-4.2,4.4-14.7,4.4-18.1v-2.3H75v10.3c0,1.3-1,2.3-2.3,2.3
	s-2.3-1-2.3-2.3v-5.6h-1.5C68.7,78.4,67.7,86.6,63,91C60.8,93.1,58.1,94.1,54.9,94.1z"/>
<path class="st5" d="M52.4,86.3c-1.3,0-2.3-1-2.3-2.3v-6.3c0-1.3,1-2.3,2.3-2.3s2.3,1,2.3,2.3V84C54.7,85.2,53.7,86.3,52.4,86.3z"/>
<path class="st5" d="M112.2,46.4H91.1c-1.3,0-2.3-1-2.3-2.3s1-2.3,2.3-2.3h21.1c1.3,0,2.3,1,2.3,2.3S113.5,46.4,112.2,46.4z"/>
<path class="st5" d="M113.3,59.1H89.9c-1.3,0-2.3-1-2.3-2.3s1-2.3,2.3-2.3h23.4c1.3,0,2.3,1,2.3,2.3S114.6,59.1,113.3,59.1z"/>
<path class="st4" d="M110,95.1c-1.3,0-2.3-1-2.3-2.3V71.9c0-2.4-2-4.4-4.4-4.4h-3.8c-2.4,0-4.4,2-4.4,4.4v20.8c0,1.3-1,2.3-2.3,2.3
	s-2.3-1-2.3-2.3V71.9c0-5,4.1-9.1,9.1-9.1h3.8c5,0,9.1,4.1,9.1,9.1v20.8C112.4,94,111.3,95.1,110,95.1z"/>
<path class="st5" d="M104.9,56.3c-0.6,0-1.2-0.2-1.7-0.7l-6.5-6.5c-0.9-0.9-0.9-2.4,0-3.3c0.9-0.9,2.4-0.9,3.3,0l6.5,6.5
	c0.9,0.9,0.9,2.4,0,3.3C106.1,56.1,105.5,56.3,104.9,56.3z"/>
<path class="st4" d="M98.4,56.3c-0.6,0-1.2-0.2-1.7-0.7c-0.9-0.9-0.9-2.4,0-3.3l6.5-6.5c0.9-0.9,2.4-0.9,3.3,0
	c0.9,0.9,0.9,2.4,0,3.3l-6.5,6.5C99.6,56.1,99,56.3,98.4,56.3z"/>
<path class="st4" d="M99.9,79.7c-1,0-1.9-0.6-2.2-1.6c-0.4-1.2,0.3-2.6,1.5-3l9.4-3.1c1.2-0.4,2.6,0.3,3,1.5c0.4,1.2-0.3,2.6-1.5,3
	l-9.4,3.1C100.4,79.6,100.1,79.7,99.9,79.7z"/>
<path class="st4" d="M99.9,88.1c-1,0-1.9-0.6-2.2-1.6c-0.4-1.2,0.3-2.6,1.5-3l9.4-3.1c1.2-0.4,2.6,0.3,3,1.5c0.4,1.2-0.3,2.6-1.5,3
	l-9.4,3.1C100.4,88,100.1,88.1,99.9,88.1z"/>
<path class="st5" d="M101.8,46.5c-1.3,0-2.3-1-2.3-2.3v-4.8c0-1.3,1-2.3,2.3-2.3s2.3,1,2.3,2.3v4.8
	C104.1,45.4,103.1,46.5,101.8,46.5z"/>
<path class="st3" d="M144.5,94.3h-19.8c-4,0-7.2-3.2-7.2-7.2v-22c0-4,3.2-7.2,7.2-7.2H136c0.9,0,1.6-0.7,1.6-1.6
	c0-0.9-0.7-1.6-1.6-1.6h-12.7c-3,0-5.5-2.5-5.5-5.5v-9.9c0-1.3,1-2.3,2.3-2.3s2.3,1,2.3,2.3v9.9c0,0.4,0.4,0.8,0.8,0.8H136
	c3.4,0,6.3,2.8,6.3,6.3c0,3.4-2.8,6.3-6.3,6.3h-11.4c-1.4,0-2.5,1.1-2.5,2.5v22c0,1.4,1.1,2.5,2.5,2.5h12.2l-9.5-4.9l4.6-5.3
	l-6.6-6.3l10-6c1.1-0.7,2.6-0.3,3.2,0.8c0.7,1.1,0.3,2.6-0.8,3.2L133,74l5.4,5.1l-3.6,4.1l10.8,5.5c1.2,0.5,1.9,1.8,1.7,3.1
	C147.1,93.3,145.9,94.3,144.5,94.3z"/>
<path class="st4" d="M136.2,46.6h-15.8c-1.3,0-2.3-1-2.3-2.3s1-2.3,2.3-2.3h15.8c1.3,0,2.3,1,2.3,2.3S137.5,46.6,136.2,46.6z"/>
<path class="st3" d="M157.5,71.8c-2.9,0-5.6-1.3-7.3-3.6l-0.7-0.9c-0.8-1-0.6-2.5,0.4-3.3c1-0.8,2.5-0.6,3.3,0.4l0.7,0.9
	c0.9,1.1,2.2,1.8,3.6,1.8c1.9,0,3.6-1.1,4.4-2.9l5.4-13c3.1-7.4,10.3-12.2,18.3-12.2h2.4c1.3,0,2.3,1,2.3,2.3s-1,2.3-2.3,2.3h-2.4
	c-6.1,0-11.6,3.7-14,9.3l-5.4,13C164.7,69.6,161.3,71.8,157.5,71.8z"/>
<path class="st5" d="M213.3,71.3h-2c-4.7,0-9.1-2.4-11.9-6.4l-5.3-7.9c-1.5-2.2-3.8-3.5-6.3-3.5h-2.9c-1.3,0-2.3-1-2.3-2.3
	s1-2.3,2.3-2.3h2.9c4,0,7.9,2.1,10.2,5.5l5.3,7.9c1.8,2.7,4.8,4.4,8,4.4h2c1.3,0,2.3,1,2.3,2.3S214.6,71.3,213.3,71.3z"/>
<path class="st5" d="M191.4,94.7h-12.7c-3.6,0-6.9-1.8-8.9-4.8c-2-3-2.3-6.8-0.9-10.1l6.8-16c0.5-1.2,1.9-1.7,3.1-1.2
	c1.2,0.5,1.7,1.9,1.2,3.1l-6.8,16c-0.8,1.9-0.6,3.9,0.5,5.6c1.1,1.7,2.9,2.7,5,2.7h12.7c2,0,3.8-0.9,4.9-2.6
	c1.1-1.6,1.4-3.6,0.7-5.5l-0.8-2.3c-0.4-1.2,0.2-2.6,1.4-3c1.2-0.4,2.6,0.2,3,1.4l0.8,2.3c1.2,3.3,0.7,6.9-1.3,9.8
	C198.1,93,194.9,94.7,191.4,94.7z"/>
<path class="st6" d="M237.6,92.9"/>
<path class="st4" d="M249.6,95.1h-12.2c-4.6,0-8.8-2.3-11.3-6.2c-0.7-1.1-0.4-2.5,0.7-3.2c1.1-0.7,2.5-0.4,3.2,0.7
	c1.6,2.5,4.4,4,7.4,4h12.2c1.3,0,2.3,1,2.3,2.3S250.9,95.1,249.6,95.1z"/>
<path class="st7" d="M267.7,92.8"/>
<path class="st5" d="M267.6,95.3h-10c-1.3,0-2.3-1-2.3-2.3s1-2.3,2.3-2.3h10c4.8,0,8.7-3.9,8.7-8.7V51.6c0-4.8-3.9-8.7-8.7-8.7h-30
	c-4.8,0-8.7,3.9-8.7,8.7v30.3c0,1.3-1,2.3-2.3,2.3c-1.3,0-2.3-1-2.3-2.3V51.6c0-7.4,6-13.4,13.4-13.4h30c7.4,0,13.4,6,13.4,13.4
	v30.3C281,89.3,275,95.3,267.6,95.3z"/>
<path class="st3" d="M266.9,51.8h-27.8c-1.3,0-2.3-1-2.3-2.3s1-2.3,2.3-2.3h27.8c1.3,0,2.3,1,2.3,2.3S268.2,51.8,266.9,51.8z"/>
<path class="st3" d="M268.3,59.7h-30.5c-1.3,0-2.3-1-2.3-2.3s1-2.3,2.3-2.3h30.5c1.3,0,2.3,1,2.3,2.3S269.5,59.7,268.3,59.7z"/>
<path class="st5" d="M261.4,74.3h-17.2c-2.9,0-5.2-2.4-5.2-5.2v-1.8c0-2.9,2.4-5.2,5.2-5.2h17.2c2.9,0,5.2,2.4,5.2,5.2v1.8
	C266.6,72,264.3,74.3,261.4,74.3z M244.2,66.7c-0.3,0-0.6,0.2-0.6,0.6v1.8c0,0.3,0.2,0.6,0.6,0.6h17.2c0.3,0,0.6-0.2,0.6-0.6v-1.8
	c0-0.3-0.2-0.6-0.6-0.6H244.2z"/>
<path class="st3" d="M252.6,58.7C252.6,58.7,252.6,58.7,252.6,58.7c-1.3,0-2.4-1.1-2.3-2.4l0.1-9.8c0-1.3,1.1-2.3,2.3-2.3
	c0,0,0,0,0,0c1.3,0,2.3,1.1,2.3,2.4l-0.1,9.8C254.9,57.6,253.9,58.7,252.6,58.7z"/>
<path class="st3" d="M237,85.9c-0.6,0-1.2-0.2-1.6-0.7c-0.9-0.9-1-2.4-0.1-3.3l9.1-9.4c0.9-0.9,2.4-1,3.3-0.1c0.9,0.9,1,2.4,0.1,3.3
	l-9.1,9.4C238.3,85.7,237.6,85.9,237,85.9z"/>
<path class="st3" d="M248.4,89c-1.2,0-2.4-0.4-3.5-1.1c-1.6-1.1-2.6-3-2.6-4.9c0-1.3,1-2.3,2.3-2.3c1.3,0,2.3,1,2.3,2.3
	c0,0.6,0.4,1,0.6,1.1c0.2,0.1,0.6,0.4,1.2,0.2l1.5-0.5c1.2-0.4,2.6,0.2,3,1.4c0.4,1.2-0.2,2.6-1.4,3l-1.5,0.5
	C249.7,88.9,249,89,248.4,89z"/>
<path class="st3" d="M263.5,88.7c-1.5,0-3.1-0.5-4.7-1.9l-6.8-6.3c-0.9-0.9-1-2.4-0.1-3.3c0.9-0.9,2.4-1,3.3-0.1l6.7,6.3
	c1.5,1.3,2.8,0.8,5.9-1.5c0.3-0.2,0.6-0.5,0.8-0.7l0.7-0.8c0.9-1,2.3-1.1,3.3-0.2c1,0.9,1.1,2.3,0.2,3.3l-0.7,0.8
	c-0.5,0.5-1,1-1.5,1.4C268.9,86.8,266.3,88.7,263.5,88.7z"/>
<path class="st4" d="M263.9,81.7c-0.6,0-1.3-0.3-1.8-0.8c-0.9-1-0.8-2.5,0.2-3.3l2.5-2.2c1-0.9,2.5-0.8,3.3,0.2
	c0.9,1,0.8,2.5-0.2,3.3l-2.5,2.2C265,81.5,264.4,81.7,263.9,81.7z"/>
<path class="st4" d="M204.1,94.3c-0.9,0-1.8-0.5-2.2-1.4L196,79.1c-0.5-1.2,0-2.6,1.2-3.1c1.2-0.5,2.6,0,3.1,1.2l5.9,13.7
	c0.5,1.2,0,2.6-1.2,3.1C204.7,94.2,204.4,94.3,204.1,94.3z"/>
</svg>
