<svg id="cdfa77df-a7dc-48aa-828f-86b4bb4be0f6" data-name="圖層 1" xmlns="http://www.w3.org/2000/svg" viewBox="0 0 100 100"><defs><style>.\30 1970b00-54bc-4944-b5d2-74a27fd7bb36{fill:#fff;stroke-width:4px;}.\30 1970b00-54bc-4944-b5d2-74a27fd7bb36,.e9650130-354e-4c91-8169-12c9a3ac702e{stroke:#fff;stroke-miterlimit:10;}.f5c312fc-24b7-4fb0-b0d6-a7134c6d0dc3{fill:#006837;}.\38 6764574-8d9b-4435-99c2-9981ea94c919{fill:#8cc63f;}.\33 ca6dc21-d7ca-4d60-a9e4-05d7fc7fd79a{fill:#39b54a;}</style></defs><title>dino6-xs</title><path class="01970b00-54bc-4944-b5d2-74a27fd7bb36" d="M84.59,46.71c-3.52.27-3.48,1.47-7.81-.55l-.19-7.5-5.67,3.47-.18-7.37-6.38,3.9-.84-7.5L57.3,35.75l-1.83-7.6-5.62,5.33-3.91-6.77L42.25,33.1h-.19L38,27l-3.32,6.65-5.74-4.73-1.23,7.39-6.7-3,.71,7.3-7.25-1.17L17.39,47a19.7,19.7,0,0,0-1.12,2C-2.47,63.1,7.68,79.5,6.51,70.91S24.08,60,24.08,60s2.22.37,7.23.88v7.55a2.51,2.51,0,0,0,2.5,2.5h.86a2.47,2.47,0,0,0,1.42-.45,2.53,2.53,0,0,0,1.43.45h.86a2.51,2.51,0,0,0,2.5-2.5V61.7c4.45.34,9.87.69,16.38,1A67.47,67.47,0,0,0,67,62.58v5.83a2.51,2.51,0,0,0,2.5,2.5h.86a2.47,2.47,0,0,0,1.42-.45,2.53,2.53,0,0,0,1.43.45h.86a2.51,2.51,0,0,0,2.5-2.5V60.53a2.45,2.45,0,0,0,0-.39c3.83-2,4.29-4.32,6.87-3.67,4.68,1.17,7.42,2.14,10.93-1.37S89.67,46.32,84.59,46.71ZM70.15,42.6l-.55-.32.57.31ZM49.77,33.92l-.25-.06h.08Z"/><rect class="f5c312fc-24b7-4fb0-b0d6-a7134c6d0dc3" x="67.02" y="58.03" width="5.86" height="12.88" rx="2.5" ry="2.5"/><rect class="f5c312fc-24b7-4fb0-b0d6-a7134c6d0dc3" x="31.31" y="58.03" width="5.86" height="12.88" rx="2.5" ry="2.5"/><polygon class="86764574-8d9b-4435-99c2-9981ea94c919" points="76.59 38.66 69.55 42.97 76.8 46.92 76.59 38.66"/><path class="3ca6dc21-d7ca-4d60-a9e4-05d7fc7fd79a" d="M16.27,49.05S29.91,19.14,67.8,41.24c14.06,8.2,11.72,5.86,16.79,5.47s13.27,4.88,9.76,8.39-6.25,2.54-10.93,1.37-2.34,7.41-26.16,6.24S24.08,60,24.08,60,5.34,62.32,6.51,70.91-2.47,63.1,16.27,49.05Z"/><rect class="3ca6dc21-d7ca-4d60-a9e4-05d7fc7fd79a" x="70.73" y="58.03" width="5.86" height="12.88" rx="2.5" ry="2.5"/><rect class="3ca6dc21-d7ca-4d60-a9e4-05d7fc7fd79a" x="35.02" y="58.03" width="5.86" height="12.88" rx="2.5" ry="2.5"/><polygon class="86764574-8d9b-4435-99c2-9981ea94c919" points="45.94 26.71 41.81 33.87 50.07 33.87 45.94 26.71"/><polygon class="86764574-8d9b-4435-99c2-9981ea94c919" points="38.01 26.97 34.31 34.36 42.56 33.86 38.01 26.97"/><polygon class="86764574-8d9b-4435-99c2-9981ea94c919" points="28.94 28.89 27.58 37.04 35.32 34.15 28.94 28.89"/><polygon class="86764574-8d9b-4435-99c2-9981ea94c919" points="21.01 33.24 21.81 41.46 28.53 36.66 21.01 33.24"/><polygon class="86764574-8d9b-4435-99c2-9981ea94c919" points="14.47 39.37 17.41 47.09 22.63 40.69 14.47 39.37"/><polygon class="86764574-8d9b-4435-99c2-9981ea94c919" points="55.47 28.15 49.48 33.83 57.4 36.18 55.47 28.15"/><polygon class="86764574-8d9b-4435-99c2-9981ea94c919" points="63.52 31.16 56.87 36.06 64.44 39.37 63.52 31.16"/><polygon class="86764574-8d9b-4435-99c2-9981ea94c919" points="70.74 34.76 63.69 39.07 70.95 43.01 70.74 34.76"/><circle class="e9650130-354e-4c91-8169-12c9a3ac702e" cx="89.37" cy="50.9" r="1.21"/></svg>