<svg id="1ff1b23c-6fbe-454d-9050-4d65115102f8" data-name="圖層 1" xmlns="http://www.w3.org/2000/svg" viewBox="0 0 512.43 115.65"><defs><style>.a2e110a8-d813-4c2d-9123-814f0482ef5d{fill:#fff;}</style></defs><title>dino-logoW</title><path class="a2e110a8-d813-4c2d-9123-814f0482ef5d" d="M77.32,297.38H43.79L64.9,260H50.59a4.65,4.65,0,0,1,0-9.3H80.83L59.72,288.09h17.6a4.65,4.65,0,1,1,0,9.29Z" transform="translate(-43.79 -242.17)"/><path class="a2e110a8-d813-4c2d-9123-814f0482ef5d" d="M135.44,297.38a11.63,11.63,0,0,1-11.62-11.62V266.53a11,11,0,0,0-11-11h-3.59a11,11,0,0,0-11,11v26.21a4.65,4.65,0,0,1-9.3,0V266.53a20.31,20.31,0,0,1,20.29-20.29h3.59a20.31,20.31,0,0,1,20.29,20.29v19.23a2.33,2.33,0,1,0,4.65,0v-4.65a4.65,4.65,0,1,1,9.29,0v4.65A11.63,11.63,0,0,1,135.44,297.38Z" transform="translate(-43.79 -242.17)"/><path class="a2e110a8-d813-4c2d-9123-814f0482ef5d" d="M104.06,284.21H81.59a4.65,4.65,0,0,1,0-9.3h22.47a4.65,4.65,0,1,1,0,9.3Z" transform="translate(-43.79 -242.17)"/><path class="a2e110a8-d813-4c2d-9123-814f0482ef5d" d="M49.43,343.49a4.58,4.58,0,0,1-1.45-.23,4.65,4.65,0,0,1-3-5.87L49.08,325a4.65,4.65,0,0,1,8.83,2.9l-4.06,12.4A4.66,4.66,0,0,1,49.43,343.49Z" transform="translate(-43.79 -242.17)"/><path class="a2e110a8-d813-4c2d-9123-814f0482ef5d" d="M107.86,355.55c-.53,0-1.06,0-1.61-.05h-8A30.26,30.26,0,0,1,68,325.28v-7.55a4.65,4.65,0,1,1,9.3,0v7.55A21,21,0,0,0,98.25,346.2h8.4c4.52.27,8.08-.91,10.91-3.59,8.78-8.28,8.78-29.1,8.78-35.94V302h21.5v20.35a4.65,4.65,0,0,1-9.3,0V311.33h-3c-.32,13-2.3,29.24-11.63,38.05A22.61,22.61,0,0,1,107.86,355.55Z" transform="translate(-43.79 -242.17)"/><path class="a2e110a8-d813-4c2d-9123-814f0482ef5d" d="M102.9,340a4.65,4.65,0,0,1-4.65-4.65V323a4.65,4.65,0,1,1,9.29,0v12.39A4.65,4.65,0,0,1,102.9,340Z" transform="translate(-43.79 -242.17)"/><path class="a2e110a8-d813-4c2d-9123-814f0482ef5d" d="M221.46,261H179.61a4.65,4.65,0,1,1,0-9.29h41.85a4.65,4.65,0,0,1,0,9.29Z" transform="translate(-43.79 -242.17)"/><path class="a2e110a8-d813-4c2d-9123-814f0482ef5d" d="M223.78,286.15H177.29a4.65,4.65,0,0,1,0-9.3h46.49a4.65,4.65,0,1,1,0,9.3Z" transform="translate(-43.79 -242.17)"/><path class="a2e110a8-d813-4c2d-9123-814f0482ef5d" d="M217.19,357.44a4.65,4.65,0,0,1-4.65-4.65V311.48a8.68,8.68,0,0,0-8.67-8.67h-7.45a8.68,8.68,0,0,0-8.67,8.67v41.31a4.65,4.65,0,0,1-9.3,0V311.48a18,18,0,0,1,18-18h7.45a18,18,0,0,1,18,18v41.31A4.65,4.65,0,0,1,217.19,357.44Z" transform="translate(-43.79 -242.17)"/><path class="a2e110a8-d813-4c2d-9123-814f0482ef5d" d="M207.12,280.53a4.63,4.63,0,0,1-3.29-1.36l-13-13a4.65,4.65,0,1,1,6.58-6.58l13,13a4.65,4.65,0,0,1-3.29,7.94Z" transform="translate(-43.79 -242.17)"/><path class="a2e110a8-d813-4c2d-9123-814f0482ef5d" d="M194.14,280.53a4.65,4.65,0,0,1-3.29-7.94l13-13a4.65,4.65,0,1,1,6.58,6.58l-13,13A4.63,4.63,0,0,1,194.14,280.53Z" transform="translate(-43.79 -242.17)"/><path class="a2e110a8-d813-4c2d-9123-814f0482ef5d" d="M197,326.83a4.65,4.65,0,0,1-1.46-9.06l18.59-6.2a4.65,4.65,0,1,1,2.94,8.82l-18.59,6.2A4.5,4.5,0,0,1,197,326.83Z" transform="translate(-43.79 -242.17)"/><path class="a2e110a8-d813-4c2d-9123-814f0482ef5d" d="M197,343.49a4.65,4.65,0,0,1-1.46-9.06l18.59-6.2a4.65,4.65,0,1,1,2.94,8.82l-18.59,6.2A4.5,4.5,0,0,1,197,343.49Z" transform="translate(-43.79 -242.17)"/><path class="a2e110a8-d813-4c2d-9123-814f0482ef5d" d="M200.82,261.06a4.65,4.65,0,0,1-4.65-4.65v-9.59a4.65,4.65,0,0,1,9.3,0v9.59A4.65,4.65,0,0,1,200.82,261.06Z" transform="translate(-43.79 -242.17)"/><path class="a2e110a8-d813-4c2d-9123-814f0482ef5d" d="M285.52,355.89H246.16a14.26,14.26,0,0,1-14.24-14.25V298.07a14.26,14.26,0,0,1,14.24-14.25h22.56a3.1,3.1,0,0,0,0-6.2H243.57a10.89,10.89,0,0,1-10.88-10.88V247.21a4.65,4.65,0,0,1,9.3,0v19.53a1.59,1.59,0,0,0,1.58,1.59h25.15a12.4,12.4,0,1,1,0,24.79H246.16a5,5,0,0,0-4.94,4.95v43.57a5,5,0,0,0,4.94,4.95h24.28l-18.92-9.72,9.12-10.42L247.53,314l19.77-11.86a4.65,4.65,0,1,1,4.78,8l-9.28,5.57,10.71,10.2L266.36,334l21.37,11a5.66,5.66,0,0,1-2.21,10.87Z" transform="translate(-43.79 -242.17)"/><path class="a2e110a8-d813-4c2d-9123-814f0482ef5d" d="M269.11,261.35H237.73a4.65,4.65,0,1,1,0-9.3h31.38a4.65,4.65,0,0,1,0,9.3Z" transform="translate(-43.79 -242.17)"/><path class="a2e110a8-d813-4c2d-9123-814f0482ef5d" d="M311.28,311.33a18.42,18.42,0,0,1-14.53-7.16l-1.44-1.86a4.65,4.65,0,0,1,7.37-5.67l1.43,1.86a9.1,9.1,0,0,0,7.17,3.53,9.35,9.35,0,0,0,8.67-5.77l10.76-25.83A39.21,39.21,0,0,1,367,246.24h4.8a4.65,4.65,0,0,1,0,9.3H367A29.92,29.92,0,0,0,339.3,274l-10.77,25.83A18.63,18.63,0,0,1,311.28,311.33Z" transform="translate(-43.79 -242.17)"/><path class="a2e110a8-d813-4c2d-9123-814f0482ef5d" d="M422,310.17h-4a28.45,28.45,0,0,1-23.5-12.75l-10.56-15.65a15.19,15.19,0,0,0-12.5-6.86h-5.76a4.65,4.65,0,1,1,0-9.3h5.76a24.47,24.47,0,0,1,20.21,11l10.56,15.65a19.16,19.16,0,0,0,15.79,8.65h4a4.65,4.65,0,1,1,0,9.3Z" transform="translate(-43.79 -242.17)"/><path class="a2e110a8-d813-4c2d-9123-814f0482ef5d" d="M378.5,356.66H353.36a21.15,21.15,0,0,1-19.47-29.44l13.47-31.66a4.65,4.65,0,0,1,8.56,3.65l-13.48,31.66a11.86,11.86,0,0,0,10.92,16.5H378.5a11.87,11.87,0,0,0,11.13-16L388,326.89a4.65,4.65,0,1,1,8.72-3.22l1.67,4.51a21.16,21.16,0,0,1-19.85,28.48Z" transform="translate(-43.79 -242.17)"/><path class="a2e110a8-d813-4c2d-9123-814f0482ef5d" d="M470.11,353.18" transform="translate(-43.79 -242.17)"/><path class="a2e110a8-d813-4c2d-9123-814f0482ef5d" d="M494,357.54H469.82a26.55,26.55,0,0,1-22.44-12.28,4.65,4.65,0,1,1,7.82-5,17.31,17.31,0,0,0,14.62,8H494a4.65,4.65,0,1,1,0,9.3Z" transform="translate(-43.79 -242.17)"/><path class="a2e110a8-d813-4c2d-9123-814f0482ef5d" d="M529.86,352.89" transform="translate(-43.79 -242.17)"/><path class="a2e110a8-d813-4c2d-9123-814f0482ef5d" d="M529.57,357.83H509.72a4.65,4.65,0,0,1,0-9.3h19.85a17.36,17.36,0,0,0,17.34-17.35v-60a17.36,17.36,0,0,0-17.34-17.34H470.11a17.36,17.36,0,0,0-17.35,17.34v60a4.65,4.65,0,1,1-9.3,0v-60a26.68,26.68,0,0,1,26.65-26.64h59.46a26.67,26.67,0,0,1,26.64,26.64v60A26.68,26.68,0,0,1,529.57,357.83Z" transform="translate(-43.79 -242.17)"/><path class="a2e110a8-d813-4c2d-9123-814f0482ef5d" d="M528.32,271.52H473.1a4.65,4.65,0,0,1,0-9.3h55.22a4.65,4.65,0,0,1,0,9.3Z" transform="translate(-43.79 -242.17)"/><path class="a2e110a8-d813-4c2d-9123-814f0482ef5d" d="M530.93,287.21H470.49a4.65,4.65,0,1,1,0-9.29h60.44a4.65,4.65,0,1,1,0,9.29Z" transform="translate(-43.79 -242.17)"/><path class="a2e110a8-d813-4c2d-9123-814f0482ef5d" d="M517.35,316.27H483.21a10.4,10.4,0,0,1-10.39-10.39v-3.63a10.4,10.4,0,0,1,10.39-10.39h34.14a10.4,10.4,0,0,1,10.39,10.39v3.63A10.4,10.4,0,0,1,517.35,316.27Zm-34.14-15.11a1.09,1.09,0,0,0-1.09,1.09v3.63a1.09,1.09,0,0,0,1.09,1.09h34.14a1.09,1.09,0,0,0,1.09-1.09v-3.63a1.09,1.09,0,0,0-1.09-1.09Z" transform="translate(-43.79 -242.17)"/><path class="a2e110a8-d813-4c2d-9123-814f0482ef5d" d="M499.84,285.18h0a4.65,4.65,0,0,1-4.6-4.7l.19-19.37a4.65,4.65,0,0,1,4.65-4.6h.05a4.64,4.64,0,0,1,4.6,4.69l-.19,19.38A4.65,4.65,0,0,1,499.84,285.18Z" transform="translate(-43.79 -242.17)"/><path class="a2e110a8-d813-4c2d-9123-814f0482ef5d" d="M469,339.23a4.65,4.65,0,0,1-3.34-7.89l18-18.59a4.65,4.65,0,1,1,6.68,6.47l-18,18.6A4.66,4.66,0,0,1,469,339.23Z" transform="translate(-43.79 -242.17)"/><path class="a2e110a8-d813-4c2d-9123-814f0482ef5d" d="M491.48,345.39a12,12,0,0,1-12-12,4.65,4.65,0,0,1,9.3,0,2.65,2.65,0,0,0,1.14,2.19,2.63,2.63,0,0,0,2.45.32l2.95-1.07a4.65,4.65,0,1,1,3.18,8.74l-2.95,1.07A11.79,11.79,0,0,1,491.48,345.39Z" transform="translate(-43.79 -242.17)"/><path class="a2e110a8-d813-4c2d-9123-814f0482ef5d" d="M521.48,344.67a14.15,14.15,0,0,1-9.37-3.79L498.6,328.29a4.65,4.65,0,1,1,6.35-6.8L518.31,334c3.05,2.62,5.52,1.61,11.77-3a10.25,10.25,0,0,0,1.61-1.46l1.44-1.61a4.65,4.65,0,0,1,6.94,6.19l-1.44,1.61a20.23,20.23,0,0,1-3,2.75C532.15,341,527.14,344.67,521.48,344.67Z" transform="translate(-43.79 -242.17)"/><path class="a2e110a8-d813-4c2d-9123-814f0482ef5d" d="M522.22,330.8a4.65,4.65,0,0,1-3.08-8.13l4.94-4.36a4.65,4.65,0,1,1,6.15,7l-4.94,4.36A4.62,4.62,0,0,1,522.22,330.8Z" transform="translate(-43.79 -242.17)"/><path class="a2e110a8-d813-4c2d-9123-814f0482ef5d" d="M403.66,355.8a4.65,4.65,0,0,1-4.27-2.81l-11.77-27.17a4.65,4.65,0,1,1,8.53-3.69l11.77,27.17a4.66,4.66,0,0,1-4.26,6.5Z" transform="translate(-43.79 -242.17)"/></svg>