<svg id="8600e83b-6002-4b01-a0ae-ca75bc7977ba" data-name="圖層 1" xmlns="http://www.w3.org/2000/svg" viewBox="0 0 200 100"><defs><style>.bfa88cbc-07f9-4c0d-af91-ce4d4ee168c4{fill:#58381b;}.f75c8153-eb13-4130-8fa9-68518b77b2cf{fill:#be9b6d;}.\37 9151052-b526-42ab-a263-120d71a05b8a{fill:#9a7243;}.\33 a0ffa2c-9cb0-4764-a39d-f3702121eb5a{fill:#c7ae84;}.b606e660-b3c1-4656-85f0-21dde657d57e{fill:#785329;}.\34 1085289-a092-46aa-a209-2bd63d0f7a5b{font-size:31.1px;font-family:Mamelon-83pv-RKSJ-H, Mamelon;}.\38 024f822-8c7c-4fb9-820b-d6b9f7c9cf84{fill:#fbb03b;stroke:#fbb03b;stroke-width:9px;}.\30 0ef2fab-b41c-47f4-9662-1d9f471dbab7,.\38 024f822-8c7c-4fb9-820b-d6b9f7c9cf84{stroke-miterlimit:10;}.\30 0ef2fab-b41c-47f4-9662-1d9f471dbab7{stroke:#000;}</style></defs><title>dino-again</title><path class="bfa88cbc-07f9-4c0d-af91-ce4d4ee168c4" d="M195.77,56c-1.8.91-3.05-1.94-3.07-4l-.07-5.49-.21-18.41c0-1,0-2,0-3.06a16.8,16.8,0,0,1,.81-4.93c1.32-3.83,4.5-8.34,1.72-11.3a4,4,0,0,0-.37-.34c-.9-.76-2.08-1.22-2.92-2a3.48,3.48,0,0,1-.5-.58c-.84-1.24-.65-2.9-1.13-4.32A3,3,0,0,0,188.74.11h-1.89a.74.74,0,0,0-.19.16,1,1,0,0,1,0-.16H16.82A12.51,12.51,0,0,0,19.17,9a11.84,11.84,0,0,0,5.24,4.17,13.55,13.55,0,0,0-2.18,6.26,39.94,39.94,0,0,0,.2,8.46c.12,1.15.23,2.31.35,3.47l1.51,15.13q.42,4.25.85,8.49l.18,1.8a37.19,37.19,0,0,1,.23,6.83,14.56,14.56,0,0,1-.69,3.4c-.41,1.17-1,2.27-1.47,3.42-.17.41-.33.84-.46,1.27-1,3.51,0,7.23.85,10.8,0,.06,0,.13,0,.19a70.11,70.11,0,0,1,1.71,14.64v0c0,.59,0,1.2-.05,1.81H192.32q.77-4.36,1.51-8.71l.29-1.67c-2.65-1.39-3.61-4.83-3.2-7.79a11.24,11.24,0,0,1,.26-1.31,58.59,58.59,0,0,1,2.7-7.16c.11-.29.2-.58.3-.87a32.88,32.88,0,0,0,1.61-6.7A33.42,33.42,0,0,0,195.77,56Z"/><path class="f75c8153-eb13-4130-8fa9-68518b77b2cf" d="M18.91,8.39c2.61-1.86,3.61-5,3.76-8.28H4A12.56,12.56,0,0,0,6.36,9a31,31,0,0,0,4,.87C13.26,10.24,16.49,10.12,18.91,8.39Z"/><path class="f75c8153-eb13-4130-8fa9-68518b77b2cf" d="M76.06,36.06a33.23,33.23,0,0,1,4.62-6.77c6-6.68,14.61-10.13,22.55-14.24A125.63,125.63,0,0,0,125.71.11H108.93Q84.87,13.58,61.87,28.85L72.53.11H48.86c0,.63,0,1.25,0,1.88.1,6.88-.33,13.94-3.06,20.26S37.71,34.07,30.94,35.33c-7,1.29-14-2-21-4l1.51,15.13c20.68-5.51,42.39-6.89,63.61-10.23Z"/><path class="79151052-b526-42ab-a263-120d71a05b8a" d="M30.94,35.33c6.77-1.26,12.17-6.76,14.91-13.08S49,8.87,48.91,2c0-.63,0-1.25,0-1.88H37a51.55,51.55,0,0,1-.82,6.66c-.75,3.92-2,7.92-4.91,10.7C27.19,21.39,20.9,22,15.37,21a48.56,48.56,0,0,1-5.94-1.58,39.94,39.94,0,0,0,.2,8.46c.11,1.15.23,2.31.35,3.47C16.92,33.36,24,36.62,30.94,35.33Z"/><path class="3a0ffa2c-9cb0-4764-a39d-f3702121eb5a" d="M108.93.11H90.79A54.56,54.56,0,0,1,84,7.33a3.73,3.73,0,0,1-3,1.19c-1.83-.38-2.11-2.86-1.91-4.72q.21-1.86.48-3.69H72.53L61.87,28.85Q84.85,13.6,108.93.11Z"/><path class="b606e660-b3c1-4656-85f0-21dde657d57e" d="M31.24,17.47c2.86-2.78,4.16-6.78,4.91-10.7A51.55,51.55,0,0,0,37,.11H22.67c-.15,3.29-1.15,6.42-3.76,8.28-2.42,1.73-5.65,1.85-8.59,1.43a31,31,0,0,1-4-.87,11.93,11.93,0,0,0,5.25,4.17,13.55,13.55,0,0,0-2.18,6.26A48.56,48.56,0,0,0,15.37,21C20.9,22,27.19,21.39,31.24,17.47Z"/><path class="b606e660-b3c1-4656-85f0-21dde657d57e" d="M178.38,6c-.84-1.24-.65-2.9-1.13-4.32A3,3,0,0,0,175.94.11h-1.89a.74.74,0,0,0-.19.16,1,1,0,0,1-.05-.16h-3.67a166,166,0,0,1-56.21,37.11c-12.75,5.06-26.3,8.61-37.72,16.23-1.89,1.27-3.86,2.86-4.24,5.1,3.34,2.58,8.15,1,12-.74q35.72-15.9,69.76-35.28a236.43,236.43,0,0,0,25.14-16A3.48,3.48,0,0,1,178.38,6Z"/><path class="79151052-b526-42ab-a263-120d71a05b8a" d="M81,8.52a3.73,3.73,0,0,0,3-1.19A54.56,54.56,0,0,0,90.79.11H79.61q-.27,1.83-.48,3.69C78.93,5.66,79.21,8.14,81,8.52Z"/><path class="79151052-b526-42ab-a263-120d71a05b8a" d="M143,7.8c-17.67,17.12-42.58,24.35-66.9,28.26-5.76,11-6.7,24.82-13.32,35.42,5.35-.51,10.69-1.2,16-1.94,13.6-1.89,27.25-4,40.27-8.4s25.49-11.06,35-21C163.67,30,170.74,16.3,181.8,8.54c-.9-.76-2.08-1.22-2.92-2a236.43,236.43,0,0,1-25.14,16Q119.75,41.88,84,57.81c-3.86,1.72-8.67,3.32-12,.74.38-2.24,2.35-3.83,4.24-5.1,11.42-7.62,25-11.17,37.72-16.23A166,166,0,0,0,170.14.11H150.07C147.79,2.79,145.44,5.39,143,7.8Z"/><path class="f75c8153-eb13-4130-8fa9-68518b77b2cf" d="M80.68,29.29a33.23,33.23,0,0,0-4.62,6.77C100.38,32.15,125.29,24.92,143,7.8c2.48-2.41,4.83-5,7.11-7.69H125.71a125.63,125.63,0,0,1-22.48,14.94C95.29,19.16,86.64,22.61,80.68,29.29Z"/><path class="f75c8153-eb13-4130-8fa9-68518b77b2cf" d="M60.82,74.24c.69-.89,1.32-1.82,1.92-2.76a147.49,147.49,0,0,1-17.58.71c-11.54-.28-23-2.32-34.57-1.81-.17.41-.33.84-.46,1.27-1,3.51,0,7.23.85,10.8,7-1.32,14-3.9,20.7-6.38a7.88,7.88,0,0,1,3.65-.73,2.75,2.75,0,0,1,2.55,2.32A3.83,3.83,0,0,1,37,79.94,45.11,45.11,0,0,1,12.73,97.28v0c0,.59,0,1.2-.05,1.81h5.41c10.44-4.54,21.15-8.56,30.77-14.61A45.5,45.5,0,0,0,60.82,74.24Z"/><path class="79151052-b526-42ab-a263-120d71a05b8a" d="M92.7,92c12.92-3.38,26.3-4.59,39.36-7.33A170.84,170.84,0,0,0,183,64.9,33,33,0,0,0,183,56c-1.8.91-3.05-1.94-3.08-4l-.06-5.49c-3.09,9.1-10.18,17.16-18.6,22.15-12.68,7.52-27.79,9.5-42.46,10.9S89.05,82.1,75.6,88.12a62.33,62.33,0,0,0-16.66,11h25.9C84.43,95.5,89,92.94,92.7,92Z"/><path class="79151052-b526-42ab-a263-120d71a05b8a" d="M118.9,99.11h60.62q.76-4.36,1.51-8.71c-14.75,3.41-29.39,7.43-44,4.35,3.5-3.78,8.61-5.65,13.66-6.67s10.24-1.35,15.2-2.73a48.2,48.2,0,0,0,12.49-5.72,58.59,58.59,0,0,1,2.7-7.16c.11-.29.2-.58.3-.87C161,80.64,138,84.41,120.31,98Z"/><path class="b606e660-b3c1-4656-85f0-21dde657d57e" d="M150.69,88.08c-5.05,1-10.16,2.89-13.66,6.67,14.61,3.08,29.25-.94,44-4.35l.29-1.67c-2.65-1.39-3.61-4.83-3.2-7.79a11.24,11.24,0,0,1,.26-1.31,48.2,48.2,0,0,1-12.49,5.72C160.93,86.73,155.74,87.05,150.69,88.08Z"/><path class="79151052-b526-42ab-a263-120d71a05b8a" d="M56.51,55.45c3.4-1.3,6.51-3.89,7.48-7.4-17.36-1.34-34.43,4.09-51.66,6.88l.18,1.8a36.34,36.34,0,0,1,.24,6.83c10.42-4.27,21.8-5.53,33-6.33C49.42,57,53.11,56.75,56.51,55.45Z"/><path class="b606e660-b3c1-4656-85f0-21dde657d57e" d="M132.06,84.64C119,87.38,105.62,88.59,92.7,92c-3.74,1-8.27,3.53-7.86,7.14H118.9L120.31,98C138,84.41,161,80.64,181.38,71.6a32.21,32.21,0,0,0,1.6-6.7A170.84,170.84,0,0,1,132.06,84.64Z"/><path class="b606e660-b3c1-4656-85f0-21dde657d57e" d="M45.16,72.19a147.49,147.49,0,0,0,17.58-.71C69.36,60.88,70.3,47,76.06,36.06l-1,.15c-21.22,3.34-42.93,4.72-63.61,10.23l.84,8.49c17.23-2.79,34.3-8.22,51.66-6.88-1,3.51-4.08,6.1-7.48,7.4S49.42,57,45.79,57.23c-11.24.8-22.62,2.06-33,6.33a14.08,14.08,0,0,1-.7,3.4c-.4,1.17-1,2.27-1.46,3.42C22.11,69.87,33.62,71.91,45.16,72.19Z"/><path class="b606e660-b3c1-4656-85f0-21dde657d57e" d="M37,79.94a3.83,3.83,0,0,0,.91-2.28,2.75,2.75,0,0,0-2.55-2.32,7.88,7.88,0,0,0-3.65.73C25,78.55,18,81.13,11,82.45c0,.06,0,.13,0,.19a70.11,70.11,0,0,1,1.71,14.64A45.11,45.11,0,0,0,37,79.94Z"/><path class="3a0ffa2c-9cb0-4764-a39d-f3702121eb5a" d="M61.28,84.24c9.09-4.4,19.56-4.55,29.58-5.87,17.12-2.24,33.53-8.08,49.8-13.88,5.6-2,11.34-4.07,15.8-8,5.86-5.15,8.75-12.77,12.91-19.36a55.9,55.9,0,0,1,10.26-12,17.48,17.48,0,0,1,.81-4.93c1.33-3.83,4.51-8.34,1.73-11.3l-.37-.34C170.74,16.3,163.67,30,154,40.15c-9.48,9.93-22,16.63-35,21s-26.67,6.51-40.27,8.4c-5.32.74-10.66,1.43-16,1.94-.6.94-1.23,1.87-1.92,2.76a45.5,45.5,0,0,1-12,10.26c-9.62,6-20.33,10.07-30.77,14.61H42.2l3.32-3C50.39,91.62,55.34,87.11,61.28,84.24Z"/><path class="f75c8153-eb13-4130-8fa9-68518b77b2cf" d="M118.77,79.63c14.67-1.4,29.78-3.38,42.46-10.9,8.42-5,15.51-13.05,18.6-22.15l-.21-18.41c0-1,0-2,0-3.06a55.9,55.9,0,0,0-10.26,12c-4.16,6.59-7.05,14.21-12.91,19.36-4.46,3.93-10.2,6-15.8,8-16.27,5.8-32.68,11.64-49.8,13.88-10,1.32-20.49,1.47-29.58,5.87-5.94,2.87-10.89,7.38-15.76,11.83l-3.32,3H58.94a62.33,62.33,0,0,1,16.66-11C89.05,82.1,104.1,81,118.77,79.63Z"/><text class="41085289-a092-46aa-a209-2bd63d0f7a5b" transform="translate(67.24 90.22)">Again</text><path class="8024f822-8c7c-4fb9-820b-d6b9f7c9cf84" d="M71.12,68.24h9.33a2.13,2.13,0,0,1,2.12,2.14V87.92a1.35,1.35,0,0,1-1.34,1.37,1.38,1.38,0,0,1-1.37-1.37v-9a.42.42,0,0,0-.4-.41H72.09a.43.43,0,0,0-.44.41v9A1.32,1.32,0,1,1,69,88V70.38A2.12,2.12,0,0,1,71.12,68.24Zm1,7.8h7.37a.41.41,0,0,0,.4-.4V71.13a.41.41,0,0,0-.4-.4H72.09a.42.42,0,0,0-.44.4v4.51A.42.42,0,0,0,72.09,76Z"/><path class="8024f822-8c7c-4fb9-820b-d6b9f7c9cf84" d="M93.83,94.79H87.36a1.2,1.2,0,0,1-1.18-1.21,1.18,1.18,0,0,1,1.18-1.18h6.25A.44.44,0,0,0,94,92v-2.3a.42.42,0,0,0-.43-.43H88.23a2.13,2.13,0,0,1-2.12-2.15V76a2.1,2.1,0,0,1,2.12-2.11h6.28A2.13,2.13,0,0,1,96.66,76V92A2.84,2.84,0,0,1,93.83,94.79ZM89.07,86.9h4.54a.42.42,0,0,0,.43-.44V76.67a.44.44,0,0,0-.43-.44H89.07a.45.45,0,0,0-.44.44v9.79A.43.43,0,0,0,89.07,86.9Z"/><path class="8024f822-8c7c-4fb9-820b-d6b9f7c9cf84" d="M110.65,86.46a2.84,2.84,0,0,1-2.7,2.83h-5.66a2.15,2.15,0,0,1-2.15-2.15V81.36a2.14,2.14,0,0,1,2.15-2.11h5.34a.43.43,0,0,0,.41-.44V76.73a.43.43,0,0,0-.41-.44h-6a1.21,1.21,0,0,1-1.21-1.18,1.23,1.23,0,0,1,1.21-1.18h6.91A2.11,2.11,0,0,1,110.65,76Zm-8-4.38v4.44a.4.4,0,0,0,.4.44h4.57a.43.43,0,0,0,.41-.44V82.08a.43.43,0,0,0-.41-.44h-4.57A.4.4,0,0,0,102.66,82.08Z"/><path class="8024f822-8c7c-4fb9-820b-d6b9f7c9cf84" d="M116.69,71.35a1.22,1.22,0,0,1-1.19,1.24h-.18a1.23,1.23,0,0,1,0-2.46h.18A1.21,1.21,0,0,1,116.69,71.35Zm0,3.85V88a1.28,1.28,0,1,1-2.55,0V75.2a1.28,1.28,0,0,1,2.55,0Z"/><path class="8024f822-8c7c-4fb9-820b-d6b9f7c9cf84" d="M129.78,89.29a1.24,1.24,0,0,1-1.22-1.24V76.79a.44.44,0,0,0-.43-.44H123a.45.45,0,0,0-.41.44V88.11a1.21,1.21,0,0,1-1.21,1.18,1.18,1.18,0,0,1-1.18-1.18V76a2.09,2.09,0,0,1,2.11-2.11h5.88a2.78,2.78,0,0,1,2.8,2.8V88.05A1.22,1.22,0,0,1,129.78,89.29Z"/><path class="00ef2fab-b41c-47f4-9662-1d9f471dbab7" d="M71.12,68.24h9.33a2.13,2.13,0,0,1,2.12,2.14V87.92a1.35,1.35,0,0,1-1.34,1.37,1.38,1.38,0,0,1-1.37-1.37v-9a.42.42,0,0,0-.4-.41H72.09a.43.43,0,0,0-.44.41v9A1.32,1.32,0,1,1,69,88V70.38A2.12,2.12,0,0,1,71.12,68.24Zm1,7.8h7.37a.41.41,0,0,0,.4-.4V71.13a.41.41,0,0,0-.4-.4H72.09a.42.42,0,0,0-.44.4v4.51A.42.42,0,0,0,72.09,76Z"/><path class="00ef2fab-b41c-47f4-9662-1d9f471dbab7" d="M93.83,94.79H87.36a1.2,1.2,0,0,1-1.18-1.21,1.18,1.18,0,0,1,1.18-1.18h6.25A.44.44,0,0,0,94,92v-2.3a.42.42,0,0,0-.43-.43H88.23a2.13,2.13,0,0,1-2.12-2.15V76a2.1,2.1,0,0,1,2.12-2.11h6.28A2.13,2.13,0,0,1,96.66,76V92A2.84,2.84,0,0,1,93.83,94.79ZM89.07,86.9h4.54a.42.42,0,0,0,.43-.44V76.67a.44.44,0,0,0-.43-.44H89.07a.45.45,0,0,0-.44.44v9.79A.43.43,0,0,0,89.07,86.9Z"/><path class="00ef2fab-b41c-47f4-9662-1d9f471dbab7" d="M110.65,86.46a2.84,2.84,0,0,1-2.7,2.83h-5.66a2.15,2.15,0,0,1-2.15-2.15V81.36a2.14,2.14,0,0,1,2.15-2.11h5.34a.43.43,0,0,0,.41-.44V76.73a.43.43,0,0,0-.41-.44h-6a1.21,1.21,0,0,1-1.21-1.18,1.23,1.23,0,0,1,1.21-1.18h6.91A2.11,2.11,0,0,1,110.65,76Zm-8-4.38v4.44a.4.4,0,0,0,.4.44h4.57a.43.43,0,0,0,.41-.44V82.08a.43.43,0,0,0-.41-.44h-4.57A.4.4,0,0,0,102.66,82.08Z"/><path class="00ef2fab-b41c-47f4-9662-1d9f471dbab7" d="M116.69,71.35a1.22,1.22,0,0,1-1.19,1.24h-.18a1.23,1.23,0,0,1,0-2.46h.18A1.21,1.21,0,0,1,116.69,71.35Zm0,3.85V88a1.28,1.28,0,1,1-2.55,0V75.2a1.28,1.28,0,0,1,2.55,0Z"/><path class="00ef2fab-b41c-47f4-9662-1d9f471dbab7" d="M129.78,89.29a1.24,1.24,0,0,1-1.22-1.24V76.79a.44.44,0,0,0-.43-.44H123a.45.45,0,0,0-.41.44V88.11a1.21,1.21,0,0,1-1.21,1.18,1.18,1.18,0,0,1-1.18-1.18V76a2.09,2.09,0,0,1,2.11-2.11h5.88a2.78,2.78,0,0,1,2.8,2.8V88.05A1.22,1.22,0,0,1,129.78,89.29Z"/><path class="8024f822-8c7c-4fb9-820b-d6b9f7c9cf84" d="M51.53,38.57a1.58,1.58,0,0,1,0,3.16H48.74a.82.82,0,0,0-.78.82v6.11a1.61,1.61,0,0,1-1.64,1.6,1.57,1.57,0,0,1-1.59-1.6V42.55a.82.82,0,0,0-.82-.82H27.1a.83.83,0,0,0-.83.82v6.11a1.57,1.57,0,0,1-1.59,1.6A1.61,1.61,0,0,1,23,48.66V42.55a.82.82,0,0,0-.82-.82H19.47a1.58,1.58,0,0,1,0-3.16h2.75A.81.81,0,0,0,23,37.8V26.89a3,3,0,0,1,3-3h7a.79.79,0,0,0,.82-.78v-2a.82.82,0,0,0-.82-.82H20.94a1.64,1.64,0,0,1-1.63-1.64,1.6,1.6,0,0,1,1.63-1.6H50.06a1.61,1.61,0,0,1,1.64,1.6,1.65,1.65,0,0,1-1.64,1.64H38a.82.82,0,0,0-.82.82v2a.79.79,0,0,0,.82.78h7a3,3,0,0,1,3,3V37.8a.8.8,0,0,0,.78.77ZM33.86,27.83a.79.79,0,0,0-.82-.78H27.1a.79.79,0,0,0-.83.78V30.5a.79.79,0,0,0,.83.78H33a.79.79,0,0,0,.82-.78Zm-6.76,6.6a.79.79,0,0,0-.83.78V37.8a.81.81,0,0,0,.83.77H33a.81.81,0,0,0,.82-.77V35.21a.79.79,0,0,0-.82-.78Zm17.63-6.6a.79.79,0,0,0-.82-.78H38a.79.79,0,0,0-.82.78V30.5a.79.79,0,0,0,.82.78h5.95a.79.79,0,0,0,.82-.78Zm-7.59,10a.81.81,0,0,0,.82.77h5.95a.81.81,0,0,0,.82-.77V35.21a.79.79,0,0,0-.82-.78H38a.79.79,0,0,0-.82.78Z"/><path class="8024f822-8c7c-4fb9-820b-d6b9f7c9cf84" d="M60.1,20.62a1.71,1.71,0,1,1,0-3.41h8.24a1.71,1.71,0,1,1,0,3.41H66.78a.82.82,0,0,0-.82.82v4.88a.73.73,0,0,0,.74.73h1.07a1.75,1.75,0,0,1,0,3.49H66.7a.77.77,0,0,0-.74.78v6.84a.58.58,0,0,0,.74.54l1.6-.62a1.34,1.34,0,0,1,1.76,1.23,2.73,2.73,0,0,1-1.8,2.54l-8,3a1.33,1.33,0,0,1-1.76-1.23,2.69,2.69,0,0,1,1.76-2.5l1.52-.54a1.14,1.14,0,0,0,.74-1.06V31.32a.77.77,0,0,0-.74-.78H60.67a1.75,1.75,0,1,1,0-3.49h1.07a.73.73,0,0,0,.74-.73V21.44a.79.79,0,0,0-.78-.82ZM88,45.18a.79.79,0,0,0,.78.82h3.65a1.74,1.74,0,0,1,1.76,1.76,1.78,1.78,0,0,1-1.76,1.76h-5a3,3,0,0,1-3-3v-15a.79.79,0,0,0-.82-.78H81.87a.92.92,0,0,0-.9.78l-2.42,16.2a2.07,2.07,0,0,1-2,1.76,1.57,1.57,0,0,1-1.56-1.76l2.46-16.2a.71.71,0,0,0-.69-.78h-2a1.82,1.82,0,0,1-1.81-1.8,1.78,1.78,0,0,1,1.81-1.76H92A1.74,1.74,0,0,1,93.8,28.9,1.78,1.78,0,0,1,92,30.7H88.76a.76.76,0,0,0-.78.78Zm2.3-28a1.79,1.79,0,0,1,0,3.57H76.42a1.79,1.79,0,0,1,0-3.57Z"/><path class="8024f822-8c7c-4fb9-820b-d6b9f7c9cf84" d="M130.54,31a.3.3,0,0,0,.29-.33,1.07,1.07,0,0,1,1.06-1.27h.62a2.21,2.21,0,0,1,2.21,1.84l.16.82a2.25,2.25,0,0,1-2.25,2.63H101.8a1.85,1.85,0,1,1,0-3.69Z"/><path class="8024f822-8c7c-4fb9-820b-d6b9f7c9cf84" d="M143.12,46.65a1.34,1.34,0,0,1-1.27-1.76l2.26-7.22a2.6,2.6,0,0,1,2.46-1.76,1.35,1.35,0,0,1,1.31,1.76l-2.34,7.22A2.51,2.51,0,0,1,143.12,46.65Zm4.23-23.12a1.29,1.29,0,0,1-1.19,1.8,3,3,0,0,1-2.75-1.8l-.78-1.77A1.26,1.26,0,0,1,143.78,20a3.05,3.05,0,0,1,2.79,1.76Zm10.86-.17a1,1,0,0,0-.94.78l-1.15,5.09a2.27,2.27,0,0,1-2.21,1.8,1.47,1.47,0,0,1-1.44-1.8L155,18a2.27,2.27,0,0,1,2.21-1.76A1.42,1.42,0,0,1,158.62,18l-.2,1.07a.58.58,0,0,0,.57.74H171.7a2.56,2.56,0,0,1,2.54,2.95l-.65,4.76a2.09,2.09,0,0,1-2.05,1.8,1.57,1.57,0,0,1-1.56-1.8l.45-3.37a.69.69,0,0,0-.65-.82Zm4.92,2.05a1.79,1.79,0,0,1,1.81,1.77v7.09a2.79,2.79,0,0,0,.41,1.48l7.09,12.3a1.2,1.2,0,0,1-1,1.8,3.55,3.55,0,0,1-3.08-1.8l-4.72-8.16a.45.45,0,0,0-.77,0l-4.39,8.16a3.37,3.37,0,0,1-3,1.8,1.23,1.23,0,0,1-1.07-1.8l6.6-12.3a3.15,3.15,0,0,0,.37-1.48V27.18A1.75,1.75,0,0,1,163.13,25.41Z"/><path d="M51.53,38.57a1.58,1.58,0,0,1,0,3.16H48.74a.82.82,0,0,0-.78.82v6.11a1.61,1.61,0,0,1-1.64,1.6,1.57,1.57,0,0,1-1.59-1.6V42.55a.82.82,0,0,0-.82-.82H27.1a.83.83,0,0,0-.83.82v6.11a1.57,1.57,0,0,1-1.59,1.6A1.61,1.61,0,0,1,23,48.66V42.55a.82.82,0,0,0-.82-.82H19.47a1.58,1.58,0,0,1,0-3.16h2.75A.81.81,0,0,0,23,37.8V26.89a3,3,0,0,1,3-3h7a.79.79,0,0,0,.82-.78v-2a.82.82,0,0,0-.82-.82H20.94a1.64,1.64,0,0,1-1.63-1.64,1.6,1.6,0,0,1,1.63-1.6H50.06a1.61,1.61,0,0,1,1.64,1.6,1.65,1.65,0,0,1-1.64,1.64H38a.82.82,0,0,0-.82.82v2a.79.79,0,0,0,.82.78h7a3,3,0,0,1,3,3V37.8a.8.8,0,0,0,.78.77ZM33.86,27.83a.79.79,0,0,0-.82-.78H27.1a.79.79,0,0,0-.83.78V30.5a.79.79,0,0,0,.83.78H33a.79.79,0,0,0,.82-.78Zm-6.76,6.6a.79.79,0,0,0-.83.78V37.8a.81.81,0,0,0,.83.77H33a.81.81,0,0,0,.82-.77V35.21a.79.79,0,0,0-.82-.78Zm17.63-6.6a.79.79,0,0,0-.82-.78H38a.79.79,0,0,0-.82.78V30.5a.79.79,0,0,0,.82.78h5.95a.79.79,0,0,0,.82-.78Zm-7.59,10a.81.81,0,0,0,.82.77h5.95a.81.81,0,0,0,.82-.77V35.21a.79.79,0,0,0-.82-.78H38a.79.79,0,0,0-.82.78Z"/><path d="M60.1,20.62a1.71,1.71,0,1,1,0-3.41h8.24a1.71,1.71,0,1,1,0,3.41H66.78a.82.82,0,0,0-.82.82v4.88a.73.73,0,0,0,.74.73h1.07a1.75,1.75,0,0,1,0,3.49H66.7a.77.77,0,0,0-.74.78v6.84a.58.58,0,0,0,.74.54l1.6-.62a1.34,1.34,0,0,1,1.76,1.23,2.73,2.73,0,0,1-1.8,2.54l-8,3a1.33,1.33,0,0,1-1.76-1.23,2.69,2.69,0,0,1,1.76-2.5l1.52-.54a1.14,1.14,0,0,0,.74-1.06V31.32a.77.77,0,0,0-.74-.78H60.67a1.75,1.75,0,1,1,0-3.49h1.07a.73.73,0,0,0,.74-.73V21.44a.79.79,0,0,0-.78-.82ZM88,45.18a.79.79,0,0,0,.78.82h3.65a1.74,1.74,0,0,1,1.76,1.76,1.78,1.78,0,0,1-1.76,1.76h-5a3,3,0,0,1-3-3v-15a.79.79,0,0,0-.82-.78H81.87a.92.92,0,0,0-.9.78l-2.42,16.2a2.07,2.07,0,0,1-2,1.76,1.57,1.57,0,0,1-1.56-1.76l2.46-16.2a.71.71,0,0,0-.69-.78h-2a1.82,1.82,0,0,1-1.81-1.8,1.78,1.78,0,0,1,1.81-1.76H92A1.74,1.74,0,0,1,93.8,28.9,1.78,1.78,0,0,1,92,30.7H88.76a.76.76,0,0,0-.78.78Zm2.3-28a1.79,1.79,0,0,1,0,3.57H76.42a1.79,1.79,0,0,1,0-3.57Z"/><path d="M130.54,31a.3.3,0,0,0,.29-.33,1.07,1.07,0,0,1,1.06-1.27h.62a2.21,2.21,0,0,1,2.21,1.84l.16.82a2.25,2.25,0,0,1-2.25,2.63H101.8a1.85,1.85,0,1,1,0-3.69Z"/><path d="M143.12,46.65a1.34,1.34,0,0,1-1.27-1.76l2.26-7.22a2.6,2.6,0,0,1,2.46-1.76,1.35,1.35,0,0,1,1.31,1.76l-2.34,7.22A2.51,2.51,0,0,1,143.12,46.65Zm4.23-23.12a1.29,1.29,0,0,1-1.19,1.8,3,3,0,0,1-2.75-1.8l-.78-1.77A1.26,1.26,0,0,1,143.78,20a3.05,3.05,0,0,1,2.79,1.76Zm10.86-.17a1,1,0,0,0-.94.78l-1.15,5.09a2.27,2.27,0,0,1-2.21,1.8,1.47,1.47,0,0,1-1.44-1.8L155,18a2.27,2.27,0,0,1,2.21-1.76A1.42,1.42,0,0,1,158.62,18l-.2,1.07a.58.58,0,0,0,.57.74H171.7a2.56,2.56,0,0,1,2.54,2.95l-.65,4.76a2.09,2.09,0,0,1-2.05,1.8,1.57,1.57,0,0,1-1.56-1.8l.45-3.37a.69.69,0,0,0-.65-.82Zm4.92,2.05a1.79,1.79,0,0,1,1.81,1.77v7.09a2.79,2.79,0,0,0,.41,1.48l7.09,12.3a1.2,1.2,0,0,1-1,1.8,3.55,3.55,0,0,1-3.08-1.8l-4.72-8.16a.45.45,0,0,0-.77,0l-4.39,8.16a3.37,3.37,0,0,1-3,1.8,1.23,1.23,0,0,1-1.07-1.8l6.6-12.3a3.15,3.15,0,0,0,.37-1.48V27.18A1.75,1.75,0,0,1,163.13,25.41Z"/></svg>