<svg id="3b65bae5-7d8d-425f-8aa0-11b8fb2889af" data-name="圖層 1" xmlns="http://www.w3.org/2000/svg" viewBox="0 0 100 100"><defs><style>.\33 5fc667a-4987-4e4f-9bd5-e6d8a4620029,.\36 64f0ee3-096f-4791-9845-11cdefe1b8b2{fill:#fff;}.\33 5fc667a-4987-4e4f-9bd5-e6d8a4620029{stroke:#fff;stroke-miterlimit:10;stroke-width:4px;}.e692f623-6024-4ea2-8feb-531d8032257e{fill:#a44a4a;}.\35 f8e78a5-19cd-4517-8e9b-af02b3f66e3c{fill:#b46845;}</style></defs><title>dino3-xs</title><path class="35fc667a-4987-4e4f-9bd5-e6d8a4620029" d="M92.88,36.26S90.34,33,88.34,32.42a8.25,8.25,0,0,0-5.27-5.13s-5.72-6.08-14.95,1c-4.93,3.8-3.51,11.1-3.51,11.1l-.2,3.83a6.41,6.41,0,0,1-4.56.89c-2.91-.38-12,2.11-17.48,6.85S20.28,59.68,7.92,57s22.9,10,28.57,10.51,5.27,3.35,9.77-.25c2.36-1.88,5,.57,5,.57L53.71,69a18,18,0,0,0-2.27,2.93c-.51,1-3.25,3.36-3.25,3.36s-1.16.11-.1,2.5,3.58,9.25,3.58,9.25.64,4.49,5.08,3.62a.77.77,0,0,0,.87-.78c.87,1.17,2.06,2.06,3.53,1.46,0,0,2.68.25,1.39-1.53l.09,0c1.67.06,3.33,1.32.1-1.92-2.26-2.25-4.28-2.52-5.29-2.47L56.86,85a9.49,9.49,0,0,0-2-1.08c-.87-.38-1.15-1.5-.65-2.92.55.58,1.42,1.52,2.7,2.91,2.4,2.61,2.55.14,2.55.14a9.88,9.88,0,0,0,6.25,2.48c4.06.23,2.28-1.63,2.28-1.63,1-2,5.4-1.45,5.4-1.45s-.32-.8-2.1-1.87-7.46-.2-7.46-.2c-5.36-2-5.91-3.92-5.73-4.93,4.14-3,6.54-4.38,5-9.28-.6-1.9-.28-3.26,3.48-2.22,3.38.94,6.48-2,7.28-2.81,1.62,2.28,3.75,3.93,6,1.92,4.62-4.22,8.68-5.25,10-7s-1.76-.92-1.45-1.76,1-.74-1.14-1.83-5.1,5-6.94,5.69S77.86,60,78,57a6.53,6.53,0,0,0-1.8-4.13l.4-1.83s2.91-4.48,1.74-6.26,8.14,1.72,8.14,1.72,1.61,2.17,4-1.14l.25-1s2.06.47,2.91-5.3A3.94,3.94,0,0,0,92.88,36.26Z"/><path class="e692f623-6024-4ea2-8feb-531d8032257e" d="M56.74,85.54s2.75-.85,6,2.38,1.57,2-.1,1.92S56.74,85.54,56.74,85.54Z"/><path class="e692f623-6024-4ea2-8feb-531d8032257e" d="M58.38,75.75s-2.29,2.82,5.44,5.65c0,0,5.67-.87,7.46.2s2.1,1.87,2.1,1.87-4.45-.55-5.4,1.45c0,0,1.78,1.86-2.28,1.63a9.88,9.88,0,0,1-6.25-2.48s-.15,2.47-2.55-.14l-3.4-3.67Z"/><path class="5f8e78a5-19cd-4517-8e9b-af02b3f66e3c" d="M92.88,36.26S90.34,33,88.34,32.42a8.25,8.25,0,0,0-5.27-5.13s-5.72-6.08-14.95,1c-4.93,3.8-3.51,11.1-3.51,11.1l-.2,3.83a6.41,6.41,0,0,1-4.56.89c-2.91-.38-12,2.11-17.48,6.85S20.28,59.68,7.92,57s22.9,10,28.57,10.51,5.27,3.35,9.77-.25c2.36-1.88,5,.57,5,.57L53.71,69a18,18,0,0,0-2.27,2.93c-.51,1-3.25,3.36-3.25,3.36s-1.16.11-.1,2.5,3.58,9.25,3.58,9.25.64,4.49,5.08,3.62c0,0,2.42.24-.8-4.11,0,0,1.91,6.14,5.2,4.79,0,0,4.1.38-.26-3.15-2.18-1.76-3.27-2.64-4-3.18a9.49,9.49,0,0,0-2-1.08c-1.69-.74-1.19-4.27,3.06-7.35s6.74-4.43,5.14-9.4c-.6-1.9-.28-3.26,3.48-2.22s7.16-2.7,7.46-3,2.6-10.92,2.6-10.92,2.91-4.48,1.74-6.26,8.14,1.72,8.14,1.72,1.61,2.17,4-1.14l.25-1s2.06.47,2.91-5.3A3.94,3.94,0,0,0,92.88,36.26Z"/><path class="5f8e78a5-19cd-4517-8e9b-af02b3f66e3c" d="M74.39,51.08s3.74,3,3.6,5.93.4,2.84,2.24,2.16,4.83-6.78,6.94-5.69,1.45,1,1.14,1.83,2.77,0,1.45,1.76-5.37,2.79-10,7-8.91-7.65-8.91-7.65Z"/><ellipse class="664f0ee3-096f-4791-9845-11cdefe1b8b2" cx="83.84" cy="32.23" rx="0.99" ry="0.84" transform="translate(-4.63 16.68) rotate(-11.06)"/><path class="664f0ee3-096f-4791-9845-11cdefe1b8b2" d="M73.21,32a28,28,0,0,1,2.32,2,12.6,12.6,0,0,1,2,2.42,4.53,4.53,0,0,1,.34.74l.2.73a1.44,1.44,0,0,0,.91.82,6.34,6.34,0,0,0,2.85.16h.07a4.48,4.48,0,0,1,2.76,1,2.81,2.81,0,0,1,.52.62,2.47,2.47,0,0,1,.19.36c.05.14.08.14.11.23a3.25,3.25,0,0,0,.79.78,16.21,16.21,0,0,0,2.17,1.35c.77.41,1.56.8,2.35,1.2l0,.1a17.52,17.52,0,0,1-2.58-.69,11.13,11.13,0,0,1-2.47-1.17,3.59,3.59,0,0,1-1.1-1L84.27,41a1.53,1.53,0,0,0-.31-.41,3.78,3.78,0,0,0-2.11-.86h.07a7.27,7.27,0,0,1-3.22-.38,2.07,2.07,0,0,1-1.22-1.25l-.16-.76a4.21,4.21,0,0,0-.28-.66,11.76,11.76,0,0,0-1.74-2.45A27.77,27.77,0,0,0,73.15,32Z"/><path class="664f0ee3-096f-4791-9845-11cdefe1b8b2" d="M85.67,41.78a14.38,14.38,0,0,1-.43,1.46,11.35,11.35,0,0,1-.34-2.18Z"/><path class="664f0ee3-096f-4791-9845-11cdefe1b8b2" d="M84.93,41.05s-.31,1.25-.42,1.47a11.54,11.54,0,0,1-.35-2.19Z"/><path class="664f0ee3-096f-4791-9845-11cdefe1b8b2" d="M84.16,40.33s-.31,1.25-.42,1.47-.35-2.18-.35-2.18Z"/><polygon class="664f0ee3-096f-4791-9845-11cdefe1b8b2" points="87.32 43.19 86.59 44.28 86.64 42.69 87.32 43.19"/><polygon class="664f0ee3-096f-4791-9845-11cdefe1b8b2" points="88.91 43.83 87.96 45.04 88.02 43.33 88.91 43.83"/><polygon class="664f0ee3-096f-4791-9845-11cdefe1b8b2" points="90.3 44.26 89.29 45.37 89.29 43.95 90.3 44.26"/></svg>