<svg id="eb12dce6-7f64-48c2-8aa9-36c67f2629ba" data-name="圖層 1" xmlns="http://www.w3.org/2000/svg" viewBox="0 0 200 100"><defs><style>.\38 72d7b22-fa50-4d97-9706-613054e73fda{fill:#58381b;}.d07d6778-d5a8-4048-a2ac-7e96f0f5d182{fill:#be9b6d;}.b1c71317-996a-4129-a5f0-4e53638ea8d6{fill:#9a7243;}.cc5cc057-8563-4da0-8da9-07f1e79ae791{fill:#c7ae84;}.\35 42c706a-1d19-4460-a065-e841033eef42{fill:#785329;}.\30 902f05e-8948-4d32-b51f-256906a8a01f{font-size:31.1px;font-family:Mamelon-83pv-RKSJ-H, Mamelon;}.c0b6e209-19d5-4a55-8bb9-f431e2d9091f{fill:#fbb03b;stroke:#fbb03b;stroke-width:9px;}.\31 ced596a-4df3-4b59-9dc5-4b6d23a7aee7,.c0b6e209-19d5-4a55-8bb9-f431e2d9091f{stroke-miterlimit:10;}.\31 ced596a-4df3-4b59-9dc5-4b6d23a7aee7{stroke:#000;}</style></defs><title>dino-play</title><path class="872d7b22-fa50-4d97-9706-613054e73fda" d="M195.77,56c-1.8.91-3.05-1.94-3.07-4l-.07-5.49-.21-18.41c0-1,0-2,0-3.06a16.8,16.8,0,0,1,.81-4.93c1.32-3.83,4.5-8.34,1.72-11.3a4,4,0,0,0-.37-.34c-.9-.76-2.08-1.22-2.92-2a3.48,3.48,0,0,1-.5-.58c-.84-1.24-.65-2.9-1.13-4.32A3,3,0,0,0,188.74.11h-1.89a.74.74,0,0,0-.19.16,1,1,0,0,1,0-.16H16.82A12.51,12.51,0,0,0,19.17,9a11.84,11.84,0,0,0,5.24,4.17,13.55,13.55,0,0,0-2.18,6.26,39.94,39.94,0,0,0,.2,8.46c.12,1.15.23,2.31.35,3.47l1.51,15.13q.42,4.25.85,8.49l.18,1.8a37.19,37.19,0,0,1,.23,6.83,14.56,14.56,0,0,1-.69,3.4c-.41,1.17-1,2.27-1.47,3.42-.17.41-.33.84-.46,1.27-1,3.51,0,7.23.85,10.8,0,.06,0,.13,0,.19a70.11,70.11,0,0,1,1.71,14.64v0c0,.59,0,1.2-.05,1.81H192.32q.77-4.36,1.51-8.71l.29-1.67c-2.65-1.39-3.61-4.83-3.2-7.79a11.24,11.24,0,0,1,.26-1.31,58.59,58.59,0,0,1,2.7-7.16c.11-.29.2-.58.3-.87a32.88,32.88,0,0,0,1.61-6.7A33.42,33.42,0,0,0,195.77,56Z"/><path class="d07d6778-d5a8-4048-a2ac-7e96f0f5d182" d="M18.91,8.39c2.61-1.86,3.61-5,3.76-8.28H4A12.56,12.56,0,0,0,6.36,9a31,31,0,0,0,4,.87C13.26,10.24,16.49,10.12,18.91,8.39Z"/><path class="d07d6778-d5a8-4048-a2ac-7e96f0f5d182" d="M76.06,36.06a33.23,33.23,0,0,1,4.62-6.77c6-6.68,14.61-10.13,22.55-14.24A125.63,125.63,0,0,0,125.71.11H108.93Q84.87,13.58,61.87,28.85L72.53.11H48.86c0,.63,0,1.25,0,1.88.1,6.88-.33,13.94-3.06,20.26S37.71,34.07,30.94,35.33c-7,1.29-14-2-21-4l1.51,15.13c20.68-5.51,42.39-6.89,63.61-10.23Z"/><path class="b1c71317-996a-4129-a5f0-4e53638ea8d6" d="M30.94,35.33c6.77-1.26,12.17-6.76,14.91-13.08S49,8.87,48.91,2c0-.63,0-1.25,0-1.88H37a51.55,51.55,0,0,1-.82,6.66c-.75,3.92-2,7.92-4.91,10.7C27.19,21.39,20.9,22,15.37,21a48.56,48.56,0,0,1-5.94-1.58,39.94,39.94,0,0,0,.2,8.46c.11,1.15.23,2.31.35,3.47C16.92,33.36,24,36.62,30.94,35.33Z"/><path class="cc5cc057-8563-4da0-8da9-07f1e79ae791" d="M108.93.11H90.79A54.56,54.56,0,0,1,84,7.33a3.73,3.73,0,0,1-3,1.19c-1.83-.38-2.11-2.86-1.91-4.72q.21-1.86.48-3.69H72.53L61.87,28.85Q84.85,13.6,108.93.11Z"/><path class="542c706a-1d19-4460-a065-e841033eef42" d="M31.24,17.47c2.86-2.78,4.16-6.78,4.91-10.7A51.55,51.55,0,0,0,37,.11H22.67c-.15,3.29-1.15,6.42-3.76,8.28-2.42,1.73-5.65,1.85-8.59,1.43a31,31,0,0,1-4-.87,11.93,11.93,0,0,0,5.25,4.17,13.55,13.55,0,0,0-2.18,6.26A48.56,48.56,0,0,0,15.37,21C20.9,22,27.19,21.39,31.24,17.47Z"/><path class="542c706a-1d19-4460-a065-e841033eef42" d="M178.38,6c-.84-1.24-.65-2.9-1.13-4.32A3,3,0,0,0,175.94.11h-1.89a.74.74,0,0,0-.19.16,1,1,0,0,1-.05-.16h-3.67a166,166,0,0,1-56.21,37.11c-12.75,5.06-26.3,8.61-37.72,16.23-1.89,1.27-3.86,2.86-4.24,5.1,3.34,2.58,8.15,1,12-.74q35.72-15.9,69.76-35.28a236.43,236.43,0,0,0,25.14-16A3.48,3.48,0,0,1,178.38,6Z"/><path class="b1c71317-996a-4129-a5f0-4e53638ea8d6" d="M81,8.52a3.73,3.73,0,0,0,3-1.19A54.56,54.56,0,0,0,90.79.11H79.61q-.27,1.83-.48,3.69C78.93,5.66,79.21,8.14,81,8.52Z"/><path class="b1c71317-996a-4129-a5f0-4e53638ea8d6" d="M143,7.8c-17.67,17.12-42.58,24.35-66.9,28.26-5.76,11-6.7,24.82-13.32,35.42,5.35-.51,10.69-1.2,16-1.94,13.6-1.89,27.25-4,40.27-8.4s25.49-11.06,35-21C163.67,30,170.74,16.3,181.8,8.54c-.9-.76-2.08-1.22-2.92-2a236.43,236.43,0,0,1-25.14,16Q119.75,41.88,84,57.81c-3.86,1.72-8.67,3.32-12,.74.38-2.24,2.35-3.83,4.24-5.1,11.42-7.62,25-11.17,37.72-16.23A166,166,0,0,0,170.14.11H150.07C147.79,2.79,145.44,5.39,143,7.8Z"/><path class="d07d6778-d5a8-4048-a2ac-7e96f0f5d182" d="M80.68,29.29a33.23,33.23,0,0,0-4.62,6.77C100.38,32.15,125.29,24.92,143,7.8c2.48-2.41,4.83-5,7.11-7.69H125.71a125.63,125.63,0,0,1-22.48,14.94C95.29,19.16,86.64,22.61,80.68,29.29Z"/><path class="d07d6778-d5a8-4048-a2ac-7e96f0f5d182" d="M60.82,74.24c.69-.89,1.32-1.82,1.92-2.76a147.49,147.49,0,0,1-17.58.71c-11.54-.28-23-2.32-34.57-1.81-.17.41-.33.84-.46,1.27-1,3.51,0,7.23.85,10.8,7-1.32,14-3.9,20.7-6.38a7.88,7.88,0,0,1,3.65-.73,2.75,2.75,0,0,1,2.55,2.32A3.83,3.83,0,0,1,37,79.94,45.11,45.11,0,0,1,12.73,97.28v0c0,.59,0,1.2-.05,1.81h5.41c10.44-4.54,21.15-8.56,30.77-14.61A45.5,45.5,0,0,0,60.82,74.24Z"/><path class="b1c71317-996a-4129-a5f0-4e53638ea8d6" d="M92.7,92c12.92-3.38,26.3-4.59,39.36-7.33A170.84,170.84,0,0,0,183,64.9,33,33,0,0,0,183,56c-1.8.91-3.05-1.94-3.08-4l-.06-5.49c-3.09,9.1-10.18,17.16-18.6,22.15-12.68,7.52-27.79,9.5-42.46,10.9S89.05,82.1,75.6,88.12a62.33,62.33,0,0,0-16.66,11h25.9C84.43,95.5,89,92.94,92.7,92Z"/><path class="b1c71317-996a-4129-a5f0-4e53638ea8d6" d="M118.9,99.11h60.62q.76-4.36,1.51-8.71c-14.75,3.41-29.39,7.43-44,4.35,3.5-3.78,8.61-5.65,13.66-6.67s10.24-1.35,15.2-2.73a48.2,48.2,0,0,0,12.49-5.72,58.59,58.59,0,0,1,2.7-7.16c.11-.29.2-.58.3-.87C161,80.64,138,84.41,120.31,98Z"/><path class="542c706a-1d19-4460-a065-e841033eef42" d="M150.69,88.08c-5.05,1-10.16,2.89-13.66,6.67,14.61,3.08,29.25-.94,44-4.35l.29-1.67c-2.65-1.39-3.61-4.83-3.2-7.79a11.24,11.24,0,0,1,.26-1.31,48.2,48.2,0,0,1-12.49,5.72C160.93,86.73,155.74,87.05,150.69,88.08Z"/><path class="b1c71317-996a-4129-a5f0-4e53638ea8d6" d="M56.51,55.45c3.4-1.3,6.51-3.89,7.48-7.4-17.36-1.34-34.43,4.09-51.66,6.88l.18,1.8a36.34,36.34,0,0,1,.24,6.83c10.42-4.27,21.8-5.53,33-6.33C49.42,57,53.11,56.75,56.51,55.45Z"/><path class="542c706a-1d19-4460-a065-e841033eef42" d="M132.06,84.64C119,87.38,105.62,88.59,92.7,92c-3.74,1-8.27,3.53-7.86,7.14H118.9L120.31,98C138,84.41,161,80.64,181.38,71.6a32.21,32.21,0,0,0,1.6-6.7A170.84,170.84,0,0,1,132.06,84.64Z"/><path class="542c706a-1d19-4460-a065-e841033eef42" d="M45.16,72.19a147.49,147.49,0,0,0,17.58-.71C69.36,60.88,70.3,47,76.06,36.06l-1,.15c-21.22,3.34-42.93,4.72-63.61,10.23l.84,8.49c17.23-2.79,34.3-8.22,51.66-6.88-1,3.51-4.08,6.1-7.48,7.4S49.42,57,45.79,57.23c-11.24.8-22.62,2.06-33,6.33a14.08,14.08,0,0,1-.7,3.4c-.4,1.17-1,2.27-1.46,3.42C22.11,69.87,33.62,71.91,45.16,72.19Z"/><path class="542c706a-1d19-4460-a065-e841033eef42" d="M37,79.94a3.83,3.83,0,0,0,.91-2.28,2.75,2.75,0,0,0-2.55-2.32,7.88,7.88,0,0,0-3.65.73C25,78.55,18,81.13,11,82.45c0,.06,0,.13,0,.19a70.11,70.11,0,0,1,1.71,14.64A45.11,45.11,0,0,0,37,79.94Z"/><path class="cc5cc057-8563-4da0-8da9-07f1e79ae791" d="M61.28,84.24c9.09-4.4,19.56-4.55,29.58-5.87,17.12-2.24,33.53-8.08,49.8-13.88,5.6-2,11.34-4.07,15.8-8,5.86-5.15,8.75-12.77,12.91-19.36a55.9,55.9,0,0,1,10.26-12,17.48,17.48,0,0,1,.81-4.93c1.33-3.83,4.51-8.34,1.73-11.3l-.37-.34C170.74,16.3,163.67,30,154,40.15c-9.48,9.93-22,16.63-35,21s-26.67,6.51-40.27,8.4c-5.32.74-10.66,1.43-16,1.94-.6.94-1.23,1.87-1.92,2.76a45.5,45.5,0,0,1-12,10.26c-9.62,6-20.33,10.07-30.77,14.61H42.2l3.32-3C50.39,91.62,55.34,87.11,61.28,84.24Z"/><path class="d07d6778-d5a8-4048-a2ac-7e96f0f5d182" d="M118.77,79.63c14.67-1.4,29.78-3.38,42.46-10.9,8.42-5,15.51-13.05,18.6-22.15l-.21-18.41c0-1,0-2,0-3.06a55.9,55.9,0,0,0-10.26,12c-4.16,6.59-7.05,14.21-12.91,19.36-4.46,3.93-10.2,6-15.8,8-16.27,5.8-32.68,11.64-49.8,13.88-10,1.32-20.49,1.47-29.58,5.87-5.94,2.87-10.89,7.38-15.76,11.83l-3.32,3H58.94a62.33,62.33,0,0,1,16.66-11C89.05,82.1,104.1,81,118.77,79.63Z"/><text class="0902f05e-8948-4d32-b51f-256906a8a01f" transform="translate(71.9 90.22)">Start</text><path class="c0b6e209-19d5-4a55-8bb9-f431e2d9091f" d="M74.57,89.29a1.25,1.25,0,0,1,0-2.49h7.81a.42.42,0,0,0,.44-.4V78.94a.43.43,0,0,0-.44-.41H75.66a2.11,2.11,0,0,1-2.08-2.14v-6a2.09,2.09,0,0,1,2.08-2.11h8.71a1.19,1.19,0,0,1,1.18,1.21,1.22,1.22,0,0,1-1.18,1.24H76.56a.42.42,0,0,0-.4.44v4.51a.41.41,0,0,0,.4.4h6.72a2.13,2.13,0,0,1,2.12,2.15v9a2.13,2.13,0,0,1-2.12,2.15Z"/><path class="c0b6e209-19d5-4a55-8bb9-f431e2d9091f" d="M89.5,76.54a.25.25,0,0,0-.25-.25h-.18a1.16,1.16,0,0,1-1.18-1.18,1.18,1.18,0,0,1,1.18-1.18h.18a.23.23,0,0,0,.25-.25V70a1.29,1.29,0,1,1,2.58,0v3.51a.43.43,0,0,0,.44.44h1.62a1.22,1.22,0,0,1,1.18,1.18,1.2,1.2,0,0,1-1.18,1.18H92.52a.43.43,0,0,0-.44.44v9.79a.43.43,0,0,0,.44.44h2.11a1.17,1.17,0,0,1,0,2.33H92.3a2.81,2.81,0,0,1-2.8-2.83Z"/><path class="c0b6e209-19d5-4a55-8bb9-f431e2d9091f" d="M108,86.46a2.84,2.84,0,0,1-2.71,2.83H99.64a2.14,2.14,0,0,1-2.14-2.15V81.36a2.14,2.14,0,0,1,2.14-2.11H105a.42.42,0,0,0,.4-.44V76.73a.42.42,0,0,0-.4-.44H99a1.2,1.2,0,0,1-1.21-1.18A1.22,1.22,0,0,1,99,73.93h6.9A2.12,2.12,0,0,1,108,76Zm-8-4.38v4.44a.41.41,0,0,0,.41.44H105a.42.42,0,0,0,.4-.44V82.08a.42.42,0,0,0-.4-.44h-4.57A.41.41,0,0,0,100,82.08Z"/><path class="c0b6e209-19d5-4a55-8bb9-f431e2d9091f" d="M111.49,88V76a2.09,2.09,0,0,1,2.09-2.11h4.88a1.2,1.2,0,0,1,1.18,1.18,1.18,1.18,0,0,1-1.18,1.18h-4a.41.41,0,0,0-.41.44V88a1.29,1.29,0,1,1-2.58,0Z"/><path class="c0b6e209-19d5-4a55-8bb9-f431e2d9091f" d="M121.85,76.54a.25.25,0,0,0-.25-.25h-.19a1.16,1.16,0,0,1-1.18-1.18,1.18,1.18,0,0,1,1.18-1.18h.19a.24.24,0,0,0,.25-.25V70a1.29,1.29,0,1,1,2.58,0v3.51a.43.43,0,0,0,.43.44h1.62a1.22,1.22,0,0,1,1.18,1.18,1.2,1.2,0,0,1-1.18,1.18h-1.62a.43.43,0,0,0-.43.44v9.79a.43.43,0,0,0,.43.44H127a1.17,1.17,0,0,1,0,2.33h-2.33a2.81,2.81,0,0,1-2.8-2.83Z"/><path class="1ced596a-4df3-4b59-9dc5-4b6d23a7aee7" d="M74.57,89.29a1.25,1.25,0,0,1,0-2.49h7.81a.42.42,0,0,0,.44-.4V78.94a.43.43,0,0,0-.44-.41H75.66a2.11,2.11,0,0,1-2.08-2.14v-6a2.09,2.09,0,0,1,2.08-2.11h8.71a1.19,1.19,0,0,1,1.18,1.21,1.22,1.22,0,0,1-1.18,1.24H76.56a.42.42,0,0,0-.4.44v4.51a.41.41,0,0,0,.4.4h6.72a2.13,2.13,0,0,1,2.12,2.15v9a2.13,2.13,0,0,1-2.12,2.15Z"/><path class="1ced596a-4df3-4b59-9dc5-4b6d23a7aee7" d="M89.5,76.54a.25.25,0,0,0-.25-.25h-.18a1.16,1.16,0,0,1-1.18-1.18,1.18,1.18,0,0,1,1.18-1.18h.18a.23.23,0,0,0,.25-.25V70a1.29,1.29,0,1,1,2.58,0v3.51a.43.43,0,0,0,.44.44h1.62a1.22,1.22,0,0,1,1.18,1.18,1.2,1.2,0,0,1-1.18,1.18H92.52a.43.43,0,0,0-.44.44v9.79a.43.43,0,0,0,.44.44h2.11a1.17,1.17,0,0,1,0,2.33H92.3a2.81,2.81,0,0,1-2.8-2.83Z"/><path class="1ced596a-4df3-4b59-9dc5-4b6d23a7aee7" d="M108,86.46a2.84,2.84,0,0,1-2.71,2.83H99.64a2.14,2.14,0,0,1-2.14-2.15V81.36a2.14,2.14,0,0,1,2.14-2.11H105a.42.42,0,0,0,.4-.44V76.73a.42.42,0,0,0-.4-.44H99a1.2,1.2,0,0,1-1.21-1.18A1.22,1.22,0,0,1,99,73.93h6.9A2.12,2.12,0,0,1,108,76Zm-8-4.38v4.44a.41.41,0,0,0,.41.44H105a.42.42,0,0,0,.4-.44V82.08a.42.42,0,0,0-.4-.44h-4.57A.41.41,0,0,0,100,82.08Z"/><path class="1ced596a-4df3-4b59-9dc5-4b6d23a7aee7" d="M111.49,88V76a2.09,2.09,0,0,1,2.09-2.11h4.88a1.2,1.2,0,0,1,1.18,1.18,1.18,1.18,0,0,1-1.18,1.18h-4a.41.41,0,0,0-.41.44V88a1.29,1.29,0,1,1-2.58,0Z"/><path class="1ced596a-4df3-4b59-9dc5-4b6d23a7aee7" d="M121.85,76.54a.25.25,0,0,0-.25-.25h-.19a1.16,1.16,0,0,1-1.18-1.18,1.18,1.18,0,0,1,1.18-1.18h.19a.24.24,0,0,0,.25-.25V70a1.29,1.29,0,1,1,2.58,0v3.51a.43.43,0,0,0,.43.44h1.62a1.22,1.22,0,0,1,1.18,1.18,1.2,1.2,0,0,1-1.18,1.18h-1.62a.43.43,0,0,0-.43.44v9.79a.43.43,0,0,0,.43.44H127a1.17,1.17,0,0,1,0,2.33h-2.33a2.81,2.81,0,0,1-2.8-2.83Z"/><path class="c0b6e209-19d5-4a55-8bb9-f431e2d9091f" d="M33.65,8.25a2.11,2.11,0,0,1,2.13,2.13v4.7a1,1,0,0,0,.94,1h1.59a2.16,2.16,0,1,1,0,4.31H36.72a1,1,0,0,0-.94.94v5.54a.62.62,0,0,0,.89.55l1.68-.79A1.52,1.52,0,0,1,40.48,28a3.7,3.7,0,0,1-2.17,3.37l-1.64.74a1.53,1.53,0,0,0-.89,1.39v16a2.13,2.13,0,0,1-4.26,0v-14a.61.61,0,0,0-.89-.55l-1.38.6a1.51,1.51,0,0,1-2.13-1.39,3.73,3.73,0,0,1,2.13-3.37l1.38-.59a1.52,1.52,0,0,0,.89-1.39V21.32a.93.93,0,0,0-.94-.94H29.25a2.16,2.16,0,0,1,0-4.31h1.33a.93.93,0,0,0,.94-.94V10.38A2.11,2.11,0,0,1,33.65,8.25ZM58.7,20.68a1,1,0,0,0,1,.94h6.14a3.59,3.59,0,0,1,3.56,3.61V45.72a3.55,3.55,0,0,1-3.56,3.57H47.51A3.55,3.55,0,0,1,44,45.72V25.23a3.59,3.59,0,0,1,3.56-3.61H53.6a.91.91,0,0,0,.94-.94v-9.8A2.09,2.09,0,0,1,56.62,8.8a2.06,2.06,0,0,1,2.08,2.08Zm-4.16,6a.93.93,0,0,0-.94-.94H49a1,1,0,0,0-1,.94v5.09a1,1,0,0,0,1,1H53.6a.94.94,0,0,0,.94-1ZM49,36.81a1,1,0,0,0-1,1v6.49a1,1,0,0,0,1,1H53.6a1,1,0,0,0,.94-1V37.8a1,1,0,0,0-.94-1ZM65.28,26.67a.93.93,0,0,0-.94-.94H59.69a1,1,0,0,0-1,.94v5.09a1,1,0,0,0,1,1h4.65a.94.94,0,0,0,.94-1ZM58.7,44.29a1,1,0,0,0,1,1h4.65a1,1,0,0,0,.94-1V37.8a1,1,0,0,0-.94-1H59.69a1,1,0,0,0-1,1Z"/><path class="c0b6e209-19d5-4a55-8bb9-f431e2d9091f" d="M114,27.26a.35.35,0,0,0,.35-.4,1.29,1.29,0,0,1,1.28-1.53h.75A2.67,2.67,0,0,1,119,27.56l.2,1a2.72,2.72,0,0,1-2.73,3.16H79.29a2.23,2.23,0,1,1,0-4.45Z"/><path class="c0b6e209-19d5-4a55-8bb9-f431e2d9091f" d="M129.19,46.22a1.62,1.62,0,0,1-1.54-2.13l2.73-8.71a3.13,3.13,0,0,1,3-2.13,1.64,1.64,0,0,1,1.58,2.13l-2.82,8.71A3,3,0,0,1,129.19,46.22Zm5.1-27.92a1.57,1.57,0,0,1-1.44,2.18,3.66,3.66,0,0,1-3.32-2.18l-.94-2.13A1.52,1.52,0,0,1,130,14a3.7,3.7,0,0,1,3.37,2.13Zm13.11-.2a1.23,1.23,0,0,0-1.14.94l-1.38,6.14a2.75,2.75,0,0,1-2.67,2.18,1.78,1.78,0,0,1-1.74-2.18l3.07-13.51a2.76,2.76,0,0,1,2.67-2.13,1.73,1.73,0,0,1,1.69,2.13L147.65,13a.72.72,0,0,0,.69.9h15.35a3.1,3.1,0,0,1,3.07,3.56L166,23.15a2.51,2.51,0,0,1-2.48,2.18,1.9,1.9,0,0,1-1.88-2.18l.54-4.06a.84.84,0,0,0-.79-1Zm5.94,2.48a2.16,2.16,0,0,1,2.18,2.13v8.56a3.32,3.32,0,0,0,.5,1.78l8.56,14.85a1.46,1.46,0,0,1-1.24,2.18,4.26,4.26,0,0,1-3.71-2.18l-5.69-9.85a.55.55,0,0,0-.94,0l-5.3,9.85a4,4,0,0,1-3.61,2.18,1.49,1.49,0,0,1-1.29-2.18l8-14.85a3.75,3.75,0,0,0,.44-1.78V22.71A2.12,2.12,0,0,1,153.34,20.58Z"/><path class="1ced596a-4df3-4b59-9dc5-4b6d23a7aee7" d="M33.65,8.25a2.11,2.11,0,0,1,2.13,2.13v4.7a1,1,0,0,0,.94,1h1.59a2.16,2.16,0,1,1,0,4.31H36.72a1,1,0,0,0-.94.94v5.54a.62.62,0,0,0,.89.55l1.68-.79A1.52,1.52,0,0,1,40.48,28a3.7,3.7,0,0,1-2.17,3.37l-1.64.74a1.53,1.53,0,0,0-.89,1.39v16a2.13,2.13,0,0,1-4.26,0v-14a.61.61,0,0,0-.89-.55l-1.38.6a1.51,1.51,0,0,1-2.13-1.39,3.73,3.73,0,0,1,2.13-3.37l1.38-.59a1.52,1.52,0,0,0,.89-1.39V21.32a.93.93,0,0,0-.94-.94H29.25a2.16,2.16,0,0,1,0-4.31h1.33a.93.93,0,0,0,.94-.94V10.38A2.11,2.11,0,0,1,33.65,8.25ZM58.7,20.68a1,1,0,0,0,1,.94h6.14a3.59,3.59,0,0,1,3.56,3.61V45.72a3.55,3.55,0,0,1-3.56,3.57H47.51A3.55,3.55,0,0,1,44,45.72V25.23a3.59,3.59,0,0,1,3.56-3.61H53.6a.91.91,0,0,0,.94-.94v-9.8A2.09,2.09,0,0,1,56.62,8.8a2.06,2.06,0,0,1,2.08,2.08Zm-4.16,6a.93.93,0,0,0-.94-.94H49a1,1,0,0,0-1,.94v5.09a1,1,0,0,0,1,1H53.6a.94.94,0,0,0,.94-1ZM49,36.81a1,1,0,0,0-1,1v6.49a1,1,0,0,0,1,1H53.6a1,1,0,0,0,.94-1V37.8a1,1,0,0,0-.94-1ZM65.28,26.67a.93.93,0,0,0-.94-.94H59.69a1,1,0,0,0-1,.94v5.09a1,1,0,0,0,1,1h4.65a.94.94,0,0,0,.94-1ZM58.7,44.29a1,1,0,0,0,1,1h4.65a1,1,0,0,0,.94-1V37.8a1,1,0,0,0-.94-1H59.69a1,1,0,0,0-1,1Z"/><path class="1ced596a-4df3-4b59-9dc5-4b6d23a7aee7" d="M114,27.26a.35.35,0,0,0,.35-.4,1.29,1.29,0,0,1,1.28-1.53h.75A2.67,2.67,0,0,1,119,27.56l.2,1a2.72,2.72,0,0,1-2.73,3.16H79.29a2.23,2.23,0,1,1,0-4.45Z"/><path class="1ced596a-4df3-4b59-9dc5-4b6d23a7aee7" d="M129.19,46.22a1.62,1.62,0,0,1-1.54-2.13l2.73-8.71a3.13,3.13,0,0,1,3-2.13,1.64,1.64,0,0,1,1.58,2.13l-2.82,8.71A3,3,0,0,1,129.19,46.22Zm5.1-27.92a1.57,1.57,0,0,1-1.44,2.18,3.66,3.66,0,0,1-3.32-2.18l-.94-2.13A1.52,1.52,0,0,1,130,14a3.7,3.7,0,0,1,3.37,2.13Zm13.11-.2a1.23,1.23,0,0,0-1.14.94l-1.38,6.14a2.75,2.75,0,0,1-2.67,2.18,1.78,1.78,0,0,1-1.74-2.18l3.07-13.51a2.76,2.76,0,0,1,2.67-2.13,1.73,1.73,0,0,1,1.69,2.13L147.65,13a.72.72,0,0,0,.69.9h15.35a3.1,3.1,0,0,1,3.07,3.56L166,23.15a2.51,2.51,0,0,1-2.48,2.18,1.9,1.9,0,0,1-1.88-2.18l.54-4.06a.84.84,0,0,0-.79-1Zm5.94,2.48a2.16,2.16,0,0,1,2.18,2.13v8.56a3.32,3.32,0,0,0,.5,1.78l8.56,14.85a1.46,1.46,0,0,1-1.24,2.18,4.26,4.26,0,0,1-3.71-2.18l-5.69-9.85a.55.55,0,0,0-.94,0l-5.3,9.85a4,4,0,0,1-3.61,2.18,1.49,1.49,0,0,1-1.29-2.18l8-14.85a3.75,3.75,0,0,0,.44-1.78V22.71A2.12,2.12,0,0,1,153.34,20.58Z"/></svg>