<svg id="c65a62f5-3b81-4e36-b3fc-3c2bb658e4e3" data-name="圖層 1" xmlns="http://www.w3.org/2000/svg" xmlns:xlink="http://www.w3.org/1999/xlink" viewBox="0 0 506 205.13"><defs><style>.af2f92d8-3cad-4840-b5f7-402f98e4d200{fill:#c43955;}.\39 ac45a2e-59cf-40fe-9c46-d9fd97165bc0{fill:#48683c;}.d86a3660-ec7d-4a65-8ed3-2764f53a60ee{fill:url(#5a17b239-83af-4466-9bdd-b30c1f2cbd50);}.\35 a1ea075-782c-4f33-87b1-35295ba68e30{fill:url(#dcefc928-ce32-4ec8-baa6-09298401a379);}.\38 318e4f1-115e-4f3f-b6fc-37401659f23a{fill:url(#cc61cd49-3bc0-41e8-a6df-40f4ed6038ec);}.a2426103-d93e-45eb-9a26-48f23ffeec71{fill:#f2f2f2;}.\34 0b1e7cc-aab6-419b-a1aa-bd91758186e4{fill:url(#b6ae8707-8c6d-454a-9de5-044a2539b605);}.aaa6e7cd-91a5-49d5-b017-151120bc3f8a,.c8f87a29-46c1-49ec-8bb7-6824ea8fd3de{fill:none;stroke-miterlimit:10;stroke-width:3px;}.c8f87a29-46c1-49ec-8bb7-6824ea8fd3de{stroke:#c43955;}.aaa6e7cd-91a5-49d5-b017-151120bc3f8a{stroke:url(#1ab7fcc0-050d-418f-995e-b3f93a21f4f3);}</style><linearGradient id="5a17b239-83af-4466-9bdd-b30c1f2cbd50" x1="356.92" y1="302.33" x2="356.92" y2="302.33" gradientUnits="userSpaceOnUse"><stop offset="0" stop-color="#48683c"/><stop offset="1" stop-color="#48683c"/></linearGradient><linearGradient id="dcefc928-ce32-4ec8-baa6-09298401a379" x1="340.42" y1="319.59" x2="340.42" y2="319.59" xlink:href="#5a17b239-83af-4466-9bdd-b30c1f2cbd50"/><linearGradient id="cc61cd49-3bc0-41e8-a6df-40f4ed6038ec" x1="260.7" y1="319.59" x2="260.7" y2="319.59" xlink:href="#5a17b239-83af-4466-9bdd-b30c1f2cbd50"/><linearGradient id="b6ae8707-8c6d-454a-9de5-044a2539b605" x1="241.31" y1="269.92" x2="297.94" y2="269.92" xlink:href="#5a17b239-83af-4466-9bdd-b30c1f2cbd50"/><linearGradient id="1ab7fcc0-050d-418f-995e-b3f93a21f4f3" x1="274.85" y1="218.66" x2="274.85" y2="218.66" xlink:href="#5a17b239-83af-4466-9bdd-b30c1f2cbd50"/></defs><title>investor-logo</title><path class="af2f92d8-3cad-4840-b5f7-402f98e4d200" d="M117.49,338.44c.09,1.86.07,5.24.07,6.39,0,2.65-.17,4.94-.51,5.3-.09.22-.51.29-.94.29-.76,0-.85-.15-.85-1.08v-9.88c0-1.86.71-4.61.88-6.4a14,14,0,0,1-6.91,1.74H89.69c-2.64,0-5-1-7.44-1.88a65.09,65.09,0,0,1,.64,6.61c0,7.26.3,11.1-2.3,14.17L77,357.77a7.86,7.86,0,0,1-2,1.43l-.44.24S94.29,361,97.08,346.76h3.57v7.38c0,6.38,1.78,7.52,11.9,7.52,11.64,0,14.27-1.29,15.72-7.52.51-2.29.59-6.78.85-12.65C121.45,341.49,119.75,342,117.49,338.44Z" transform="translate(-47 -197.43)"/><path class="af2f92d8-3cad-4840-b5f7-402f98e4d200" d="M113.23,385.3a58.94,58.94,0,0,0,10.45-12.18A31.55,31.55,0,0,1,126,370l-7.82-7.23a34.77,34.77,0,0,1-5.09.28H79.47l-.08-.15-1.26-.13v-1.29c-3.14.64-3.91.79-6.29,1.22v-5.83l7.58-.09-.17-6.95a43.66,43.66,0,0,1,.06-4.89,24.77,24.77,0,0,1-3,.14H71.84v-4.37a39.84,39.84,0,0,1,.43-7.38H56.55a39.58,39.58,0,0,1,.42,7.38v4.37H54.51a39.84,39.84,0,0,1-6.12-.36v12.39a59.35,59.35,0,0,1,6-.29H57V365c-7,.86-7.15,1.17-9.66.48l1.94,11.62a2.13,2.13,0,0,0,2.58,1.5l1.57-.28c2.47-.36,2.47-.36,3.57-.57V387c0,1.86-.34,2.29-1.95,2.29-2,0-5.73,1.42-8-1.33l.12.83v12.32h.78c3.23.07,7.2.14,9.24.14,11,0,14.7-2.44,14.7-9.53v-1.29a53,53,0,0,1,3.39,5.32c1.87,3.39,6.47,5.09,10.69,3.94a68.81,68.81,0,0,0,13.54-5.17,69.71,69.71,0,0,0,15.32,5.29c4.36,1,9-.83,10.7-4.37s3.45-6.72,4.89-9.7C126.85,387.55,118.49,386.73,113.23,385.3ZM86.37,386a68.52,68.52,0,0,1-14.53,3.3V374.7c.85-.22,3-.72,6.29-1.51v1.72a59.34,59.34,0,0,1,6.8-.29h3.4l-9.6,3.44A63,63,0,0,0,86.37,386Zm13.52-6.44A25.58,25.58,0,0,1,94,374.62h11.39A24.08,24.08,0,0,1,99.89,379.57Z" transform="translate(-47 -197.43)"/><path class="af2f92d8-3cad-4840-b5f7-402f98e4d200" d="M155.2,338.46a96,96,0,0,0-12.35-5.59,1.29,1.29,0,0,1-.31-1.49l-.85,1.06h0l-8.93,8.67a67.91,67.91,0,0,1,12.92,6.8Z" transform="translate(-47 -197.43)"/><path class="af2f92d8-3cad-4840-b5f7-402f98e4d200" d="M193.52,389.45h2.63c4.93,0,5.7,0,8.25.14a46.49,46.49,0,0,1-.34-7.95v-16.9l9.26,1V354.14h-2a52,52,0,0,1-14-1.86c-4.76-1.43-7.73-3.58-9.18-6.45h6.12a20.6,20.6,0,0,1-2.8,2.37c4.67,1.29,7.56,2.22,13,4.15a62,62,0,0,0,5.18-6.59c2.63-3.79,2.72-3.94,3.31-4.65l-7.66-4.93-1-1.2a1.15,1.15,0,0,1-.05,1.1c-1.3.11-2.56.16-4.84.16H178.82c.68-1,.93-1.37,1.78-2.58l-15.8-1.36c-1.62,3.79-7.05,8.45-13.94,12a60.54,60.54,0,0,1,8.84,7.95,46,46,0,0,0,10.11-6.45h3.06c-2.29,4.23-8.16,7-17.84,8.38l-3.66-8.52a96.29,96.29,0,0,1-19.71,6.45l5.27,11.46A37.61,37.61,0,0,1,141,362a40.88,40.88,0,0,1,.17,5.08v15.55a49.07,49.07,0,0,1-.34,7c2.71-.14,3.4-.14,8.32-.14h2.64c-5.53,1.72-16.43,3.74-19.91,1.92a35.86,35.86,0,0,1,5.31,6.12,9.41,9.41,0,0,0,9.24,3.37c9.22-1.67,14.75-3.7,23.46-8.11l-9-3.3h22.18L175,392.67a76,76,0,0,0,13.59,5.52,81.42,81.42,0,0,0,10.07,2.52,10.63,10.63,0,0,0,10-3.34c1.54-1.88,3-3.52,4.92-6.22C208.61,392.94,199.72,391.17,193.52,389.45Zm-12.83-35a24.05,24.05,0,0,0,7.31,5.73H172.62C176.7,358.37,178.82,356.93,180.69,354.43Zm-31.53,5.73h-3.65c2.38-1,5.18-2.22,7.39-3.3a32.5,32.5,0,0,1,2.38,3.3ZM188.85,382H156v-1.43h32.89Zm0-7H156v-1.43h32.89Zm0-7H156v-1.43h32.89Z" transform="translate(-47 -197.43)"/><path class="af2f92d8-3cad-4840-b5f7-402f98e4d200" d="M287,385.75a48.12,48.12,0,0,1-17.58-21.28c-2.55-6.43-4-15.77-4-25.49a19.78,19.78,0,0,1,.51-4.82H248a29.83,29.83,0,0,1,.43,4.59,132.35,132.35,0,0,1-.94,15.08A50.54,50.54,0,0,1,242,371.74c-5.18,9.42-19.31,21-26,19.45.93,1.05,2.19,3.68,2.95,4.59,4.89,5.85,14.31,6.86,20.52,2.14,1.2-.92,2.35-1.86,3.47-2.83a50.32,50.32,0,0,0,14.79-21.2,55.86,55.86,0,0,0,11.64,18,61.52,61.52,0,0,0,6.28,5.72,15.32,15.32,0,0,0,21.09-2.42c.83-1.05,2.82-3.74,3.82-4.91C296.6,392.05,290.72,388.2,287,385.75Z" transform="translate(-47 -197.43)"/><path class="af2f92d8-3cad-4840-b5f7-402f98e4d200" d="M328.94,355.71l-15.13-3.42a6.82,6.82,0,0,1-1-1.12v.89h0c-1.53,12.82-5.44,22.71-12.83,32.37l1.19.51c8,3.53,17.82.34,20.94-6.76A106.56,106.56,0,0,0,328.94,355.71Z" transform="translate(-47 -197.43)"/><path class="af2f92d8-3cad-4840-b5f7-402f98e4d200" d="M344,335.31H334a6.4,6.4,0,0,1-.72-.7l.09.7h0a90,90,0,0,1,.59,11v41.25c0,1.37-.76,1.72-3.65,1.72-3.91,0-4.93-.07-11.39-.5a44.68,44.68,0,0,1,2.77,5.85c1.63,4.35,6.36,7.33,11.77,7.33h.08c6.37,0,9.94-.57,12.4-2,3.06-1.8,4.51-4.8,4.51-9.39V346.41c0-1.9,0-3.7.11-5.33C350.7,337.93,347.73,335.31,344,335.31Z" transform="translate(-47 -197.43)"/><path class="af2f92d8-3cad-4840-b5f7-402f98e4d200" d="M369.55,352.13h0l0-.92a7,7,0,0,1-1,1.16l-14.44,3.41a90.77,90.77,0,0,0,8.54,25.12c2.9,5.57,10.94,7.61,17.11,4.45,1.21-.62,2.5-1.23,3.92-1.86a53.36,53.36,0,0,1-9.18-14.82A59.24,59.24,0,0,1,369.55,352.13Z" transform="translate(-47 -197.43)"/><path class="af2f92d8-3cad-4840-b5f7-402f98e4d200" d="M462.69,381.05c-4.8-.51-9.81-1.29-10.29-3.62,0,9.09.08,11.38-1.87,12.24a24,24,0,0,1-6.12.5c-5.69,0-6.88-.28-6.88-1.71,0-2,6.12-8.53,13.08-13.68,2.16-1.64,4.22-3.1,6.2-4.4,4.16-2.73,4.85-7.81,1.57-11.29l-2.16-2.29c-2.38.21-4.33.29-7.73.29H432c1.11-1.44,1.53-1.94,2.64-3.44h21.67a93.25,93.25,0,0,1,10.62.36V341a100.31,100.31,0,0,1-10.62.43H441.69c.43-1,.68-1.57.94-2.29a27.68,27.68,0,0,1,1.61-3.65L431.46,334c-3.48-1-3-2.45-3-2.45l-.52,2h0c-.52,4.16-4.08,11.11-8.76,16.83v-3.65c0-3.94.09-6.06.26-8.42-1.33.76-4.42.62-8.41.62H396.4c-4,0-6.49.33-8.41-1.14.17,2.43.25,5.36.25,8.94v38.61c0,4.87-.08,11.36-.34,13.86h15V388.81h2.3V396h14.1c-.17-1.94-.17-6.79-.17-11.73V361.88c1.36,1.15,1.87,1.58,2.72,2.37v4.87c2.47-.22,4.34-.29,8.41-.29H438c-12.92,10-18.1,16.62-18.1,23.06a8.48,8.48,0,0,0,4.5,7.88c3.32,1.65,8.24,2.37,17.08,2.37a138.76,138.76,0,0,0,15.9-.86,12,12,0,0,0,7.22-3.44c2.1-2.33,3.24-5.25,3.88-10.66C468.88,384.14,466.29,381.42,462.69,381.05Zm-57.45-3.84h-2.3V350.64h2.3Z" transform="translate(-47 -197.43)"/><path class="af2f92d8-3cad-4840-b5f7-402f98e4d200" d="M511.79,351.86a13,13,0,0,1,2.38.21V339.61a63.09,63.09,0,0,1-7.31.29H502v-1.15a22.87,22.87,0,0,1,.42-4.22H489c-2.76-.51-3.09-1.71-3.09-1.71l.27,1.71a23.52,23.52,0,0,1,.43,4.36v1h-6.12a55.86,55.86,0,0,1-8.16-.36v12.53c1.28-.14,1.95-.21,3.65-.28a53.26,53.26,0,0,1,2,5.8,55.67,55.67,0,0,1-6.79-.36v12.82a73,73,0,0,1,9.17-.36h28.3a46.44,46.44,0,0,1,5.69.29V357.3a36.81,36.81,0,0,1-4.93.29A44.77,44.77,0,0,0,511.79,351.86ZM495,357.59h-1.87a44.49,44.49,0,0,0-1.87-5.8h5.61C496.15,354.29,495.64,355.72,495,357.59Z" transform="translate(-47 -197.43)"/><path class="af2f92d8-3cad-4840-b5f7-402f98e4d200" d="M544.42,363.6a166.51,166.51,0,0,0,7.31-16.76A16.65,16.65,0,0,1,553,344l-6.63-8a46.55,46.55,0,0,1-7.14.36H522.75c-1.88,0-3.38,0-4.89-.12-2.16-.56-2.43-1.57-2.43-1.57l.22,1.4h0a42.26,42.26,0,0,1,.26,5.08V394c0,2.65-.17,5.66-.43,8.53h15.81a55.21,55.21,0,0,1-.51-9V381.79c1.87,3.08,2.55,5.81,2.72,11.75,1.1.07,1.95.07,2.46.07,10.79,0,16.31-3.87,16.31-11.53a24.38,24.38,0,0,0-1.78-8.74A32.09,32.09,0,0,0,544.42,363.6Zm-13.68-15.18h4.84a58.12,58.12,0,0,1-4.84,14.47ZM533.29,381c-.68,0-1.62,0-2.55-.07V364.75c4.16,5,5.86,8.95,5.86,13.61C536.6,380.36,535.75,381,533.29,381Z" transform="translate(-47 -197.43)"/><path class="af2f92d8-3cad-4840-b5f7-402f98e4d200" d="M512.64,375.28a23.29,23.29,0,0,1,.25-4.16,35.1,35.1,0,0,1-6.12.22H481.88c-3.15,0-4.93-.07-7-.22a37.62,37.62,0,0,1,.34,5.66V395.4a48.56,48.56,0,0,1-.42,7.17H490V399h7.82v1.69H513a11,11,0,0,1-.34-3.12Zm-14.87,12.17H490v-4.58h7.82Z" transform="translate(-47 -197.43)"/><path class="9ac45a2e-59cf-40fe-9c46-d9fd97165bc0" d="M271.06,215.44s-5.73-17-22.21-13.26a32.08,32.08,0,0,0-22.09,17.2l1.79,16.12L241.31,248,245,237.88,249.45,225Z" transform="translate(-47 -197.43)"/><path class="d86a3660-ec7d-4a65-8ed3-2764f53a60ee" d="M356.92,302.33" transform="translate(-47 -197.43)"/><path class="5a1ea075-782c-4f33-87b1-35295ba68e30" d="M340.42,319.59" transform="translate(-47 -197.43)"/><path class="8318e4f1-115e-4f3f-b6fc-37401659f23a" d="M260.7,319.59" transform="translate(-47 -197.43)"/><path class="a2426103-d93e-45eb-9a26-48f23ffeec71" d="M316.53,317.45h-30.9c-21.92,0-44.42-.05-39.85-39.86V258.65c-.27-27.21,4.26-44.41,39.85-39.85h30.9c21.92,0,43.12.86,39.86,39.85v18.94A40,40,0,0,1,316.53,317.45Z" transform="translate(-47 -197.43)"/><path class="af2f92d8-3cad-4840-b5f7-402f98e4d200" d="M334.36,320.61H266.5a25.22,25.22,0,0,1-25.2-25.19V240.83a25.22,25.22,0,0,1,25.2-25.2h67.86a25.23,25.23,0,0,1,25.2,25.2v54.59A25.23,25.23,0,0,1,334.36,320.61ZM266.5,222a18.89,18.89,0,0,0-18.87,18.86v54.59c-2.12,13.22,8.47,18.86,18.87,18.86h67.86a18.88,18.88,0,0,0,18.86-18.86V240.83A18.88,18.88,0,0,0,334.36,222Z" transform="translate(-47 -197.43)"/><path class="40b1e7cc-aab6-419b-a1aa-bd91758186e4" d="M263.44,258.82a16.75,16.75,0,0,0-15.79-11.9v6.34c2.84.13,7.67,1.32,9.79,7.6,4.08,12,16.82,27.67,39.28,32.07l1.22-6.22C278.14,282.84,267,269.27,263.44,258.82Z" transform="translate(-47 -197.43)"/><path class="c8f87a29-46c1-49ec-8bb7-6824ea8fd3de" d="M334.36,218.8" transform="translate(-47 -197.43)"/><path class="c8f87a29-46c1-49ec-8bb7-6824ea8fd3de" d="M266.5,218.8" transform="translate(-47 -197.43)"/><path class="c8f87a29-46c1-49ec-8bb7-6824ea8fd3de" d="M244.47,240.83" transform="translate(-47 -197.43)"/><path class="9ac45a2e-59cf-40fe-9c46-d9fd97165bc0" d="M247.65,253.26l-4.89-.76a28.13,28.13,0,0,1,8.1-55.07A28,28,0,0,1,277,215.15l-6.65.52c-3.33-8.34-10.51-11.9-19.48-11.9a21.8,21.8,0,0,0-6.49,42.6l3.29.59Z" transform="translate(-47 -197.43)"/><path class="9ac45a2e-59cf-40fe-9c46-d9fd97165bc0" d="M263.44,258.82a16.76,16.76,0,0,0-16-11.9l.23,0v6.3c2.84.13,7.67,1.32,9.79,7.6,4.08,12,16.82,27.67,39.28,32.07l1.22-6.22C278.14,282.84,267,269.27,263.44,258.82Z" transform="translate(-47 -197.43)"/><path class="9ac45a2e-59cf-40fe-9c46-d9fd97165bc0" d="M244.47,247.1a15.78,15.78,0,0,1,3-.18l-3.06-.55a21.8,21.8,0,0,1,6.49-42.6c9,0,16.15,3.56,19.48,11.9l6.65-.52a28.11,28.11,0,1,0-35.68,36.78V248Z" transform="translate(-47 -197.43)"/><path class="c8f87a29-46c1-49ec-8bb7-6824ea8fd3de" d="M244.47,295.42" transform="translate(-47 -197.43)"/><path class="af2f92d8-3cad-4840-b5f7-402f98e4d200" d="M357.23,252.5l-1.81-6.07a21.79,21.79,0,1,0-27.22-26.9l-6.09-1.74a28.13,28.13,0,1,1,35.12,34.71Z" transform="translate(-47 -197.43)"/><path class="aaa6e7cd-91a5-49d5-b017-151120bc3f8a" d="M274.85,218.66" transform="translate(-47 -197.43)"/><circle class="af2f92d8-3cad-4840-b5f7-402f98e4d200" cx="236.61" cy="64.35" r="5.13"/><circle class="af2f92d8-3cad-4840-b5f7-402f98e4d200" cx="270.52" cy="64.35" r="5.13"/><circle class="af2f92d8-3cad-4840-b5f7-402f98e4d200" cx="253.78" cy="71.88" r="3.2"/><path class="9ac45a2e-59cf-40fe-9c46-d9fd97165bc0" d="M308.29,295.14c-2.58-2.43-8.69-2.38-10.62-2.17l-.68-6.3c1.07-.11,10.5-1,15.64,3.84Z" transform="translate(-47 -197.43)"/><path class="af2f92d8-3cad-4840-b5f7-402f98e4d200" d="M249.75,309.72" transform="translate(-47 -197.43)"/><path class="af2f92d8-3cad-4840-b5f7-402f98e4d200" d="M250.71,307.43" transform="translate(-47 -197.43)"/><path class="af2f92d8-3cad-4840-b5f7-402f98e4d200" d="M249.48,313.55c3.86,3.31,13.33,4.25,18.78,4.25h67.86a22.1,22.1,0,0,0,22-22V246.62l-.53-.17s-11.61-2.11-15.57,10.3-20.06,36.69-57.55,33c-25.21-2.48-32.06,8.54-33.57,16.34,0,0-1.32,6.94-6.51,1.62a24.61,24.61,0,0,0,3.31,4.46l1.54,1.54Z" transform="translate(-47 -197.43)"/><path class="9ac45a2e-59cf-40fe-9c46-d9fd97165bc0" d="M241.31,251.93v44.34a22.32,22.32,0,0,0,7.35,16.88l2.34-7c-3.6-3.31-3.35-5.23-3.35-9.91v-43l-4.89-.76C242.26,252.35,241.8,252.11,241.31,251.93Z" transform="translate(-47 -197.43)"/></svg>