<svg id="d231eef6-bfc7-4d0b-9532-49ffe36d0a8a" data-name="圖層 1" xmlns="http://www.w3.org/2000/svg" xmlns:xlink="http://www.w3.org/1999/xlink" viewBox="0 0 600 600"><defs><style>.d4b69ec9-2944-4544-9b14-7fe087705342{fill:#c43955;}.\36 60ed46a-7b37-4ab7-b7ce-31786d2aa492{fill:#48683c;}.\38 e9d0729-b6e1-43f3-b336-5da1eaae51ae{fill:#f2f2f2;}.c3d4d99c-9270-493b-b50f-6072f2394e3c{fill:url(#605b412e-084d-4da8-9585-c30c940a8789);}</style><linearGradient id="605b412e-084d-4da8-9585-c30c940a8789" x1="235.74" y1="267.07" x2="297.74" y2="267.07" gradientUnits="userSpaceOnUse"><stop offset="0" stop-color="#48683c"/><stop offset="1" stop-color="#48683c"/></linearGradient></defs><title>未命名-2</title><rect x="-7.5" y="-13.5" width="612" height="622"/><path class="d4b69ec9-2944-4544-9b14-7fe087705342" d="M100.18,342.09c.09,2,.07,5.74.07,7,0,2.9-.18,5.41-.56,5.81-.09.23-.55.31-1,.31-.84,0-.93-.16-.93-1.18V343.2c0-2,.77-5,1-7a15.34,15.34,0,0,1-7.55,1.9H69.74c-2.89,0-5.49-1.07-8.15-2.06a70.38,70.38,0,0,1,.7,7.24c0,7.94.33,12.15-2.51,15.51l-3.9,4.46a8,8,0,0,1-2.13,1.56l-.48.26s21.51,1.71,24.56-13.87h3.91v8.08c0,7,2,8.23,13,8.23,12.75,0,15.63-1.41,17.21-8.23.56-2.51.66-7.43.94-13.86C104.51,345.42,102.65,345.94,100.18,342.09Z"/><path class="d4b69ec9-2944-4544-9b14-7fe087705342" d="M95.51,393.39A64.15,64.15,0,0,0,107,380.06a33.9,33.9,0,0,1,2.51-3.37l-8.56-7.92a38.06,38.06,0,0,1-5.58.31H58.55l-.09-.16-1.37-.14v-1.42c-3.45.71-4.28.87-6.89,1.34v-6.38l8.3-.1-.19-7.61a49.68,49.68,0,0,1,.06-5.36,25.84,25.84,0,0,1-3.33.16H50.2v-4.79a42.83,42.83,0,0,1,.47-8.07H33.45a42.31,42.31,0,0,1,.47,8.07v4.79h-2.7a43.26,43.26,0,0,1-6.7-.4v13.57c2.61-.23,4.38-.31,6.52-.31h2.88v8.94c-7.72.94-7.83,1.28-10.58.52l2.12,12.73a2.33,2.33,0,0,0,2.83,1.64l1.72-.31c2.7-.39,2.7-.39,3.91-.62v10.11c0,2-.37,2.51-2.14,2.51-2.14,0-6.28,1.55-8.78-1.46,0,.32.09.62.13.91v13.49H24c3.53.08,7.88.15,10.12.15,12,0,16.09-2.66,16.09-10.42V399a58.88,58.88,0,0,1,3.71,5.83c2.05,3.7,7.09,5.57,11.7,4.31a75.21,75.21,0,0,0,14.83-5.67,75.3,75.3,0,0,0,16.77,5.79c4.78,1.15,9.8-.9,11.71-4.77s3.78-7.36,5.36-10.62C110.43,395.85,101.28,395,95.51,393.39Zm-29.4.78a74.6,74.6,0,0,1-15.91,3.61v-16l6.89-1.64V382a62.49,62.49,0,0,1,7.44-.32h3.72l-10.51,3.77A69.52,69.52,0,0,0,66.11,394.17Zm14.79-7.06a28.07,28.07,0,0,1-6.42-5.41H87A26,26,0,0,1,80.9,387.11Z"/><path class="d4b69ec9-2944-4544-9b14-7fe087705342" d="M141.46,342.1A105.69,105.69,0,0,0,127.94,336a1.42,1.42,0,0,1-.34-1.63l-.93,1.16h0L116.9,345A75.22,75.22,0,0,1,131,352.45Z"/><path class="d4b69ec9-2944-4544-9b14-7fe087705342" d="M183.42,397.94h2.88c5.4,0,6.24,0,9,.15-.28-1.72-.37-3.21-.37-8.7V370.88L205.1,372V359.28h-2.24a57.33,57.33,0,0,1-15.35-2c-5.21-1.57-8.46-3.92-10-7.06h6.69a21.75,21.75,0,0,1-3.07,2.59c5.12,1.41,8.28,2.43,14.24,4.55A68.07,68.07,0,0,0,201,350.1c2.89-4.15,3-4.31,3.63-5.09l-8.39-5.4-1.05-1.32a1.28,1.28,0,0,1-.06,1.22c-1.42.11-2.8.16-5.29.16H167.32c.75-1.09,1-1.49,2-2.82L152,335.36c-1.76,4.16-7.72,9.25-15.25,13.17a67,67,0,0,1,9.67,8.71,50.53,50.53,0,0,0,11.07-7.06h3.35c-2.51,4.63-8.93,7.69-19.54,9.18l-4-9.34a104.13,104.13,0,0,1-21.58,7.06l5.77,12.55a46.16,46.16,0,0,1,4.46-1.81,44,44,0,0,1,.19,5.57v17a52.85,52.85,0,0,1-.37,7.68c3-.15,3.72-.15,9.12-.15h2.88c-6.05,1.88-18,4.09-21.79,2.1a38.9,38.9,0,0,1,5.81,6.7,10.31,10.31,0,0,0,10.12,3.69c10.09-1.83,16.14-4.05,25.68-8.89l-9.87-3.6H172l-8.84,3.53a83.44,83.44,0,0,0,14.88,6,87.15,87.15,0,0,0,11,2.76,11.64,11.64,0,0,0,11-3.65c1.69-2.07,3.26-3.86,5.39-6.81C199.94,401.76,190.21,399.82,183.42,397.94Zm-14-38.35a26.16,26.16,0,0,0,8,6.27H160.53C165,363.9,167.32,362.34,169.37,359.59Zm-34.51,6.27h-4c2.61-1.09,5.68-2.43,8.1-3.6a36.19,36.19,0,0,1,2.6,3.6Zm43.44,23.92h-36v-1.57h36Zm0-7.68h-36v-1.57h36Zm0-7.69h-36v-1.57h36Z"/><path class="d4b69ec9-2944-4544-9b14-7fe087705342" d="M285.75,393.88a52.67,52.67,0,0,1-19.26-23.29c-2.79-7-4.37-17.27-4.37-27.91a21.36,21.36,0,0,1,.56-5.28H243.05a33.2,33.2,0,0,1,.46,5,146.48,146.48,0,0,1-1,16.51,55.51,55.51,0,0,1-6.05,19.61c-5.67,10.31-21.14,23-28.47,21.29,1,1.15,2.39,4,3.22,5,5.36,6.41,15.67,7.52,22.47,2.35q2-1.51,3.8-3.1a55,55,0,0,0,16.19-23.22,61.11,61.11,0,0,0,12.75,19.7,67.71,67.71,0,0,0,6.88,6.26c7,5.52,17.73,4.21,23.08-2.65.91-1.15,3.09-4.1,4.18-5.38C296.28,400.78,289.84,396.57,285.75,393.88Z"/><path class="d4b69ec9-2944-4544-9b14-7fe087705342" d="M331.68,361l-16.56-3.75A6.88,6.88,0,0,1,314,356v1h0c-1.68,14-6,24.86-14.05,35.44l1.3.56c8.7,3.86,19.51.37,22.93-7.41A116.89,116.89,0,0,0,331.68,361Z"/><path class="d4b69ec9-2944-4544-9b14-7fe087705342" d="M348.17,338.66H337.22a6.58,6.58,0,0,1-.79-.77l.09.77h0a99,99,0,0,1,.65,12v45.17c0,1.49-.84,1.88-4,1.88-4.28,0-5.39-.08-12.46-.55a48.88,48.88,0,0,1,3,6.4c1.79,4.76,7,8,12.89,8h.09c7,0,10.88-.63,13.58-2.2,3.35-2,4.93-5.25,4.93-10.27v-48.3c0-2.08,0-4.05.13-5.85C355.51,341.53,352.26,338.66,348.17,338.66Z"/><path class="d4b69ec9-2944-4544-9b14-7fe087705342" d="M376.15,357.08h0v-1a7.27,7.27,0,0,1-1.1,1.26l-15.81,3.74a99.85,99.85,0,0,0,9.35,27.51c3.17,6.1,12,8.33,18.73,4.87,1.32-.68,2.74-1.35,4.3-2a58.13,58.13,0,0,1-10.05-16.24A64.37,64.37,0,0,1,376.15,357.08Z"/><path class="d4b69ec9-2944-4544-9b14-7fe087705342" d="M478.13,388.73c-5.26-.55-10.75-1.4-11.28-4,0,10,.1,12.47-2,13.41a26.63,26.63,0,0,1-6.7.55c-6.23,0-7.54-.31-7.54-1.88,0-2.2,6.7-9.33,14.33-15,2.36-1.79,4.62-3.39,6.79-4.82,4.55-3,5.3-8.54,1.71-12.35L471,362.19c-2.6.23-4.74.31-8.47.31h-18c1.21-1.57,1.67-2.12,2.88-3.76h23.72a104.07,104.07,0,0,1,11.63.39V344.86a111.8,111.8,0,0,1-11.63.47h-16c.47-1.1.75-1.73,1-2.51a30.58,30.58,0,0,1,1.76-4l-14-1.6c-3.81-1.08-3.3-2.68-3.3-2.68l-.58,2.24h0c-.56,4.55-4.47,12.16-9.58,18.43v-4c0-4.31.09-6.63.28-9.22-1.46.83-4.84.67-9.21.67h-16c-4.37,0-7.1.37-9.21-1.24.19,2.66.28,5.87.28,9.79v42.27c0,5.33-.09,12.43-.37,15.18h16.47V397.24h2.51v7.82h15.44c-.18-2.12-.18-7.43-.18-12.84V367.75c1.49,1.26,2,1.73,3,2.59v5.33c2.7-.23,4.75-.31,9.22-.31h8.46c-14.14,10.9-19.81,18.19-19.81,25.25a9.29,9.29,0,0,0,4.93,8.63c3.62,1.8,9,2.58,18.7,2.58a151.16,151.16,0,0,0,17.4-.94,13.15,13.15,0,0,0,7.91-3.76c2.3-2.55,3.54-5.75,4.25-11.67C484.9,392.13,482.06,389.15,478.13,388.73Zm-62.91-4.19h-2.51v-29.1h2.51Z"/><path class="d4b69ec9-2944-4544-9b14-7fe087705342" d="M531.88,356.78a13.6,13.6,0,0,1,2.6.23V343.37a71.77,71.77,0,0,1-8,.31h-5.3v-1.25a24.54,24.54,0,0,1,.47-4.63H507c-3-.55-3.38-1.86-3.38-1.86l.3,1.86a27.19,27.19,0,0,1,.46,4.78v1.1h-6.7a62.47,62.47,0,0,1-8.93-.39V357c1.4-.16,2.14-.23,4-.31a58.37,58.37,0,0,1,2.23,6.35,63.56,63.56,0,0,1-7.44-.39v14a81.84,81.84,0,0,1,10.05-.39h31a51.06,51.06,0,0,1,6.23.32V362.74a43.13,43.13,0,0,1-5.39.31A49.68,49.68,0,0,0,531.88,356.78Zm-18.42,6.27h-2.05a47.36,47.36,0,0,0-2.05-6.35h6.14C514.76,359.44,514.2,361,513.46,363.05Z"/><path class="d4b69ec9-2944-4544-9b14-7fe087705342" d="M567.6,369.64a181.5,181.5,0,0,0,8-18.35,18.52,18.52,0,0,1,1.4-3.14l-7.26-8.78a50.57,50.57,0,0,1-7.81.39h-18c-2.06,0-3.71,0-5.35-.13-2.37-.61-2.67-1.71-2.67-1.71l.24,1.53h0a47.83,47.83,0,0,1,.27,5.56V403c0,2.9-.18,6.2-.46,9.34h17.3a60.94,60.94,0,0,1-.55-9.81V389.55c2,3.38,2.79,6.36,3,12.86,1.21.08,2.14.08,2.7.08,11.82,0,17.86-4.23,17.86-12.62a26.75,26.75,0,0,0-1.95-9.57C572.63,376.38,571.23,374,567.6,369.64Zm-15-16.63h5.3a63.59,63.59,0,0,1-5.3,15.84Zm2.79,35.68c-.75,0-1.77,0-2.79-.08V370.89c4.55,5.49,6.41,9.8,6.41,14.9C559,388,558.11,388.69,555.42,388.69Z"/><path class="d4b69ec9-2944-4544-9b14-7fe087705342" d="M532.81,382.42a24.9,24.9,0,0,1,.28-4.55c-1.49.24-2.23.24-6.7.24H499.13c-3.44,0-5.4-.08-7.63-.24a40.34,40.34,0,0,1,.37,6.19v20.39a51.92,51.92,0,0,1-.46,7.85H508v-3.93h8.56v1.85h16.65a12.22,12.22,0,0,1-.37-3.41Zm-16.28,13.33H508v-5h8.56Z"/><path class="660ed46a-7b37-4ab7-b7ce-31786d2aa492" d="M268.31,207.42S262,188.85,244,192.91a35.09,35.09,0,0,0-24.18,18.82l2,17.65,14,13.7L239.82,232l4.83-14.12Z"/><path class="8e9d0729-b6e1-43f3-b336-5da1eaae51ae" d="M318.1,319.1H284.27c-24,0-48.64-.05-43.64-43.64V254.73c-.29-29.8,4.68-48.62,43.64-43.64H318.1c24,0,47.21.94,43.64,43.64v20.73A43.77,43.77,0,0,1,318.1,319.1Z"/><path class="d4b69ec9-2944-4544-9b14-7fe087705342" d="M337.62,322.57h-74.3A27.63,27.63,0,0,1,235.73,295V235.21a27.62,27.62,0,0,1,27.59-27.58h74.3a27.62,27.62,0,0,1,27.59,27.58V295A27.63,27.63,0,0,1,337.62,322.57Zm-74.3-108a20.68,20.68,0,0,0-20.65,20.65V295c-2.33,14.48,9.26,20.65,20.65,20.65h74.3A20.67,20.67,0,0,0,358.27,295V235.21a20.68,20.68,0,0,0-20.65-20.65Z"/><path class="c3d4d99c-9270-493b-b50f-6072f2394e3c" d="M260,254.92a18.35,18.35,0,0,0-17.29-13v6.94c3.11.14,8.4,1.46,10.73,8.32,4.46,13.19,18.41,30.3,43,35.12l1.33-6.81C276.07,281.21,263.85,266.35,260,254.92Z"/><path class="660ed46a-7b37-4ab7-b7ce-31786d2aa492" d="M242.68,248.82l-5.34-.82a30.8,30.8,0,0,1,8.85-60.3,30.66,30.66,0,0,1,28.62,19.4l-7.29.57c-3.64-9.13-11.5-13-21.33-13a23.86,23.86,0,0,0-7.09,46.64l3.59.65Z"/><path class="660ed46a-7b37-4ab7-b7ce-31786d2aa492" d="M260,254.92a18.35,18.35,0,0,0-17.53-13l.25.05v6.89c3.11.14,8.4,1.46,10.73,8.32,4.46,13.19,18.41,30.3,43,35.12l1.33-6.81C276.07,281.21,263.85,266.35,260,254.92Z"/><path class="660ed46a-7b37-4ab7-b7ce-31786d2aa492" d="M239.2,242.09a17,17,0,0,1,3.24-.21l-3.34-.6a23.86,23.86,0,0,1,7.09-46.64c9.83,0,17.69,3.9,21.33,13l7.29-.57a30.78,30.78,0,1,0-39.07,40.27v-4.29Z"/><path class="d4b69ec9-2944-4544-9b14-7fe087705342" d="M362.66,248l-2-6.65a23.86,23.86,0,1,0-29.8-29.45L324.21,210a30.8,30.8,0,1,1,38.45,38Z"/><circle class="d4b69ec9-2944-4544-9b14-7fe087705342" cx="282.05" cy="258.16" r="5.61"/><circle class="d4b69ec9-2944-4544-9b14-7fe087705342" cx="319.18" cy="258.16" r="5.61"/><circle class="d4b69ec9-2944-4544-9b14-7fe087705342" cx="300.86" cy="266.41" r="3.5"/><path class="660ed46a-7b37-4ab7-b7ce-31786d2aa492" d="M309.08,294.67c-2.83-2.65-9.52-2.6-11.63-2.37l-.74-6.89c1.16-.13,11.49-1.06,17.11,4.2Z"/><path class="d4b69ec9-2944-4544-9b14-7fe087705342" d="M244.69,314.83c4.22,3.62,14.59,4.66,20.56,4.66h74.3a24.2,24.2,0,0,0,24.12-24.12V241.55l-.58-.18s-12.72-2.31-17,11.27-22,40.18-63,36.13c-27.6-2.72-35.1,9.35-36.76,17.89,0,0-1.44,7.6-7.12,1.77a27.52,27.52,0,0,0,3.62,4.89l1.68,1.68Z"/><path class="660ed46a-7b37-4ab7-b7ce-31786d2aa492" d="M235.74,247.37v48.55a24.47,24.47,0,0,0,8,18.48l2.56-7.64c-3.94-3.62-3.67-5.72-3.67-10.84v-47.1l-5.34-.82C236.78,247.83,236.28,247.57,235.74,247.37Z"/></svg>